<?xml version="1.0" encoding="UTF-8"?> <!-- Generator: Adobe Illustrator 24.1.1, SVG Export Plug-In . SVG Version: 6.00 Build 0) --> <svg xmlns="http://www.w3.org/2000/svg" xmlns:xlink="http://www.w3.org/1999/xlink" version="1.1" id="Layer_1" x="0px" y="0px" viewBox="0 0 628.6 395.6" style="enable-background:new 0 0 628.6 395.6;" xml:space="preserve"> <style type="text/css"> .st0{fill:none;stroke:#CCCCCC;stroke-linecap:round;stroke-miterlimit:10;} .st1{fill:none;stroke:#CCCCCC;stroke-linecap:round;stroke-miterlimit:10;stroke-dasharray:3.0115,3.0115;} .st2{fill:#B0BADA;} .st3{fill:#344A93;} .st4{fill:#7586BF;} .st5{fill:#293972;} .st6{fill:#4E63AC;} .st7{fill:#6175B5;} .st8{fill:#9DA9D1;} .st9{fill:#8997C8;} .st10{fill:#1D2952;} .st11{fill:#3A52A3;} .st12{fill:#233162;} .st13{fill:#2E4282;} .st14{fill:#FFFFFF;} .st15{fill:none;stroke:#CCCCCC;stroke-linecap:round;stroke-miterlimit:10;stroke-dasharray:3;} </style> <g> <g> <g> <line class="st0" x1="272.1" y1="39.2" x2="270.9" y2="38.2"></line> <polyline class="st1" points="268.5,36.4 238.5,13.1 145.5,13.1 "></polyline> <line class="st0" x1="144" y1="13.1" x2="142.5" y2="13.1"></line> </g> </g> <g> <path class="st2" d="M311.3,268.4v101.1c0,1.3-1.1,2.3-2.4,2.3c-27.1-0.8-52.5-8-74.9-20.1c-1.1-0.6-1.5-2.1-0.9-3.2l50.6-87.6 c0.6-1,1.9-1.5,3-0.9c6.9,3.3,14.5,5.4,22.5,6c0,0,0,0,0,0C310.4,266.2,311.3,267.2,311.3,268.4z"></path> <path class="st3" d="M311.3,36.3v101.1c0,1.2-0.9,2.2-2.1,2.3l0,0c-8.7,0.7-17,3.1-24.4,7h0l-51.6-89.4c-0.6-1.1-0.2-2.6,0.9-3.2 C256.5,41.9,281.9,34.8,309,34C310.3,33.9,311.3,35,311.3,36.3z"></path> <path class="st4" d="M483,208c-0.8,27.1-8,52.5-20.1,74.9c-0.6,1.1-2.1,1.5-3.2,0.9l-87.6-50.6c-1-0.6-1.5-1.9-0.9-3 c3.3-6.9,5.4-14.5,6-22.5c0,0,0,0,0,0c0.1-1.2,1.1-2.1,2.3-2.1h101.1C482,205.6,483,206.7,483,208z"></path> <path class="st5" d="M165.9,122.6c-12.8,23.8-19.4,49.5-20.1,74.9c0,1.3,1,2.4,2.3,2.4l101.1,0c1.2,0,2.2-0.9,2.3-2.1 c0.6-7.6,2.6-15.3,6-22.5c0,0,0,0,0,0c0.5-1.1,0.1-2.4-0.9-3l-87.5-50.5C168,121.1,166.6,121.5,165.9,122.6z"></path> <path class="st6" d="M457,117.2l-87.6,50.6c-1,0.6-2.4,0.3-3-0.7c-4.4-6.5-10.1-12.1-16.5-16.5c-1-0.7-1.3-2-0.7-3L399.8,60 c0.6-1.1,2.1-1.5,3.2-0.8c22.3,13.8,41.1,32.6,54.8,54.8C458.5,115.1,458.1,116.5,457,117.2z"></path> <path class="st7" d="M480.7,200.1H379.6c-1.2,0-2.2-0.9-2.3-2.1c0,0,0,0,0,0c-0.7-8.7-3.1-17-7-24.4v0l89.4-51.6 c1.1-0.6,2.6-0.2,3.2,0.9c12.1,22.4,19.2,47.9,20.1,74.9C483,199.1,482,200.1,480.7,200.1z"></path> <path class="st8" d="M394.1,351.8c-22.4,12.1-47.9,19.2-74.9,20.1c-1.3,0-2.4-1-2.4-2.3V268.4c0-1.2,0.9-2.2,2.1-2.3c0,0,0,0,0,0 c8-0.6,15.6-2.7,22.5-6c1.1-0.5,2.4-0.1,3,0.9l50.6,87.6C395.7,349.7,395.3,351.1,394.1,351.8z"></path> <path class="st9" d="M457.8,291.8C444,314,425.2,332.9,403,346.6c-1.1,0.7-2.6,0.3-3.2-0.8l-50.6-87.6c-0.6-1-0.3-2.4,0.7-3 c6.5-4.4,12.1-10,16.5-16.5c0.7-1,2-1.3,3-0.7l87.6,50.6C458.1,289.2,458.5,290.7,457.8,291.8z"></path> <path class="st10" d="M278.9,258.3l-50.6,87.6c-0.6,1.1-2.1,1.5-3.2,0.8c-22.3-13.8-41.1-32.6-54.8-54.8c-0.7-1.1-0.3-2.6,0.8-3.2 l87.6-50.6c1-0.6,2.4-0.3,3,0.7c4.4,6.5,10,12.1,16.5,16.5C279.3,255.9,279.5,257.2,278.9,258.3z"></path> <path class="st11" d="M395,57.2l-50.6,87.6c-0.6,1-1.9,1.5-3,0.9c-6.9-3.3-14.5-5.4-22.5-6l0,0c-1.2-0.1-2.1-1.1-2.1-2.3V36.3 c0-1.3,1.1-2.3,2.4-2.3c27.1,0.8,52.5,8,74.9,20.1C395.3,54.6,395.7,56.1,395,57.2z"></path> <path class="st12" d="M256,233.3l-87.6,50.6c-1.1,0.6-2.6,0.2-3.2-0.9c-12.1-22.4-19.2-47.9-20.1-74.9c0-1.3,1-2.4,2.3-2.4h101.1 c1.2,0,2.2,0.9,2.3,2.1c0,0,0,0,0,0c0.6,8,2.7,15.6,6,22.5C257.4,231.4,257,232.7,256,233.3z"></path> <path class="st13" d="M278.3,150.6c-6.5,4.4-12.1,10.1-16.5,16.5c-0.7,1-2,1.3-3,0.7l-87.6-50.6c-1.1-0.6-1.5-2.1-0.8-3.2 c13.8-22.3,32.6-41.1,54.8-54.8c1.1-0.7,2.6-0.3,3.2,0.8l50.6,87.6C279.5,148.6,279.3,149.9,278.3,150.6z"></path> </g> <circle class="st11" cx="314.1" cy="202.9" r="53.5"></circle> <g> <path class="st11" d="M144.1,9.1c-0.8-0.8-1.2-1.9-1.2-3.1c0-1.2,0.4-2.3,1.2-3.1c0.8-0.8,1.9-1.3,3.2-1.3c1.5,0,2.9,0.8,3.6,2 l-1,0.6c-0.5-0.9-1.5-1.5-2.7-1.5c-1,0-1.8,0.3-2.4,0.9C144.3,4.3,144,5.1,144,6c0,0.9,0.3,1.7,0.9,2.3s1.4,0.9,2.4,0.9 c1.2,0,2.2-0.6,2.7-1.5l1,0.6c-0.3,0.6-0.9,1.1-1.5,1.5c-0.6,0.4-1.4,0.6-2.1,0.6C146,10.4,144.9,9.9,144.1,9.1z"></path> <path class="st11" d="M153,2.9c0.8-0.9,1.9-1.3,3.1-1.3c1.2,0,2.2,0.4,3.1,1.3c0.9,0.8,1.3,1.9,1.3,3.1c0,1.2-0.4,2.2-1.3,3.1 c-0.8,0.9-1.9,1.3-3.1,1.3c-1.2,0-2.2-0.4-3.1-1.3c-0.8-0.9-1.3-1.9-1.3-3.1C151.7,4.8,152.2,3.8,153,2.9z M158.4,3.7 c-0.6-0.6-1.4-0.9-2.3-0.9c-0.9,0-1.7,0.3-2.3,0.9c-0.6,0.6-0.9,1.4-0.9,2.3c0,0.9,0.3,1.7,0.9,2.3c0.6,0.6,1.4,0.9,2.3,0.9 c0.9,0,1.7-0.3,2.3-0.9c0.6-0.6,0.9-1.4,0.9-2.3C159.3,5.1,159,4.3,158.4,3.7z"></path> <path class="st11" d="M169.6,1.8v8.4h-1.1V3.6l-2.7,4.6h-0.1l-2.7-4.6v6.5h-1.1V1.8h1.3l2.7,4.4l2.7-4.4H169.6z"></path> <path class="st11" d="M179.3,1.8v8.4h-1.1V3.6l-2.7,4.6h-0.1l-2.7-4.6v6.5h-1.1V1.8h1.3l2.7,4.4l2.7-4.4H179.3z"></path> <path class="st11" d="M181.1,1.8h1.1v8.4h-1.1V1.8z"></path> <path class="st11" d="M183.4,8.3l1-0.6c0.3,1,1.1,1.5,2.2,1.5c1.2,0,1.8-0.5,1.8-1.3c0-0.4-0.2-0.7-0.5-0.9 c-0.3-0.2-0.8-0.4-1.5-0.6l-0.8-0.3c-0.2-0.1-0.4-0.2-0.7-0.3c-0.3-0.1-0.5-0.3-0.6-0.4c-0.3-0.3-0.5-0.8-0.5-1.4 c0-0.7,0.3-1.3,0.8-1.7c0.5-0.4,1.1-0.6,1.9-0.6c1.3,0,2.4,0.7,2.8,1.8L188.3,4c-0.4-0.9-1-1.3-1.9-1.3c-0.9,0-1.5,0.5-1.5,1.2 c0,0.4,0.1,0.6,0.4,0.8c0.3,0.2,0.7,0.4,1.4,0.6l0.5,0.2c0.1,0,0.2,0.1,0.4,0.2c0.4,0.2,0.5,0.2,0.8,0.4c0.3,0.2,0.4,0.3,0.6,0.6 c0.3,0.3,0.4,0.7,0.4,1.3c0,0.7-0.3,1.3-0.8,1.8c-0.5,0.4-1.2,0.6-2.1,0.6C185,10.4,183.9,9.6,183.4,8.3z"></path> <path class="st11" d="M190.1,8.3l1-0.6c0.3,1,1.1,1.5,2.2,1.5c1.2,0,1.8-0.5,1.8-1.3c0-0.4-0.2-0.7-0.5-0.9 c-0.3-0.2-0.8-0.4-1.5-0.6l-0.8-0.3c-0.2-0.1-0.4-0.2-0.7-0.3c-0.3-0.1-0.5-0.3-0.6-0.4c-0.3-0.3-0.5-0.8-0.5-1.4 c0-0.7,0.3-1.3,0.8-1.7c0.5-0.4,1.1-0.6,1.9-0.6c1.3,0,2.4,0.7,2.8,1.8L195,4c-0.4-0.9-1-1.3-1.9-1.3c-0.9,0-1.5,0.5-1.5,1.2 c0,0.4,0.1,0.6,0.4,0.8c0.3,0.2,0.7,0.4,1.4,0.6l0.5,0.2c0.1,0,0.2,0.1,0.4,0.2c0.4,0.2,0.5,0.2,0.8,0.4c0.3,0.2,0.4,0.3,0.6,0.6 c0.3,0.3,0.4,0.7,0.4,1.3c0,0.7-0.3,1.3-0.8,1.8c-0.5,0.4-1.2,0.6-2.1,0.6C191.7,10.4,190.5,9.6,190.1,8.3z"></path> <path class="st11" d="M197.4,1.8h1.1v8.4h-1.1V1.8z"></path> <path class="st11" d="M201.1,2.9c0.8-0.9,1.9-1.3,3.1-1.3c1.2,0,2.2,0.4,3.1,1.3c0.9,0.8,1.3,1.9,1.3,3.1c0,1.2-0.4,2.2-1.3,3.1 c-0.8,0.9-1.9,1.3-3.1,1.3c-1.2,0-2.2-0.4-3.1-1.3c-0.8-0.9-1.3-1.9-1.3-3.1C199.9,4.8,200.3,3.8,201.1,2.9z M206.5,3.7 c-0.6-0.6-1.4-0.9-2.3-0.9c-0.9,0-1.7,0.3-2.3,0.9C201.3,4.3,201,5.1,201,6c0,0.9,0.3,1.7,0.9,2.3c0.6,0.6,1.4,0.9,2.3,0.9 c0.9,0,1.7-0.3,2.3-0.9c0.6-0.6,0.9-1.4,0.9-2.3C207.5,5.1,207.2,4.3,206.5,3.7z"></path> <path class="st11" d="M215.1,1.8h1.1v8.4h-0.9L211,3.9v6.3h-1.1V1.8h0.9l4.3,6.3V1.8z"></path> <path class="st11" d="M218.1,1.8h1.1v8.4h-1.1V1.8z"></path> <path class="st11" d="M226.2,1.8h1.1v8.4h-0.9l-4.3-6.3v6.3H221V1.8h0.9l4.3,6.3V1.8z"></path> <path class="st11" d="M237.2,6v0.5c0,1.1-0.4,2-1.1,2.7c-0.8,0.7-1.8,1.1-3,1.1c-1.3,0-2.3-0.4-3.2-1.3c-0.8-0.9-1.2-1.9-1.2-3.1 c0-1.2,0.4-2.2,1.2-3.1c0.8-0.9,1.9-1.3,3.2-1.3c0.8,0,1.5,0.2,2.1,0.6c0.6,0.4,1.2,0.9,1.5,1.5l-1,0.6c-0.5-0.9-1.5-1.5-2.7-1.5 c-1,0-1.8,0.3-2.4,0.9c-0.6,0.6-0.9,1.4-0.9,2.3c0,0.9,0.3,1.7,0.9,2.3c0.6,0.6,1.4,0.9,2.4,0.9c1.7,0,2.8-0.9,3-2.2H233V6H237.2z "></path> </g> <g> <path class="st11" d="M70.4,61.1h3.9v1.1h-5v-8.4h5v1.1h-3.8v2.6H74v1h-3.5V61.1z"></path> <path class="st11" d="M82.7,61l0.9,0.9l-0.8,0.7l-0.9-1c-0.7,0.5-1.5,0.7-2.4,0.7c-1.2,0-2.2-0.4-3.1-1.3 c-0.9-0.9-1.3-1.9-1.3-3.1c0-1.2,0.4-2.2,1.3-3.1c0.9-0.9,1.9-1.3,3.1-1.3c1.2,0,2.2,0.4,3.1,1.3c0.9,0.9,1.3,1.9,1.3,3.1 C83.9,59.2,83.5,60.1,82.7,61z M81.2,60.9l-1.7-1.7l0.8-0.7l1.7,1.7c0.6-0.6,0.8-1.3,0.8-2.2c0-0.9-0.3-1.7-0.9-2.3 c-0.6-0.6-1.4-0.9-2.3-0.9c-0.9,0-1.7,0.3-2.3,0.9c-0.6,0.6-0.9,1.4-0.9,2.3c0,0.9,0.3,1.7,0.9,2.3c0.6,0.6,1.4,0.9,2.3,0.9 C80.2,61.3,80.7,61.1,81.2,60.9z"></path> <path class="st11" d="M85.2,53.8h1.1v5.5c0,1.2,0.7,1.9,2,1.9c1.3,0,2-0.7,2-1.9v-5.5h1.1v5.6c0,0.9-0.3,1.6-0.9,2.2 c-0.6,0.5-1.3,0.8-2.3,0.8c-0.9,0-1.7-0.3-2.3-0.8c-0.6-0.5-0.9-1.3-0.9-2.2V53.8z"></path> <path class="st11" d="M93.2,53.8h1.1v8.4h-1.1V53.8z"></path> <path class="st11" d="M99.2,53.8c0.8,0,1.4,0.3,1.9,0.8s0.8,1.2,0.8,1.9c0,0.8-0.3,1.4-0.8,1.9s-1.2,0.8-1.9,0.8h-1.9v3h-1.1v-8.4 H99.2z M99.2,58.2c0.5,0,0.9-0.2,1.2-0.5c0.3-0.3,0.5-0.7,0.5-1.2c0-1-0.7-1.7-1.6-1.7h-1.9v3.3H99.2z"></path> <path class="st11" d="M111.1,53.8v8.4H110v-6.6l-2.7,4.6h-0.1l-2.7-4.6v6.5h-1.1v-8.4h1.3l2.7,4.4l2.7-4.4H111.1z"></path> <path class="st11" d="M114,61.1h3.9v1.1h-5v-8.4h5v1.1H114v2.6h3.5v1H114V61.1z"></path> <path class="st11" d="M124.5,53.8h1.1v8.4h-0.9l-4.3-6.3v6.3h-1.1v-8.4h0.9l4.3,6.3V53.8z"></path> <path class="st11" d="M132.8,53.8v1.1h-2.5v7.3h-1.1v-7.3h-2.5v-1.1H132.8z"></path> <path class="st11" d="M142.1,53.8h1.1v8.4h-1.1v-3.8H138v3.8h-1.1v-8.4h1.1v3.6h4.1V53.8z"></path> <path class="st11" d="M146.1,61.1h3.9v1.1h-5v-8.4h5v1.1h-3.8v2.6h3.5v1h-3.5V61.1z"></path> <path class="st11" d="M157,62.2l-0.7-1.9h-3.8l-0.7,1.9h-1.2l3.1-8.4h1.3l3.1,8.4H157z M152.9,59.3h3l-1.5-4.1L152.9,59.3z"></path> <path class="st11" d="M163.9,53.8v1.1h-2.5v7.3h-1.1v-7.3h-2.5v-1.1H163.9z"></path> <path class="st11" d="M170.2,53.8h1.1v8.4h-1.1v-3.8h-4.1v3.8H165v-8.4h1.1v3.6h4.1V53.8z"></path> <path class="st11" d="M77.2,68.2v8.4h-1.1V70l-2.7,4.6h-0.1l-2.7-4.6v6.5h-1.1v-8.4h1.3l2.7,4.4l2.7-4.4H77.2z"></path> <path class="st11" d="M84.5,76.6l-0.7-1.9H80l-0.7,1.9h-1.2l3.1-8.4h1.3l3.1,8.4H84.5z M80.4,73.7h3l-1.5-4.1L80.4,73.7z"></path> <path class="st11" d="M91.9,68.2H93v8.4h-0.9l-4.3-6.3v6.3h-1.1v-8.4h0.9l4.3,6.3V68.2z"></path> <path class="st11" d="M100.4,76.6l-0.7-1.9h-3.8l-0.7,1.9H94l3.1-8.4h1.3l3.1,8.4H100.4z M96.3,73.7h3l-1.5-4.1L96.3,73.7z"></path> <path class="st11" d="M110.6,72.4v0.5c0,1.1-0.4,2-1.1,2.7c-0.8,0.7-1.8,1.1-3,1.1c-1.3,0-2.3-0.4-3.2-1.3 c-0.8-0.9-1.2-1.9-1.2-3.1c0-1.2,0.4-2.2,1.2-3.1c0.8-0.9,1.9-1.3,3.2-1.3c0.8,0,1.5,0.2,2.1,0.6s1.2,0.9,1.5,1.5l-1,0.6 c-0.5-0.9-1.5-1.5-2.7-1.5c-1,0-1.8,0.3-2.4,0.9c-0.6,0.6-0.9,1.4-0.9,2.3c0,0.9,0.3,1.7,0.9,2.3c0.6,0.6,1.4,0.9,2.4,0.9 c1.7,0,2.8-0.9,3-2.2h-3.1v-1H110.6z"></path> <path class="st11" d="M113.1,75.5h3.9v1.1h-5v-8.4h5v1.1h-3.8v2.6h3.5v1h-3.5V75.5z"></path> <path class="st11" d="M126.2,68.2v8.4h-1.1V70l-2.7,4.6h-0.1l-2.7-4.6v6.5h-1.1v-8.4h1.3l2.7,4.4l2.7-4.4H126.2z"></path> <path class="st11" d="M129.1,75.5h3.9v1.1h-5v-8.4h5v1.1h-3.8v2.6h3.5v1h-3.5V75.5z"></path> <path class="st11" d="M139.6,68.2h1.1v8.4h-0.9l-4.3-6.3v6.3h-1.1v-8.4h0.9l4.3,6.3V68.2z"></path> <path class="st11" d="M147.9,68.2v1.1h-2.5v7.3h-1.1v-7.3h-2.5v-1.1H147.9z"></path> </g> <g> <path class="st11" d="M25.2,142.9h-3.7v2.7H25v1.1h-3.6v3.6h-1.1v-8.4h4.8V142.9z"></path> <path class="st11" d="M27.6,149.1h3.6v1.1h-4.7v-8.4h1.1V149.1z"></path> <path class="st11" d="M33.5,149.1h3.9v1.1h-5v-8.4h5v1.1h-3.8v2.6H37v1h-3.5V149.1z"></path> <path class="st11" d="M39.8,149.1h3.9v1.1h-5v-8.4h5v1.1h-3.8v2.6h3.5v1h-3.5V149.1z"></path> <path class="st11" d="M50.5,141.8v1.1H48v7.3h-1.1v-7.3h-2.5v-1.1H50.5z"></path> <path class="st11" d="M60.1,150.2l-0.7-1.9h-3.8l-0.7,1.9h-1.2l3.1-8.4h1.3l3.1,8.4H60.1z M56,147.3h3l-1.5-4.1L56,147.3z"></path> <path class="st11" d="M61.6,148.3l1-0.6c0.3,1,1.1,1.5,2.2,1.5c1.2,0,1.8-0.5,1.8-1.3c0-0.4-0.2-0.7-0.5-0.9 c-0.3-0.2-0.8-0.4-1.5-0.6l-0.8-0.3c-0.2-0.1-0.4-0.2-0.7-0.3c-0.3-0.1-0.5-0.3-0.6-0.4c-0.3-0.3-0.5-0.8-0.5-1.4 c0-0.7,0.3-1.3,0.8-1.7c0.5-0.4,1.1-0.6,1.9-0.6c1.3,0,2.4,0.7,2.8,1.8l-0.9,0.5c-0.4-0.9-1-1.3-1.9-1.3c-0.9,0-1.5,0.5-1.5,1.2 c0,0.4,0.1,0.6,0.4,0.8c0.3,0.2,0.7,0.4,1.4,0.6l0.5,0.2c0.1,0,0.2,0.1,0.4,0.2c0.4,0.2,0.5,0.2,0.8,0.4c0.3,0.2,0.4,0.3,0.6,0.6 c0.3,0.3,0.4,0.7,0.4,1.3c0,0.7-0.3,1.3-0.8,1.8c-0.5,0.4-1.2,0.6-2.1,0.6C63.2,150.4,62,149.6,61.6,148.3z"></path> <path class="st11" d="M68.2,148.3l1-0.6c0.3,1,1.1,1.5,2.2,1.5c1.2,0,1.8-0.5,1.8-1.3c0-0.4-0.2-0.7-0.5-0.9 c-0.3-0.2-0.8-0.4-1.5-0.6l-0.8-0.3c-0.2-0.1-0.4-0.2-0.7-0.3c-0.3-0.1-0.5-0.3-0.6-0.4c-0.3-0.3-0.5-0.8-0.5-1.4 c0-0.7,0.3-1.3,0.8-1.7c0.5-0.4,1.1-0.6,1.9-0.6c1.3,0,2.4,0.7,2.8,1.8l-0.9,0.5c-0.4-0.9-1-1.3-1.9-1.3c-0.9,0-1.5,0.5-1.5,1.2 c0,0.4,0.1,0.6,0.4,0.8c0.3,0.2,0.7,0.4,1.4,0.6l0.5,0.2c0.1,0,0.2,0.1,0.4,0.2c0.4,0.2,0.5,0.2,0.8,0.4c0.3,0.2,0.4,0.3,0.6,0.6 c0.3,0.3,0.4,0.7,0.4,1.3c0,0.7-0.3,1.3-0.8,1.8c-0.5,0.4-1.2,0.6-2.1,0.6C69.8,150.4,68.7,149.6,68.2,148.3z"></path> <path class="st11" d="M76.7,149.1h3.9v1.1h-5v-8.4h5v1.1h-3.8v2.6h3.5v1h-3.5V149.1z"></path> <path class="st11" d="M81.5,148.3l1-0.6c0.3,1,1.1,1.5,2.2,1.5c1.2,0,1.8-0.5,1.8-1.3c0-0.4-0.2-0.7-0.5-0.9 c-0.3-0.2-0.8-0.4-1.5-0.6l-0.8-0.3c-0.2-0.1-0.4-0.2-0.7-0.3c-0.3-0.1-0.5-0.3-0.6-0.4c-0.3-0.3-0.5-0.8-0.5-1.4 c0-0.7,0.3-1.3,0.8-1.7c0.5-0.4,1.1-0.6,1.9-0.6c1.3,0,2.4,0.7,2.8,1.8l-0.9,0.5c-0.4-0.9-1-1.3-1.9-1.3c-0.9,0-1.5,0.5-1.5,1.2 c0,0.4,0.1,0.6,0.4,0.8c0.3,0.2,0.7,0.4,1.4,0.6l0.5,0.2c0.1,0,0.2,0.1,0.4,0.2c0.4,0.2,0.5,0.2,0.8,0.4c0.3,0.2,0.4,0.3,0.6,0.6 c0.3,0.3,0.4,0.7,0.4,1.3c0,0.7-0.3,1.3-0.8,1.8c-0.5,0.4-1.2,0.6-2.1,0.6C83.1,150.4,81.9,149.6,81.5,148.3z"></path> <path class="st11" d="M88.1,148.3l1-0.6c0.3,1,1.1,1.5,2.2,1.5c1.2,0,1.8-0.5,1.8-1.3c0-0.4-0.2-0.7-0.5-0.9 c-0.3-0.2-0.8-0.4-1.5-0.6l-0.8-0.3c-0.2-0.1-0.4-0.2-0.7-0.3c-0.3-0.1-0.5-0.3-0.6-0.4c-0.3-0.3-0.5-0.8-0.5-1.4 c0-0.7,0.3-1.3,0.8-1.7c0.5-0.4,1.1-0.6,1.9-0.6c1.3,0,2.4,0.7,2.8,1.8L93,144c-0.4-0.9-1-1.3-1.9-1.3c-0.9,0-1.5,0.5-1.5,1.2 c0,0.4,0.1,0.6,0.4,0.8c0.3,0.2,0.7,0.4,1.4,0.6l0.5,0.2c0.1,0,0.2,0.1,0.4,0.2c0.4,0.2,0.5,0.2,0.8,0.4c0.3,0.2,0.4,0.3,0.6,0.6 c0.3,0.3,0.4,0.7,0.4,1.3c0,0.7-0.3,1.3-0.8,1.8c-0.5,0.4-1.2,0.6-2.1,0.6C89.7,150.4,88.6,149.6,88.1,148.3z"></path> <path class="st11" d="M103.3,141.8v8.4h-1.1v-6.6l-2.7,4.6h-0.1l-2.7-4.6v6.5h-1.1v-8.4h1.3l2.7,4.4l2.7-4.4H103.3z"></path> <path class="st11" d="M106.2,149.1h3.9v1.1h-5v-8.4h5v1.1h-3.8v2.6h3.5v1h-3.5V149.1z"></path> <path class="st11" d="M116.7,141.8h1.1v8.4h-0.9l-4.3-6.3v6.3h-1.1v-8.4h0.9l4.3,6.3V141.8z"></path> <path class="st11" d="M125,141.8v1.1h-2.5v7.3h-1.1v-7.3h-2.5v-1.1H125z"></path> <path class="st11" d="M19.9,162.7l1-0.6c0.3,1,1.1,1.5,2.2,1.5c1.2,0,1.8-0.5,1.8-1.3c0-0.4-0.2-0.7-0.5-0.9s-0.8-0.4-1.5-0.6 l-0.8-0.3c-0.2-0.1-0.4-0.2-0.7-0.3c-0.3-0.1-0.5-0.3-0.6-0.4c-0.3-0.3-0.5-0.8-0.5-1.4c0-0.7,0.3-1.3,0.8-1.7 c0.5-0.4,1.1-0.6,1.9-0.6c1.3,0,2.4,0.7,2.8,1.8l-0.9,0.5c-0.4-0.9-1-1.3-1.9-1.3c-0.9,0-1.5,0.5-1.5,1.2c0,0.4,0.1,0.6,0.4,0.8 c0.3,0.2,0.7,0.4,1.4,0.6l0.5,0.2c0.1,0,0.2,0.1,0.4,0.2c0.4,0.2,0.5,0.2,0.8,0.4c0.3,0.2,0.4,0.3,0.6,0.6 c0.3,0.3,0.4,0.7,0.4,1.3c0,0.7-0.3,1.3-0.8,1.8c-0.5,0.4-1.2,0.6-2.1,0.6C21.5,164.8,20.3,164,19.9,162.7z"></path> <path class="st11" d="M28.3,163.5h3.9v1.1h-5v-8.4h5v1.1h-3.8v2.6h3.5v1h-3.5V163.5z"></path> <path class="st11" d="M38.5,164.6l-1.9-3.2h-2v3.2h-1.1v-8.4h3.4c0.7,0,1.3,0.3,1.8,0.8c0.5,0.5,0.8,1.1,0.8,1.8 c0,0.5-0.2,1-0.5,1.5c-0.3,0.4-0.7,0.8-1.2,0.9l2,3.4H38.5z M34.7,157.2v3.1h2.2c0.4,0,0.8-0.2,1.1-0.5c0.3-0.3,0.4-0.7,0.4-1.1 c0-0.4-0.1-0.8-0.4-1.1c-0.3-0.3-0.6-0.5-1.1-0.5H34.7z"></path> <path class="st11" d="M43,164.6l-3-8.4h1.2l2.4,7l2.4-7h1.2l-3,8.4H43z"></path> <path class="st11" d="M48.2,156.2h1.1v8.4h-1.1V156.2z"></path> <path class="st11" d="M51.9,163.5c-0.8-0.8-1.2-1.9-1.2-3.1s0.4-2.3,1.2-3.1c0.8-0.8,1.9-1.3,3.2-1.3c1.5,0,2.9,0.8,3.6,2l-1,0.6 c-0.5-0.9-1.5-1.5-2.7-1.5c-1,0-1.8,0.3-2.4,0.9s-0.9,1.4-0.9,2.3c0,0.9,0.3,1.7,0.9,2.3c0.6,0.6,1.4,0.9,2.4,0.9 c1.2,0,2.2-0.6,2.7-1.5l1,0.6c-0.3,0.6-0.9,1.1-1.5,1.5c-0.6,0.4-1.4,0.6-2.1,0.6C53.8,164.8,52.7,164.3,51.9,163.5z"></path> <path class="st11" d="M61.1,163.5H65v1.1h-5v-8.4h5v1.1h-3.8v2.6h3.5v1h-3.5V163.5z"></path> <path class="st11" d="M65.8,162.7l1-0.6c0.3,1,1.1,1.5,2.2,1.5c1.2,0,1.8-0.5,1.8-1.3c0-0.4-0.2-0.7-0.5-0.9s-0.8-0.4-1.5-0.6 l-0.8-0.3c-0.2-0.1-0.4-0.2-0.7-0.3c-0.3-0.1-0.5-0.3-0.6-0.4c-0.3-0.3-0.5-0.8-0.5-1.4c0-0.7,0.3-1.3,0.8-1.7 c0.5-0.4,1.1-0.6,1.9-0.6c1.3,0,2.4,0.7,2.8,1.8l-0.9,0.5c-0.4-0.9-1-1.3-1.9-1.3c-0.9,0-1.5,0.5-1.5,1.2c0,0.4,0.1,0.6,0.4,0.8 c0.3,0.2,0.7,0.4,1.4,0.6l0.5,0.2c0.1,0,0.2,0.1,0.4,0.2c0.4,0.2,0.5,0.2,0.8,0.4c0.3,0.2,0.4,0.3,0.6,0.6 c0.3,0.3,0.4,0.7,0.4,1.3c0,0.7-0.3,1.3-0.8,1.8c-0.5,0.4-1.2,0.6-2.1,0.6C67.5,164.8,66.3,164,65.8,162.7z"></path> </g> <g> <path class="st11" d="M6.8,247.2l-0.7-1.9H2.4l-0.7,1.9H0.5l3.1-8.4h1.3l3.1,8.4H6.8z M2.8,244.3h3l-1.5-4.1L2.8,244.3z"></path> <path class="st11" d="M8.3,245.3l1-0.6c0.3,1,1.1,1.5,2.2,1.5c1.2,0,1.8-0.5,1.8-1.3c0-0.4-0.2-0.7-0.5-0.9 c-0.3-0.2-0.8-0.4-1.5-0.6l-0.8-0.3c-0.2-0.1-0.4-0.2-0.7-0.3c-0.3-0.1-0.5-0.3-0.6-0.4c-0.3-0.3-0.5-0.8-0.5-1.4 c0-0.7,0.3-1.3,0.8-1.7c0.5-0.4,1.1-0.6,1.9-0.6c1.3,0,2.4,0.7,2.8,1.8l-0.9,0.5c-0.4-0.9-1-1.3-1.9-1.3c-0.9,0-1.5,0.5-1.5,1.2 c0,0.4,0.1,0.6,0.4,0.8c0.3,0.2,0.7,0.4,1.4,0.6l0.5,0.2c0.1,0,0.2,0.1,0.4,0.2c0.4,0.2,0.5,0.2,0.8,0.4c0.3,0.2,0.4,0.3,0.6,0.6 c0.3,0.3,0.4,0.7,0.4,1.3c0,0.7-0.3,1.3-0.8,1.8c-0.5,0.4-1.2,0.6-2.1,0.6C9.9,247.4,8.8,246.6,8.3,245.3z"></path> <path class="st11" d="M15,245.3l1-0.6c0.3,1,1.1,1.5,2.2,1.5c1.2,0,1.8-0.5,1.8-1.3c0-0.4-0.2-0.7-0.5-0.9 c-0.3-0.2-0.8-0.4-1.5-0.6l-0.8-0.3c-0.2-0.1-0.4-0.2-0.7-0.3c-0.3-0.1-0.5-0.3-0.6-0.4c-0.3-0.3-0.5-0.8-0.5-1.4 c0-0.7,0.3-1.3,0.8-1.7c0.5-0.4,1.1-0.6,1.9-0.6c1.3,0,2.4,0.7,2.8,1.8l-0.9,0.5c-0.4-0.9-1-1.3-1.9-1.3c-0.9,0-1.5,0.5-1.5,1.2 c0,0.4,0.1,0.6,0.4,0.8c0.3,0.2,0.7,0.4,1.4,0.6l0.5,0.2c0.1,0,0.2,0.1,0.4,0.2c0.4,0.2,0.5,0.2,0.8,0.4c0.3,0.2,0.4,0.3,0.6,0.6 c0.3,0.3,0.4,0.7,0.4,1.3c0,0.7-0.3,1.3-0.8,1.8c-0.5,0.4-1.2,0.6-2.1,0.6C16.6,247.4,15.4,246.6,15,245.3z"></path> <path class="st11" d="M23.4,246.1h3.9v1.1h-5v-8.4h5v1.1h-3.8v2.6H27v1h-3.5V246.1z"></path> <path class="st11" d="M34.1,238.8v1.1h-2.5v7.3h-1.1v-7.3H28v-1.1H34.1z"></path> <path class="st11" d="M39,239.9c0.8-0.9,1.9-1.3,3.1-1.3c1.2,0,2.2,0.4,3.1,1.3c0.9,0.8,1.3,1.9,1.3,3.1c0,1.2-0.4,2.2-1.3,3.1 c-0.8,0.9-1.9,1.3-3.1,1.3c-1.2,0-2.2-0.4-3.1-1.3c-0.8-0.9-1.3-1.9-1.3-3.1C37.7,241.8,38.1,240.8,39,239.9z M44.4,240.7 c-0.6-0.6-1.4-0.9-2.3-0.9c-0.9,0-1.7,0.3-2.3,0.9c-0.6,0.6-0.9,1.4-0.9,2.3c0,0.9,0.3,1.7,0.9,2.3c0.6,0.6,1.4,0.9,2.3,0.9 c0.9,0,1.7-0.3,2.3-0.9c0.6-0.6,0.9-1.4,0.9-2.3C45.3,242.1,45,241.3,44.4,240.7z"></path> <path class="st11" d="M50.8,238.8c0.8,0,1.4,0.3,1.9,0.8s0.8,1.2,0.8,1.9c0,0.8-0.3,1.4-0.8,1.9s-1.2,0.8-1.9,0.8h-1.9v3h-1.1 v-8.4H50.8z M50.8,243.2c0.5,0,0.9-0.2,1.2-0.5c0.3-0.3,0.5-0.7,0.5-1.2c0-1-0.7-1.7-1.6-1.7h-1.9v3.3H50.8z"></path> <path class="st11" d="M60,238.8v1.1h-2.5v7.3h-1.1v-7.3H54v-1.1H60z"></path> <path class="st11" d="M61.1,238.8h1.1v8.4h-1.1V238.8z"></path> <path class="st11" d="M71.9,238.8v8.4h-1.1v-6.6l-2.7,4.6h-0.1l-2.7-4.6v6.5H64v-8.4h1.3l2.7,4.4l2.7-4.4H71.9z"></path> <path class="st11" d="M73.7,238.8h1.1v8.4h-1.1V238.8z"></path> <path class="st11" d="M77.5,246.1h4.2v1.1h-5.5v-1l4.1-6.4h-3.9v-1.1h5.3v1L77.5,246.1z"></path> <path class="st11" d="M88.4,247.2l-0.7-1.9H84l-0.7,1.9h-1.2l3.1-8.4h1.3l3.1,8.4H88.4z M84.4,244.3h3l-1.5-4.1L84.4,244.3z"></path> <path class="st11" d="M95.4,238.8v1.1h-2.5v7.3h-1.1v-7.3h-2.5v-1.1H95.4z"></path> <path class="st11" d="M96.5,238.8h1.1v8.4h-1.1V238.8z"></path> <path class="st11" d="M100.2,239.9c0.8-0.9,1.9-1.3,3.1-1.3c1.2,0,2.2,0.4,3.1,1.3c0.9,0.8,1.3,1.9,1.3,3.1c0,1.2-0.4,2.2-1.3,3.1 c-0.8,0.9-1.9,1.3-3.1,1.3c-1.2,0-2.2-0.4-3.1-1.3c-0.8-0.9-1.3-1.9-1.3-3.1C99,241.8,99.4,240.8,100.2,239.9z M105.6,240.7 c-0.6-0.6-1.4-0.9-2.3-0.9c-0.9,0-1.7,0.3-2.3,0.9c-0.6,0.6-0.9,1.4-0.9,2.3c0,0.9,0.3,1.7,0.9,2.3c0.6,0.6,1.4,0.9,2.3,0.9 c0.9,0,1.7-0.3,2.3-0.9c0.6-0.6,0.9-1.4,0.9-2.3C106.6,242.1,106.2,241.3,105.6,240.7z"></path> <path class="st11" d="M114.2,238.8h1.1v8.4h-0.9l-4.3-6.3v6.3H109v-8.4h0.9l4.3,6.3V238.8z"></path> </g> <g> <path class="st11" d="M9.4,315.8c0.8,0,1.4,0.3,1.9,0.8s0.8,1.2,0.8,1.9c0,0.8-0.3,1.4-0.8,1.9s-1.2,0.8-1.9,0.8H7.4v3H6.3v-8.4 H9.4z M9.4,320.2c0.5,0,0.9-0.2,1.2-0.5c0.3-0.3,0.5-0.7,0.5-1.2c0-1-0.7-1.7-1.6-1.7H7.4v3.3H9.4z"></path> <path class="st11" d="M18.1,324.2l-0.7-1.9h-3.8l-0.7,1.9h-1.2l3.1-8.4h1.3l3.1,8.4H18.1z M14,321.3h3l-1.5-4.1L14,321.3z"></path> <path class="st11" d="M20.8,323.1c-0.8-0.8-1.2-1.9-1.2-3.1c0-1.2,0.4-2.3,1.2-3.1c0.8-0.8,1.9-1.3,3.2-1.3c1.5,0,2.9,0.8,3.6,2 l-1,0.6c-0.5-0.9-1.5-1.5-2.7-1.5c-1,0-1.8,0.3-2.4,0.9c-0.6,0.6-0.9,1.4-0.9,2.3c0,0.9,0.3,1.7,0.9,2.3s1.4,0.9,2.4,0.9 c1.2,0,2.2-0.6,2.7-1.5l1,0.6c-0.3,0.6-0.9,1.1-1.5,1.5c-0.6,0.4-1.4,0.6-2.1,0.6C22.6,324.4,21.6,323.9,20.8,323.1z"></path> <path class="st11" d="M34.9,324.2h-1.4l-3.6-4v4h-1.1v-8.4h1.1v3.8l3.5-3.8h1.4l-3.7,4.1L34.9,324.2z"></path> <path class="st11" d="M41.6,324.2l-0.7-1.9h-3.8l-0.7,1.9h-1.2l3.1-8.4h1.3l3.1,8.4H41.6z M37.5,321.3h3l-1.5-4.1L37.5,321.3z"></path> <path class="st11" d="M51.9,320v0.5c0,1.1-0.4,2-1.1,2.7c-0.8,0.7-1.8,1.1-3,1.1c-1.3,0-2.3-0.4-3.2-1.3c-0.8-0.9-1.2-1.9-1.2-3.1 c0-1.2,0.4-2.2,1.2-3.1c0.8-0.9,1.9-1.3,3.2-1.3c0.8,0,1.5,0.2,2.1,0.6c0.6,0.4,1.2,0.9,1.5,1.5l-1,0.6c-0.5-0.9-1.5-1.5-2.7-1.5 c-1,0-1.8,0.3-2.4,0.9c-0.6,0.6-0.9,1.4-0.9,2.3c0,0.9,0.3,1.7,0.9,2.3c0.6,0.6,1.4,0.9,2.4,0.9c1.7,0,2.8-0.9,3-2.2h-3.1v-1H51.9 z"></path> <path class="st11" d="M54.3,323.1h3.9v1.1h-5v-8.4h5v1.1h-3.8v2.6h3.5v1h-3.5V323.1z"></path> <path class="st11" d="M67.6,324.2l-1.9-3.2h-2v3.2h-1.1v-8.4h3.4c0.7,0,1.3,0.3,1.8,0.8c0.5,0.5,0.8,1.1,0.8,1.8 c0,0.5-0.2,1-0.5,1.5c-0.3,0.4-0.7,0.8-1.2,0.9l2,3.4H67.6z M63.7,316.8v3.1h2.2c0.4,0,0.8-0.2,1.1-0.5c0.3-0.3,0.4-0.7,0.4-1.1 s-0.1-0.8-0.4-1.1c-0.3-0.3-0.6-0.5-1.1-0.5H63.7z"></path> <path class="st11" d="M71,323.1h3.9v1.1h-5v-8.4h5v1.1H71v2.6h3.5v1H71V323.1z"></path> <path class="st11" d="M81.1,316.9h-3.7v2.7H81v1.1h-3.6v3.6h-1.1v-8.4h4.8V316.9z"></path> <path class="st11" d="M82.4,315.8h1.1v5.5c0,1.2,0.7,1.9,2,1.9c1.3,0,2-0.7,2-1.9v-5.5h1.1v5.6c0,0.9-0.3,1.6-0.9,2.2 c-0.6,0.5-1.3,0.8-2.3,0.8c-0.9,0-1.7-0.3-2.3-0.8c-0.6-0.5-0.9-1.3-0.9-2.2V315.8z"></path> <path class="st11" d="M95.3,324.2l-1.9-3.2h-2v3.2h-1.1v-8.4h3.4c0.7,0,1.3,0.3,1.8,0.8c0.5,0.5,0.8,1.1,0.8,1.8 c0,0.5-0.2,1-0.5,1.5c-0.3,0.4-0.7,0.8-1.2,0.9l2,3.4H95.3z M91.5,316.8v3.1h2.2c0.4,0,0.8-0.2,1.1-0.5c0.3-0.3,0.4-0.7,0.4-1.1 s-0.1-0.8-0.4-1.1c-0.3-0.3-0.6-0.5-1.1-0.5H91.5z"></path> <path class="st11" d="M103.8,321.8c0,0.7-0.2,1.2-0.7,1.7c-0.5,0.5-1,0.7-1.7,0.7h-3.6v-8.4h3.4c0.7,0,1.2,0.2,1.7,0.7 c0.5,0.4,0.7,1,0.7,1.6c0,0.7-0.3,1.3-0.9,1.8C103.3,320.2,103.8,320.9,103.8,321.8z M98.8,316.8v2.6h2.2c0.7,0,1.2-0.6,1.2-1.3 c0-0.3-0.1-0.6-0.4-0.9c-0.2-0.3-0.5-0.4-0.9-0.4H98.8z M101.3,323.2c0.8,0,1.3-0.6,1.3-1.4c0-0.4-0.1-0.7-0.4-1 c-0.3-0.3-0.6-0.4-0.9-0.4h-2.5v2.7H101.3z"></path> <path class="st11" d="M105.1,315.8h1.1v8.4h-1.1V315.8z"></path> <path class="st11" d="M107.4,322.3l1-0.6c0.3,1,1.1,1.5,2.2,1.5c1.2,0,1.8-0.5,1.8-1.3c0-0.4-0.2-0.7-0.5-0.9 c-0.3-0.2-0.8-0.4-1.5-0.6l-0.8-0.3c-0.2-0.1-0.4-0.2-0.7-0.3c-0.3-0.1-0.5-0.3-0.6-0.4c-0.3-0.3-0.5-0.8-0.5-1.4 c0-0.7,0.3-1.3,0.8-1.7c0.5-0.4,1.1-0.6,1.9-0.6c1.3,0,2.4,0.7,2.8,1.8l-0.9,0.5c-0.4-0.9-1-1.3-1.9-1.3c-0.9,0-1.5,0.5-1.5,1.2 c0,0.4,0.1,0.6,0.4,0.8c0.3,0.2,0.7,0.4,1.4,0.6l0.5,0.2c0.1,0,0.2,0.1,0.4,0.2c0.4,0.2,0.5,0.2,0.8,0.4c0.3,0.2,0.4,0.3,0.6,0.6 c0.3,0.3,0.4,0.7,0.4,1.3c0,0.7-0.3,1.3-0.8,1.8c-0.5,0.4-1.2,0.6-2.1,0.6C109,324.4,107.8,323.6,107.4,322.3z"></path> <path class="st11" d="M119.9,315.8h1.1v8.4h-1.1v-3.8h-4.1v3.8h-1.1v-8.4h1.1v3.6h4.1V315.8z"></path> <path class="st11" d="M130.7,315.8v8.4h-1.1v-6.6l-2.7,4.6h-0.1l-2.7-4.6v6.5h-1.1v-8.4h1.3l2.7,4.4l2.7-4.4H130.7z"></path> <path class="st11" d="M133.6,323.1h3.9v1.1h-5v-8.4h5v1.1h-3.8v2.6h3.5v1h-3.5V323.1z"></path> <path class="st11" d="M144.1,315.8h1.1v8.4h-0.9l-4.3-6.3v6.3h-1.1v-8.4h0.9l4.3,6.3V315.8z"></path> <path class="st11" d="M152.4,315.8v1.1h-2.5v7.3h-1.1v-7.3h-2.5v-1.1H152.4z"></path> </g> <g> <path class="st11" d="M76.1,390.1c-0.8-0.8-1.2-1.9-1.2-3.1c0-1.2,0.4-2.3,1.2-3.1c0.8-0.8,1.9-1.3,3.2-1.3c1.5,0,2.9,0.8,3.6,2 l-1,0.6c-0.5-0.9-1.5-1.5-2.7-1.5c-1,0-1.8,0.3-2.4,0.9c-0.6,0.6-0.9,1.4-0.9,2.3c0,0.9,0.3,1.7,0.9,2.3s1.4,0.9,2.4,0.9 c1.2,0,2.2-0.6,2.7-1.5l1,0.6c-0.3,0.6-0.9,1.1-1.5,1.5c-0.6,0.4-1.4,0.6-2.1,0.6C78,391.4,76.9,390.9,76.1,390.1z"></path> <path class="st11" d="M85,383.9c0.8-0.9,1.9-1.3,3.1-1.3c1.2,0,2.2,0.4,3.1,1.3c0.9,0.8,1.3,1.9,1.3,3.1c0,1.2-0.4,2.2-1.3,3.1 c-0.8,0.9-1.9,1.3-3.1,1.3c-1.2,0-2.2-0.4-3.1-1.3c-0.8-0.9-1.3-1.9-1.3-3.1C83.7,385.8,84.2,384.8,85,383.9z M90.4,384.7 c-0.6-0.6-1.4-0.9-2.3-0.9c-0.9,0-1.7,0.3-2.3,0.9c-0.6,0.6-0.9,1.4-0.9,2.3c0,0.9,0.3,1.7,0.9,2.3c0.6,0.6,1.4,0.9,2.3,0.9 c0.9,0,1.7-0.3,2.3-0.9c0.6-0.6,0.9-1.4,0.9-2.3C91.3,386.1,91,385.3,90.4,384.7z"></path> <path class="st11" d="M99,382.8h1.1v8.4h-0.9l-4.3-6.3v6.3h-1.1v-8.4h0.9l4.3,6.3V382.8z"></path> <path class="st11" d="M107.3,382.8v1.1h-2.5v7.3h-1.1v-7.3h-2.5v-1.1H107.3z"></path> <path class="st11" d="M113.4,391.2l-1.9-3.2h-2v3.2h-1.1v-8.4h3.4c0.7,0,1.3,0.3,1.8,0.8c0.5,0.5,0.8,1.1,0.8,1.8 c0,0.5-0.2,1-0.5,1.5c-0.3,0.4-0.7,0.8-1.2,0.9l2,3.4H113.4z M109.5,383.8v3.1h2.2c0.4,0,0.8-0.2,1.1-0.5c0.3-0.3,0.4-0.7,0.4-1.1 s-0.1-0.8-0.4-1.1c-0.3-0.3-0.6-0.5-1.1-0.5H109.5z"></path> <path class="st11" d="M116.6,383.9c0.8-0.9,1.9-1.3,3.1-1.3c1.2,0,2.2,0.4,3.1,1.3c0.9,0.8,1.3,1.9,1.3,3.1c0,1.2-0.4,2.2-1.3,3.1 c-0.8,0.9-1.9,1.3-3.1,1.3c-1.2,0-2.2-0.4-3.1-1.3c-0.8-0.9-1.3-1.9-1.3-3.1C115.3,385.8,115.7,384.8,116.6,383.9z M121.9,384.7 c-0.6-0.6-1.4-0.9-2.3-0.9c-0.9,0-1.7,0.3-2.3,0.9c-0.6,0.6-0.9,1.4-0.9,2.3c0,0.9,0.3,1.7,0.9,2.3c0.6,0.6,1.4,0.9,2.3,0.9 c0.9,0,1.7-0.3,2.3-0.9c0.6-0.6,0.9-1.4,0.9-2.3C122.9,386.1,122.6,385.3,121.9,384.7z"></path> <path class="st11" d="M126.5,390.1h3.6v1.1h-4.7v-8.4h1.1V390.1z"></path> <path class="st11" d="M133.7,389.3l1-0.6c0.3,1,1.1,1.5,2.2,1.5c1.2,0,1.8-0.5,1.8-1.3c0-0.4-0.2-0.7-0.5-0.9 c-0.3-0.2-0.8-0.4-1.5-0.6l-0.8-0.3c-0.2-0.1-0.4-0.2-0.7-0.3c-0.3-0.1-0.5-0.3-0.6-0.4c-0.3-0.3-0.5-0.8-0.5-1.4 c0-0.7,0.3-1.3,0.8-1.7c0.5-0.4,1.1-0.6,1.9-0.6c1.3,0,2.4,0.7,2.8,1.8l-0.9,0.5c-0.4-0.9-1-1.3-1.9-1.3c-0.9,0-1.5,0.5-1.5,1.2 c0,0.4,0.1,0.6,0.4,0.8c0.3,0.2,0.7,0.4,1.4,0.6l0.5,0.2c0.1,0,0.2,0.1,0.4,0.2c0.4,0.2,0.5,0.2,0.8,0.4c0.3,0.2,0.4,0.3,0.6,0.6 c0.3,0.3,0.4,0.7,0.4,1.3c0,0.7-0.3,1.3-0.8,1.8c-0.5,0.4-1.2,0.6-2.1,0.6C135.3,391.4,134.2,390.6,133.7,389.3z"></path> <path class="st11" d="M147,382.8l-3,5v3.4h-1.1v-3.4l-3-5h1.2l2.3,3.9l2.3-3.9H147z"></path> <path class="st11" d="M147.1,389.3l1-0.6c0.3,1,1.1,1.5,2.2,1.5c1.2,0,1.8-0.5,1.8-1.3c0-0.4-0.2-0.7-0.5-0.9 c-0.3-0.2-0.8-0.4-1.5-0.6l-0.8-0.3c-0.2-0.1-0.4-0.2-0.7-0.3c-0.3-0.1-0.5-0.3-0.6-0.4c-0.3-0.3-0.5-0.8-0.5-1.4 c0-0.7,0.3-1.3,0.8-1.7c0.5-0.4,1.1-0.6,1.9-0.6c1.3,0,2.4,0.7,2.8,1.8L152,385c-0.4-0.9-1-1.3-1.9-1.3c-0.9,0-1.5,0.5-1.5,1.2 c0,0.4,0.1,0.6,0.4,0.8c0.3,0.2,0.7,0.4,1.4,0.6l0.5,0.2c0.1,0,0.2,0.1,0.4,0.2c0.4,0.2,0.5,0.2,0.8,0.4c0.3,0.2,0.4,0.3,0.6,0.6 c0.3,0.3,0.4,0.7,0.4,1.3c0,0.7-0.3,1.3-0.8,1.8c-0.5,0.4-1.2,0.6-2.1,0.6C148.7,391.4,147.5,390.6,147.1,389.3z"></path> <path class="st11" d="M159.5,382.8v1.1H157v7.3h-1.1v-7.3h-2.5v-1.1H159.5z"></path> <path class="st11" d="M161.8,390.1h3.9v1.1h-5v-8.4h5v1.1h-3.8v2.6h3.5v1h-3.5V390.1z"></path> <path class="st11" d="M174.9,382.8v8.4h-1.1v-6.6l-2.7,4.6h-0.1l-2.7-4.6v6.5H167v-8.4h1.3l2.7,4.4l2.7-4.4H174.9z"></path> <path class="st11" d="M179.6,382.8h1.1v5.5c0,1.2,0.7,1.9,2,1.9c1.3,0,2-0.7,2-1.9v-5.5h1.1v5.6c0,0.9-0.3,1.6-0.9,2.2 c-0.6,0.5-1.3,0.8-2.3,0.8c-0.9,0-1.7-0.3-2.3-0.8c-0.6-0.5-0.9-1.3-0.9-2.2V382.8z"></path> <path class="st11" d="M190.6,382.8c0.8,0,1.4,0.3,1.9,0.8s0.8,1.2,0.8,1.9c0,0.8-0.3,1.4-0.8,1.9s-1.2,0.8-1.9,0.8h-1.9v3h-1.1 v-8.4H190.6z M190.6,387.2c0.5,0,0.9-0.2,1.2-0.5c0.3-0.3,0.5-0.7,0.5-1.2c0-1-0.7-1.7-1.6-1.7h-1.9v3.3H190.6z"></path> <path class="st11" d="M202.7,387v0.5c0,1.1-0.4,2-1.1,2.7c-0.8,0.7-1.8,1.1-3,1.1c-1.3,0-2.3-0.4-3.2-1.3 c-0.8-0.9-1.2-1.9-1.2-3.1c0-1.2,0.4-2.2,1.2-3.1c0.8-0.9,1.9-1.3,3.2-1.3c0.8,0,1.5,0.2,2.1,0.6c0.6,0.4,1.2,0.9,1.5,1.5l-1,0.6 c-0.5-0.9-1.5-1.5-2.7-1.5c-1,0-1.8,0.3-2.4,0.9c-0.6,0.6-0.9,1.4-0.9,2.3c0,0.9,0.3,1.7,0.9,2.3c0.6,0.6,1.4,0.9,2.4,0.9 c1.7,0,2.8-0.9,3-2.2h-3.1v-1H202.7z"></path> <path class="st11" d="M209.1,391.2l-1.9-3.2h-2v3.2h-1.1v-8.4h3.4c0.7,0,1.3,0.3,1.8,0.8c0.5,0.5,0.8,1.1,0.8,1.8 c0,0.5-0.2,1-0.5,1.5c-0.3,0.4-0.7,0.8-1.2,0.9l2,3.4H209.1z M205.2,383.8v3.1h2.2c0.4,0,0.8-0.2,1.1-0.5c0.3-0.3,0.4-0.7,0.4-1.1 s-0.1-0.8-0.4-1.1c-0.3-0.3-0.6-0.5-1.1-0.5H205.2z"></path> <path class="st11" d="M217,391.2l-0.7-1.9h-3.8l-0.7,1.9h-1.2l3.1-8.4h1.3l3.1,8.4H217z M212.9,388.3h3l-1.5-4.1L212.9,388.3z"></path> <path class="st11" d="M222.4,382.8c1.1,0,2.1,0.4,2.8,1.2c0.8,0.8,1.1,1.8,1.1,3c0,1.2-0.4,2.2-1.1,3c-0.8,0.8-1.7,1.2-2.8,1.2 h-3.3v-8.4H222.4z M222.4,390.1c0.9,0,1.6-0.3,2.1-0.9s0.8-1.3,0.8-2.2s-0.3-1.6-0.8-2.2s-1.2-0.9-2.1-0.9h-2.2v6.3H222.4z"></path> <path class="st11" d="M228.9,390.1h3.9v1.1h-5v-8.4h5v1.1h-3.8v2.6h3.5v1h-3.5V390.1z"></path> <path class="st11" d="M233.6,389.3l1-0.6c0.3,1,1.1,1.5,2.2,1.5c1.2,0,1.8-0.5,1.8-1.3c0-0.4-0.2-0.7-0.5-0.9 c-0.3-0.2-0.8-0.4-1.5-0.6l-0.8-0.3c-0.2-0.1-0.4-0.2-0.7-0.3c-0.3-0.1-0.5-0.3-0.6-0.4c-0.3-0.3-0.5-0.8-0.5-1.4 c0-0.7,0.3-1.3,0.8-1.7c0.5-0.4,1.1-0.6,1.9-0.6c1.3,0,2.4,0.7,2.8,1.8l-0.9,0.5c-0.4-0.9-1-1.3-1.9-1.3s-1.5,0.5-1.5,1.2 c0,0.4,0.1,0.6,0.4,0.8c0.3,0.2,0.7,0.4,1.4,0.6l0.5,0.2c0.1,0,0.2,0.1,0.4,0.2c0.4,0.2,0.5,0.2,0.8,0.4c0.3,0.2,0.4,0.3,0.6,0.6 c0.3,0.3,0.4,0.7,0.4,1.3c0,0.7-0.3,1.3-0.8,1.8c-0.5,0.4-1.2,0.6-2.1,0.6C235.3,391.4,234.1,390.6,233.6,389.3z"></path> </g> <g> <path class="st11" d="M385.4,382.8c0.8,0,1.4,0.3,1.9,0.8s0.8,1.2,0.8,1.9c0,0.8-0.3,1.4-0.8,1.9s-1.2,0.8-1.9,0.8h-1.9v3h-1.1 v-8.4H385.4z M385.4,387.2c0.5,0,0.8-0.2,1.2-0.5c0.3-0.3,0.5-0.7,0.5-1.2c0-1-0.7-1.7-1.6-1.7h-1.9v3.3H385.4z"></path> <path class="st11" d="M394.1,391.2l-0.7-1.9h-3.8l-0.7,1.9h-1.2l3.1-8.4h1.3l3.1,8.4H394.1z M390,388.3h3l-1.5-4.1L390,388.3z"></path> <path class="st11" d="M396.8,390.1c-0.8-0.8-1.2-1.9-1.2-3.1c0-1.2,0.4-2.3,1.2-3.1c0.8-0.8,1.9-1.3,3.2-1.3c1.5,0,2.9,0.8,3.6,2 l-1,0.6c-0.5-0.9-1.5-1.5-2.7-1.5c-1,0-1.8,0.3-2.4,0.9c-0.6,0.6-0.9,1.4-0.9,2.3c0,0.9,0.3,1.7,0.9,2.3s1.4,0.9,2.4,0.9 c1.2,0,2.2-0.6,2.7-1.5l1,0.6c-0.3,0.6-0.9,1.1-1.5,1.5c-0.6,0.4-1.4,0.6-2.1,0.6C398.6,391.4,397.6,390.9,396.8,390.1z"></path> <path class="st11" d="M410.9,391.2h-1.4l-3.6-4v4h-1.1v-8.4h1.1v3.8l3.5-3.8h1.4l-3.7,4.1L410.9,391.2z"></path> <path class="st11" d="M417.6,391.2l-0.7-1.9h-3.8l-0.7,1.9h-1.2l3.1-8.4h1.3l3.1,8.4H417.6z M413.5,388.3h3l-1.5-4.1L413.5,388.3z "></path> <path class="st11" d="M427.9,387v0.5c0,1.1-0.4,2-1.1,2.7c-0.8,0.7-1.8,1.1-3,1.1c-1.3,0-2.3-0.4-3.2-1.3 c-0.8-0.9-1.2-1.9-1.2-3.1c0-1.2,0.4-2.2,1.2-3.1c0.8-0.9,1.9-1.3,3.2-1.3c0.8,0,1.5,0.2,2.1,0.6c0.6,0.4,1.2,0.9,1.5,1.5l-1,0.6 c-0.5-0.9-1.5-1.5-2.7-1.5c-1,0-1.8,0.3-2.4,0.9c-0.6,0.6-0.9,1.4-0.9,2.3c0,0.9,0.3,1.7,0.9,2.3c0.6,0.6,1.4,0.9,2.4,0.9 c1.7,0,2.8-0.9,3-2.2h-3.1v-1H427.9z"></path> <path class="st11" d="M430.3,390.1h3.9v1.1h-5v-8.4h5v1.1h-3.8v2.6h3.5v1h-3.5V390.1z"></path> <path class="st11" d="M438.5,382.8h1.1v5.5c0,1.2,0.7,1.9,2,1.9c1.3,0,2-0.7,2-1.9v-5.5h1.1v5.6c0,0.9-0.3,1.6-0.9,2.2 c-0.6,0.5-1.3,0.8-2.3,0.8c-0.9,0-1.7-0.3-2.3-0.8c-0.6-0.5-0.9-1.3-0.9-2.2V382.8z"></path> <path class="st11" d="M449.5,382.8c0.8,0,1.4,0.3,1.9,0.8s0.8,1.2,0.8,1.9c0,0.8-0.3,1.4-0.8,1.9s-1.2,0.8-1.9,0.8h-1.9v3h-1.1 v-8.4H449.5z M449.5,387.2c0.5,0,0.9-0.2,1.2-0.5c0.3-0.3,0.5-0.7,0.5-1.2c0-1-0.7-1.7-1.6-1.7h-1.9v3.3H449.5z"></path> <path class="st11" d="M461.7,387v0.5c0,1.1-0.4,2-1.1,2.7c-0.8,0.7-1.8,1.1-3,1.1c-1.3,0-2.3-0.4-3.2-1.3 c-0.8-0.9-1.2-1.9-1.2-3.1c0-1.2,0.4-2.2,1.2-3.1c0.8-0.9,1.9-1.3,3.2-1.3c0.8,0,1.5,0.2,2.1,0.6c0.6,0.4,1.2,0.9,1.5,1.5l-1,0.6 c-0.5-0.9-1.5-1.5-2.7-1.5c-1,0-1.8,0.3-2.4,0.9c-0.6,0.6-0.9,1.4-0.9,2.3c0,0.9,0.3,1.7,0.9,2.3c0.6,0.6,1.4,0.9,2.4,0.9 c1.7,0,2.8-0.9,3-2.2h-3.1v-1H461.7z"></path> <path class="st11" d="M468,391.2l-1.9-3.2h-2v3.2H463v-8.4h3.4c0.7,0,1.3,0.3,1.8,0.8c0.5,0.5,0.8,1.1,0.8,1.8 c0,0.5-0.2,1-0.5,1.5c-0.3,0.4-0.7,0.8-1.2,0.9l2,3.4H468z M464.1,383.8v3.1h2.2c0.4,0,0.8-0.2,1.1-0.5c0.3-0.3,0.4-0.7,0.4-1.1 s-0.1-0.8-0.4-1.1c-0.3-0.3-0.6-0.5-1.1-0.5H464.1z"></path> <path class="st11" d="M475.9,391.2l-0.7-1.9h-3.8l-0.7,1.9h-1.2l3.1-8.4h1.3l3.1,8.4H475.9z M471.8,388.3h3l-1.5-4.1L471.8,388.3z "></path> <path class="st11" d="M481.3,382.8c1.1,0,2.1,0.4,2.8,1.2c0.8,0.8,1.1,1.8,1.1,3c0,1.2-0.4,2.2-1.1,3c-0.8,0.8-1.7,1.2-2.8,1.2 h-3.3v-8.4H481.3z M481.3,390.1c0.9,0,1.6-0.3,2.1-0.9c0.5-0.6,0.8-1.3,0.8-2.2s-0.3-1.6-0.8-2.2c-0.5-0.6-1.2-0.9-2.1-0.9h-2.2 v6.3H481.3z"></path> <path class="st11" d="M487.8,390.1h3.9v1.1h-5v-8.4h5v1.1h-3.8v2.6h3.5v1h-3.5V390.1z"></path> <path class="st11" d="M492.6,389.3l1-0.6c0.3,1,1.1,1.5,2.2,1.5c1.2,0,1.8-0.5,1.8-1.3c0-0.4-0.2-0.7-0.5-0.9 c-0.3-0.2-0.8-0.4-1.5-0.6l-0.8-0.3c-0.2-0.1-0.4-0.2-0.7-0.3c-0.3-0.1-0.5-0.3-0.6-0.4c-0.3-0.3-0.5-0.8-0.5-1.4 c0-0.7,0.3-1.3,0.8-1.7c0.5-0.4,1.1-0.6,1.9-0.6c1.3,0,2.4,0.7,2.8,1.8l-0.9,0.5c-0.4-0.9-1-1.3-1.9-1.3c-0.9,0-1.5,0.5-1.5,1.2 c0,0.4,0.1,0.6,0.4,0.8c0.3,0.2,0.7,0.4,1.4,0.6l0.5,0.2c0.1,0,0.2,0.1,0.4,0.2c0.4,0.2,0.5,0.2,0.8,0.4c0.3,0.2,0.4,0.3,0.6,0.6 c0.3,0.3,0.4,0.7,0.4,1.3c0,0.7-0.3,1.3-0.8,1.8c-0.5,0.4-1.2,0.6-2.1,0.6C494.2,391.4,493,390.6,492.6,389.3z"></path> </g> <g> <path class="st11" d="M485.4,321v0.5c0,1.1-0.4,2-1.1,2.7c-0.8,0.7-1.8,1.1-3,1.1c-1.3,0-2.3-0.4-3.2-1.3 c-0.8-0.9-1.2-1.9-1.2-3.1c0-1.2,0.4-2.2,1.2-3.1c0.8-0.9,1.9-1.3,3.2-1.3c0.8,0,1.5,0.2,2.1,0.6c0.6,0.4,1.2,0.9,1.5,1.5l-1,0.6 c-0.5-0.9-1.5-1.5-2.7-1.5c-1,0-1.8,0.3-2.4,0.9c-0.6,0.6-0.9,1.4-0.9,2.3c0,0.9,0.3,1.7,0.9,2.3c0.6,0.6,1.4,0.9,2.4,0.9 c1.7,0,2.8-0.9,3-2.2h-3.1v-1H485.4z"></path> <path class="st11" d="M492.3,325.2l-0.7-1.9h-3.8l-0.7,1.9H486l3.1-8.4h1.3l3.1,8.4H492.3z M488.2,322.3h3l-1.5-4.1L488.2,322.3z"></path> <path class="st11" d="M493.8,323.3l1-0.6c0.3,1,1.1,1.5,2.2,1.5c1.2,0,1.8-0.5,1.8-1.3c0-0.4-0.2-0.7-0.5-0.9 c-0.3-0.2-0.8-0.4-1.5-0.6l-0.8-0.3c-0.2-0.1-0.4-0.2-0.7-0.3c-0.3-0.1-0.5-0.3-0.6-0.4c-0.3-0.3-0.5-0.8-0.5-1.4 c0-0.7,0.3-1.3,0.8-1.7c0.5-0.4,1.1-0.6,1.9-0.6c1.3,0,2.4,0.7,2.8,1.8l-0.9,0.5c-0.4-0.9-1-1.3-1.9-1.3c-0.9,0-1.5,0.5-1.5,1.2 c0,0.4,0.1,0.6,0.4,0.8c0.3,0.2,0.7,0.4,1.4,0.6l0.5,0.2c0.1,0,0.2,0.1,0.4,0.2c0.4,0.2,0.5,0.2,0.8,0.4c0.3,0.2,0.4,0.3,0.6,0.6 c0.3,0.3,0.4,0.7,0.4,1.3c0,0.7-0.3,1.3-0.8,1.8c-0.5,0.4-1.2,0.6-2.1,0.6C495.4,325.4,494.2,324.6,493.8,323.3z"></path> <path class="st11" d="M505,324.1c-0.8-0.8-1.2-1.9-1.2-3.1c0-1.2,0.4-2.3,1.2-3.1c0.8-0.8,1.9-1.3,3.2-1.3c1.5,0,2.9,0.8,3.6,2 l-1,0.6c-0.5-0.9-1.5-1.5-2.7-1.5c-1,0-1.8,0.3-2.4,0.9c-0.6,0.6-0.9,1.4-0.9,2.3c0,0.9,0.3,1.7,0.9,2.3s1.4,0.9,2.4,0.9 c1.2,0,2.2-0.6,2.7-1.5l1,0.6c-0.3,0.6-0.9,1.1-1.5,1.5c-0.6,0.4-1.4,0.6-2.1,0.6C506.9,325.4,505.8,324.9,505,324.1z"></path> <path class="st11" d="M513.9,317.9c0.8-0.9,1.9-1.3,3.1-1.3c1.2,0,2.2,0.4,3.1,1.3c0.9,0.8,1.3,1.9,1.3,3.1c0,1.2-0.4,2.2-1.3,3.1 c-0.8,0.9-1.9,1.3-3.1,1.3c-1.2,0-2.2-0.4-3.1-1.3c-0.8-0.9-1.3-1.9-1.3-3.1C512.6,319.8,513,318.8,513.9,317.9z M519.3,318.7 c-0.6-0.6-1.4-0.9-2.3-0.9c-0.9,0-1.7,0.3-2.3,0.9c-0.6,0.6-0.9,1.4-0.9,2.3c0,0.9,0.3,1.7,0.9,2.3c0.6,0.6,1.4,0.9,2.3,0.9 c0.9,0,1.7-0.3,2.3-0.9c0.6-0.6,0.9-1.4,0.9-2.3C520.2,320.1,519.9,319.3,519.3,318.7z"></path> <path class="st11" d="M530.5,316.8v8.4h-1.1v-6.6l-2.7,4.6h-0.1l-2.7-4.6v6.5h-1.1v-8.4h1.3l2.7,4.4l2.7-4.4H530.5z"></path> <path class="st11" d="M535.4,316.8c0.8,0,1.4,0.3,1.9,0.8s0.8,1.2,0.8,1.9c0,0.8-0.3,1.4-0.8,1.9s-1.2,0.8-1.9,0.8h-1.9v3h-1.1 v-8.4H535.4z M535.4,321.2c0.5,0,0.8-0.2,1.2-0.5c0.3-0.3,0.5-0.7,0.5-1.2c0-1-0.7-1.7-1.6-1.7h-1.9v3.3H535.4z"></path> <path class="st11" d="M544.4,325.2l-1.9-3.2h-2v3.2h-1.1v-8.4h3.4c0.7,0,1.3,0.3,1.8,0.8c0.5,0.5,0.8,1.1,0.8,1.8 c0,0.5-0.2,1-0.5,1.5c-0.3,0.4-0.7,0.8-1.2,0.9l2,3.4H544.4z M540.5,317.8v3.1h2.2c0.4,0,0.8-0.2,1.1-0.5c0.3-0.3,0.4-0.7,0.4-1.1 s-0.1-0.8-0.4-1.1c-0.3-0.3-0.6-0.5-1.1-0.5H540.5z"></path> <path class="st11" d="M547.9,324.1h3.9v1.1h-5v-8.4h5v1.1h-3.8v2.6h3.5v1h-3.5V324.1z"></path> <path class="st11" d="M552.6,323.3l1-0.6c0.3,1,1.1,1.5,2.2,1.5c1.2,0,1.8-0.5,1.8-1.3c0-0.4-0.2-0.7-0.5-0.9 c-0.3-0.2-0.8-0.4-1.5-0.6l-0.8-0.3c-0.2-0.1-0.4-0.2-0.7-0.3c-0.3-0.1-0.5-0.3-0.6-0.4c-0.3-0.3-0.5-0.8-0.5-1.4 c0-0.7,0.3-1.3,0.8-1.7c0.5-0.4,1.1-0.6,1.9-0.6c1.3,0,2.4,0.7,2.8,1.8l-0.9,0.5c-0.4-0.9-1-1.3-1.9-1.3c-0.9,0-1.5,0.5-1.5,1.2 c0,0.4,0.1,0.6,0.4,0.8c0.3,0.2,0.7,0.4,1.4,0.6l0.5,0.2c0.1,0,0.2,0.1,0.4,0.2c0.4,0.2,0.5,0.2,0.8,0.4c0.3,0.2,0.4,0.3,0.6,0.6 c0.3,0.3,0.4,0.7,0.4,1.3c0,0.7-0.3,1.3-0.8,1.8c-0.5,0.4-1.2,0.6-2.1,0.6C554.2,325.4,553.1,324.6,552.6,323.3z"></path> <path class="st11" d="M559.3,323.3l1-0.6c0.3,1,1.1,1.5,2.2,1.5c1.2,0,1.8-0.5,1.8-1.3c0-0.4-0.2-0.7-0.5-0.9 c-0.3-0.2-0.8-0.4-1.5-0.6l-0.8-0.3c-0.2-0.1-0.4-0.2-0.7-0.3c-0.3-0.1-0.5-0.3-0.6-0.4c-0.3-0.3-0.5-0.8-0.5-1.4 c0-0.7,0.3-1.3,0.8-1.7c0.5-0.4,1.1-0.6,1.9-0.6c1.3,0,2.4,0.7,2.8,1.8l-0.9,0.5c-0.4-0.9-1-1.3-1.9-1.3c-0.9,0-1.5,0.5-1.5,1.2 c0,0.4,0.1,0.6,0.4,0.8c0.3,0.2,0.7,0.4,1.4,0.6l0.5,0.2c0.1,0,0.2,0.1,0.4,0.2c0.4,0.2,0.5,0.2,0.8,0.4c0.3,0.2,0.4,0.3,0.6,0.6 c0.3,0.3,0.4,0.7,0.4,1.3c0,0.7-0.3,1.3-0.8,1.8c-0.5,0.4-1.2,0.6-2.1,0.6C560.9,325.4,559.7,324.6,559.3,323.3z"></path> <path class="st11" d="M567.5,317.9c0.8-0.9,1.9-1.3,3.1-1.3c1.2,0,2.2,0.4,3.1,1.3c0.9,0.8,1.3,1.9,1.3,3.1c0,1.2-0.4,2.2-1.3,3.1 c-0.8,0.9-1.9,1.3-3.1,1.3c-1.2,0-2.2-0.4-3.1-1.3c-0.8-0.9-1.3-1.9-1.3-3.1C566.2,319.8,566.7,318.8,567.5,317.9z M572.9,318.7 c-0.6-0.6-1.4-0.9-2.3-0.9c-0.9,0-1.7,0.3-2.3,0.9c-0.6,0.6-0.9,1.4-0.9,2.3c0,0.9,0.3,1.7,0.9,2.3c0.6,0.6,1.4,0.9,2.3,0.9 c0.9,0,1.7-0.3,2.3-0.9c0.6-0.6,0.9-1.4,0.9-2.3C573.8,320.1,573.5,319.3,572.9,318.7z"></path> <path class="st11" d="M581.3,325.2l-1.9-3.2h-2v3.2h-1.1v-8.4h3.4c0.7,0,1.3,0.3,1.8,0.8c0.5,0.5,0.8,1.1,0.8,1.8 c0,0.5-0.2,1-0.5,1.5c-0.3,0.4-0.7,0.8-1.2,0.9l2,3.4H581.3z M577.4,317.8v3.1h2.2c0.4,0,0.8-0.2,1.1-0.5c0.3-0.3,0.4-0.7,0.4-1.1 s-0.1-0.8-0.4-1.1c-0.3-0.3-0.6-0.5-1.1-0.5H577.4z"></path> <path class="st11" d="M482.3,339.6l-1.9-3.2h-2v3.2h-1.1v-8.4h3.4c0.7,0,1.3,0.3,1.8,0.8c0.5,0.5,0.8,1.1,0.8,1.8 c0,0.5-0.2,1-0.5,1.5c-0.3,0.4-0.7,0.8-1.2,0.9l2,3.4H482.3z M478.4,332.2v3.1h2.2c0.4,0,0.8-0.2,1.1-0.5c0.3-0.3,0.4-0.7,0.4-1.1 c0-0.4-0.1-0.8-0.4-1.1c-0.3-0.3-0.6-0.5-1.1-0.5H478.4z"></path> <path class="st11" d="M485.8,338.5h3.9v1.1h-5v-8.4h5v1.1h-3.8v2.6h3.5v1h-3.5V338.5z"></path> <path class="st11" d="M490.5,337.7l1-0.6c0.3,1,1.1,1.5,2.2,1.5c1.2,0,1.8-0.5,1.8-1.3c0-0.4-0.2-0.7-0.5-0.9 c-0.3-0.2-0.8-0.4-1.5-0.6l-0.8-0.3c-0.2-0.1-0.4-0.2-0.7-0.3c-0.3-0.1-0.5-0.3-0.6-0.4c-0.3-0.3-0.5-0.8-0.5-1.4 c0-0.7,0.3-1.3,0.8-1.7c0.5-0.4,1.1-0.6,1.9-0.6c1.3,0,2.4,0.7,2.8,1.8l-0.9,0.5c-0.4-0.9-1-1.3-1.9-1.3c-0.9,0-1.5,0.5-1.5,1.2 c0,0.4,0.1,0.6,0.4,0.8c0.3,0.2,0.7,0.4,1.4,0.6l0.5,0.2c0.1,0,0.2,0.1,0.4,0.2c0.4,0.2,0.5,0.2,0.8,0.4c0.3,0.2,0.4,0.3,0.6,0.6 c0.3,0.3,0.4,0.7,0.4,1.3c0,0.7-0.3,1.3-0.8,1.8c-0.5,0.4-1.2,0.6-2.1,0.6C492.2,339.8,491,339,490.5,337.7z"></path> <path class="st11" d="M503,331.2v1.1h-2.5v7.3h-1.1v-7.3H497v-1.1H503z"></path> <path class="st11" d="M509,339.6l-0.7-1.9h-3.8l-0.7,1.9h-1.2l3.1-8.4h1.3l3.1,8.4H509z M505,336.7h3l-1.5-4.1L505,336.7z"></path> <path class="st11" d="M519.3,335.4v0.5c0,1.1-0.4,2-1.1,2.7c-0.8,0.7-1.8,1.1-3,1.1c-1.3,0-2.3-0.4-3.2-1.3 c-0.8-0.9-1.2-1.9-1.2-3.1c0-1.2,0.4-2.2,1.2-3.1c0.8-0.9,1.9-1.3,3.2-1.3c0.8,0,1.5,0.2,2.1,0.6c0.6,0.4,1.2,0.9,1.5,1.5l-1,0.6 c-0.5-0.9-1.5-1.5-2.7-1.5c-1,0-1.8,0.3-2.4,0.9c-0.6,0.6-0.9,1.4-0.9,2.3c0,0.9,0.3,1.7,0.9,2.3c0.6,0.6,1.4,0.9,2.4,0.9 c1.7,0,2.8-0.9,3-2.2h-3.1v-1H519.3z"></path> <path class="st11" d="M521.8,338.5h3.9v1.1h-5v-8.4h5v1.1h-3.8v2.6h3.5v1h-3.5V338.5z"></path> </g> <g> <path class="st11" d="M523.7,239.8v1.1h-2.5v7.3h-1.1v-7.3h-2.5v-1.1H523.7z"></path> <path class="st11" d="M524.7,239.8h1.1v5.5c0,1.2,0.7,1.9,2,1.9s2-0.7,2-1.9v-5.5h1.1v5.6c0,0.9-0.3,1.6-0.9,2.2 c-0.6,0.5-1.3,0.8-2.3,0.8s-1.7-0.3-2.3-0.8c-0.6-0.5-0.9-1.3-0.9-2.2V239.8z"></path> <path class="st11" d="M537.7,248.2l-1.9-3.2h-2v3.2h-1.1v-8.4h3.4c0.7,0,1.3,0.3,1.8,0.8c0.5,0.5,0.8,1.1,0.8,1.8 c0,0.5-0.2,1-0.5,1.5c-0.3,0.4-0.7,0.8-1.2,0.9l2,3.4H537.7z M533.8,240.8v3.1h2.2c0.4,0,0.8-0.2,1.1-0.5c0.3-0.3,0.4-0.7,0.4-1.1 s-0.1-0.8-0.4-1.1c-0.3-0.3-0.6-0.5-1.1-0.5H533.8z"></path> <path class="st11" d="M546.1,245.8c0,0.7-0.2,1.2-0.7,1.7c-0.5,0.5-1,0.7-1.7,0.7H540v-8.4h3.4c0.7,0,1.2,0.2,1.7,0.7 c0.5,0.4,0.7,1,0.7,1.6c0,0.7-0.3,1.3-0.9,1.8C545.6,244.2,546.1,244.9,546.1,245.8z M541.1,240.8v2.6h2.2c0.7,0,1.2-0.6,1.2-1.3 c0-0.3-0.1-0.6-0.4-0.9c-0.2-0.3-0.5-0.4-0.9-0.4H541.1z M543.7,247.2c0.8,0,1.3-0.6,1.3-1.4c0-0.4-0.1-0.7-0.4-1 c-0.3-0.3-0.6-0.4-0.9-0.4h-2.5v2.7H543.7z"></path> <path class="st11" d="M547.4,239.8h1.1v8.4h-1.1V239.8z"></path> <path class="st11" d="M555.5,239.8h1.1v8.4h-0.9l-4.3-6.3v6.3h-1.1v-8.4h0.9l4.3,6.3V239.8z"></path> <path class="st11" d="M559.6,247.1h3.9v1.1h-5v-8.4h5v1.1h-3.8v2.6h3.5v1h-3.5V247.1z"></path> <path class="st11" d="M568.6,240.9c0.8-0.9,1.9-1.3,3.1-1.3s2.2,0.4,3.1,1.3c0.9,0.8,1.3,1.9,1.3,3.1c0,1.2-0.4,2.2-1.3,3.1 c-0.8,0.9-1.9,1.3-3.1,1.3s-2.2-0.4-3.1-1.3s-1.3-1.9-1.3-3.1C567.4,242.8,567.8,241.8,568.6,240.9z M574,241.7 c-0.6-0.6-1.4-0.9-2.3-0.9s-1.7,0.3-2.3,0.9c-0.6,0.6-0.9,1.4-0.9,2.3c0,0.9,0.3,1.7,0.9,2.3c0.6,0.6,1.4,0.9,2.3,0.9 s1.7-0.3,2.3-0.9c0.6-0.6,0.9-1.4,0.9-2.3C575,243.1,574.6,242.3,574,241.7z"></path> <path class="st11" d="M579.6,248.2l-3-8.4h1.2l2.4,7l2.4-7h1.2l-3,8.4H579.6z"></path> <path class="st11" d="M586,247.1h3.9v1.1h-5v-8.4h5v1.1H586v2.6h3.5v1H586V247.1z"></path> <path class="st11" d="M596.2,248.2l-1.9-3.2h-2v3.2h-1.1v-8.4h3.4c0.7,0,1.3,0.3,1.8,0.8c0.5,0.5,0.8,1.1,0.8,1.8 c0,0.5-0.2,1-0.5,1.5c-0.3,0.4-0.7,0.8-1.2,0.9l2,3.4H596.2z M592.3,240.8v3.1h2.2c0.4,0,0.8-0.2,1.1-0.5c0.3-0.3,0.4-0.7,0.4-1.1 s-0.1-0.8-0.4-1.1c-0.3-0.3-0.6-0.5-1.1-0.5H592.3z"></path> <path class="st11" d="M603.8,239.8h1.1v8.4h-1.1v-3.8h-4.1v3.8h-1.1v-8.4h1.1v3.6h4.1V239.8z"></path> <path class="st11" d="M612.2,248.2l-0.7-1.9h-3.8l-0.7,1.9h-1.2l3.1-8.4h1.3l3.1,8.4H612.2z M608.1,245.3h3l-1.5-4.1L608.1,245.3z "></path> <path class="st11" d="M614,239.8h1.1v5.5c0,1.2,0.7,1.9,2,1.9s2-0.7,2-1.9v-5.5h1.1v5.6c0,0.9-0.3,1.6-0.9,2.2 c-0.6,0.5-1.3,0.8-2.3,0.8s-1.7-0.3-2.3-0.8c-0.6-0.5-0.9-1.3-0.9-2.2V239.8z"></path> <path class="st11" d="M623.2,247.1h3.6v1.1H622v-8.4h1.1V247.1z"></path> </g> <g> <path class="st11" d="M515.7,140.8v1.1h-2.5v7.3h-1.1v-7.3h-2.5v-1.1H515.7z"></path> <path class="st11" d="M517.9,148.1h3.9v1.1h-5v-8.4h5v1.1h-3.8v2.6h3.5v1h-3.5V148.1z"></path> <path class="st11" d="M523.9,148.1c-0.8-0.8-1.2-1.9-1.2-3.1c0-1.2,0.4-2.3,1.2-3.1c0.8-0.8,1.9-1.3,3.2-1.3c1.5,0,2.9,0.8,3.6,2 l-1,0.6c-0.5-0.9-1.5-1.5-2.7-1.5c-1,0-1.8,0.3-2.4,0.9c-0.6,0.6-0.9,1.4-0.9,2.3c0,0.9,0.3,1.7,0.9,2.3s1.4,0.9,2.4,0.9 c1.2,0,2.2-0.6,2.7-1.5l1,0.6c-0.3,0.6-0.9,1.1-1.5,1.5c-0.6,0.4-1.4,0.6-2.1,0.6C525.8,149.4,524.7,148.9,523.9,148.1z"></path> <path class="st11" d="M537.1,140.8h1.1v8.4h-1.1v-3.8H533v3.8h-1.1v-8.4h1.1v3.6h4.1V140.8z"></path> <path class="st11" d="M545.2,140.8h1.1v8.4h-0.9l-4.3-6.3v6.3H540v-8.4h0.9l4.3,6.3V140.8z"></path> <path class="st11" d="M548.2,140.8h1.1v8.4h-1.1V140.8z"></path> <path class="st11" d="M551.9,148.1c-0.8-0.8-1.2-1.9-1.2-3.1c0-1.2,0.4-2.3,1.2-3.1c0.8-0.8,1.9-1.3,3.2-1.3c1.5,0,2.9,0.8,3.6,2 l-1,0.6c-0.5-0.9-1.5-1.5-2.7-1.5c-1,0-1.8,0.3-2.4,0.9c-0.6,0.6-0.9,1.4-0.9,2.3c0,0.9,0.3,1.7,0.9,2.3s1.4,0.9,2.4,0.9 c1.2,0,2.2-0.6,2.7-1.5l1,0.6c-0.3,0.6-0.9,1.1-1.5,1.5c-0.6,0.4-1.4,0.6-2.1,0.6C553.8,149.4,552.7,148.9,551.9,148.1z"></path> <path class="st11" d="M565.3,149.2l-0.7-1.9h-3.8l-0.7,1.9H559l3.1-8.4h1.3l3.1,8.4H565.3z M561.3,146.3h3l-1.5-4.1L561.3,146.3z"></path> <path class="st11" d="M568.7,148.1h3.6v1.1h-4.7v-8.4h1.1V148.1z"></path> <path class="st11" d="M581.8,140.8v1.1h-2.5v7.3h-1.1v-7.3h-2.5v-1.1H581.8z"></path> <path class="st11" d="M587.8,149.2L586,146h-2v3.2h-1.1v-8.4h3.4c0.7,0,1.3,0.3,1.8,0.8c0.5,0.5,0.8,1.1,0.8,1.8 c0,0.5-0.2,1-0.5,1.5c-0.3,0.4-0.7,0.8-1.2,0.9l2,3.4H587.8z M584,141.8v3.1h2.2c0.4,0,0.8-0.2,1.1-0.5c0.3-0.3,0.4-0.7,0.4-1.1 s-0.1-0.8-0.4-1.1c-0.3-0.3-0.6-0.5-1.1-0.5H584z"></path> <path class="st11" d="M595.7,149.2l-0.7-1.9h-3.8l-0.7,1.9h-1.2l3.1-8.4h1.3l3.1,8.4H595.7z M591.7,146.3h3l-1.5-4.1L591.7,146.3z "></path> <path class="st11" d="M597.9,140.8h1.1v8.4h-1.1V140.8z"></path> <path class="st11" d="M606.1,140.8h1.1v8.4h-0.9l-4.3-6.3v6.3h-1.1v-8.4h0.9l4.3,6.3V140.8z"></path> <path class="st11" d="M609,140.8h1.1v8.4H609V140.8z"></path> <path class="st11" d="M617.1,140.8h1.1v8.4h-0.9l-4.3-6.3v6.3h-1.1v-8.4h0.9l4.3,6.3V140.8z"></path> <path class="st11" d="M628.1,145v0.5c0,1.1-0.4,2-1.1,2.7c-0.8,0.7-1.8,1.1-3,1.1c-1.3,0-2.3-0.4-3.2-1.3 c-0.8-0.9-1.2-1.9-1.2-3.1c0-1.2,0.4-2.2,1.2-3.1c0.8-0.9,1.9-1.3,3.2-1.3c0.8,0,1.5,0.2,2.1,0.6c0.6,0.4,1.2,0.9,1.5,1.5l-1,0.6 c-0.5-0.9-1.5-1.5-2.7-1.5c-1,0-1.8,0.3-2.4,0.9c-0.6,0.6-0.9,1.4-0.9,2.3c0,0.9,0.3,1.7,0.9,2.3c0.6,0.6,1.4,0.9,2.4,0.9 c1.7,0,2.8-0.9,3-2.2h-3.1v-1H628.1z"></path> </g> <g> <path class="st11" d="M466.9,59.3l1-0.6c0.3,1,1.1,1.5,2.2,1.5c1.2,0,1.8-0.5,1.8-1.3c0-0.4-0.2-0.7-0.5-0.9 c-0.3-0.2-0.8-0.4-1.5-0.6l-0.8-0.3c-0.2-0.1-0.4-0.2-0.7-0.3c-0.3-0.1-0.5-0.3-0.6-0.4c-0.3-0.3-0.5-0.8-0.5-1.4 c0-0.7,0.3-1.3,0.8-1.7c0.5-0.4,1.1-0.6,1.9-0.6c1.3,0,2.4,0.7,2.8,1.8l-0.9,0.5c-0.4-0.9-1-1.3-1.9-1.3c-0.9,0-1.5,0.5-1.5,1.2 c0,0.4,0.1,0.6,0.4,0.8c0.3,0.2,0.7,0.4,1.4,0.6l0.5,0.2c0.1,0,0.2,0.1,0.4,0.2c0.4,0.2,0.5,0.2,0.8,0.4c0.3,0.2,0.4,0.3,0.6,0.6 c0.3,0.3,0.4,0.7,0.4,1.3c0,0.7-0.3,1.3-0.8,1.8c-0.5,0.4-1.2,0.6-2.1,0.6C468.5,61.4,467.3,60.6,466.9,59.3z"></path> <path class="st11" d="M475.3,60.1h3.9v1.1h-5v-8.4h5v1.1h-3.8v2.6h3.5v1h-3.5V60.1z"></path> <path class="st11" d="M485.5,61.2l-1.9-3.2h-2v3.2h-1.1v-8.4h3.4c0.7,0,1.3,0.3,1.8,0.8c0.5,0.5,0.8,1.1,0.8,1.8 c0,0.5-0.2,1-0.5,1.5c-0.3,0.4-0.7,0.8-1.2,0.9l2,3.4H485.5z M481.7,53.8V57h2.2c0.4,0,0.8-0.2,1.1-0.5c0.3-0.3,0.4-0.7,0.4-1.1 s-0.1-0.8-0.4-1.1c-0.3-0.3-0.6-0.5-1.1-0.5H481.7z"></path> <path class="st11" d="M490,61.2l-3-8.4h1.2l2.4,7l2.4-7h1.2l-3,8.4H490z"></path> <path class="st11" d="M495.2,52.8h1.1v8.4h-1.1V52.8z"></path> <path class="st11" d="M498.9,60.1c-0.8-0.8-1.2-1.9-1.2-3.1c0-1.2,0.4-2.3,1.2-3.1c0.8-0.8,1.9-1.3,3.2-1.3c1.5,0,2.9,0.8,3.6,2 l-1,0.6c-0.5-0.9-1.5-1.5-2.7-1.5c-1,0-1.8,0.3-2.4,0.9c-0.6,0.6-0.9,1.4-0.9,2.3c0,0.9,0.3,1.7,0.9,2.3s1.4,0.9,2.4,0.9 c1.2,0,2.2-0.6,2.7-1.5l1,0.6c-0.3,0.6-0.9,1.1-1.5,1.5c-0.6,0.4-1.4,0.6-2.1,0.6C500.8,61.4,499.7,60.9,498.9,60.1z"></path> <path class="st11" d="M508.1,60.1h3.9v1.1h-5v-8.4h5v1.1h-3.8v2.6h3.5v1h-3.5V60.1z"></path> <path class="st11" d="M519.4,52.8c0.8,0,1.4,0.3,1.9,0.8s0.8,1.2,0.8,1.9c0,0.8-0.3,1.4-0.8,1.9s-1.2,0.8-1.9,0.8h-1.9v3h-1.1 v-8.4H519.4z M519.4,57.2c0.5,0,0.8-0.2,1.2-0.5c0.3-0.3,0.5-0.7,0.5-1.2c0-1-0.7-1.7-1.6-1.7h-1.9v3.3H519.4z"></path> <path class="st11" d="M528.1,61.2l-0.7-1.9h-3.8l-0.7,1.9h-1.2l3.1-8.4h1.3l3.1,8.4H528.1z M524,58.3h3l-1.5-4.1L524,58.3z"></path> <path class="st11" d="M535.2,61.2l-1.9-3.2h-2v3.2h-1.1v-8.4h3.4c0.7,0,1.3,0.3,1.8,0.8c0.5,0.5,0.8,1.1,0.8,1.8 c0,0.5-0.2,1-0.5,1.5c-0.3,0.4-0.7,0.8-1.2,0.9l2,3.4H535.2z M531.4,53.8V57h2.2c0.4,0,0.8-0.2,1.1-0.5c0.3-0.3,0.4-0.7,0.4-1.1 s-0.1-0.8-0.4-1.1c-0.3-0.3-0.6-0.5-1.1-0.5H531.4z"></path> <path class="st11" d="M542.8,52.8v1.1h-2.5v7.3h-1.1v-7.3h-2.5v-1.1H542.8z"></path> <path class="st11" d="M543.2,59.3l1-0.6c0.3,1,1.1,1.5,2.2,1.5c1.2,0,1.8-0.5,1.8-1.3c0-0.4-0.2-0.7-0.5-0.9 c-0.3-0.2-0.8-0.4-1.5-0.6l-0.8-0.3c-0.2-0.1-0.4-0.2-0.7-0.3c-0.3-0.1-0.5-0.3-0.6-0.4c-0.3-0.3-0.5-0.8-0.5-1.4 c0-0.7,0.3-1.3,0.8-1.7c0.5-0.4,1.1-0.6,1.9-0.6c1.3,0,2.4,0.7,2.8,1.8l-0.9,0.5c-0.4-0.9-1-1.3-1.9-1.3c-0.9,0-1.5,0.5-1.5,1.2 c0,0.4,0.1,0.6,0.4,0.8c0.3,0.2,0.7,0.4,1.4,0.6l0.5,0.2c0.1,0,0.2,0.1,0.4,0.2c0.4,0.2,0.5,0.2,0.8,0.4c0.3,0.2,0.4,0.3,0.6,0.6 c0.3,0.3,0.4,0.7,0.4,1.3c0,0.7-0.3,1.3-0.8,1.8c-0.5,0.4-1.2,0.6-2.1,0.6C544.8,61.4,543.6,60.6,543.2,59.3z"></path> </g> <g> <path class="st11" d="M394.7,1.8v1.1h-2.5v7.3h-1.1V2.9h-2.5V1.8H394.7z"></path> <path class="st11" d="M396.9,9.1h3.9v1.1h-5V1.8h5v1.1h-3.8v2.6h3.5v1h-3.5V9.1z"></path> <path class="st11" d="M402.9,9.1c-0.8-0.8-1.2-1.9-1.2-3.1c0-1.2,0.4-2.3,1.2-3.1c0.8-0.8,1.9-1.3,3.2-1.3c1.5,0,2.9,0.8,3.6,2 l-1,0.6c-0.5-0.9-1.5-1.5-2.7-1.5c-1,0-1.8,0.3-2.4,0.9c-0.6,0.6-0.9,1.4-0.9,2.3c0,0.9,0.3,1.7,0.9,2.3s1.4,0.9,2.4,0.9 c1.2,0,2.2-0.6,2.7-1.5l1,0.6c-0.3,0.6-0.9,1.1-1.5,1.5c-0.6,0.4-1.4,0.6-2.1,0.6C404.8,10.4,403.7,9.9,402.9,9.1z"></path> <path class="st11" d="M416.1,1.8h1.1v8.4h-1.1V6.4H412v3.8h-1.1V1.8h1.1v3.6h4.1V1.8z"></path> <path class="st11" d="M424.2,1.8h1.1v8.4h-0.9l-4.3-6.3v6.3H419V1.8h0.9l4.3,6.3V1.8z"></path> <path class="st11" d="M427.2,1.8h1.1v8.4h-1.1V1.8z"></path> <path class="st11" d="M430.9,9.1c-0.8-0.8-1.2-1.9-1.2-3.1c0-1.2,0.4-2.3,1.2-3.1c0.8-0.8,1.9-1.3,3.2-1.3c1.5,0,2.9,0.8,3.6,2 l-1,0.6c-0.5-0.9-1.5-1.5-2.7-1.5c-1,0-1.8,0.3-2.4,0.9c-0.6,0.6-0.9,1.4-0.9,2.3c0,0.9,0.3,1.7,0.9,2.3s1.4,0.9,2.4,0.9 c1.2,0,2.2-0.6,2.7-1.5l1,0.6c-0.3,0.6-0.9,1.1-1.5,1.5c-0.6,0.4-1.4,0.6-2.1,0.6C432.8,10.4,431.7,9.9,430.9,9.1z"></path> <path class="st11" d="M444.3,10.2l-0.7-1.9h-3.8l-0.7,1.9H438l3.1-8.4h1.3l3.1,8.4H444.3z M440.3,7.3h3l-1.5-4.1L440.3,7.3z"></path> <path class="st11" d="M447.7,9.1h3.6v1.1h-4.7V1.8h1.1V9.1z"></path> <path class="st11" d="M454.9,8.3l1-0.6c0.3,1,1.1,1.5,2.2,1.5c1.2,0,1.8-0.5,1.8-1.3c0-0.4-0.2-0.7-0.5-0.9 c-0.3-0.2-0.8-0.4-1.5-0.6l-0.8-0.3c-0.2-0.1-0.4-0.2-0.7-0.3c-0.3-0.1-0.5-0.3-0.6-0.4c-0.3-0.3-0.5-0.8-0.5-1.4 c0-0.7,0.3-1.3,0.8-1.7c0.5-0.4,1.1-0.6,1.9-0.6c1.3,0,2.4,0.7,2.8,1.8L459.8,4c-0.4-0.9-1-1.3-1.9-1.3c-0.9,0-1.5,0.5-1.5,1.2 c0,0.4,0.1,0.6,0.4,0.8c0.3,0.2,0.7,0.4,1.4,0.6l0.5,0.2c0.1,0,0.2,0.1,0.4,0.2c0.4,0.2,0.5,0.2,0.8,0.4c0.3,0.2,0.4,0.3,0.6,0.6 c0.3,0.3,0.4,0.7,0.4,1.3c0,0.7-0.3,1.3-0.8,1.8c-0.5,0.4-1.2,0.6-2.1,0.6C456.5,10.4,455.4,9.6,454.9,8.3z"></path> <path class="st11" d="M462.2,1.8h1.1v5.5c0,1.2,0.7,1.9,2,1.9c1.3,0,2-0.7,2-1.9V1.8h1.1v5.6c0,0.9-0.3,1.6-0.9,2.2 c-0.6,0.5-1.3,0.8-2.3,0.8c-0.9,0-1.7-0.3-2.3-0.8c-0.6-0.5-0.9-1.3-0.9-2.2V1.8z"></path> <path class="st11" d="M473.3,1.8c0.8,0,1.4,0.3,1.9,0.8s0.8,1.2,0.8,1.9c0,0.8-0.3,1.4-0.8,1.9s-1.2,0.8-1.9,0.8h-1.9v3h-1.1V1.8 H473.3z M473.3,6.2c0.5,0,0.9-0.2,1.2-0.5c0.3-0.3,0.5-0.7,0.5-1.2c0-1-0.7-1.7-1.6-1.7h-1.9v3.3H473.3z"></path> <path class="st11" d="M480.3,1.8c0.8,0,1.4,0.3,1.9,0.8s0.8,1.2,0.8,1.9c0,0.8-0.3,1.4-0.8,1.9s-1.2,0.8-1.9,0.8h-1.9v3h-1.1V1.8 H480.3z M480.3,6.2c0.5,0,0.9-0.2,1.2-0.5c0.3-0.3,0.5-0.7,0.5-1.2c0-1-0.7-1.7-1.6-1.7h-1.9v3.3H480.3z"></path> <path class="st11" d="M485.2,2.9c0.8-0.9,1.9-1.3,3.1-1.3s2.2,0.4,3.1,1.3c0.9,0.8,1.3,1.9,1.3,3.1c0,1.2-0.4,2.2-1.3,3.1 c-0.8,0.9-1.9,1.3-3.1,1.3s-2.2-0.4-3.1-1.3s-1.3-1.9-1.3-3.1C483.9,4.8,484.4,3.8,485.2,2.9z M490.6,3.7 c-0.6-0.6-1.4-0.9-2.3-0.9S486.6,3,486,3.7C485.4,4.3,485,5.1,485,6c0,0.9,0.3,1.7,0.9,2.3c0.6,0.6,1.4,0.9,2.3,0.9 s1.7-0.3,2.3-0.9c0.6-0.6,0.9-1.4,0.9-2.3C491.5,5.1,491.2,4.3,490.6,3.7z"></path> <path class="st11" d="M499,10.2L497.1,7h-2v3.2H494V1.8h3.4c0.7,0,1.3,0.3,1.8,0.8c0.5,0.5,0.8,1.1,0.8,1.8c0,0.5-0.2,1-0.5,1.5 c-0.3,0.4-0.7,0.8-1.2,0.9l2,3.4H499z M495.1,2.8V6h2.2c0.4,0,0.8-0.2,1.1-0.5c0.3-0.3,0.4-0.7,0.4-1.1s-0.1-0.8-0.4-1.1 c-0.3-0.3-0.6-0.5-1.1-0.5H495.1z"></path> <path class="st11" d="M506.5,1.8v1.1H504v7.3h-1.1V2.9h-2.5V1.8H506.5z"></path> </g> <g> <path class="st14" d="M277,195h4.3v2.6h-7v-11.9h2.7V195z"></path> <path class="st14" d="M282.5,185.7h2.7v11.9h-2.7V185.7z"></path> <path class="st14" d="M294.5,188.3H290v2.3h4.4v2.6H290v4.4h-2.7v-11.9h7.2V188.3z"></path> <path class="st14" d="M298.8,195h4.8v2.6h-7.5v-11.9h7.4v2.6h-4.7v2h4.3v2.6h-4.3V195z"></path> <path class="st14" d="M306.2,196.1c-1.2-1.2-1.8-2.7-1.8-4.4c0-1.8,0.6-3.2,1.8-4.4c1.2-1.2,2.7-1.8,4.4-1.8 c2.1,0,4.1,1.1,5.1,2.8l-2.3,1.4c-0.5-0.9-1.5-1.5-2.8-1.5c-1.1,0-1.9,0.3-2.5,1s-0.9,1.5-0.9,2.6c0,1.1,0.3,1.9,0.9,2.6 s1.5,1,2.5,1c1.2,0,2.3-0.6,2.8-1.5l2.3,1.4c-1,1.7-2.9,2.8-5.1,2.8C308.9,197.9,307.4,197.3,306.2,196.1z"></path> <path class="st14" d="M326.5,185.7l-4,7.3v4.6h-2.7v-4.6l-4-7.3h3.1l2.3,4.6l2.3-4.6H326.5z"></path> <path class="st14" d="M327.9,196.1c-1.2-1.2-1.8-2.7-1.8-4.4c0-1.8,0.6-3.2,1.8-4.4c1.2-1.2,2.7-1.8,4.4-1.8 c2.1,0,4.1,1.1,5.1,2.8l-2.3,1.4c-0.5-0.9-1.5-1.5-2.8-1.5c-1.1,0-1.9,0.3-2.5,1s-0.9,1.5-0.9,2.6c0,1.1,0.3,1.9,0.9,2.6 s1.5,1,2.5,1c1.2,0,2.3-0.6,2.8-1.5l2.3,1.4c-1,1.7-2.9,2.8-5.1,2.8C330.6,197.9,329.1,197.3,327.9,196.1z"></path> <path class="st14" d="M341.4,195h4.3v2.6h-7v-11.9h2.7V195z"></path> <path class="st14" d="M349.6,195h4.8v2.6h-7.5v-11.9h7.4v2.6h-4.7v2h4.3v2.6h-4.3V195z"></path> <path class="st14" d="M277.6,215.3l2.3-1.4c0.5,1.1,1.3,1.6,2.5,1.6c1.1,0,1.6-0.3,1.6-1c0-0.4-0.2-0.6-0.5-0.8 c-0.3-0.2-1-0.4-1.9-0.7c-1-0.3-1.7-0.6-2.4-1.1c-0.7-0.6-1.1-1.4-1.1-2.5c0-1.1,0.4-2,1.2-2.6c0.8-0.7,1.7-1,2.8-1 c2,0,3.5,0.9,4.4,2.7l-2.3,1.3c-0.4-0.9-1-1.4-2.1-1.4c-0.8,0-1.3,0.4-1.3,0.9c0,0.3,0.1,0.5,0.4,0.8c0.3,0.2,0.9,0.5,1.7,0.7 l1.1,0.4c0.3,0.1,0.6,0.2,1,0.5c0.4,0.2,0.7,0.4,0.9,0.7c0.4,0.5,0.8,1.2,0.8,2.2c0,1.1-0.4,2-1.2,2.7c-0.8,0.6-1.9,1-3.2,1 C279.9,218.3,278.3,217.1,277.6,215.3z"></path> <path class="st14" d="M288,206.1h2.7v7.8c0,1.1,0.6,1.7,1.9,1.7s1.9-0.6,1.9-1.7v-7.8h2.7v8.1c0,1.2-0.4,2.2-1.3,3 c-0.9,0.7-2,1.1-3.3,1.1s-2.4-0.4-3.3-1.1c-0.9-0.7-1.3-1.7-1.3-3V206.1z"></path> <path class="st14" d="M303.7,206.1c1.2,0,2.2,0.4,3,1.2s1.2,1.8,1.2,2.9s-0.4,2.1-1.2,2.9s-1.8,1.2-3,1.2h-1.8v3.7h-2.7v-11.9 H303.7z M303.7,211.7c0.8,0,1.4-0.7,1.4-1.5s-0.6-1.5-1.4-1.5h-1.8v3.1H303.7z"></path> <path class="st14" d="M313.7,206.1c1.2,0,2.2,0.4,3,1.2s1.2,1.8,1.2,2.9s-0.4,2.1-1.2,2.9s-1.8,1.2-3,1.2h-1.8v3.7h-2.7v-11.9 H313.7z M313.7,211.7c0.8,0,1.4-0.7,1.4-1.5s-0.6-1.5-1.4-1.5h-1.8v3.1H313.7z"></path> <path class="st14" d="M324.9,218.3c-1.7,0-3.2-0.6-4.4-1.8c-1.2-1.2-1.8-2.7-1.8-4.4c0-1.8,0.6-3.2,1.8-4.4 c1.2-1.2,2.7-1.8,4.4-1.8s3.2,0.6,4.4,1.8c1.2,1.2,1.8,2.7,1.8,4.4c0,1.8-0.6,3.2-1.8,4.4C328.1,217.7,326.6,218.3,324.9,218.3z M324.9,215.6c1,0,1.8-0.3,2.5-1c0.7-0.7,1-1.5,1-2.5c0-1-0.3-1.9-1-2.5c-0.7-0.7-1.5-1-2.5-1c-1,0-1.8,0.3-2.5,1 c-0.7,0.7-1,1.5-1,2.5c0,1,0.3,1.9,1,2.5C323.1,215.3,323.9,215.6,324.9,215.6z"></path> <path class="st14" d="M338.9,218l-2.2-3.9h-1.3v3.9h-2.7v-11.9h4.8c1.1,0,2.1,0.4,2.9,1.2s1.2,1.8,1.2,2.9c0,1.4-0.9,2.8-2.2,3.5 l2.5,4.4H338.9z M335.4,208.7v3.1h2c0.7,0,1.4-0.7,1.4-1.5s-0.6-1.5-1.4-1.5H335.4z"></path> <path class="st14" d="M350.8,206.1v2.6h-3.1v9.3H345v-9.3H342v-2.6H350.8z"></path> </g> <polyline class="st15" points="356.1,39.2 392,13.6 505,13.6 "></polyline> <polyline class="st15" points="432.8,82.6 466.5,64.1 549.5,64.1 "></polyline> <polyline class="st15" points="477.8,160.7 512.5,152.1 627.5,152.1 "></polyline> <polyline class="st15" points="477.8,244.9 520.5,251.1 627.5,251.1 "></polyline> <polyline class="st15" points="434.3,321.7 476.5,343.1 582.5,343.1 "></polyline> <polyline class="st15" points="356.1,366.6 381.5,395.1 497.5,395.1 "></polyline> <polyline class="st15" points="270,366.1 239.5,395.1 76.5,395.1 "></polyline> <polyline class="st15" points="193.5,321.3 150.5,328.1 7.5,328.1 "></polyline> <polyline class="st15" points="150.9,246.8 115.5,251.1 0.5,251.1 "></polyline> <polyline class="st15" points="152.4,155.9 123.5,168.1 21.5,168.1 "></polyline> <polyline class="st15" points="195.4,82.6 171.5,80.1 70.5,80.1 "></polyline> </g> </svg> 