<?xml version="1.0" encoding="UTF-8"?> <!-- Generator: Adobe Illustrator 24.1.1, SVG Export Plug-In . SVG Version: 6.00 Build 0) --> <svg xmlns="http://www.w3.org/2000/svg" xmlns:xlink="http://www.w3.org/1999/xlink" version="1.1" id="Layer_1" x="0px" y="0px" viewBox="0 0 214.1 64.9" style="enable-background:new 0 0 214.1 64.9;" xml:space="preserve"> <style type="text/css"> .st0{fill:#374FA1;} </style> <g> <path class="st0" d="M83.9,64.9c-0.1-2-0.2-3.9-0.4-5.8c-0.4-3.6-1.1-7.2-2.3-10.6c-1-2.8-2-5.6-3.4-8.3c-1.8-3.6-4.2-6.9-6.6-10.1 c-1.9-2.5-4.3-4.6-6.6-6.7c-2.3-2.1-4.8-3.8-7.3-5.4c-3.1-1.9-6.3-3.5-9.7-4.8c-0.2-0.1-0.4-0.1-0.6-0.2c1.3-0.9,2.5-1.8,3.8-2.6 c4.9-3.4,9.8-6.8,14.7-10.2C65.7,0,65.9,0,66.2,0.1c3.9,1.5,7.7,3.2,11.3,5.3c3.3,1.9,6.3,4.1,9.2,6.5c3.8,3.2,7.3,6.7,10.3,10.5 c2.2,2.8,4.2,5.9,6,9c2.5,4.5,4.5,9.2,6,14.1c1.1,3.8,1.9,7.6,2.3,11.5c0.3,2.6,0.4,5.1,0.4,7.7C102.4,64.9,93.2,64.9,83.9,64.9z"></path> <path class="st0" d="M23.9,29c1.9-1.4,3.7-2.6,5.5-3.9c3.5-2.4,6.9-4.8,10.4-7.2c0.9-0.6,1.8-1.2,2.7-1.8c0.2-0.1,0.4-0.1,0.6-0.1 c4.8,1.4,9.2,3.5,13.4,6.3c2.5,1.6,4.8,3.4,6.9,5.4c3.4,3.3,6.4,6.8,8.8,10.8c1.7,2.8,3.1,5.8,4.3,9c1.3,3.6,2.2,7.2,2.6,10.9 c0.2,1.9,0.3,3.9,0.4,5.8c0,0.2,0,0.4,0,0.6c-9.3,0-18.6,0-28,0C51.5,56.5,49,49,43.9,42.4C38.8,35.7,32.2,31.3,23.9,29z"></path> <path class="st0" d="M19.5,64.9c-0.1-5.3-1.9-9.9-5.7-13.6C10,47.6,5.4,45.8,0,45.6c1.1-0.8,2.1-1.4,3.1-2.1 c5.2-3.7,10.5-7.3,15.7-11c0.4-0.3,0.8-0.3,1.3-0.2c2.5,0.5,5,1.2,7.3,2.3c1.5,0.6,2.9,1.5,4.2,2.3c2.3,1.3,4.3,2.9,6.1,4.8 c1.3,1.4,2.6,2.8,3.7,4.3c2,2.9,3.8,6,4.7,9.5c0.8,2.9,1.3,5.8,1.4,8.8c0,0.2,0,0.4,0,0.7C38.2,64.9,28.9,64.9,19.5,64.9z"></path> <path class="st0" d="M142.6,64.8c-2.5,0-4.9,0-7.3,0c0-9.8,0-19.5,0-29.3c-3.5,0-7,0-10.5,0c0-2.1,0-4.1,0-6.1c9.4,0,18.9,0,28.3,0 c0,2,0,4,0,6.1c-3.5,0-7,0-10.5,0C142.6,45.2,142.6,55,142.6,64.8z"></path> <path class="st0" d="M165.8,35.4c-3.6,0-7,0-10.5,0c0-2,0-4.1,0-6.1c9.4,0,18.9,0,28.3,0c0,2,0,4,0,6.1c-3.5,0-7,0-10.5,0 c0,9.8,0,19.6,0,29.4c-2.5,0-4.9,0-7.3,0C165.8,55,165.8,45.3,165.8,35.4z"></path> <path class="st0" d="M203.6,64.8c-2.5,0-4.9,0-7.3,0c0-9.8,0-19.5,0-29.3c-3.5,0-7,0-10.5,0c0-2.1,0-4.1,0-6.1c9.4,0,18.9,0,28.3,0 c0,2,0,4,0,6.1c-3.5,0-7,0-10.5,0C203.6,45.2,203.6,55,203.6,64.8z"></path> </g> </svg> 