<?xml version="1.0" encoding="UTF-8"?> <!-- Generator: Adobe Illustrator 24.1.1, SVG Export Plug-In . SVG Version: 6.00 Build 0) --> <svg xmlns="http://www.w3.org/2000/svg" xmlns:xlink="http://www.w3.org/1999/xlink" version="1.1" id="Layer_1" x="0px" y="0px" viewBox="0 0 97.2 29.5" style="enable-background:new 0 0 97.2 29.5;" xml:space="preserve"> <style type="text/css"> .st0{fill:#374FA1;} </style> <g> <path class="st0" d="M38.1,29.5c-0.1-0.9-0.1-1.8-0.2-2.6c-0.2-1.6-0.5-3.3-1-4.8c-0.5-1.3-0.9-2.6-1.5-3.8c-0.8-1.6-1.9-3.1-3-4.6 c-0.9-1.2-1.9-2.1-3-3c-1-0.9-2.2-1.7-3.3-2.5c-1.4-0.9-2.9-1.6-4.4-2.2c-0.1,0-0.2-0.1-0.3-0.1c0.6-0.4,1.1-0.8,1.7-1.2 c2.2-1.5,4.4-3.1,6.7-4.6C29.8,0,29.9,0,30.1,0c1.8,0.7,3.5,1.5,5.1,2.4c1.5,0.9,2.9,1.9,4.2,3c1.7,1.4,3.3,3,4.7,4.8 c1,1.3,1.9,2.7,2.7,4.1c1.2,2,2.1,4.2,2.7,6.4c0.5,1.7,0.8,3.4,1,5.2c0.1,1.2,0.2,2.3,0.2,3.5C46.5,29.5,42.3,29.5,38.1,29.5z"></path> <path class="st0" d="M10.8,13.2c0.9-0.6,1.7-1.2,2.5-1.8c1.6-1.1,3.1-2.2,4.7-3.3c0.4-0.3,0.8-0.6,1.2-0.8c0.1,0,0.2-0.1,0.3,0 c2.2,0.7,4.2,1.6,6.1,2.8c1.1,0.7,2.2,1.5,3.2,2.5c1.5,1.5,2.9,3.1,4,4.9c0.8,1.3,1.4,2.7,1.9,4.1c0.6,1.6,1,3.3,1.2,5 c0.1,0.9,0.1,1.8,0.2,2.6c0,0.1,0,0.2,0,0.3c-4.2,0-8.5,0-12.7,0c-0.1-3.8-1.2-7.2-3.5-10.2C17.6,16.2,14.6,14.2,10.8,13.2z"></path> <path class="st0" d="M8.8,29.5C8.8,27.1,8,25,6.3,23.3c-1.7-1.7-3.8-2.5-6.3-2.6c0.5-0.3,0.9-0.7,1.4-1c2.4-1.7,4.8-3.3,7.1-5 c0.2-0.1,0.4-0.2,0.6-0.1c1.1,0.2,2.3,0.6,3.3,1c0.7,0.3,1.3,0.7,1.9,1c1,0.6,2,1.3,2.8,2.2c0.6,0.6,1.2,1.3,1.7,2 c0.9,1.3,1.7,2.7,2.1,4.3c0.3,1.3,0.6,2.6,0.6,4c0,0.1,0,0.2,0,0.3C17.3,29.5,13.1,29.5,8.8,29.5z"></path> <path class="st0" d="M64.7,29.4c-1.1,0-2.2,0-3.3,0c0-4.4,0-8.9,0-13.3c-1.6,0-3.2,0-4.8,0c0-0.9,0-1.9,0-2.8c4.3,0,8.6,0,12.9,0 c0,0.9,0,1.8,0,2.8c-1.6,0-3.2,0-4.8,0C64.7,20.5,64.7,25,64.7,29.4z"></path> <path class="st0" d="M75.3,16.1c-1.6,0-3.2,0-4.8,0c0-0.9,0-1.8,0-2.8c4.3,0,8.6,0,12.9,0c0,0.9,0,1.8,0,2.8c-1.6,0-3.2,0-4.8,0 c0,4.5,0,8.9,0,13.3c-1.1,0-2.2,0-3.3,0C75.3,25,75.3,20.6,75.3,16.1z"></path> <path class="st0" d="M92.4,29.4c-1.1,0-2.2,0-3.3,0c0-4.4,0-8.9,0-13.3c-1.6,0-3.2,0-4.8,0c0-0.9,0-1.9,0-2.8c4.3,0,8.6,0,12.9,0 c0,0.9,0,1.8,0,2.8c-1.6,0-3.2,0-4.8,0C92.4,20.5,92.4,25,92.4,29.4z"></path> </g> </svg> 