<?xml version="1.0" encoding="UTF-8"?> <!-- Generator: Adobe Illustrator 24.1.1, SVG Export Plug-In . SVG Version: 6.00 Build 0) --> <svg xmlns="http://www.w3.org/2000/svg" xmlns:xlink="http://www.w3.org/1999/xlink" version="1.1" id="Layer_1" x="0px" y="0px" viewBox="0 0 708.5 465" style="enable-background:new 0 0 708.5 465;" xml:space="preserve"> <style type="text/css"> .st0{fill:#FFFFFF;} .st1{fill:none;stroke:#3A53A4;stroke-width:7.7983;stroke-linecap:round;stroke-linejoin:round;stroke-miterlimit:10;} .st2{fill:none;stroke:#603913;stroke-width:7.7983;stroke-linecap:round;stroke-linejoin:round;stroke-miterlimit:10;} .st3{fill:none;stroke:#ED1C24;stroke-width:7.7983;stroke-linecap:round;stroke-linejoin:round;stroke-miterlimit:10;} .st4{fill:none;stroke:#211D70;stroke-width:7.7983;stroke-linecap:round;stroke-linejoin:round;stroke-miterlimit:10;} .st5{fill:none;stroke:#3A53A4;stroke-width:4;stroke-miterlimit:10;} .st6{fill:#211D70;} .st7{fill:#603913;} .st8{fill:#ED1C24;} .st9{fill:#3A53A4;} .st10{fill:#6D6E71;} </style> <path class="st0" d="M681,465H27.5C12.3,465,0,452.7,0,437.5v-410C0,12.3,12.3,0,27.5,0H681c15.2,0,27.5,12.3,27.5,27.5v410 C708.5,452.7,696.2,465,681,465z"></path> <g> <g> <circle class="st1" cx="208.4" cy="73.9" r="32.5"></circle> <circle class="st1" cx="503.1" cy="73.9" r="32.5"></circle> <circle class="st2" cx="277.1" cy="73.9" r="32.5"></circle> <circle class="st3" cx="434.5" cy="73.9" r="32.5"></circle> <path class="st1" d="M463.5,125l-15.4,15.4c-2.7,2.7-2.7,7.1,0,9.8l47.1,47.1c2.7,2.7,7.1,2.7,9.8,0l47.1-47.1 c2.7-2.7,2.7-7.1,0-9.8L536.7,125"></path> <path class="st1" d="M245,125l-15.4,15.4c-2.7,2.7-2.7,7.1,0,9.8l47.1,47.1c2.7,2.7,7.1,2.7,9.8,0l47.1-47.1 c2.7-2.7,2.7-7.1,0-9.8L318.2,125"></path> <path class="st1" d="M171.9,125l-15.4,15.4c-2.7,2.7-2.7,7.1,0,9.8l47.1,47.1c2.7,2.7,7.1,2.7,9.8,0l47.1-47.1 c2.7-2.7,2.7-7.1,0-9.8L245,125"></path> <path class="st1" d="M390.5,125L375,140.4c-2.7,2.7-2.7,7.1,0,9.8l47.1,47.1c2.7,2.7,7.1,2.7,9.8,0l47.1-47.1 c2.7-2.7,2.7-7.1,0-9.8L463.6,125"></path> <circle class="st4" cx="355.3" cy="73.9" r="43.3"></circle> <path class="st1" d="M317.8,125l-15.4,15.4c-2.7,2.7-2.7,7.1,0,9.8l47.1,47.1c2.7,2.7,7.1,2.7,9.8,0l47.1-47.1 c2.7-2.7,2.7-7.1,0-9.8L391,125"></path> </g> <path class="st5" d="M136,164.9H65.6c-8.3,0-15,6.7-15,15v239.6c0,8.3,6.7,15,15,15h577.3c8.3,0,15-6.7,15-15V179.9 c0-8.3-6.7-15-15-15h-70.4"></path> <g> <g> <path class="st6" d="M81.7,238.9h119.2v30.8h-40v93.9h-39.2v-93.9h-40V238.9z"></path> <path class="st7" d="M218.5,238.9h105.1v26.6h-65.8v19.8h61v25.4h-61v24.6h67.7v28.2h-107V238.9z"></path> <path class="st8" d="M424.7,343h-44.5l-6.2,20.6h-40l47.7-124.6h42.8l47.7,124.6H431L424.7,343z M416.5,316l-14-44.8L388.7,316 H416.5z"></path> <path class="st9" d="M484.1,238.9h51.6l19.9,75.8l19.7-75.8h51.5v124.6h-32.1v-95.1L570,363.5h-29.1l-24.7-95.1v95.1h-32.1V238.9 z"></path> </g> <g> <path class="st6" d="M81.7,382.7h19.4v5.1h-6.5v15.6h-6.4v-15.6h-6.5V382.7z"></path> <path class="st10" d="M103.1,394.8c0-2.9,0.8-5.1,2.4-6.7c1.6-1.6,3.8-2.4,6.7-2.4c2.9,0,5.2,0.8,6.7,2.3 c1.6,1.6,2.4,3.8,2.4,6.6c0,2-0.3,3.7-1,5c-0.7,1.3-1.7,2.3-3,3.1c-1.3,0.7-2.9,1.1-4.9,1.1c-2,0-3.6-0.3-4.9-0.9 c-1.3-0.6-2.3-1.6-3.1-3C103.5,398.5,103.1,396.8,103.1,394.8z M108.5,394.8c0,1.8,0.3,3,1,3.8c0.7,0.8,1.6,1.2,2.7,1.2 c1.2,0,2.1-0.4,2.7-1.1c0.6-0.8,1-2.1,1-4.1c0-1.6-0.3-2.9-1-3.6c-0.7-0.8-1.6-1.1-2.7-1.1c-1.1,0-2,0.4-2.6,1.2 C108.8,391.7,108.5,393,108.5,394.8z"></path> <path class="st10" d="M133,397.2v-3.6h8.4v7.5c-1.6,1.1-3,1.8-4.2,2.2c-1.2,0.4-2.7,0.6-4.4,0.6c-2.1,0-3.8-0.4-5.1-1.1 c-1.3-0.7-2.3-1.8-3-3.2c-0.7-1.4-1.1-3-1.1-4.8c0-1.9,0.4-3.6,1.2-5c0.8-1.4,1.9-2.5,3.5-3.2c1.2-0.6,2.8-0.8,4.8-0.8 c1.9,0,3.4,0.2,4.3,0.5c1,0.4,1.8,0.9,2.4,1.6c0.6,0.7,1.1,1.7,1.4,2.8l-5.2,0.9c-0.2-0.7-0.6-1.2-1.1-1.5s-1.2-0.5-2-0.5 c-1.2,0-2.1,0.4-2.8,1.2c-0.7,0.8-1.1,2.1-1.1,3.9c0,1.9,0.4,3.3,1.1,4.1c0.7,0.8,1.7,1.2,3,1.2c0.6,0,1.2-0.1,1.7-0.3 c0.5-0.2,1.2-0.5,1.9-0.9v-1.6H133z"></path> <path class="st10" d="M144.5,386H159v3.7H150v2.8h8.4v3.6H150v3.5h9.3v4h-14.8V386z"></path> <path class="st10" d="M161,386h16.5v4.3h-5.5v13.2h-5.4v-13.2H161V386z"></path> <path class="st10" d="M179.9,386h5.4v6.1h5.9V386h5.4v17.5h-5.4v-7.1h-5.9v7.1h-5.4V386z"></path> <path class="st10" d="M200.3,386h14.5v3.7h-9.1v2.8h8.4v3.6h-8.4v3.5h9.3v4h-14.8V386z"></path> <path class="st10" d="M218,403.5V386h9c1.7,0,3,0.1,3.8,0.4c0.9,0.3,1.6,0.8,2.1,1.6c0.5,0.8,0.8,1.7,0.8,2.8 c0,1-0.2,1.8-0.6,2.5c-0.4,0.7-1,1.3-1.7,1.7c-0.5,0.3-1.1,0.5-1.9,0.7c0.6,0.2,1.1,0.4,1.4,0.6c0.2,0.1,0.5,0.5,0.9,0.9 c0.4,0.5,0.6,0.8,0.8,1.1l2.6,5.1h-6.1l-2.9-5.4c-0.4-0.7-0.7-1.1-1-1.4c-0.4-0.3-0.8-0.4-1.3-0.4h-0.5v7.1H218z M223.5,393.1 h2.3c0.2,0,0.7-0.1,1.4-0.2c0.4-0.1,0.7-0.3,0.9-0.6c0.2-0.3,0.3-0.6,0.3-1c0-0.6-0.2-1-0.5-1.3c-0.4-0.3-1-0.5-2-0.5h-2.4V393.1 z"></path> <path class="st7" d="M242.5,383.1h17.1v4.4h-10.7v3.3h9.9v4.2h-9.9v4.1h11v4.7h-17.4V383.1z"></path> <path class="st10" d="M261.1,386h5.7l3.9,12.6l3.9-12.6h5.5l-6.5,17.5h-5.9L261.1,386z"></path> <path class="st10" d="M281.9,386h14.5v3.7h-9.1v2.8h8.4v3.6h-8.4v3.5h9.3v4h-14.8V386z"></path> <path class="st10" d="M299.6,403.5V386h9c1.7,0,3,0.1,3.8,0.4c0.9,0.3,1.6,0.8,2.1,1.6c0.5,0.8,0.8,1.7,0.8,2.8 c0,1-0.2,1.8-0.6,2.5c-0.4,0.7-1,1.3-1.7,1.7c-0.5,0.3-1.1,0.5-1.9,0.7c0.6,0.2,1.1,0.4,1.4,0.6c0.2,0.1,0.5,0.5,0.9,0.9 c0.4,0.5,0.6,0.8,0.8,1.1l2.6,5.1h-6.1l-2.9-5.4c-0.4-0.7-0.7-1.1-1-1.4c-0.4-0.3-0.8-0.4-1.3-0.4h-0.5v7.1H299.6z M305.1,393.1 h2.3c0.2,0,0.7-0.1,1.4-0.2c0.4-0.1,0.7-0.3,0.9-0.6c0.2-0.3,0.3-0.6,0.3-1c0-0.6-0.2-1-0.5-1.3c-0.4-0.3-1-0.5-2-0.5h-2.4V393.1 z"></path> <path class="st10" d="M315.8,386h6l3.5,5.9l3.5-5.9h6l-6.8,10.2v7.3h-5.4v-7.3L315.8,386z"></path> <path class="st10" d="M334.4,394.8c0-2.9,0.8-5.1,2.4-6.7c1.6-1.6,3.8-2.4,6.7-2.4c2.9,0,5.2,0.8,6.7,2.3 c1.6,1.6,2.4,3.8,2.4,6.6c0,2-0.3,3.7-1,5c-0.7,1.3-1.7,2.3-3,3.1c-1.3,0.7-2.9,1.1-4.9,1.1c-2,0-3.6-0.3-4.9-0.9 c-1.3-0.6-2.3-1.6-3.1-3C334.8,398.5,334.4,396.8,334.4,394.8z M339.9,394.8c0,1.8,0.3,3,1,3.8c0.7,0.8,1.6,1.2,2.7,1.2 c1.2,0,2.1-0.4,2.7-1.1c0.6-0.8,1-2.1,1-4.1c0-1.6-0.3-2.9-1-3.6c-0.7-0.8-1.6-1.1-2.7-1.1c-1.1,0-2,0.4-2.6,1.2 C340.2,391.7,339.9,393,339.9,394.8z"></path> <path class="st10" d="M355.6,386h5.1l6.6,9.7V386h5.1v17.5h-5.1l-6.6-9.6v9.6h-5.1V386z"></path> <path class="st10" d="M375.9,386h14.5v3.7h-9.1v2.8h8.4v3.6h-8.4v3.5h9.3v4h-14.8V386z"></path> <path class="st8" d="M411.9,399.7h-7.3l-1,3.4h-6.5l7.8-20.7h7l7.8,20.7h-6.7L411.9,399.7z M410.6,395.2l-2.3-7.4l-2.3,7.4H410.6 z"></path> <path class="st10" d="M432,396.3l4.7,1.4c-0.3,1.3-0.8,2.4-1.5,3.3c-0.7,0.9-1.5,1.6-2.6,2c-1,0.5-2.3,0.7-3.9,0.7 c-1.9,0-3.5-0.3-4.7-0.8c-1.2-0.6-2.2-1.5-3.1-2.9c-0.9-1.4-1.3-3.2-1.3-5.4c0-2.9,0.8-5.1,2.3-6.7c1.5-1.6,3.7-2.3,6.5-2.3 c2.2,0,3.9,0.4,5.2,1.3s2.2,2.3,2.8,4.1l-4.8,1.1c-0.2-0.5-0.3-0.9-0.5-1.2c-0.3-0.4-0.7-0.7-1.1-1c-0.4-0.2-0.9-0.3-1.5-0.3 c-1.2,0-2.2,0.5-2.8,1.5c-0.5,0.7-0.7,1.9-0.7,3.4c0,1.9,0.3,3.3,0.9,4c0.6,0.7,1.4,1.1,2.5,1.1c1,0,1.8-0.3,2.3-0.9 C431.4,398.3,431.8,397.4,432,396.3z"></path> <path class="st10" d="M439.4,386h5.4v6.1h5.9V386h5.4v17.5h-5.4v-7.1h-5.9v7.1h-5.4V386z"></path> <path class="st10" d="M460,386h5.4v17.5H460V386z"></path> <path class="st10" d="M469.3,386h14.5v3.7h-9.1v2.8h8.4v3.6h-8.4v3.5h9.3v4h-14.8V386z"></path> <path class="st10" d="M485.3,386h5.7l3.9,12.6l3.9-12.6h5.5l-6.5,17.5h-5.9L485.3,386z"></path> <path class="st10" d="M506,386h14.5v3.7h-9.1v2.8h8.4v3.6h-8.4v3.5h9.3v4H506V386z"></path> <path class="st10" d="M522.8,397.7l5.2-0.3c0.1,0.8,0.3,1.5,0.7,1.9c0.6,0.7,1.4,1.1,2.4,1.1c0.8,0,1.4-0.2,1.8-0.5 c0.4-0.4,0.6-0.8,0.6-1.3c0-0.5-0.2-0.9-0.6-1.2c-0.4-0.4-1.3-0.7-2.8-1c-2.4-0.5-4.1-1.2-5.1-2.1c-1-0.9-1.5-2-1.5-3.4 c0-0.9,0.3-1.8,0.8-2.6c0.5-0.8,1.3-1.4,2.4-1.9c1-0.5,2.5-0.7,4.3-0.7c2.2,0,3.9,0.4,5.1,1.2c1.2,0.8,1.9,2.2,2.1,4l-5.1,0.3 c-0.1-0.8-0.4-1.4-0.9-1.7c-0.4-0.4-1-0.5-1.8-0.5c-0.6,0-1.1,0.1-1.4,0.4c-0.3,0.3-0.5,0.6-0.5,1c0,0.3,0.1,0.5,0.4,0.8 c0.3,0.2,0.9,0.4,1.8,0.6c2.4,0.5,4.1,1,5.1,1.5c1,0.5,1.8,1.2,2.2,1.9c0.5,0.8,0.7,1.6,0.7,2.6c0,1.1-0.3,2.2-0.9,3.1 c-0.6,0.9-1.5,1.7-2.6,2.2c-1.1,0.5-2.5,0.7-4.2,0.7c-3,0-5-0.6-6.2-1.7C523.6,400.9,522.9,399.5,522.8,397.7z"></path> <path class="st9" d="M546.5,382.4h8.4l3.2,12.6l3.2-12.6h8.4v20.7h-5.2v-15.8l-4,15.8h-4.7l-4-15.8v15.8h-5.2V382.4z"></path> <path class="st10" d="M572,394.8c0-2.9,0.8-5.1,2.4-6.7c1.6-1.6,3.8-2.4,6.7-2.4c2.9,0,5.2,0.8,6.7,2.3c1.6,1.6,2.4,3.8,2.4,6.6 c0,2-0.3,3.7-1,5c-0.7,1.3-1.7,2.3-3,3.1c-1.3,0.7-2.9,1.1-4.9,1.1c-2,0-3.6-0.3-4.9-0.9c-1.3-0.6-2.3-1.6-3.1-3 C572.4,398.5,572,396.8,572,394.8z M577.4,394.8c0,1.8,0.3,3,1,3.8c0.7,0.8,1.6,1.2,2.7,1.2c1.2,0,2.1-0.4,2.7-1.1 c0.6-0.8,1-2.1,1-4.1c0-1.6-0.3-2.9-1-3.6c-0.7-0.8-1.6-1.1-2.7-1.1c-1.1,0-2,0.4-2.6,1.2C577.7,391.7,577.4,393,577.4,394.8z"></path> <path class="st10" d="M593.1,403.5V386h9c1.7,0,3,0.1,3.8,0.4c0.9,0.3,1.6,0.8,2.1,1.6c0.5,0.8,0.8,1.7,0.8,2.8 c0,1-0.2,1.8-0.6,2.5c-0.4,0.7-1,1.3-1.7,1.7c-0.5,0.3-1.1,0.5-1.9,0.7c0.6,0.2,1.1,0.4,1.4,0.6c0.2,0.1,0.5,0.5,0.9,0.9 c0.4,0.5,0.6,0.8,0.8,1.1l2.6,5.1h-6.1l-2.9-5.4c-0.4-0.7-0.7-1.1-1-1.4c-0.4-0.3-0.8-0.4-1.3-0.4h-0.5v7.1H593.1z M598.6,393.1 h2.3c0.2,0,0.7-0.1,1.4-0.2c0.4-0.1,0.7-0.3,0.9-0.6c0.2-0.3,0.3-0.6,0.3-1c0-0.6-0.2-1-0.5-1.3s-1-0.5-2-0.5h-2.4V393.1z"></path> <path class="st10" d="M612.1,386h14.5v3.7h-9.1v2.8h8.4v3.6h-8.4v3.5h9.3v4h-14.8V386z"></path> </g> </g> </g> </svg> 