<?xml version="1.0" standalone="no"?>
<!DOCTYPE svg PUBLIC "-//W3C//DTD SVG 20010904//EN"
 "http://www.w3.org/TR/2001/REC-SVG-20010904/DTD/svg10.dtd">
<svg version="1.0" xmlns="http://www.w3.org/2000/svg"
 width="521.000000pt" height="150.000000pt" viewBox="0 0 521.000000 150.000000"
 preserveAspectRatio="xMidYMid meet">

<g transform="translate(0.000000,150.000000) scale(0.100000,-0.100000)"
fill="#000000" stroke="none">
<path d="M199 1474 c-63 -19 -140 -90 -170 -156 l-24 -53 0 -515 0 -515 28
-57 c34 -69 91 -121 165 -148 53 -20 72 -21 561 -18 492 3 507 4 552 24 60 28
116 85 145 148 l24 51 0 516 0 516 -31 61 c-35 72 -83 114 -157 142 -50 19
-78 20 -550 19 -401 0 -506 -3 -543 -15z m981 -639 l0 -515 -515 0 -515 0 0
515 0 515 515 0 515 0 0 -515z"/>
<path d="M190 1308 c0 -7 97 -223 216 -480 l217 -468 184 0 c100 0 183 3 183
6 0 9 140 896 146 927 l6 27 -135 0 -135 0 -6 -37 c-4 -21 -24 -175 -46 -342
-22 -167 -42 -306 -45 -309 -2 -2 -11 13 -20 34 -9 22 -75 176 -148 344 l-133
305 -142 3 c-110 2 -142 0 -142 -10z"/>
<path d="M1683 1293 c3 -5 46 -135 96 -290 l92 -283 69 0 69 0 92 283 c50 155
93 286 96 290 3 4 -28 7 -67 5 l-73 -3 -53 -200 c-30 -110 -57 -207 -60 -215
-3 -8 -26 59 -50 150 -25 91 -51 189 -59 218 l-16 52 -70 0 c-39 0 -68 -3 -66
-7z"/>
<path d="M2250 1010 l0 -291 68 3 67 3 3 288 2 287 -70 0 -70 0 0 -290z"/>
<path d="M2482 1013 l3 -288 198 -3 197 -2 0 55 0 55 -130 0 -130 0 0 70 0 70
110 0 110 0 0 50 0 50 -110 0 -110 0 0 65 0 65 130 0 130 0 0 50 0 50 -200 0
-200 0 2 -287z"/>
<path d="M2910 1250 l0 -50 75 0 75 0 0 -240 0 -240 65 0 65 0 2 238 3 237 78
3 77 3 0 49 0 50 -220 0 -220 0 0 -50z"/>
<path d="M3360 1293 c0 -4 32 -107 71 -228 39 -121 80 -248 91 -283 l19 -63
71 3 72 3 92 285 92 285 -65 3 c-36 2 -67 1 -70 -1 -2 -3 -30 -101 -63 -218
-32 -118 -59 -212 -60 -209 -1 3 -27 99 -58 215 l-57 210 -68 3 c-37 2 -67 -1
-67 -5z"/>
<path d="M3922 1013 l3 -288 65 0 65 0 3 288 2 287 -70 0 -70 0 2 -287z"/>
<path d="M4160 1010 l0 -290 65 0 65 0 0 182 c0 112 4 178 9 173 5 -6 51 -82
101 -170 51 -88 97 -166 102 -173 8 -9 31 -12 72 -10 l61 3 3 288 2 287 -70 0
-70 0 0 -182 0 -182 -104 179 -103 180 -67 3 -66 3 0 -291z"/>
<path d="M4730 1010 l0 -290 65 0 65 0 0 120 0 120 105 0 104 0 3 -117 3 -118
65 0 65 0 3 288 2 287 -70 0 -70 0 0 -120 0 -120 -105 0 -105 0 0 120 0 120
-65 0 -65 0 0 -290z"/>
</g>
</svg>
