<?xml version="1.0" standalone="no"?>
<!DOCTYPE svg PUBLIC "-//W3C//DTD SVG 1.1//EN" "http://www.w3.org/Graphics/SVG/1.1/DTD/svg11.dtd" >
<svg>
<metadata>
Created by FontForge 20090914 at Wed Jun  3 10:36:55 2020
 By www-data
Copyright &#194;&#169; 2016 by Radomir Tinkov. All rights reserved.
</metadata>
<defs>
<font id="SVN-GilroySemiBold" horiz-adv-x="655" >
  <font-face 
    font-family="SVN-Gilroy SemiBold"
    font-weight="600"
    font-stretch="normal"
    units-per-em="1000"
    panose-1="0 0 7 0 0 0 0 0 0 0"
    ascent="800"
    descent="-200"
    x-height="500"
    cap-height="700"
    bbox="-382 -255.003 1064 1079"
    underline-thickness="50"
    underline-position="-50"
    unicode-range="U+0020-U+FB02"
  />
<missing-glyph horiz-adv-x="500" 
d="M410 800v-1000h-317v1000h317zM333 733h-165v-33h65v-37h-66v-33h166v33h-66v37h66v33zM267 604h-100v-104h166v34h-66v70zM233 570v-36h-33v36h33zM333 473h-166v-33h66v-37h-66v-33h100v70h66v33zM333 413h-33v-66h-133v-34h166v100zM333 291h-100v-56h34v23h33v-47
h-100v80h-33v-113h166v113zM333 118h-166v-113h166v113zM300 85v-47h-100v47h100zM333 -18h-166v-33h70l-70 -47v-33h166v33h-102l70 47h32v33z" />
    <glyph glyph-name="fi" unicode="fi" horiz-adv-x="543" 
d="M481 500v-499.999h-108v396h-166v-396h-108v396h-76v104h76v10c0 135.333 75.333 203 226 203c36.667 0 73.667 -4.33301 111 -13v-99c-17.333 2.66699 -35.333 4.66699 -54 6s-37.667 2 -57 2c-40 0 -69.667 -7.33301 -89 -22s-29 -40.334 -29 -77.001v-10h274z" />
    <glyph glyph-name="fl" unicode="fl" horiz-adv-x="543" 
d="M325 713c46.667 0 98.667 -6 156 -18v-695h-108v617c-5.33301 0.666992 -12 1 -20 1h-28c-78.667 0 -118 -36 -118 -108v-10h93v-104h-93v-396h-108v396h-76v104h76v10c0 135.333 75.333 203 226 203z" />
    <glyph glyph-name="f_f" unicode="ff" horiz-adv-x="600" 
d="M600 619c-78.667 6.66699 -118 -26.335 -118 -99.002v-20h118v-104h-118v-396h-108v396h-167v-396h-108v396h-76v104h76v10c0 68.667 19 120.834 57 156.501s94.333 51.167 169 46.5v-104c-78.667 6.66699 -118 -26.333 -118 -99v-10h167v20
c0 68.667 19 120.834 57 156.501s94.333 51.167 169 46.5v-104z" />
    <glyph glyph-name="f_f_i" unicode="ffi" horiz-adv-x="818" 
d="M756 500v-500h-108v396h-166v-396h-108v396h-167v-396h-108v396h-76v104h76v10c0 68.667 19 120.834 57 156.501s94.333 51.167 169 46.5v-104c-78.667 6.66699 -118 -26.333 -118 -99v-10h167v20c0 135.333 75.333 203 226 203c36.667 0 73.667 -4.33301 111 -13v-99
c-17.333 2.66699 -35.333 4.66699 -54 6s-37.667 2 -57 2c-40 0 -69.667 -7.33301 -89 -22s-29 -40.334 -29 -77.001v-20h274z" />
    <glyph glyph-name="f_f_l" unicode="ffl" horiz-adv-x="818" 
d="M600 723c46.667 0 98.667 -6.00098 156 -18.001v-705h-108v627c-5.33301 0.666992 -12 1 -20 1h-28c-78.667 0 -118 -36 -118 -108v-20h93v-104h-93v-396h-108v396h-167v-396h-108v396h-76v104h76v10c0 68.667 19 120.834 57 156.501s94.333 51.167 169 46.5v-104
c-78.667 6.66699 -118 -26.333 -118 -99v-10h167v20c0 135.333 75.333 203 226 203z" />
    <glyph glyph-name=".notdef" horiz-adv-x="500" 
d="M410 800v-1000h-317v1000h317zM333 733h-165v-33h65v-37h-66v-33h166v33h-66v37h66v33zM267 604h-100v-104h166v34h-66v70zM233 570v-36h-33v36h33zM333 473h-166v-33h66v-37h-66v-33h100v70h66v33zM333 413h-33v-66h-133v-34h166v100zM333 291h-100v-56h34v23h33v-47
h-100v80h-33v-113h166v113zM333 118h-166v-113h166v113zM300 85v-47h-100v47h100zM333 -18h-166v-33h70l-70 -47v-33h166v33h-102l70 47h32v33z" />
    <glyph glyph-name="space" unicode=" " horiz-adv-x="250" 
 />
    <glyph glyph-name="space" unicode="&#xa0;" horiz-adv-x="250" 
 />
    <glyph glyph-name="exclam" unicode="!" horiz-adv-x="255" 
d="M85 220l-22 280v200h130v-200l-23 -280h-85zM128 138c20.667 0 38.3359 -7.33301 53.0029 -22s22 -32.334 22 -53.001s-7.33301 -38.334 -22 -53.001s-32.334 -22 -53.001 -22s-38.334 7.33301 -53.001 22s-22 32.334 -22 53.001s7.16699 38.334 21.5 53.001
s32.166 22 53.499 22z" />
    <glyph glyph-name="quotedbl" unicode="&#x22;" horiz-adv-x="355" 
d="M60 480l-15 220h105l-15 -220h-75zM220 480l-15 220h105l-15 -220h-75z" />
    <glyph glyph-name="numbersign" unicode="#" horiz-adv-x="610" 
d="M571 400h-112l-16 -100h112l-13 -85h-113l-28 -165h-89l28 165h-112l-28 -165h-89l28 165h-114l14 85h114l16 100h-114l14 85h115l27 165h89l-27 -165h112l27 165h89l-27 -165h111zM354 300l16 100h-112l-16 -100h112z" />
    <glyph glyph-name="dollar" unicode="$" horiz-adv-x="549" 
d="M519 192c0 -28 -4.83105 -53.666 -14.498 -76.999s-23.167 -43.666 -40.5 -60.999s-38 -31.5 -62 -42.5s-50.667 -18.5 -80 -22.5v-89h-65v88c-56 3.33301 -103.5 18.333 -142.5 45s-67.167 63 -84.5 109l99 57c22.667 -58 65.334 -90.667 128.001 -98v208l-40.5 16
c-11.667 4.66699 -22.5 9.5 -32.5 14.5s-19.833 10.5 -29.5 16.5s-19.834 13 -30.501 21c-41.333 32 -62 78.333 -62 139c0 55.333 18.667 100.666 56 135.999c36.667 34.667 83 54.667 139 60v88h65v-89c88.667 -12 150.667 -57.667 186 -137l-97 -56
c-17.333 43.333 -47 69.666 -89 78.999v-198l28 -10.5c8 -3 14.667 -5.83301 20 -8.5c6 -2 12.833 -4.83301 20.5 -8.5l24 -12c8.33301 -4.33301 16.166 -9 23.499 -14s13.666 -9.83301 18.999 -14.5c16.667 -14 31.667 -32.667 45 -56s19 -51 17 -83zM177.002 516.001
c0 -20.667 6.16699 -37.668 18.5 -51.001s32.833 -26.666 61.5 -39.999v174c-24.667 -4 -44.167 -13.333 -58.5 -28s-21.5 -33 -21.5 -55zM322.002 102c26.667 5.33301 47 15.999 61 31.999s21 35 21 57s-6.66699 39.833 -20 53.5s-34 26.834 -62 39.501v-182z" />
    <glyph glyph-name="percent" unicode="%" horiz-adv-x="747" 
d="M377 553c0 -44.667 -15.667 -82.667 -47 -114c-30.667 -30.667 -69.334 -46 -116.001 -46c-47.333 0 -86.333 15.333 -117 46c-31.333 31.333 -47 69.333 -47 114c0 44 15.667 81.667 47 113s70.333 47 117 47s85.334 -15.333 116.001 -46
c31.333 -31.333 47 -69.333 47 -114zM213 481c21.333 0 38.666 7 51.999 21s20 31 20 51c0 20.667 -6.66699 38 -20 52s-30.666 21 -51.999 21c-20.667 0 -37.667 -7 -51 -21s-20 -31.333 -20 -52c0 -20 6.66699 -37 20 -51s30.333 -21 51 -21zM109 103l461 513l54 -31
l-461 -514zM534 -12c-47.333 0 -86.332 15.333 -116.999 46c-31.333 31.333 -47 69.333 -47 114c0 44 15.667 81.667 47 113s70.333 47 117 47c46 0 84.667 -15.667 116 -47s47 -69 47 -113c0 -44.667 -15.667 -82.667 -47 -114c-30.667 -30.667 -69.334 -46 -116.001 -46z
M533.001 76c21.333 0 38.666 7 51.999 21s20 31 20 51c0 20.667 -6.66699 38 -20 52s-30.666 21 -51.999 21c-20.667 0 -37.667 -7 -51 -21s-20 -31.333 -20 -52c0 -20 6.66699 -37 20 -51s30.333 -21 51 -21z" />
    <glyph glyph-name="ampersand" unicode="&#x26;" horiz-adv-x="668" 
d="M645 35l-93.0029 -54.001l-67 72c-55.333 -44 -120.333 -66 -195 -66c-71.333 0 -129.333 18.333 -174 55c-44 36.667 -66 86.667 -66 150c0 42 10.5 80.667 31.5 116s51.5 63.666 91.5 84.999c-26.667 36.667 -40 77.334 -40 122.001
c0 58.667 20.333 106.334 61 143.001s91.334 55 152.001 55c48 0 91.333 -12.667 130 -38s67.334 -61.333 86.001 -108l-98 -56c-9.33301 28 -24.166 50 -44.499 66s-44.5 24 -72.5 24s-51.5 -8.16699 -70.5 -24.5s-28.5 -37.833 -28.5 -64.5c0 -14 3 -28 9 -42
s12.5 -25.5 19.5 -34.5s17.5 -20.833 31.5 -35.5l170 -184c16.667 34 28.667 74.667 36 122l98 -56c-12 -56 -31.333 -105.333 -58 -148zM295.997 93.999c44.667 0 83.333 12.332 116 36.999l-172 185c-49.333 -25.333 -74 -63.666 -74 -114.999
c0 -32.667 11.167 -58.667 33.5 -78s54.5 -29 96.5 -29z" />
    <glyph glyph-name="quotesingle" unicode="'" horiz-adv-x="195" 
d="M60 480l-15 220h105l-15 -220h-75z" />
    <glyph glyph-name="parenleft" unicode="(" horiz-adv-x="293" 
d="M165 -100c-74 147.333 -111 297.333 -111 450s37 302.667 111 450h108c-74 -147.333 -111 -297.333 -111 -450s37 -302.667 111 -450h-108z" />
    <glyph glyph-name="parenright" unicode=")" horiz-adv-x="293" 
d="M20 -100c74 147.333 111 297.333 111 450s-37 302.667 -111 450h108c74 -147.333 111 -297.333 111 -450s-37 -302.667 -111 -450h-108z" />
    <glyph glyph-name="asterisk" unicode="*" horiz-adv-x="396" 
d="M341 609v-72l-90 6l53 -72l-62 -38l-44 83l-44 -83l-62 38l54 72l-91 -6v72l91 -6l-54 72l62 38l44 -83l44 83l62 -38l-53 -72z" />
    <glyph glyph-name="plus" unicode="+" horiz-adv-x="550" 
d="M495 401v-102h-169v-169h-102v169h-169v102h169v169h102v-169h169z" />
    <glyph glyph-name="comma" unicode="," horiz-adv-x="265" 
d="M213 120l-70 -260h-90l40 260h120z" />
    <glyph glyph-name="hyphen" unicode="-" horiz-adv-x="510" 
d="M70 252v104h370v-104h-370z" />
    <glyph glyph-name="period" unicode="." horiz-adv-x="255" 
d="M128 138c20.667 0 38.3359 -7.33301 53.0029 -22s22 -32.334 22 -53.001s-7.33301 -38.334 -22 -53.001s-32.334 -22 -53.001 -22s-38.334 7.33301 -53.001 22s-22 32.334 -22 53.001s7.16699 38.334 21.5 53.001s32.166 22 53.499 22z" />
    <glyph glyph-name="slash" unicode="/" horiz-adv-x="525" 
d="M90 -100h-55l400 900h55z" />
    <glyph glyph-name="zero" unicode="0" horiz-adv-x="630" 
d="M517 86c-48 -66 -115.333 -99 -202 -99s-154.334 33 -203.001 99c-48 66 -72 154 -72 264s24 198 72 264c48.667 66 116.334 99 203.001 99s154 -33 202 -99c48.667 -65.333 73 -153.333 73 -264s-24.333 -198.667 -73 -264zM315 99c52 0 91.667 21.667 119 65
s41 105.333 41 186s-13.667 142.667 -41 186s-67 65 -119 65s-91.667 -21.667 -119 -65s-41 -105.333 -41 -186s13.667 -142.667 41 -186s67 -65 119 -65z" />
    <glyph glyph-name="one" unicode="1" horiz-adv-x="372" 
d="M197 700h100v-700h-115v577l-141 -40l-28 98z" />
    <glyph glyph-name="two" unicode="2" horiz-adv-x="529" 
d="M31 0v90.001l244 249c59.333 59.333 89 110.666 89 153.999c0 34 -10 60.5 -30 79.5s-46 28.5 -78 28.5c-58.667 0 -102 -29 -130 -87l-97 57c22 46.667 53 82 93 106s84.333 36 133 36c62 0 114.667 -19.333 158 -58c44 -39.333 66 -92 66 -158
c0 -70.667 -39.667 -146.667 -119 -228l-158 -158h290v-111h-461z" />
    <glyph glyph-name="three" unicode="3" horiz-adv-x="540" 
d="M334 414c50.667 -12 91.832 -35.5 123.499 -70.5s47.5 -78.833 47.5 -131.5c0 -70 -23.667 -125 -71 -165s-105.333 -60 -174 -60c-54 0 -102 12.167 -144 36.5s-72.333 60.5 -91 108.5l98 57c20.667 -60 66.334 -90 137.001 -90c40 0 71.667 10.167 95 30.5
s35 47.833 35 82.5s-11.667 62 -35 82s-55 30 -95 30h-26l-46 69l151 199h-293v108h430v-98z" />
    <glyph glyph-name="four" unicode="4" horiz-adv-x="580" 
d="M563 233v-107h-80v-126h-116v126h-344v107l241 467h125l-241 -467h219v182h116v-182h80z" />
    <glyph glyph-name="five" unicode="5" horiz-adv-x="545" 
d="M275 436c66.667 0 123.001 -20.001 169.001 -60.001c46 -39.333 69 -94 69 -164s-23.667 -125 -71 -165s-105.333 -60 -174 -60c-56 0 -105.167 12.833 -147.5 38.5s-72.5 62.834 -90.5 111.501l99 57c19.333 -63.333 65.666 -95 138.999 -95c40 0 71.667 10.167 95 30.5
s35 47.833 35 82.5s-11.667 62 -35 82s-54.333 30 -93 30h-204l27 376h390v-108h-284l-12 -156h88z" />
    <glyph glyph-name="six" unicode="6" horiz-adv-x="545" 
d="M273 465c73.333 0 132.667 -22.333 178 -67c46 -44 69 -101.333 69 -172s-23 -128.334 -69 -173.001c-46 -44 -105.333 -66 -178 -66c-73.333 0 -133 22 -179 66c-46 44.667 -69 102.334 -69 173.001c0 52.667 14 99.667 42 141l222 333h131l-160 -235h13zM273.001 96
c38.667 0 70.334 11.667 95.001 35s37 55 37 95s-12.333 71.667 -37 95s-56.334 35 -95.001 35c-40 0 -72.167 -11.667 -96.5 -35s-36.5 -55 -36.5 -95s12.167 -71.667 36.5 -95s56.5 -35 96.5 -35z" />
    <glyph glyph-name="seven" unicode="7" horiz-adv-x="490" 
d="M15 700h445v-100l-246 -600h-121l242 590h-320v110z" />
    <glyph glyph-name="eight" unicode="8" horiz-adv-x="561" 
d="M423 364c68.667 -38 103.001 -94.668 103.001 -170.001c0 -32 -5.83301 -60.833 -17.5 -86.5s-28.167 -47.334 -49.5 -65.001s-47.166 -31.334 -77.499 -41.001s-63.833 -14.5 -100.5 -14.5c-74.667 0 -134.334 18.333 -179.001 55s-67 87.334 -67 152.001
c0 36 9 68.833 27 98.5s43.333 53.5 76 71.5c-52.667 34.667 -79 84 -79 148s21.333 113.333 64 148c43.333 35.333 96 53 158 53c61.333 0 113.666 -17.667 156.999 -53s65 -84.666 65 -147.999s-26.667 -112.666 -80 -147.999zM281.001 603.999
c-32 0 -57.833 -8.16699 -77.5 -24.5s-29.5 -40.5 -29.5 -72.5c0 -30 10.167 -53.667 30.5 -71s45.833 -26 76.5 -26c30 0 55.333 8.66699 76 26s31 41 31 71c0 32 -10.167 56.167 -30.5 72.5s-45.833 24.5 -76.5 24.5zM281.001 95.999c38.667 0 70 9.5 94 28.5
s36 45.833 36 80.5s-12 61.5 -36 80.5s-55.333 28.5 -94 28.5c-40 0 -71.833 -9.5 -95.5 -28.5s-35.5 -45.833 -35.5 -80.5s11.833 -61.5 35.5 -80.5s55.5 -28.5 95.5 -28.5z" />
    <glyph glyph-name="nine" unicode="9" horiz-adv-x="545" 
d="M520 474c0 -53.333 -13.999 -100.334 -41.999 -141.001l-221 -333h-132l160 235h-12c-72.667 0 -132.334 22 -179.001 66c-46 44.667 -69 102.334 -69 173.001s23 128 69 172c46.667 44.667 106.334 67 179.001 67c73.333 0 132.666 -22.333 177.999 -67
c46 -44 69 -101.333 69 -172zM140.001 473.999c0 -38.667 12.5 -70 37.5 -94s56.833 -36 95.5 -36s70.334 11.667 95.001 35s37 55 37 95s-12.333 71.667 -37 95s-56.334 35 -95.001 35s-70.5 -11.667 -95.5 -35s-37.5 -55 -37.5 -95z" />
    <glyph glyph-name="colon" unicode=":" horiz-adv-x="255" 
d="M53 438c0 21.333 7.16797 39.167 21.501 53.5s32.166 21.5 53.499 21.5c16 0.666992 30 -3.5 42 -12.5s20.833 -20.333 26.5 -34s7.5 -28 5.5 -43s-9 -27.833 -21 -38.5c-10.667 -12 -23.5 -19 -38.5 -21s-29.333 -0.166992 -43 5.5s-25.167 14.5 -34.5 26.5
s-13.333 26 -12 42zM128.001 138.001c20.667 0 38.3359 -7.33301 53.0029 -22s22 -32.334 22 -53.001s-7.33301 -38.334 -22 -53.001s-32.334 -22 -53.001 -22s-38.334 7.33301 -53.001 22s-22 32.334 -22 53.001s7.16699 38.334 21.5 53.001s32.166 22 53.499 22z" />
    <glyph glyph-name="semicolon" unicode=";" horiz-adv-x="268" 
d="M66 438c0 21.333 7.33301 39.168 22 53.501s32.334 21.5 53.001 21.5s38.334 -7.33301 53.001 -22s22 -32.334 22 -53.001s-7.33301 -38.334 -22 -53.001s-32.334 -22 -53.001 -22s-38.334 7.33301 -53.001 22s-22 32.334 -22 53.001zM213 120.002l-70 -260h-90l40 260
h120z" />
    <glyph glyph-name="less" unicode="&#x3c;" horiz-adv-x="525" 
d="M475 585v-114l-303 -121l303 -121v-114l-425 185v100z" />
    <glyph glyph-name="equal" unicode="=" horiz-adv-x="530" 
d="M50 402v102h430v-102h-430zM50 197v102h430v-102h-430z" />
    <glyph glyph-name="greater" unicode="&#x3e;" horiz-adv-x="525" 
d="M50 585l425 -185v-100l-425 -185v114l303 121l-303 121v114z" />
    <glyph glyph-name="question" unicode="?" horiz-adv-x="546" 
d="M200 220c0 24.667 4.33203 46.4971 12.999 65.4971s19.5 36.333 32.5 52s27.167 30.334 42.5 44.001s29.5 27.334 42.5 41.001s23.833 27.834 32.5 42.501s13 31 13 49c0 28 -9.66699 49.5 -29 64.5s-45.333 22.5 -78 22.5c-32 0 -59.167 -7.83301 -81.5 -23.5
s-38.5 -38.5 -48.5 -68.5l-99 56c18.667 48 48.834 84.667 90.501 110s88.834 38 141.501 38c59.333 0 110.666 -17 153.999 -51s65 -81 65 -141c0 -25.333 -4.33301 -47.833 -13 -67.5s-19.5 -37.667 -32.5 -54s-27.167 -31.5 -42.5 -45.5s-29.5 -28 -42.5 -42
s-23.833 -28.5 -32.5 -43.5s-13 -31.167 -13 -48.5h-115zM257.999 137.997c20.667 0 38.3359 -7.33301 53.0029 -22s22 -32.334 22 -53.001s-7.33301 -38.334 -22 -53.001s-32.334 -22 -53.001 -22s-38.334 7.33301 -53.001 22s-22 32.334 -22 53.001
s7.16699 38.334 21.5 53.001s32.166 22 53.499 22z" />
    <glyph glyph-name="at" unicode="@" horiz-adv-x="784" 
d="M399 612c70.667 0 133.335 -17.3379 188.002 -52.0049c54.667 -34 95.334 -76.667 122.001 -128s40 -105.333 40 -162c0 -70 -14.667 -123.333 -44 -160s-66 -55 -110 -55c-66.667 0 -108.334 27.333 -125.001 82c-24.667 -32.667 -59 -49 -103 -49
s-80.333 15.333 -109 46s-43 69.334 -43 116.001s14.333 85.334 43 116.001c29.333 31.333 65.666 47 108.999 47c39.333 0 71.333 -13.333 96 -40v30h92v-226c0 -54 20.333 -81 61 -81c28.667 0 52.167 14.333 70.5 43s27.5 72.334 27.5 131.001
c0 88.667 -30.333 162.334 -91 221.001c-60.667 59.333 -135.334 89 -224.001 89c-90.667 0 -168.334 -31.667 -233.001 -95c-64 -63.333 -96 -141.666 -96 -234.999c0 -94.667 32.667 -173.667 98 -237c66 -62 149 -93 249 -93c62.667 0 118.334 8.66699 167.001 26v-34
c-49.333 -16 -105 -24 -167 -24c-109.333 0 -200.333 34.333 -273 103c-72.667 68 -109 154.333 -109 259c0 100 34.667 185.333 104 256c70 70.667 156.667 106 260 106zM386.001 171.995c22 0 40.333 7.16699 55 21.5s22 33.166 22 56.499s-7.33301 42.333 -22 57
s-33 22 -55 22c-22.667 0 -41.334 -7.33301 -56.001 -22s-22 -33.667 -22 -57s7.33301 -42.166 22 -56.499s33.334 -21.5 56.001 -21.5z" />
    <glyph glyph-name="A" unicode="A" 
d="M526 0l-49 141h-298l-49 -141h-125l254 700h138l253 -700h-124zM217 249h222l-111 316z" />
    <glyph glyph-name="B" unicode="B" horiz-adv-x="610" 
d="M482 363c30.667 -16 54.668 -38 72.001 -66s26 -60.333 26 -97c0 -57.333 -20.333 -105 -61 -143c-41.333 -38 -91 -57 -149 -57h-300v700h278c57.333 0 105.666 -18.667 144.999 -56c40 -37.333 60 -83.333 60 -138c0 -60 -23.667 -107.667 -71 -143zM185.001 592v-184
h163c25.333 0 46.666 8.83301 63.999 26.5s26 39.5 26 65.5s-8.66699 47.833 -26 65.5s-38.666 26.5 -63.999 26.5h-163zM370.001 108c26.667 0 49.167 9.33301 67.5 28s27.5 42 27.5 70s-9.16699 51.333 -27.5 70s-40.833 28 -67.5 28h-185v-196h185z" />
    <glyph glyph-name="C" unicode="C" horiz-adv-x="732" 
d="M401 -13c-105.333 0 -192.665 34.668 -261.998 104.001c-69.333 70.667 -104 157 -104 259c0 102.667 34.667 188.667 104 258c68.667 70 156 105 262 105c32 0 62.833 -3.83301 92.5 -11.5s57.5 -18.834 83.5 -33.501s49.5 -32.167 70.5 -52.5s39.167 -43.5 54.5 -69.5
l-100 -58c-18.667 34.667 -45.834 62.167 -81.501 82.5s-75.5 30.5 -119.5 30.5c-74 0 -134.667 -23.667 -182 -71c-46 -47.333 -69 -107.333 -69 -180c0 -73.333 23 -133.333 69 -180c47.333 -47.333 108 -71 182 -71c44 0 84 10.167 120 30.5s63 47.833 81 82.5l100 -57
c-28.667 -50.667 -70.334 -91.667 -125.001 -123c-53.333 -30 -112 -45 -176 -45z" />
    <glyph glyph-name="D" unicode="D" horiz-adv-x="715" 
d="M345 700c96 0 175.667 -33.667 239 -101c64 -67.333 96 -150.333 96 -249c0 -98 -32 -181 -96 -249c-63.333 -67.333 -143 -101 -239 -101h-275v700h275zM345 110c66 0 119.667 22.668 161 68.001c42 44.667 63 102 63 172c0 69.333 -21 126.666 -63 171.999
c-41.333 45.333 -95 68 -161 68h-160v-480h160z" />
    <glyph glyph-name="E" unicode="E" horiz-adv-x="530" 
d="M185 110h310v-110h-425v700h420v-110h-305v-182h280v-109h-280v-189z" />
    <glyph glyph-name="F" unicode="F" horiz-adv-x="518" 
d="M480 590h-295v-196h285v-110h-285v-284h-115v700h410v-110z" />
    <glyph glyph-name="G" unicode="G" horiz-adv-x="786" 
d="M751 362l-0.000976562 -48c0 -96 -31.667 -174.667 -95 -236c-62.667 -60.667 -145.334 -91 -248.001 -91c-108 0 -197.333 35 -268 105c-70 70 -105 156 -105 258c0 101.333 35 187 105 257c70.667 70.667 158 106 262 106c32.667 0 64.167 -3.83301 94.5 -11.5
s58.5 -18.834 84.5 -33.501s49.667 -32.167 71 -52.5s39.666 -43.166 54.999 -68.499l-99 -57c-18.667 34 -46.167 61 -82.5 81s-77.5 30 -123.5 30c-74 0 -134.333 -24 -181 -72c-47.333 -48.667 -71 -108.667 -71 -180c0 -72 23.667 -131.667 71 -179
c48.667 -47.333 111.334 -71 188.001 -71c62.667 0 113.334 14.5 152.001 43.5s63.334 67.833 74.001 116.5h-234v103h350z" />
    <glyph glyph-name="H" unicode="H" horiz-adv-x="670" 
d="M485 700h115v-700h-115v303h-300v-303h-115v700h115v-287h300v287z" />
    <glyph glyph-name="I" unicode="I" horiz-adv-x="255" 
d="M70 700h115v-700h-115v700z" />
    <glyph glyph-name="J" unicode="J" horiz-adv-x="564" 
d="M260 -13c-108.667 0 -183.665 42.667 -224.998 128l99 58c23.333 -49.333 65.666 -74 126.999 -74c40 0 70.833 9.83301 92.5 29.5s32.5 47.5 32.5 83.5v488h115v-488c0 -72 -22.667 -127.667 -68 -167c-44.667 -38.667 -102.334 -58 -173.001 -58z" />
    <glyph glyph-name="K" unicode="K" horiz-adv-x="603" 
d="M598 0h-137l-276 333v-333h-115v700h115v-314l266 314h137l-283 -341z" />
    <glyph glyph-name="L" unicode="L" horiz-adv-x="485" 
d="M185 110h285v-110h-400v700h115v-590z" />
    <glyph glyph-name="M" unicode="M" horiz-adv-x="810" 
d="M740 700v-700h-115v499l-213 -352h-14l-213 353v-500h-115v700h124l211 -350l212 350h123z" />
    <glyph glyph-name="N" unicode="N" horiz-adv-x="675" 
d="M490 700h115v-700h-90l-330 475v-475h-115v700h90l330 -475v475z" />
    <glyph glyph-name="O" unicode="O" horiz-adv-x="796" 
d="M655 92c-70 -70 -155.667 -105 -257 -105s-187.333 35 -258 105c-70 70.667 -105 156.667 -105 258s35 187 105 257c70.667 70.667 156.667 106 258 106s187 -35.333 257 -106c70.667 -70 106 -155.667 106 -257s-35.333 -187.333 -106 -258zM221 170
c48.667 -47.333 107.667 -71 177 -71c70 0 128.667 23.667 176 71c48 48 72 108 72 180s-24 131.667 -72 179c-47.333 48 -106 72 -176 72s-129 -24 -177 -72c-47.333 -47.333 -71 -107 -71 -179c0 -71.333 23.667 -131.333 71 -180z" />
    <glyph glyph-name="P" unicode="P" horiz-adv-x="590" 
d="M328 700c66 0 121 -21.999 165 -65.999c44.667 -44 67 -98.667 67 -164c0 -64.667 -22.333 -119.334 -67 -164.001c-44 -44 -99 -66 -165 -66h-143v-240h-115v700h258zM328 348.001c16.667 0 32.167 3 46.5 9s26.833 14.5 37.5 25.5s18.834 23.833 24.501 38.5
s8.5 31 8.5 49s-2.83301 34.333 -8.5 49s-13.834 27.5 -24.501 38.5s-23.167 19.5 -37.5 25.5s-29.833 9 -46.5 9h-143v-244h143z" />
    <glyph glyph-name="Q" unicode="Q" horiz-adv-x="801" 
d="M761 350c0 -92.667 -30.6689 -173.333 -92.002 -242l74 -76l-81 -73l-77 79c-59.333 -34 -121.666 -51 -186.999 -51c-100.667 0 -186.334 35 -257.001 105c-70.667 70.667 -106 156.667 -106 258s35.333 187 106 257c70.667 70.667 156.334 106 257.001 106
s186.334 -35.333 257.001 -106c70.667 -70 106 -155.667 106 -257zM397.998 99.001c36 0 71 7.66602 105 22.999l-128 131l81 73l134 -137c37.333 46.667 56 100.334 56 161.001c0 71.333 -24 131 -72 179s-106.667 72 -176 72s-128 -24 -176 -72s-72 -107.667 -72 -179
s24 -131 72 -179s106.667 -72 176 -72z" />
    <glyph glyph-name="R" unicode="R" horiz-adv-x="613" 
d="M469 0l-148 255h-136v-255h-115v700h280c62.667 0 115.667 -22 159 -66c44 -43.333 66 -96.333 66 -159c0 -22 -3.33301 -43.5 -10 -64.5s-16.167 -40.333 -28.5 -58s-27 -33.5 -44 -47.5s-35.833 -25 -56.5 -33l159 -272h-126zM185 592v-234h165
c15.333 0 29.666 3 42.999 9s25 14.333 35 25s17.833 23.167 23.5 37.5s8.5 29.5 8.5 45.5s-2.83301 31.167 -8.5 45.5s-13.5 26.833 -23.5 37.5s-21.667 19 -35 25s-27.666 9 -42.999 9h-165z" />
    <glyph glyph-name="S" unicode="S" horiz-adv-x="581" 
d="M303 -13c-68 0 -125.335 15.167 -172.002 45.5s-79.334 72.5 -98.001 126.5l99 58c28 -78.667 86 -118 174 -118c44 0 76.667 8.33301 98 25s32 39 32 67s-11.667 49.667 -35 65s-64.666 32 -123.999 50c-16.667 4.66699 -31.5 9.33398 -44.5 14.001
s-25.167 9.33398 -36.5 14.001s-22.166 9.83398 -32.499 15.501s-21.5 12.5 -33.5 20.5c-45.333 32 -68 79 -68 141s22 111 66 147c43.333 36.667 96.333 55 159 55c56.667 0 105.834 -13.667 147.501 -41s73.834 -65 96.501 -113l-97 -56
c-29.333 65.333 -78.333 98 -147 98c-34 0 -60.833 -7.83301 -80.5 -23.5s-29.5 -36.834 -29.5 -63.501c0 -13.333 2.33301 -24.833 7 -34.5s12.5 -18.667 23.5 -27s25.5 -16.333 43.5 -24s40.333 -15.5 67 -23.5c13.333 -4.66699 24.833 -8.5 34.5 -11.5
s17.5 -5.83301 23.5 -8.5c6.66699 -2 14.167 -4.66699 22.5 -8l29.5 -12c11.333 -4.66699 21.333 -9.33398 30 -14.001s15.667 -9.33398 21 -14.001c9.33301 -7.33301 18.5 -15.833 27.5 -25.5s17 -20.5 24 -32.5s12.5 -25.167 16.5 -39.5s5.33301 -29.833 4 -46.5
c0 -64 -23 -114.333 -69 -151c-44.667 -36.667 -104.334 -55 -179.001 -55z" />
    <glyph glyph-name="T" unicode="T" horiz-adv-x="540" 
d="M525 700v-110h-197v-590h-115v590h-198v110h510z" />
    <glyph glyph-name="U" unicode="U" 
d="M63 700h115.001v-461c0 -42.667 12.5 -76.667 37.5 -102s62.5 -38 112.5 -38s87.5 12.667 112.5 38s37.5 59.333 37.5 102v461h115v-468c0 -74 -24.667 -133.667 -74 -179c-49.333 -44 -113 -66 -191 -66c-78.667 0 -142.334 22 -191.001 66
c-49.333 45.333 -74 105 -74 179v468z" />
    <glyph glyph-name="V" unicode="V" horiz-adv-x="634" 
d="M248 0l-243 700h126l186 -561l187 561h125l-243 -700h-138z" />
    <glyph glyph-name="W" unicode="W" horiz-adv-x="999" 
d="M218 0l-198 700h121l147 -547l159 547h106l158 -547l147 547h121l-198 -700h-133l-148 511l-149 -511h-133z" />
    <glyph glyph-name="X" unicode="X" horiz-adv-x="600" 
d="M585 0h-131l-154 253l-154 -253h-131l220 360l-207 340h130l142 -233l142 233h131l-207 -340z" />
    <glyph glyph-name="Y" unicode="Y" horiz-adv-x="613" 
d="M608 700l-244 -422v-278h-115v278l-244 422h131l171 -310l170 310h131z" />
    <glyph glyph-name="Z" unicode="Z" horiz-adv-x="530" 
d="M181 110h322v-110h-465v95l314 495h-307v110h450v-95z" />
    <glyph glyph-name="bracketleft" unicode="[" horiz-adv-x="300" 
d="M280 696h-117v-692h117v-104h-225v900h225v-104z" />
    <glyph glyph-name="backslash" unicode="\" horiz-adv-x="525" 
d="M435 -100l-400 900h55l400 -900h-55z" />
    <glyph glyph-name="bracketright" unicode="]" horiz-adv-x="300" 
d="M245 800v-900h-225v104h117v692h-117v104h225z" />
    <glyph glyph-name="asciicircum" unicode="^" horiz-adv-x="540" 
d="M314 700l186 -320h-118l-112 197l-111 -197h-119l186 320h88z" />
    <glyph glyph-name="underscore" unicode="_" horiz-adv-x="520" 
d="M35 -161v104h450v-104h-450z" />
    <glyph glyph-name="grave" unicode="`" horiz-adv-x="250" 
d="M126 565l-106 135h130l80 -135h-104z" />
    <glyph glyph-name="a" unicode="a" horiz-adv-x="630" 
d="M459 500h108.001v-500h-108v72c-40.667 -56.667 -99 -85 -175 -85c-68.667 0 -127.334 25.333 -176.001 76s-73 113 -73 187s24.333 136.333 73 187s107.334 76 176.001 76c75.333 0 133.666 -28 174.999 -84v71zM188.001 135c30 -30 67.667 -45 113 -45s83 15 113 45
c30 30.667 45 69 45 115s-15 84 -45 114c-30 30.667 -67.667 46 -113 46s-83 -15.333 -113 -46c-30 -30 -45 -68 -45 -114s15 -84.333 45 -115z" />
    <glyph glyph-name="b" unicode="b" horiz-adv-x="630" 
d="M346 513c68.667 0 127.334 -25.333 176.001 -76s73 -113 73 -187s-24.333 -136.333 -73 -187s-107.334 -76 -176.001 -76c-76 0 -134.333 28.333 -175 85v-72h-108v700h108v-271c40.667 56 99 84 175 84zM216 135c30 -30 67.667 -45 113 -45s83 15 113 45
c30 30.667 45 69 45 115s-15 84 -45 114c-30 30.667 -67.667 46 -113 46s-83 -15.333 -113 -46c-30 -30 -45 -68 -45 -114s15 -84.333 45 -115z" />
    <glyph glyph-name="c" unicode="c" horiz-adv-x="542" 
d="M299 -13c-75.333 0 -138.333 25.333 -189 76c-50 50.667 -75 113 -75 187c0 74.667 25 137 75 187c50.667 50.667 113.667 76 189 76c48.667 0 93 -11.5 133 -34.5s70 -54.5 90 -94.5l-93 -54c-11.333 24 -28.5 42.833 -51.5 56.5s-49.5 20.5 -79.5 20.5
c-44 0 -81 -15 -111 -45c-29.333 -30.667 -44 -68 -44 -112s14.667 -81.333 44 -112c30 -30 67 -45 111 -45c30 0 56.667 7 80 21s41 32.667 53 56l93 -53c-21.333 -40 -52 -71.667 -92 -95s-84.333 -35 -133 -35z" />
    <glyph glyph-name="d" unicode="d" horiz-adv-x="630" 
d="M459 700h108.001v-700h-108v72c-40.667 -56.667 -99 -85 -175 -85c-68.667 0 -127.334 25.333 -176.001 76s-73 113 -73 187s24.333 136.333 73 187s107.334 76 176.001 76c75.333 0 133.666 -28 174.999 -84v271zM188.001 135c30 -30 67.667 -45 113 -45s83 15 113 45
c30 30.667 45 69 45 115s-15 84 -45 114c-30 30.667 -67.667 46 -113 46s-83 -15.333 -113 -46c-30 -30 -45 -68 -45 -114s15 -84.333 45 -115z" />
    <glyph glyph-name="e" unicode="e" horiz-adv-x="582" 
d="M148 204c8 -38 26.168 -67.168 54.501 -87.501s63.5 -30.5 105.5 -30.5c56.667 0 99.667 20.667 129 62l89 -52c-48.667 -72.667 -121.667 -109 -219 -109c-80.667 0 -146.334 24.667 -197.001 74c-50 50 -75 113 -75 189c0 74 24.667 136.333 74 187
c48.667 50.667 112 76 190 76c72.667 0 132.667 -25.667 180 -77s71 -113.666 71 -186.999c0 -5.33301 -0.333008 -11.833 -1 -19.5s-1.66699 -16.167 -3 -25.5h-398zM441.001 291.999c-7.33301 40.667 -24 71.333 -50 92s-57 31 -93 31c-40 0 -73.333 -11 -100 -33
s-43.667 -52 -51 -90h294z" />
    <glyph glyph-name="f" unicode="f" horiz-adv-x="325" 
d="M325 609c-78.667 6.66699 -118 -26.334 -118 -99.001v-10h118v-104h-118v-396h-108v396h-76v104h76v10c0 68.667 19 120.834 57 156.501s94.333 51.167 169 46.5v-104z" />
    <glyph glyph-name="g" unicode="g" horiz-adv-x="630" 
d="M461 500h106v-477c0 -76 -25 -134.333 -75 -175c-49.333 -40.667 -110 -61 -182 -61c-115.333 0 -194.333 40.333 -237 121l93 54c26 -51.333 74.667 -77 146 -77c46.667 0 83.167 12 109.5 36s39.5 58 39.5 102v61c-41.333 -58 -99.333 -87 -174 -87
c-70.667 0 -130.334 25 -179.001 75c-48.667 50.667 -73 111.667 -73 183c0 72 24.333 132.667 73 182c48.667 50.667 108.334 76 179.001 76c74.667 0 132.667 -29 174 -87v74zM188 143c30.667 -30 68.667 -45 114 -45s83 15 113 45c30.667 30 46 67.333 46 112
s-15.333 82 -46 112c-30 30 -67.667 45 -113 45s-83.333 -15 -114 -45c-30 -30 -45 -67.333 -45 -112s15 -82 45 -112z" />
    <glyph glyph-name="h" unicode="h" horiz-adv-x="571" 
d="M326 513c58 0 104.5 -18.166 139.5 -54.499s52.5 -86.833 52.5 -151.5v-307h-108v296c0 38 -10 66.833 -30 86.5s-47.333 29.5 -82 29.5c-38 0 -68.667 -11.833 -92 -35.5s-35 -59.834 -35 -108.501v-268h-108v700h108v-264c33.333 51.333 85 77 155 77z" />
    <glyph glyph-name="i" unicode="i" horiz-adv-x="233" 
d="M164 578c-13.333 -13.333 -29.001 -20 -47.001 -20s-34 6.66699 -48 20c-13.333 14 -20 30 -20 48s6.66699 33.667 20 47s29.333 20 48 20s34.667 -6.66699 48 -20s19.833 -29 19.5 -47s-7.16602 -34 -20.499 -48zM62.999 0v500h108v-500h-108z" />
    <glyph glyph-name="j" unicode="j" horiz-adv-x="253" 
d="M82 500h108v-520c0 -138.667 -68.333 -203 -205 -193v104c34 -3.33301 58.667 2 74 16s23 38.333 23 73v520zM183 578c-13.333 -13.333 -29.001 -20 -47.001 -20s-34 6.66699 -48 20c-13.333 14 -20 30 -20 48s6.66699 33.667 20 47s29.333 20 48 20
s34.667 -6.66699 48 -20s19.833 -29 19.5 -47s-7.16602 -34 -20.499 -48z" />
    <glyph glyph-name="k" unicode="k" horiz-adv-x="515" 
d="M505 0h-129l-205 231v-231h-108v700h108v-421l194 221h132l-220 -245z" />
    <glyph glyph-name="l" unicode="l" horiz-adv-x="233" 
d="M63 0v730h108v-730h-108z" />
    <glyph glyph-name="m" unicode="m" horiz-adv-x="851" 
d="M609 513c28 0 53.668 -4.83398 77.001 -14.501s43.333 -23.167 60 -40.5s29.5 -38.666 38.5 -63.999s13.5 -53.333 13.5 -84v-310h-108v303c0 34.667 -8.66699 61.5 -26 80.5s-41 28.5 -71 28.5c-34 0 -60.667 -11 -80 -33s-29 -55 -29 -99v-280h-108v303
c0 34.667 -8.16699 61.5 -24.5 80.5s-39.5 28.5 -69.5 28.5c-32.667 0 -59.334 -11 -80.001 -33s-31 -55 -31 -99v-280h-108v500h108v-60c32 48.667 79.667 73 143 73c64 0 111.333 -26.333 142 -79c32.667 52.667 83.667 79 153 79z" />
    <glyph glyph-name="n" unicode="n" horiz-adv-x="571" 
d="M326 513c58 0 104.5 -18.166 139.5 -54.499s52.5 -86.833 52.5 -151.5v-307h-108v296c0 38 -10 66.833 -30 86.5s-47.333 29.5 -82 29.5c-38 0 -68.667 -11.833 -92 -35.5s-35 -59.834 -35 -108.501v-268h-108v500h108v-64c33.333 51.333 85 77 155 77z" />
    <glyph glyph-name="o" unicode="o" horiz-adv-x="598" 
d="M299 -13c-74 0 -136.333 25.333 -187 76c-51.333 51.333 -77 113.666 -77 186.999s25.667 135.666 77 186.999c50.667 50.667 113 76 187 76s136.333 -25.333 187 -76c51.333 -51.333 77 -113.666 77 -186.999s-25.667 -135.666 -77 -186.999
c-50.667 -50.667 -113 -76 -187 -76zM188 137c30 -30 67 -45 111 -45s81 15 111 45s45 67.667 45 113s-15 83 -45 113s-67 45 -111 45s-81 -15 -111 -45s-45 -67.667 -45 -113s15 -83 45 -113z" />
    <glyph glyph-name="p" unicode="p" horiz-adv-x="630" 
d="M346 513c68 0 126.668 -25.667 176.001 -77c48.667 -50.667 73 -112.667 73 -186c0 -74 -24.333 -136.333 -73 -187s-107.334 -76 -176.001 -76c-76 0 -134.333 28 -175 84v-271h-108v700h108v-72c40.667 56.667 99 85 175 85zM216.001 135c30 -30 67.667 -45 113 -45
s83 15 113 45c30 30.667 45 69 45 115s-15 84 -45 114c-30 30.667 -67.667 46 -113 46s-83 -15.333 -113 -46c-30 -30 -45 -68 -45 -114s15 -84.333 45 -115z" />
    <glyph glyph-name="q" unicode="q" horiz-adv-x="630" 
d="M459 500h108v-700h-108v271c-41.333 -56 -99.666 -84 -174.999 -84c-68.667 0 -127.334 25.333 -176.001 76s-73 113 -73 187c0 73.333 24.333 135.333 73 186c49.333 51.333 108 77 176 77c76 0 134.333 -28.333 175 -85v72zM188 135c30 -30 67.667 -45 113 -45
s83 15 113 45c30 30.667 45 69 45 115s-15 84 -45 114c-30 30.667 -67.667 46 -113 46s-83 -15.333 -113 -46c-30 -30 -45 -68 -45 -114s15 -84.333 45 -115z" />
    <glyph glyph-name="r" unicode="r" horiz-adv-x="342" 
d="M171 416c26.667 62 78 93 154 93v-117c-41.333 2.66699 -77.333 -7.33301 -108 -30c-30.667 -22 -46 -58.667 -46 -110v-252h-108v500h108v-84z" />
    <glyph glyph-name="s" unicode="s" horiz-adv-x="461" 
d="M160 362c0 -16.667 9.16504 -29.8369 27.498 -39.5039s40.5 -18.167 66.5 -25.5c19.333 -4 39.333 -9.5 60 -16.5s39.667 -16.333 57 -28s31.5 -26.5 42.5 -44.5s16.167 -40.333 15.5 -67c0 -48 -18.667 -85.667 -56 -113s-83.666 -41 -138.999 -41
c-50 0 -92.5 10.333 -127.5 31s-60.5 49.334 -76.5 86.001l93 54c16.667 -48 53.667 -72 111 -72c56.667 0 85 18.667 85 56c0 16 -9.16699 29 -27.5 39s-40.833 18.333 -67.5 25c-18.667 4.66699 -38.334 10.334 -59.001 17.001s-39.667 15.834 -57 27.501
s-31.5 26.334 -42.5 44.001s-16.167 39.5 -15.5 65.5c0 46 17.333 83 52 111s78.334 42 131.001 42c42 0 79 -9.16699 111 -27.5s56.667 -43.833 74 -76.5l-91 -51c-17.333 38 -48.666 57 -93.999 57c-20.667 0 -38 -4.5 -52 -13.5s-21 -22.167 -21 -39.5z" />
    <glyph glyph-name="t" unicode="t" horiz-adv-x="382" 
d="M342 396h-123.998v-240c0 -16 2.66699 -28.333 8 -37s13.166 -14.667 23.499 -18s23.166 -5.16602 38.499 -5.49902s33.333 0.166992 54 1.5v-97c-82.667 -10 -142 -2.83301 -178 21.5s-54 69.166 -54 134.499v240h-92v104h92v108l108 32v-140h124v-104z" />
    <glyph glyph-name="u" unicode="u" horiz-adv-x="571" 
d="M400 500l108 -0.000976562v-500h-108v64c-33.333 -51.333 -85 -77 -155 -77c-58 0 -104.5 18.167 -139.5 54.5s-52.5 86.833 -52.5 151.5v307h108v-296c0 -38 10 -66.833 30 -86.5s47.333 -29.5 82 -29.5c38 0 68.667 11.833 92 35.5s35 59.834 35 108.501v268z" />
    <glyph glyph-name="v" unicode="v" horiz-adv-x="525" 
d="M402 500h118l-195 -500h-125l-195 500h118l140 -380z" />
    <glyph glyph-name="w" unicode="w" horiz-adv-x="770" 
d="M639 500h114l-157 -500h-106l-104 337l-105 -337h-106l-157 500h114l97 -345l105 345h103l104 -345z" />
    <glyph glyph-name="x" unicode="x" horiz-adv-x="520" 
d="M510 0h-125l-124 171l-125 -171h-126l188 257l-178 243h125l115 -158l115 158h126l-178 -244z" />
    <glyph glyph-name="y" unicode="y" horiz-adv-x="520" 
d="M400 500l115 -0.000976562l-192 -516c-48 -129.333 -129.333 -190.666 -244 -183.999v101c34 -2 61.333 5.16699 82 21.5s37.667 41.833 51 76.5l5 10l-212 491h118l149 -363z" />
    <glyph glyph-name="z" unicode="z" horiz-adv-x="473" 
d="M192 102h243v-102h-390v72l234 326h-224v102h370v-72z" />
    <glyph glyph-name="braceleft" unicode="{" horiz-adv-x="357" 
d="M337 -108c-133.333 -10 -200 49.665 -200 178.998v154c0 31.333 -7 51.833 -21 61.5s-36 13.834 -66 12.501v105c30 -1.33301 52 2.83398 66 12.501s21 30.167 21 61.5v154c0 128.667 66.667 188 200 178v-104c-32 4 -55.333 0.666992 -70 -10s-22 -32 -22 -64v-154
c0 -64 -21.667 -106 -65 -126c43.333 -21.333 65 -63.666 65 -126.999v-154c0 -32 7.33301 -53.333 22 -64s38 -14.334 70 -11.001v-104z" />
    <glyph glyph-name="bar" unicode="|" horiz-adv-x="248" 
d="M70 -200v920h108v-920h-108z" />
    <glyph glyph-name="braceright" unicode="}" horiz-adv-x="357" 
d="M20 -4c32 -3.33301 55.333 0.335938 70 11.0029s22 32 22 64v154c0 63.333 21.667 105.666 65 126.999c-43.333 20 -65 62 -65 126v154c0 32 -7.33301 53.333 -22 64s-38 14 -70 10v104c133.333 10 200 -49.333 200 -178v-154c0 -31.333 7 -51.833 21 -61.5
s36 -13.834 66 -12.501v-105c-30 1.33301 -52 -2.83398 -66 -12.501s-21 -30.167 -21 -61.5v-154c0 -129.333 -66.667 -189 -200 -179v104z" />
    <glyph glyph-name="asciitilde" unicode="~" horiz-adv-x="597" 
d="M547 390c-17.333 -62.667 -48.167 -102.5 -92.5 -119.5s-96.833 -9.5 -157.5 22.5c-51.333 26 -87.333 37 -108 33c-22 -4 -38.333 -24.333 -49 -61l-90 43c17.333 62.667 48.5 102.5 93.5 119.5s97.5 9.5 157.5 -22.5c51.333 -26 87 -37 107 -33
c20.667 4.66699 37 25 49 61z" />
    <glyph glyph-name="exclamdown" unicode="&#xa1;" horiz-adv-x="255" 
d="M128 362c-21.333 0 -39.168 7.33301 -53.501 22s-21.5 32.334 -21.5 53.001s7.33301 38.334 22 53.001s32.334 22 53.001 22s38.334 -7.33301 53.001 -22s22 -32.334 22 -53.001s-7.33301 -38.334 -22 -53.001s-32.334 -22 -53.001 -22zM84.998 280h85l23 -280v-200h-130
v200z" />
    <glyph glyph-name="cent" unicode="&#xa2;" horiz-adv-x="542" 
d="M524 217c-21.333 -40 -51.999 -71.667 -91.999 -95s-84.333 -35 -133 -35c-24.667 0 -46 2.33301 -64 7l-30 -94h-55l36 111c-46 20.667 -82.667 52.167 -110 94.5s-41 90.5 -41 144.5c0 74.667 25 137 75 187c50.667 50.667 113.667 76 189 76
c19.333 0 35.333 -1.33301 48 -4l29 91h55l-34 -105c56 -22.667 97.667 -59.667 125 -111l-93 -54c-12.667 28.667 -34.334 49.667 -65.001 63l-96 -297c10 -2 20 -3 30 -3c30 0 56.667 7 80 21s41 32.667 53 56zM143.001 350c0 -30 6.83301 -56.833 20.5 -80.5
s32.167 -42.167 55.5 -55.5l94 292c-2 0.666992 -7 1 -15 1c-44 0 -81 -15 -111 -45c-29.333 -30.667 -44 -68 -44 -112z" />
    <glyph glyph-name="sterling" unicode="&#xa3;" horiz-adv-x="583" 
d="M230 111l340.001 0.000976562v-111h-535v111h80v168h-65v101h65v118c0 69.333 21.333 122.333 64 159c43.333 37.333 93.666 56 150.999 56c50 0 92.833 -12.333 128.5 -37s62.5 -59.334 80.5 -104.001l-98 -56c-18.667 56.667 -54.667 85 -108 85
c-30 0 -54.667 -8.83301 -74 -26.5s-29 -44.5 -29 -80.5v-114h213v-101h-213v-168z" />
    <glyph glyph-name="currency" unicode="&#xa4;" horiz-adv-x="546" 
d="M487 350c0 -50.667 -15.332 -94.666 -45.999 -131.999l70 -70l-36 -36l-70 71c-38.667 -29.333 -82.667 -44 -132 -44c-48.667 0 -92.334 14.667 -131.001 44l-71 -71l-36 36l70 70c-30.667 37.333 -46 81.333 -46 132c0 51.333 15.333 95.666 46 132.999l-70 69l36 36
l71 -70c37.333 28.667 81 43 131 43c50.667 0 94.667 -14.333 132 -43l70 70l36 -36l-69 -70c30 -39.333 45 -83.333 45 -132zM196.001 272.001c20.667 -20 46.334 -30 77.001 -30s56 10 76 30c20.667 20.667 31 46.667 31 78s-10.333 57 -31 77
c-20 20.667 -45.333 31 -76 31s-56.334 -10.333 -77.001 -31c-20 -20 -30 -45.667 -30 -77s10 -57.333 30 -78z" />
    <glyph glyph-name="yen" unicode="&#xa5;" horiz-adv-x="593" 
d="M608 700l-198 -343h112v-73h-155l-3 -6v-44h158v-73h-158v-161h-115v161h-177v73h177v44l-3 6h-174v73h131l-198 343h131l171 -310l170 310h131z" />
    <glyph glyph-name="brokenbar" unicode="&#xa6;" horiz-adv-x="248" 
d="M70 350v370h108v-370h-108zM70 -200v370h108v-370h-108z" />
    <glyph glyph-name="section" unicode="&#xa7;" horiz-adv-x="531" 
d="M494 277c0 -50.667 -20.335 -92.9932 -61.002 -126.993c24.667 -26.667 37 -60.334 37 -101.001c0 -49.333 -18.333 -88.333 -55 -117c-36.667 -29.333 -83 -44 -139 -44c-109.333 0 -182 43 -218 129l96 54c19.333 -57.333 60 -86 122 -86c26 0 46.833 5.66699 62.5 17
s23.5 27 23.5 47c0 11.333 -3.33301 21.166 -10 29.499s-15.334 16.166 -26.001 23.499c-6 4.66699 -14.667 9.66699 -26 15l-28 13c-3.33301 1.33301 -7.66602 3.16602 -12.999 5.49902s-11.666 4.83301 -18.999 7.5l-33 14c-47.333 19.333 -84.833 42.166 -112.5 68.499
s-41.5 61.166 -41.5 104.499c0 50.667 21.333 92.334 64 125.001c-22 26.667 -33 59.667 -33 99c0 48 17.667 86.667 53 116c34.667 28.667 78.667 43 132 43c44 0 82.833 -10.667 116.5 -32s59.167 -52 76.5 -92l-89 -49c-22 50.667 -56.667 76 -104 76
c-22 0 -40.333 -5.5 -55 -16.5s-22 -26.167 -22 -45.5c0 -11.333 3 -21.333 9 -30s14.667 -17 26 -25l18 -10c4.66699 -2.66699 11.667 -6.33398 21 -11.001c4.66699 -2 8.66699 -3.83301 12 -5.5l9 -4.5l49 -20c24 -10 45.833 -20.5 65.5 -31.5s36.334 -23.333 50.001 -37
s24.167 -28.834 31.5 -45.501s11 -35.667 11 -57zM160.998 335.007c0 -21.333 8 -39 24 -53s39 -26.667 69 -38l100 -39c21.333 16 32 36.667 32 62c0 22 -8.66699 39.833 -26 53.5s-42 26.834 -74 39.501l-40 15l-51 22c-22.667 -14.667 -34 -35.334 -34 -62.001z" />
    <glyph glyph-name="dieresis" unicode="&#xa8;" horiz-adv-x="350" 
d="M122 575c-11.333 -11.333 -25.333 -17 -42 -17s-31 5.66699 -43 17c-11.333 12 -17 26.333 -17 43s5.66699 30.667 17 42c12 12 26.333 18 43 18s30.667 -6 42 -18c12 -11.333 18 -25.333 18 -42s-6 -31 -18 -43zM312 575c-11.333 -11.333 -25.333 -17 -42 -17
s-31 5.66699 -43 17c-11.333 12 -17 26.333 -17 43s5.66699 30.667 17 42c12 12 26.333 18 43 18s30.667 -6 42 -18c12 -11.333 18 -25.333 18 -42s-6 -31 -18 -43z" />
    <glyph glyph-name="copyright" unicode="&#xa9;" horiz-adv-x="794" 
d="M653 94c-70.667 -70.667 -156 -106 -256 -106s-185.333 35.333 -256 106s-106 156 -106 256s35.333 185.333 106 256s156 106 256 106s185.333 -35.333 256 -106s106 -156 106 -256s-35.333 -185.333 -106 -256zM397 20c90.667 0 167.667 32.001 231 96.001
c64 64.667 96 142.667 96 234s-32 169 -96 233c-62.667 64.667 -139.667 97 -231 97c-90 0 -167 -32.333 -231 -97c-64 -64 -96 -141.667 -96 -233c0 -90.667 32 -168.334 96 -233.001s141 -97 231 -97zM400 156.001c-54.667 0 -101.002 18.998 -139.002 56.998
s-57 83.667 -57 137s19 99 57 137c38 38.667 84.333 58 139 58c36 0 68.5 -8.33301 97.5 -25s52.167 -40 69.5 -70l-83 -48c-7.33301 14.667 -18.666 26.334 -33.999 35.001s-32.333 13 -51 13c-15.333 0 -29 -2.66699 -41 -8s-22.5 -12.5 -31.5 -21.5
s-15.833 -19.5 -20.5 -31.5s-7 -25 -7 -39c0 -13.333 2.33301 -26 7 -38s11.5 -22.667 20.5 -32s19.5 -16.666 31.5 -21.999s25.667 -8 41 -8c40.667 0 69.334 16.333 86.001 49l82 -48c-16.667 -30 -39.667 -53.333 -69 -70s-62 -25 -98 -25z" />
    <glyph glyph-name="guillemotleft" unicode="&#xab;" horiz-adv-x="527" 
d="M282 494l-110 -185l110 -185h-107l-110 185l110 185h107zM462 494l-110 -185l110 -185h-107l-110 185l110 185h107z" />
    <glyph glyph-name="logicalnot" unicode="&#xac;" horiz-adv-x="540" 
d="M50 401h440v-220h-108v118h-332v102z" />
    <glyph glyph-name="registered" unicode="&#xae;" horiz-adv-x="794" 
d="M141 606c70.667 70.667 156 106 256 106s185.333 -35.333 256 -106s106 -156 106 -256s-35.333 -185.333 -106 -256s-156 -106 -256 -106s-185.333 35.333 -256 106s-106 156 -106 256s35.333 185.333 106 256zM397 20c90.667 0 167.667 32.001 231 96.001
c64 64.667 96 142.667 96 234s-32 169 -96 233c-62.667 64.667 -139.667 97 -231 97c-90 0 -167 -32.333 -231 -97c-64 -64 -96 -141.667 -96 -233c0 -90.667 32 -168.334 96 -233.001s141 -97 231 -97zM549 414.001c0 -50 -19.667 -86.667 -59 -110l76 -139h-100l-59 117
h-45v-117h-92v370h137c20.667 0 39.667 -3 57 -9s32.333 -14.5 45 -25.5s22.5 -23.833 29.5 -38.5s10.5 -30.667 10.5 -48zM362 450.001v-88h40c17.333 0 30.833 4 40.5 12s14.5 18.667 14.5 32c0 29.333 -18.333 44 -55 44h-40z" />
    <glyph glyph-name="macron" unicode="&#xaf;" horiz-adv-x="320" 
d="M20 570v89h280v-89h-280z" />
    <glyph glyph-name="degree" unicode="&#xb0;" horiz-adv-x="396" 
d="M198 490c-47.333 0 -86.333 15.332 -117 45.999s-46 68.667 -46 114c0 44.667 15.333 82.334 46 113.001c31.333 31.333 70.333 47 117 47c46 0 84.667 -15.667 116 -47s47 -69 47 -113c0 -45.333 -15.333 -83.333 -46 -114s-69.667 -46 -117 -46zM198 579.999
c20.667 0 37.333 6.66699 50 20s19 30 19 50s-6.5 36.667 -19.5 50s-29.5 20 -49.5 20s-36.5 -6.66699 -49.5 -20s-19.5 -30 -19.5 -50s6.5 -36.667 19.5 -50s29.5 -20 49.5 -20z" />
    <glyph glyph-name="plusminus" unicode="&#xb1;" horiz-adv-x="550" 
d="M326 484h169v-102h-169v-152h-102v152h-169v102h169v151h102v-151zM55 65v102h440v-102h-440z" />
    <glyph glyph-name="acute" unicode="&#xb4;" horiz-adv-x="250" 
d="M100 700h130l-106 -135h-104z" />
    <glyph glyph-name="uni00B5" unicode="&#xb5;" horiz-adv-x="613" 
d="M588 102l-0.000976562 -102h-56c-50.667 -0 -86.334 19.333 -107.001 58c-33.333 -47.333 -83.666 -71 -150.999 -71c-39.333 0 -73.666 9.66699 -102.999 29v-216h-108v700h108v-296c0 -36.667 10 -65.167 30 -85.5s47 -30.5 81 -30.5c38.667 0 69.667 11.667 93 35
s35 60 35 110v267h108v-365c0 -10 3 -18 9 -24s14 -9 24 -9h37z" />
    <glyph glyph-name="paragraph" unicode="&#xb6;" horiz-adv-x="639" 
d="M595 700l-0.000976562 -96.001h-61v-804h-102v804h-90v-804h-102v480c-58 0 -107.667 20.667 -149 62c-40.667 40.667 -61 90 -61 148c0 58.667 20.333 108.334 61 149.001s90.334 61 149.001 61h355z" />
    <glyph glyph-name="periodcentered" unicode="&#xb7;" horiz-adv-x="255" 
d="M53 348c0 21.333 7.16797 39.167 21.501 53.5s32.166 21.5 53.499 21.5c16 0.666992 30 -3.5 42 -12.5s20.833 -20.333 26.5 -34s7.5 -28 5.5 -43s-9 -27.833 -21 -38.5c-10.667 -12 -23.5 -19 -38.5 -21s-29.333 -0.166992 -43 5.5s-25.167 14.5 -34.5 26.5
s-13.333 26 -12 42z" />
    <glyph glyph-name="cedilla" unicode="&#xb8;" horiz-adv-x="255" 
d="M157 -46c22.667 -4 41.333 -12.832 56 -26.499s22 -31.167 22 -52.5c0 -70 -71.667 -100.333 -215 -91v79c80.667 -6.66699 121 1.66602 121 24.999c0 18 -24.333 28 -73 30v82h89v-46z" />
    <glyph glyph-name="guillemotright" unicode="&#xbb;" horiz-adv-x="527" 
d="M172 494l110 -185l-110 -185h-107l110 185l-110 185h107zM352 494l110 -185l-110 -185h-107l110 185l-110 185h107z" />
    <glyph glyph-name="onequarter" unicode="&#xbc;" horiz-adv-x="817" 
d="M204 300h-92v306l-85 -25l-22 76l119 43h80v-400zM521 700h80l-400 -700h-80zM800 152v-84h-44v-68h-89v68h-193v84l135 248h99l-132 -248h91v79h89v-79h44z" />
    <glyph glyph-name="onehalf" unicode="&#xbd;" horiz-adv-x="812" 
d="M204 300h-92v306l-85 -25l-22 76l119 43h80v-400zM521 700h80l-400 -700h-80zM625 85h154.998v-85h-293v64l157 151c24.667 22.667 37 45.667 37 69c0 13.333 -4.66699 24 -14 32s-22 12 -38 12c-32 0 -55.333 -18 -70 -54l-75 42c12.667 30 31.167 53.667 55.5 71
s54.5 26 90.5 26c20.667 0 39.834 -3.16699 57.501 -9.5s32.834 -15 45.501 -26s22.5 -24 29.5 -39s10.5 -31.5 10.5 -49.5c0 -43.333 -22 -86 -66 -128z" />
    <glyph glyph-name="threequarters" unicode="&#xbe;" horiz-adv-x="905" 
d="M319 419c0 -42 -13.6689 -74.5 -41.002 -97.5s-64.333 -34.5 -111 -34.5c-74.667 0 -125.334 29 -152.001 87l78 45c13.333 -33.333 38 -50 74 -50c20 -2 34.833 2.5 44.5 13.5s14.334 23.167 14.001 36.5s-5.66602 25.5 -15.999 36.5s-25.5 15.5 -45.5 13.5h-14l-36 55
l75 91h-158v85h270v-72l-78 -93c30.667 -7.33301 54.334 -21 71.001 -41s25 -45 25 -75zM608.998 700h80l-400 -700h-80zM887.998 152v-84h-44v-68h-89v68h-193v84l135 248h99l-132 -248h91v79h89v-79h44z" />
    <glyph glyph-name="questiondown" unicode="&#xbf;" horiz-adv-x="546" 
d="M288 362c-20.667 0 -38.3359 7.33301 -53.0029 22s-22 32.334 -22 53.001s7.33301 38.334 22 53.001s32.334 22 53.001 22s38.334 -7.33301 53.001 -22s22 -32.334 22 -53.001s-7.16699 -38.334 -21.5 -53.001s-32.166 -22 -53.499 -22zM345.998 280
c0 -24 -4.33105 -45.6641 -12.998 -64.9971s-19.5 -36.833 -32.5 -52.5s-27.167 -30.334 -42.5 -44.001s-29.5 -27.334 -42.5 -41.001s-23.833 -27.834 -32.5 -42.501s-13 -31 -13 -49c0 -28 9.66699 -49.5 29 -64.5s45.333 -22.5 78 -22.5c32 0 59.167 7.83301 81.5 23.5
s38.5 38.5 48.5 68.5l99 -56c-18.667 -48 -48.834 -84.667 -90.501 -110s-88.834 -38 -141.501 -38c-60 0 -111.333 17 -154 51c-43.333 34 -65 81 -65 141c0 25.333 4.33301 47.833 13 67.5s19.5 37.667 32.5 54s27.167 31.5 42.5 45.5s29.5 28 42.5 42
s23.833 28.333 32.5 43s13 31 13 49h115z" />
    <glyph glyph-name="Agrave" unicode="&#xc0;" 
d="M403 765h-104l-106 135h130zM526 0l-49 141h-298l-49 -141h-125l254 700h138l253 -700h-124zM217 249h222l-111 316z" />
    <glyph glyph-name="Aacute" unicode="&#xc1;" 
d="M468 900l-106 -135h-104l80 135h130zM526 0l-49 141h-298l-49 -141h-125l254 700h138l253 -700h-124zM217 249h222l-111 316z" />
    <glyph glyph-name="Acircumflex" unicode="&#xc2;" 
d="M326 834l-53 -74h-110l106 140h113l106 -140h-110zM526 0l-49 141h-298l-49 -141h-125l254 700h138l253 -700h-124zM217 249h222l-111 316z" />
    <glyph glyph-name="Atilde" unicode="&#xc3;" 
d="M320 790c-22 17.333 -38 24.833 -48 22.5s-15 -17.5 -15 -45.5h-89c0 36.667 5 65.5 15 86.5s23 35.5 39 43.5s34.167 10 54.5 6s40.5 -12.667 60.5 -26c21.333 -17.333 37 -24.833 47 -22.5s15 17.5 15 45.5h89c0 -36.667 -4.83301 -65.5 -14.5 -86.5
s-22.5 -35.5 -38.5 -43.5s-34 -10.167 -54 -6.5s-40.333 12.5 -61 26.5zM526 0l-49 141h-298l-49 -141h-125l254 700h138l253 -700h-124zM217 249h222l-111 316z" />
    <glyph glyph-name="Adieresis" unicode="&#xc4;" 
d="M275 775c-11.333 -11.333 -25.333 -17 -42 -17s-31 5.66699 -43 17c-11.333 12 -17 26.333 -17 43s5.66699 30.667 17 42c12 12 26.333 18 43 18s30.667 -6 42 -18c12 -11.333 18 -25.333 18 -42s-6 -31 -18 -43zM465 775c-11.333 -11.333 -25.333 -17 -42 -17
s-31 5.66699 -43 17c-11.333 12 -17 26.333 -17 43s5.66699 30.667 17 42c12 12 26.333 18 43 18s30.667 -6 42 -18c12 -11.333 18 -25.333 18 -42s-6 -31 -18 -43zM526 0l-49 141h-298l-49 -141h-125l254 700h138l253 -700h-124zM217 249h222l-111 316z" />
    <glyph glyph-name="Aring" unicode="&#xc5;" 
d="M526 0l-49 141h-298l-49 -141h-125l246 677c-28.667 20.667 -43 50 -43 88c0 16 3 30.833 9 44.5s14.167 25.667 24.5 36s22.833 18.333 37.5 24s30.667 8.5 48 8.5c36 0 65 -10.667 87 -32s33 -48.333 33 -81c0 -36.667 -14 -66 -42 -88l245 -677h-124zM327 807
c-13.333 0 -23.833 -3.83301 -31.5 -11.5s-11.5 -17.834 -11.5 -30.501c0 -12 3.83301 -21.833 11.5 -29.5s18.167 -11.5 31.5 -11.5c14 0 24.833 3.83301 32.5 11.5s11.5 17.5 11.5 29.5c0 12.667 -3.83301 22.834 -11.5 30.501s-18.5 11.5 -32.5 11.5zM217 249h222
l-111 316z" />
    <glyph glyph-name="AE" unicode="&#xc6;" horiz-adv-x="880" 
d="M563 110h282v-110h-395v141h-236l-84 -141h-130l419 700h421v-110h-277v-182h257v-109h-257v-189zM278 249h172v288z" />
    <glyph glyph-name="Ccedilla" unicode="&#xc7;" horiz-adv-x="732" 
d="M401 99c44 0 84 10.1699 120 30.5029s63 47.833 81 82.5l100 -57c-25.333 -46 -60.5 -83.333 -105.5 -112s-94.833 -46.334 -149.5 -53.001v-36c22.667 -4 41.334 -12.833 56.001 -26.5s22 -31.167 22 -52.5c0 -70 -71.667 -100.333 -215 -91v79
c80.667 -6.66699 121 1.66602 121 24.999c0 18 -24.333 28 -73 30v71c-94 10 -171.667 49 -233 117c-60 68 -90 149.333 -90 244c0 102.667 34.667 188.667 104 258c68.667 70 156 105 262 105c32 0 62.833 -3.83301 92.5 -11.5s57.5 -18.834 83.5 -33.501
s49.5 -32.167 70.5 -52.5s39.167 -43.5 54.5 -69.5l-100 -58c-18.667 34.667 -45.834 62.167 -81.501 82.5s-75.5 30.5 -119.5 30.5c-74 0 -134.667 -23.667 -182 -71c-46 -47.333 -69 -107.333 -69 -180c0 -73.333 23 -133.333 69 -180c47.333 -47.333 108 -71 182 -71z
" />
    <glyph glyph-name="Egrave" unicode="&#xc8;" horiz-adv-x="530" 
d="M356 765h-104l-106 135h130zM185 110h310v-110h-425v700h420v-110h-305v-182h280v-109h-280v-189z" />
    <glyph glyph-name="Eacute" unicode="&#xc9;" horiz-adv-x="530" 
d="M421 900l-106 -135h-104l80 135h130zM185 110h310v-110h-425v700h420v-110h-305v-182h280v-109h-280v-189z" />
    <glyph glyph-name="Ecircumflex" unicode="&#xca;" horiz-adv-x="530" 
d="M279 834l-53 -74h-110l106 140h113l106 -140h-110zM185 110h310v-110h-425v700h420v-110h-305v-182h280v-109h-280v-189z" />
    <glyph glyph-name="Edieresis" unicode="&#xcb;" horiz-adv-x="530" 
d="M228 775c-11.333 -11.333 -25.333 -17 -42 -17s-31 5.66699 -43 17c-11.333 12 -17 26.333 -17 43s5.66699 30.667 17 42c12 12 26.333 18 43 18s30.667 -6 42 -18c12 -11.333 18 -25.333 18 -42s-6 -31 -18 -43zM418 775c-11.333 -11.333 -25.333 -17 -42 -17
s-31 5.66699 -43 17c-11.333 12 -17 26.333 -17 43s5.66699 30.667 17 42c12 12 26.333 18 43 18s30.667 -6 42 -18c12 -11.333 18 -25.333 18 -42s-6 -31 -18 -43zM185 110h310v-110h-425v700h420v-110h-305v-182h280v-109h-280v-189z" />
    <glyph glyph-name="Igrave" unicode="&#xcc;" horiz-adv-x="255" 
d="M99 765l-106 135h130l80 -135h-104zM70 700h115v-700h-115v700z" />
    <glyph glyph-name="Iacute" unicode="&#xcd;" horiz-adv-x="255" 
d="M138 900h130l-106 -135h-104zM70 700h115v-700h-115v700z" />
    <glyph glyph-name="Icircumflex" unicode="&#xce;" horiz-adv-x="255" 
d="M126 834l-53 -74h-110l106 140h113l106 -140h-110zM70 0v700h115v-700h-115z" />
    <glyph glyph-name="Idieresis" unicode="&#xcf;" horiz-adv-x="255" 
d="M75 775c-11.333 -11.333 -25.333 -17 -42 -17s-30.667 5.66699 -42 17c-12 12 -18 26.333 -18 43s6 30.667 18 42c11.333 12 25.333 18 42 18s30.667 -6 42 -18c12 -11.333 18 -25.333 18 -42s-6 -31 -18 -43zM265 775c-11.333 -11.333 -25.333 -17 -42 -17
s-31 5.66699 -43 17c-11.333 12 -17 26.333 -17 43s5.66699 30.667 17 42c12 12 26.333 18 43 18s30.667 -6 42 -18c12 -11.333 18 -25.333 18 -42s-6 -31 -18 -43zM70 700h115v-700h-115v700z" />
    <glyph glyph-name="Eth" unicode="&#xd0;" horiz-adv-x="745" 
d="M375 700c96 0 175.667 -33.667 239 -101c64 -67.333 96 -150.333 96 -249c0 -98 -32 -181 -96 -249c-63.333 -67.333 -143 -101 -239 -101h-275v293h-75v104h75v303h275zM375 110c66 0 119.667 22.668 161 68.001c42 44.667 63 102 63 172
c0 69.333 -21 126.666 -63 171.999c-41.333 45.333 -95 68 -161 68h-160v-193h180v-104h-180v-183h160z" />
    <glyph glyph-name="Ntilde" unicode="&#xd1;" horiz-adv-x="675" 
d="M173 767c0 36.667 5 65.5 15 86.5s23 35.5 39 43.5s34.167 10 54.5 6s40.5 -12.667 60.5 -26c21.333 -17.333 37 -24.833 47 -22.5s15 17.5 15 45.5h89c0 -36.667 -4.83301 -65.5 -14.5 -86.5s-22.5 -35.5 -38.5 -43.5s-34 -10.167 -54 -6.5s-40.333 12.5 -61 26.5
c-22 17.333 -38 24.833 -48 22.5s-15 -17.5 -15 -45.5h-89zM490 700h115v-700h-90l-330 475v-475h-115v700h90l330 -475v475z" />
    <glyph glyph-name="Ograve" unicode="&#xd2;" horiz-adv-x="796" 
d="M400 770l-106 135h130l80 -135h-104zM655 92c-70 -70 -155.667 -105 -257 -105s-187.333 35 -258 105c-70 70.667 -105 156.667 -105 258s35 187 105 257c70.667 70.667 156.667 106 258 106s187 -35.333 257 -106c70.667 -70 106 -155.667 106 -257
s-35.333 -187.333 -106 -258zM221 170c48.667 -47.333 107.667 -71 177 -71c70 0 128.667 23.667 176 71c48 48 72 108 72 180s-24 131.667 -72 179c-47.333 48 -106 72 -176 72s-129 -24 -177 -72c-47.333 -47.333 -71 -107 -71 -179c0 -71.333 23.667 -131.333 71 -180z
" />
    <glyph glyph-name="Oacute" unicode="&#xd3;" horiz-adv-x="796" 
d="M444 905h130l-106 -135h-104zM655 92c-70 -70 -155.667 -105 -257 -105s-187.333 35 -258 105c-70 70.667 -105 156.667 -105 258s35 187 105 257c70.667 70.667 156.667 106 258 106s187 -35.333 257 -106c70.667 -70 106 -155.667 106 -257s-35.333 -187.333 -106 -258
zM221 170c48.667 -47.333 107.667 -71 177 -71c70 0 128.667 23.667 176 71c48 48 72 108 72 180s-24 131.667 -72 179c-47.333 48 -106 72 -176 72s-129 -24 -177 -72c-47.333 -47.333 -71 -107 -71 -179c0 -71.333 23.667 -131.333 71 -180z" />
    <glyph glyph-name="Ocircumflex" unicode="&#xd4;" horiz-adv-x="796" 
d="M396 839l-53 -74h-110l106 140h113l106 -140h-110zM140 607c70.667 70.667 156.667 106 258 106s187 -35.333 257 -106c70.667 -70 106 -155.667 106 -257s-35.333 -187.333 -106 -258c-70 -70 -155.667 -105 -257 -105s-187.333 35 -258 105
c-70 70.667 -105 156.667 -105 258s35 187 105 257zM221 170c48.667 -47.333 107.667 -71 177 -71c70 0 128.667 23.667 176 71c48 48 72 108 72 180s-24 131.667 -72 179c-47.333 48 -106 72 -176 72s-129 -24 -177 -72c-47.333 -47.333 -71 -107 -71 -179
c0 -71.333 23.667 -131.333 71 -180z" />
    <glyph glyph-name="Otilde" unicode="&#xd5;" horiz-adv-x="796" 
d="M238 772c0 36.667 5 65.5 15 86.5s23 35.5 39 43.5s34.167 10 54.5 6s40.5 -12.667 60.5 -26c21.333 -17.333 37 -24.833 47 -22.5s15 17.5 15 45.5h89c0 -36.667 -4.83301 -65.5 -14.5 -86.5s-22.5 -35.5 -38.5 -43.5s-34 -10.167 -54 -6.5s-40.333 12.5 -61 26.5
c-22 17.333 -38 24.833 -48 22.5s-15 -17.5 -15 -45.5h-89zM655 92c-70 -70 -155.667 -105 -257 -105s-187.333 35 -258 105c-70 70.667 -105 156.667 -105 258s35 187 105 257c70.667 70.667 156.667 106 258 106s187 -35.333 257 -106c70.667 -70 106 -155.667 106 -257
s-35.333 -187.333 -106 -258zM221 170c48.667 -47.333 107.667 -71 177 -71c70 0 128.667 23.667 176 71c48 48 72 108 72 180s-24 131.667 -72 179c-47.333 48 -106 72 -176 72s-129 -24 -177 -72c-47.333 -47.333 -71 -107 -71 -179c0 -71.333 23.667 -131.333 71 -180z
" />
    <glyph glyph-name="Odieresis" unicode="&#xd6;" horiz-adv-x="796" 
d="M345 780c-11.333 -11.333 -25.333 -17 -42 -17s-31 5.66699 -43 17c-11.333 12 -17 26.333 -17 43s5.66699 30.667 17 42c12 12 26.333 18 43 18s30.667 -6 42 -18c12 -11.333 18 -25.333 18 -42s-6 -31 -18 -43zM535 780c-11.333 -11.333 -25.333 -17 -42 -17
s-31 5.66699 -43 17c-11.333 12 -17 26.333 -17 43s5.66699 30.667 17 42c12 12 26.333 18 43 18s30.667 -6 42 -18c12 -11.333 18 -25.333 18 -42s-6 -31 -18 -43zM655 92c-70 -70 -155.667 -105 -257 -105s-187.333 35 -258 105c-70 70.667 -105 156.667 -105 258
s35 187 105 257c70.667 70.667 156.667 106 258 106s187 -35.333 257 -106c70.667 -70 106 -155.667 106 -257s-35.333 -187.333 -106 -258zM221 170c48.667 -47.333 107.667 -71 177 -71c70 0 128.667 23.667 176 71c48 48 72 108 72 180s-24 131.667 -72 179
c-47.333 48 -106 72 -176 72s-129 -24 -177 -72c-47.333 -47.333 -71 -107 -71 -179c0 -71.333 23.667 -131.333 71 -180z" />
    <glyph glyph-name="multiply" unicode="&#xd7;" horiz-adv-x="498" 
d="M448 478l-128 -128l128 -128l-72 -70l-127 127l-127 -127l-72 70l128 128l-128 128l72 70l127 -127l127 127z" />
    <glyph glyph-name="Oslash" unicode="&#xd8;" horiz-adv-x="804" 
d="M665 606c69.333 -69.333 104.001 -154.666 104.001 -255.999s-35.333 -187.333 -106 -258c-70 -70 -155.667 -105 -257 -105c-76.667 0 -145.334 21 -206.001 63l-48 -57l-61 35l56 66c-69.333 71.333 -104 156.666 -104 255.999c0 101.333 35 187 105 257
c70.667 70.667 156.667 106 258 106c76 0 144.667 -21 206 -63l48 57l61 -35zM158.001 350c0 -66 20.334 -122.333 61.001 -169l321 383c-40.667 24.667 -85.334 37 -134.001 37c-70 0 -129 -24 -177 -72c-47.333 -47.333 -71 -107 -71 -179zM406.002 99
c70 0 128.666 23.667 175.999 71c48 48 72 108 72 180c0 66 -20.333 122.333 -61 169l-321 -383c40.667 -24.667 85.334 -37 134.001 -37z" />
    <glyph glyph-name="Ugrave" unicode="&#xd9;" 
d="M299 765l-106 135h130l80 -135h-104zM63 232l0.000976562 468h115v-461c0 -42.667 12.5 -76.667 37.5 -102s62.5 -38 112.5 -38s87.5 12.667 112.5 38s37.5 59.333 37.5 102v461h115v-468c0 -74 -24.667 -133.667 -74 -179c-49.333 -44 -113 -66 -191 -66
c-78.667 0 -142.334 22 -191.001 66c-49.333 45.333 -74 105 -74 179z" />
    <glyph glyph-name="Uacute" unicode="&#xda;" 
d="M359 900h130l-106 -135h-104zM63 232l0.000976562 468h115v-461c0 -42.667 12.5 -76.667 37.5 -102s62.5 -38 112.5 -38s87.5 12.667 112.5 38s37.5 59.333 37.5 102v461h115v-468c0 -74 -24.667 -133.667 -74 -179c-49.333 -44 -113 -66 -191 -66
c-78.667 0 -142.334 22 -191.001 66c-49.333 45.333 -74 105 -74 179z" />
    <glyph glyph-name="Ucircumflex" unicode="&#xdb;" 
d="M326 834l-53 -74h-110l106 140h113l106 -140h-110zM478 700h115.001v-468c0 -74 -24.667 -133.667 -74 -179c-49.333 -44 -113 -66 -191 -66c-78.667 0 -142.334 22 -191.001 66c-49.333 45.333 -74 105 -74 179v468h115v-461c0 -42.667 12.5 -76.667 37.5 -102
s62.5 -38 112.5 -38s87.5 12.667 112.5 38s37.5 59.333 37.5 102v461z" />
    <glyph glyph-name="Udieresis" unicode="&#xdc;" 
d="M275 775c-11.333 -11.333 -25.333 -17 -42 -17s-31 5.66699 -43 17c-11.333 12 -17 26.333 -17 43s5.66699 30.667 17 42c12 12 26.333 18 43 18s30.667 -6 42 -18c12 -11.333 18 -25.333 18 -42s-6 -31 -18 -43zM465 775c-11.333 -11.333 -25.333 -17 -42 -17
s-31 5.66699 -43 17c-11.333 12 -17 26.333 -17 43s5.66699 30.667 17 42c12 12 26.333 18 43 18s30.667 -6 42 -18c12 -11.333 18 -25.333 18 -42s-6 -31 -18 -43zM63 700h115.001v-461c0 -42.667 12.5 -76.667 37.5 -102s62.5 -38 112.5 -38s87.5 12.667 112.5 38
s37.5 59.333 37.5 102v461h115v-468c0 -74 -24.667 -133.667 -74 -179c-49.333 -44 -113 -66 -191 -66c-78.667 0 -142.334 22 -191.001 66c-49.333 45.333 -74 105 -74 179v468z" />
    <glyph glyph-name="Yacute" unicode="&#xdd;" horiz-adv-x="613" 
d="M462 900l-105 -135h-104l79 135h130zM608 700l-244 -422v-278h-115v278l-244 422h131l171 -310l170 310h131z" />
    <glyph glyph-name="Thorn" unicode="&#xde;" horiz-adv-x="590" 
d="M330 580c65.333 0 120 -21.999 164 -65.999s66 -98.667 66 -164c0 -64.667 -22.333 -119.334 -67 -164.001c-44 -44 -98.333 -66 -163 -66h-145v-120h-115v700h115v-120h145zM330 228.001c16 0 31 3 45 9s26.167 14.5 36.5 25.5s18.5 23.833 24.5 38.5s9 31 9 49
c0 36 -10.667 65.333 -32 88s-49 34 -83 34h-145v-244h145z" />
    <glyph glyph-name="germandbls" unicode="&#xdf;" horiz-adv-x="530" 
d="M283 91c81.333 -7.33301 121.998 15.3311 121.998 67.998c0 17.333 -6.66699 36.833 -20 58.5s-28 41.167 -44 58.5c-8 8.66699 -15.667 18.167 -23 28.5s-14 20.5 -20 30.5s-10.833 20 -14.5 30s-5.5 19 -5.5 27c0 18 11.667 42.333 35 73c24 30.667 36 55.667 36 75
c0 22 -7.5 39.667 -22.5 53s-34.833 20 -59.5 20c-28 0 -51 -8.33301 -69 -25s-27 -42.334 -27 -77.001v-511h-108v510c0 31.333 5 59.5 15 84.5s24 46.333 42 64s39.833 31.167 65.5 40.5s54.167 14 85.5 14c56.667 0 101.667 -15.667 135 -47c34 -31.333 51 -69 51 -113
c0.666992 -18 -2.66602 -34.667 -9.99902 -50s-15.5 -29.666 -24.5 -42.999l-24.5 -35.5c-7.33301 -10.333 -10.666 -19.5 -9.99902 -27.5c0 -13.333 6.5 -29.5 19.5 -48.5s27.167 -37.5 42.5 -55.5c16 -17.333 30.5 -39.666 43.5 -66.999s19.5 -54.666 19.5 -81.999
c0 -25.333 -4.66699 -48 -14 -68s-23.5 -36.667 -42.5 -50s-42.833 -22.833 -71.5 -28.5s-62.667 -6.5 -102 -2.5v96z" />
    <glyph glyph-name="agrave" unicode="&#xe0;" horiz-adv-x="630" 
d="M396 565h-104l-106 135h130zM459 500h108.001v-500h-108v72c-40.667 -56.667 -99 -85 -175 -85c-68.667 0 -127.334 25.333 -176.001 76s-73 113 -73 187s24.333 136.333 73 187s107.334 76 176.001 76c75.333 0 133.666 -28 174.999 -84v71zM188.001 135
c30 -30 67.667 -45 113 -45s83 15 113 45c30 30.667 45 69 45 115s-15 84 -45 114c-30 30.667 -67.667 46 -113 46s-83 -15.333 -113 -46c-30 -30 -45 -68 -45 -114s15 -84.333 45 -115z" />
    <glyph glyph-name="aacute" unicode="&#xe1;" horiz-adv-x="630" 
d="M469 700l-106 -135h-104l80 135h130zM459 500h108.001v-500h-108v72c-40.667 -56.667 -99 -85 -175 -85c-68.667 0 -127.334 25.333 -176.001 76s-73 113 -73 187s24.333 136.333 73 187s107.334 76 176.001 76c75.333 0 133.666 -28 174.999 -84v71zM188.001 135
c30 -30 67.667 -45 113 -45s83 15 113 45c30 30.667 45 69 45 115s-15 84 -45 114c-30 30.667 -67.667 46 -113 46s-83 -15.333 -113 -46c-30 -30 -45 -68 -45 -114s15 -84.333 45 -115z" />
    <glyph glyph-name="acircumflex" unicode="&#xe2;" horiz-adv-x="630" 
d="M316 634l-53 -74h-110l106 140h113l106 -140h-110zM459 500h108.001v-500h-108v72c-40.667 -56.667 -99 -85 -175 -85c-68.667 0 -127.334 25.333 -176.001 76s-73 113 -73 187s24.333 136.333 73 187s107.334 76 176.001 76c75.333 0 133.666 -28 174.999 -84v71z
M188.001 135c30 -30 67.667 -45 113 -45s83 15 113 45c30 30.667 45 69 45 115s-15 84 -45 114c-30 30.667 -67.667 46 -113 46s-83 -15.333 -113 -46c-30 -30 -45 -68 -45 -114s15 -84.333 45 -115z" />
    <glyph glyph-name="atilde" unicode="&#xe3;" horiz-adv-x="630" 
d="M314 590c-22 17.333 -38 24.833 -48 22.5s-15 -17.5 -15 -45.5h-89c0 36.667 5 65.5 15 86.5s23 35.5 39 43.5s34.167 10 54.5 6s40.5 -12.667 60.5 -26c21.333 -17.333 37 -24.833 47 -22.5s15 17.5 15 45.5h89c0 -36.667 -4.83301 -65.5 -14.5 -86.5
s-22.5 -35.5 -38.5 -43.5s-34 -10.167 -54 -6.5s-40.333 12.5 -61 26.5zM459 500h108.001v-500h-108v72c-40.667 -56.667 -99 -85 -175 -85c-68.667 0 -127.334 25.333 -176.001 76s-73 113 -73 187s24.333 136.333 73 187s107.334 76 176.001 76
c75.333 0 133.666 -28 174.999 -84v71zM188.001 135c30 -30 67.667 -45 113 -45s83 15 113 45c30 30.667 45 69 45 115s-15 84 -45 114c-30 30.667 -67.667 46 -113 46s-83 -15.333 -113 -46c-30 -30 -45 -68 -45 -114s15 -84.333 45 -115z" />
    <glyph glyph-name="adieresis" unicode="&#xe4;" horiz-adv-x="630" 
d="M255 575c-11.333 -11.333 -25.333 -17 -42 -17s-31 5.66699 -43 17c-11.333 12 -17 26.333 -17 43s5.66699 30.667 17 42c12 12 26.333 18 43 18s30.667 -6 42 -18c12 -11.333 18 -25.333 18 -42s-6 -31 -18 -43zM445 575c-11.333 -11.333 -25.333 -17 -42 -17
s-31 5.66699 -43 17c-11.333 12 -17 26.333 -17 43s5.66699 30.667 17 42c12 12 26.333 18 43 18s30.667 -6 42 -18c12 -11.333 18 -25.333 18 -42s-6 -31 -18 -43zM459 500h108.001v-500h-108v72c-40.667 -56.667 -99 -85 -175 -85c-68.667 0 -127.334 25.333 -176.001 76
s-73 113 -73 187s24.333 136.333 73 187s107.334 76 176.001 76c75.333 0 133.666 -28 174.999 -84v71zM188.001 135c30 -30 67.667 -45 113 -45s83 15 113 45c30 30.667 45 69 45 115s-15 84 -45 114c-30 30.667 -67.667 46 -113 46s-83 -15.333 -113 -46
c-30 -30 -45 -68 -45 -114s15 -84.333 45 -115z" />
    <glyph glyph-name="aring" unicode="&#xe5;" horiz-adv-x="630" 
d="M308 543c-17.333 0 -33.333 2.83301 -48 8.5s-27.167 13.5 -37.5 23.5s-18.5 21.833 -24.5 35.5s-9 28.5 -9 44.5s3 30.833 9 44.5s14.167 25.667 24.5 36s22.833 18.333 37.5 24s30.667 8.5 48 8.5c36 0 65 -10.667 87 -32s33 -48.333 33 -81s-11 -59.5 -33 -80.5
s-51 -31.5 -87 -31.5zM308 697c-13.333 0 -23.833 -3.83301 -31.5 -11.5s-11.5 -17.834 -11.5 -30.501c0 -12 3.83301 -21.833 11.5 -29.5s18.167 -11.5 31.5 -11.5c14 0 24.833 3.83301 32.5 11.5s11.5 17.5 11.5 29.5c0 12.667 -3.83301 22.834 -11.5 30.501
s-18.5 11.5 -32.5 11.5zM459 500h108.001v-500h-108v72c-40.667 -56.667 -99 -85 -175 -85c-68.667 0 -127.334 25.333 -176.001 76s-73 113 -73 187s24.333 136.333 73 187s107.334 76 176.001 76c75.333 0 133.666 -28 174.999 -84v71zM188.001 135
c30 -30 67.667 -45 113 -45s83 15 113 45c30 30.667 45 69 45 115s-15 84 -45 114c-30 30.667 -67.667 46 -113 46s-83 -15.333 -113 -46c-30 -30 -45 -68 -45 -114s15 -84.333 45 -115z" />
    <glyph glyph-name="ae" unicode="&#xe6;" horiz-adv-x="1006" 
d="M573 204c8 -38 26.1689 -67.167 54.502 -87.5s62.5 -30.5 102.5 -30.5c58 0 101.667 20.667 131 62l89 -52c-48.667 -72.667 -117.334 -109 -206.001 -109c-79.333 0 -140 29 -182 87v-74h-103v72c-40.667 -56.667 -99 -85 -175 -85
c-68.667 0 -127.334 25.333 -176.001 76s-73 113 -73 187s24.333 136.333 73 187s107.334 76 176.001 76c75.333 0 133.666 -28 174.999 -84v71h103v-74c42 58 100.667 87 176 87c73.333 0 131 -25.333 173 -76c42 -50 63 -112.667 63 -188
c0 -5.33301 -0.333008 -11.833 -1 -19.5s-1.66699 -16.167 -3 -25.5h-397zM865.002 293c-6.66699 40.667 -22.832 71.167 -48.499 91.5s-56.5 30.5 -92.5 30.5c-40.667 0 -74.334 -10.833 -101.001 -32.5s-43.667 -51.5 -51 -89.5h293zM188.004 135
c30 -30 67.667 -45 113 -45s83 15 113 45c30 30.667 45 69 45 115s-15 84 -45 114c-30 30.667 -67.667 46 -113 46s-83 -15.333 -113 -46c-30 -30 -45 -68 -45 -114s15 -84.333 45 -115z" />
    <glyph glyph-name="ccedilla" unicode="&#xe7;" horiz-adv-x="542" 
d="M524 117c-17.333 -34 -41.833 -61.8311 -73.5 -83.498s-66.834 -35.834 -105.501 -42.501v-37c22.667 -4 41.334 -12.833 56.001 -26.5s22 -31.167 22 -52.5c0 -70 -71.667 -100.333 -215 -91v79c80.667 -6.66699 121 1.66602 121 24.999c0 18 -24.333 28 -73 30v72
c-65.333 10 -118.333 39 -159 87c-41.333 49.333 -62 107 -62 173c0 74.667 25 137 75 187c50.667 50.667 113.667 76 189 76c48.667 0 93 -11.5 133 -34.5s70 -54.5 90 -94.5l-93 -54c-11.333 24 -28.5 42.833 -51.5 56.5s-49.5 20.5 -79.5 20.5c-44 0 -81 -15 -111 -45
c-29.333 -30.667 -44 -68 -44 -112s14.667 -81.333 44 -112c30 -30 67 -45 111 -45c30 0 56.667 7 80 21s41 32.667 53 56z" />
    <glyph glyph-name="egrave" unicode="&#xe8;" horiz-adv-x="582" 
d="M379 568h-104l-106 135h130zM148 204c8 -38 26.168 -67.168 54.501 -87.501s63.5 -30.5 105.5 -30.5c56.667 0 99.667 20.667 129 62l89 -52c-48.667 -72.667 -121.667 -109 -219 -109c-80.667 0 -146.334 24.667 -197.001 74c-50 50 -75 113 -75 189
c0 74 24.667 136.333 74 187c48.667 50.667 112 76 190 76c72.667 0 132.667 -25.667 180 -77s71 -113.666 71 -186.999c0 -5.33301 -0.333008 -11.833 -1 -19.5s-1.66699 -16.167 -3 -25.5h-398zM441.001 291.999c-7.33301 40.667 -24 71.333 -50 92s-57 31 -93 31
c-40 0 -73.333 -11 -100 -33s-43.667 -52 -51 -90h294z" />
    <glyph glyph-name="eacute" unicode="&#xe9;" horiz-adv-x="582" 
d="M456 703l-106 -135h-104l80 135h130zM148 204c8 -38 26.168 -67.168 54.501 -87.501s63.5 -30.5 105.5 -30.5c56.667 0 99.667 20.667 129 62l89 -52c-48.667 -72.667 -121.667 -109 -219 -109c-80.667 0 -146.334 24.667 -197.001 74c-50 50 -75 113 -75 189
c0 74 24.667 136.333 74 187c48.667 50.667 112 76 190 76c72.667 0 132.667 -25.667 180 -77s71 -113.666 71 -186.999c0 -5.33301 -0.333008 -11.833 -1 -19.5s-1.66699 -16.167 -3 -25.5h-398zM441.001 291.999c-7.33301 40.667 -24 71.333 -50 92s-57 31 -93 31
c-40 0 -73.333 -11 -100 -33s-43.667 -52 -51 -90h294z" />
    <glyph glyph-name="ecircumflex" unicode="&#xea;" horiz-adv-x="582" 
d="M299 637l-53 -74h-110l106 140h113l106 -140h-110zM148 204c8 -38 26.168 -67.168 54.501 -87.501s63.5 -30.5 105.5 -30.5c56.667 0 99.667 20.667 129 62l89 -52c-48.667 -72.667 -121.667 -109 -219 -109c-80.667 0 -146.334 24.667 -197.001 74
c-50 50 -75 113 -75 189c0 74 24.667 136.333 74 187c48.667 50.667 112 76 190 76c72.667 0 132.667 -25.667 180 -77s71 -113.666 71 -186.999c0 -5.33301 -0.333008 -11.833 -1 -19.5s-1.66699 -16.167 -3 -25.5h-398zM441.001 291.999
c-7.33301 40.667 -24 71.333 -50 92s-57 31 -93 31c-40 0 -73.333 -11 -100 -33s-43.667 -52 -51 -90h294z" />
    <glyph glyph-name="edieresis" unicode="&#xeb;" horiz-adv-x="582" 
d="M240 578c-11.333 -11.333 -25.333 -17 -42 -17s-31 5.66699 -43 17c-11.333 12 -17 26.333 -17 43s5.66699 30.667 17 42c12 12 26.333 18 43 18s30.667 -6 42 -18c12 -11.333 18 -25.333 18 -42s-6 -31 -18 -43zM430 578c-11.333 -11.333 -25.333 -17 -42 -17
s-31 5.66699 -43 17c-11.333 12 -17 26.333 -17 43s5.66699 30.667 17 42c12 12 26.333 18 43 18s30.667 -6 42 -18c12 -11.333 18 -25.333 18 -42s-6 -31 -18 -43zM148 204c8 -38 26.168 -67.168 54.501 -87.501s63.5 -30.5 105.5 -30.5c56.667 0 99.667 20.667 129 62
l89 -52c-48.667 -72.667 -121.667 -109 -219 -109c-80.667 0 -146.334 24.667 -197.001 74c-50 50 -75 113 -75 189c0 74 24.667 136.333 74 187c48.667 50.667 112 76 190 76c72.667 0 132.667 -25.667 180 -77s71 -113.666 71 -186.999
c0 -5.33301 -0.333008 -11.833 -1 -19.5s-1.66699 -16.167 -3 -25.5h-398zM441.001 291.999c-7.33301 40.667 -24 71.333 -50 92s-57 31 -93 31c-40 0 -73.333 -11 -100 -33s-43.667 -52 -51 -90h294z" />
    <glyph glyph-name="igrave" unicode="&#xec;" horiz-adv-x="233" 
d="M63 560l-66 140h125l45 -140h-104zM171 0h-108v500h108v-500z" />
    <glyph glyph-name="iacute" unicode="&#xed;" horiz-adv-x="233" 
d="M109 700h125l-66 -140h-104zM63 0v500h108v-500h-108z" />
    <glyph glyph-name="icircumflex" unicode="&#xee;" horiz-adv-x="233" 
d="M117 622l-38 -62h-110l91 140h113l91 -140h-110zM63 0v500h108v-500h-108z" />
    <glyph glyph-name="idieresis" unicode="&#xef;" horiz-adv-x="233" 
d="M79 577c-11.333 -11.333 -25.333 -17 -42 -17s-31 5.66699 -43 17c-12 12 -18 26.333 -18 43s6 30.667 18 42c12 12 26.333 18 43 18s30.667 -6 42 -18c12 -11.333 18 -25.333 18 -42s-6 -31 -18 -43zM239 577c-11.333 -11.333 -25.333 -17 -42 -17s-31 5.66699 -43 17
c-11.333 12 -17 26.333 -17 43s5.66699 30.667 17 42c12 12 26.333 18 43 18s30.667 -6 42 -18c12 -11.333 18 -25.333 18 -42s-6 -31 -18 -43zM63 0v500h108v-500h-108z" />
    <glyph glyph-name="eth" unicode="&#xf0;" horiz-adv-x="576" 
d="M495 370c30.667 -40.667 46.001 -87.333 46.001 -140c0 -72 -24.667 -130.667 -74 -176c-49.333 -44 -109 -66 -179 -66c-70.667 0 -130.334 22 -179.001 66c-49.333 45.333 -74 104 -74 176c0 71.333 26.667 129.666 80 174.999c53.333 44.667 116 61.334 188 50.001h1
l-66 91l-123 -65v80l80 43l-70 96h124l36 -49l117 62v-80l-74 -39zM433.001 230.001c0 32.667 -8.00195 59.667 -24.002 81l-1 1c-27.333 36 -67 54 -119 54c-42.667 0 -77.667 -12.167 -105 -36.5s-41 -57.5 -41 -99.5c0 -21.333 3.66699 -40.666 11 -57.999
s17.5 -32 30.5 -44s28.333 -21.333 46 -28s36.834 -10 57.501 -10s39.834 3.33301 57.501 10s33 16 46 28s23.167 26.667 30.5 44s11 36.666 11 57.999z" />
    <glyph glyph-name="ntilde" unicode="&#xf1;" horiz-adv-x="571" 
d="M288 595c-22 17.333 -38 24.833 -48 22.5s-15 -17.5 -15 -45.5h-89c0 36.667 5 65.5 15 86.5s23 35.5 39 43.5s34.167 10 54.5 6s40.5 -12.667 60.5 -26c21.333 -17.333 37 -24.833 47 -22.5s15 17.5 15 45.5h89c0 -36.667 -4.83301 -65.5 -14.5 -86.5
s-22.5 -35.5 -38.5 -43.5s-34 -10.167 -54 -6.5s-40.333 12.5 -61 26.5zM326 513c58 0 104.5 -18.166 139.5 -54.499s52.5 -86.833 52.5 -151.5v-307h-108v296c0 38 -10 66.833 -30 86.5s-47.333 29.5 -82 29.5c-38 0 -68.667 -11.833 -92 -35.5s-35 -59.834 -35 -108.501
v-268h-108v500h108v-64c33.333 51.333 85 77 155 77z" />
    <glyph glyph-name="ograve" unicode="&#xf2;" horiz-adv-x="598" 
d="M278 570l-106 135h130l80 -135h-104zM299 -13c-74 0 -136.333 25.333 -187 76c-51.333 51.333 -77 113.666 -77 186.999s25.667 135.666 77 186.999c50.667 50.667 113 76 187 76s136.333 -25.333 187 -76c51.333 -51.333 77 -113.666 77 -186.999
s-25.667 -135.666 -77 -186.999c-50.667 -50.667 -113 -76 -187 -76zM188 137c30 -30 67 -45 111 -45s81 15 111 45s45 67.667 45 113s-15 83 -45 113s-67 45 -111 45s-81 -15 -111 -45s-45 -67.667 -45 -113s15 -83 45 -113z" />
    <glyph glyph-name="oacute" unicode="&#xf3;" horiz-adv-x="598" 
d="M324 705h130l-106 -135h-104zM299 -13c-74 0 -136.333 25.333 -187 76c-51.333 51.333 -77 113.666 -77 186.999s25.667 135.666 77 186.999c50.667 50.667 113 76 187 76s136.333 -25.333 187 -76c51.333 -51.333 77 -113.666 77 -186.999
s-25.667 -135.666 -77 -186.999c-50.667 -50.667 -113 -76 -187 -76zM188 137c30 -30 67 -45 111 -45s81 15 111 45s45 67.667 45 113s-15 83 -45 113s-67 45 -111 45s-81 -15 -111 -45s-45 -67.667 -45 -113s15 -83 45 -113z" />
    <glyph glyph-name="ocircumflex" unicode="&#xf4;" horiz-adv-x="598" 
d="M300 639l-53 -74h-110l106 140h113l106 -140h-110zM299 513c74 0 136.333 -25.333 187 -76c51.333 -51.333 77 -113.666 77 -186.999s-25.667 -135.666 -77 -186.999c-50.667 -50.667 -113 -76 -187 -76s-136.333 25.333 -187 76c-51.333 51.333 -77 113.666 -77 186.999
s25.667 135.666 77 186.999c50.667 50.667 113 76 187 76zM188 137c30 -30 67 -45 111 -45s81 15 111 45s45 67.667 45 113s-15 83 -45 113s-67 45 -111 45s-81 -15 -111 -45s-45 -67.667 -45 -113s15 -83 45 -113z" />
    <glyph glyph-name="otilde" unicode="&#xf5;" horiz-adv-x="598" 
d="M139 572c0 36.667 5 65.5 15 86.5s23 35.5 39 43.5s34.167 10 54.5 6s40.5 -12.667 60.5 -26c21.333 -17.333 37 -24.833 47 -22.5s15 17.5 15 45.5h89c0 -36.667 -4.83301 -65.5 -14.5 -86.5s-22.5 -35.5 -38.5 -43.5s-34 -10.167 -54 -6.5s-40.333 12.5 -61 26.5
c-22 17.333 -38 24.833 -48 22.5s-15 -17.5 -15 -45.5h-89zM299 -13c-74 0 -136.333 25.333 -187 76c-51.333 51.333 -77 113.666 -77 186.999s25.667 135.666 77 186.999c50.667 50.667 113 76 187 76s136.333 -25.333 187 -76c51.333 -51.333 77 -113.666 77 -186.999
s-25.667 -135.666 -77 -186.999c-50.667 -50.667 -113 -76 -187 -76zM188 137c30 -30 67 -45 111 -45s81 15 111 45s45 67.667 45 113s-15 83 -45 113s-67 45 -111 45s-81 -15 -111 -45s-45 -67.667 -45 -113s15 -83 45 -113z" />
    <glyph glyph-name="odieresis" unicode="&#xf6;" horiz-adv-x="598" 
d="M246 580c-11.333 -11.333 -25.333 -17 -42 -17s-31 5.66699 -43 17c-11.333 12 -17 26.333 -17 43s5.66699 30.667 17 42c12 12 26.333 18 43 18s30.667 -6 42 -18c12 -11.333 18 -25.333 18 -42s-6 -31 -18 -43zM436 580c-11.333 -11.333 -25.333 -17 -42 -17
s-31 5.66699 -43 17c-11.333 12 -17 26.333 -17 43s5.66699 30.667 17 42c12 12 26.333 18 43 18s30.667 -6 42 -18c12 -11.333 18 -25.333 18 -42s-6 -31 -18 -43zM299 -13c-74 0 -136.333 25.333 -187 76c-51.333 51.333 -77 113.666 -77 186.999
s25.667 135.666 77 186.999c50.667 50.667 113 76 187 76s136.333 -25.333 187 -76c51.333 -51.333 77 -113.666 77 -186.999s-25.667 -135.666 -77 -186.999c-50.667 -50.667 -113 -76 -187 -76zM188 137c30 -30 67 -45 111 -45s81 15 111 45s45 67.667 45 113
s-15 83 -45 113s-67 45 -111 45s-81 -15 -111 -45s-45 -67.667 -45 -113s15 -83 45 -113z" />
    <glyph glyph-name="divide" unicode="&#xf7;" horiz-adv-x="570" 
d="M337 490c-14 -13.333 -31.333 -20 -52 -20s-38 6.66699 -52 20c-13.333 14 -20 31.333 -20 52s6.66699 38 20 52c14 14 31.333 21 52 21s38 -7 52 -21s21 -31.333 21 -52s-7 -38 -21 -52zM50 299v102h470v-102h-470zM337 106c-14 -13.333 -31.333 -20 -52 -20
s-38 6.66699 -52 20c-13.333 14 -20 31.333 -20 52s6.66699 38 20 52c14 14 31.333 21 52 21s38 -7 52 -21s21 -31.333 21 -52s-7 -38 -21 -52z" />
    <glyph glyph-name="oslash" unicode="&#xf8;" horiz-adv-x="598" 
d="M493 431c46.667 -50.667 70.001 -110.999 70.001 -180.999c0 -73.333 -25.667 -135.666 -77 -186.999c-50.667 -50.667 -113 -76 -187 -76c-54.667 0 -104.334 15 -149.001 45l-34 -40l-51 29l41 48c-47.333 51.333 -71 111.666 -71 180.999
c0 73.333 25.667 135.666 77 186.999c50.667 50.667 113 76 187 76c54.667 0 104.667 -15 150 -45l34 40l51 -29zM143.001 250.001c0 -38.667 11 -72 33 -100l203 237c-25.333 14 -52 21 -80 21c-44 0 -81 -15 -111 -45s-45 -67.667 -45 -113zM299.001 92.001
c44 0 81 15 111 45s45 67.667 45 113c0 38 -11 71 -33 99l-202 -236c22.667 -14 49 -21 79 -21z" />
    <glyph glyph-name="ugrave" unicode="&#xf9;" horiz-adv-x="571" 
d="M355 565h-104l-106 135h130zM400 500l108 -0.000976562v-500h-108v64c-33.333 -51.333 -85 -77 -155 -77c-58 0 -104.5 18.167 -139.5 54.5s-52.5 86.833 -52.5 151.5v307h108v-296c0 -38 10 -66.833 30 -86.5s47.333 -29.5 82 -29.5c38 0 68.667 11.833 92 35.5
s35 59.834 35 108.501v268z" />
    <glyph glyph-name="uacute" unicode="&#xfa;" horiz-adv-x="571" 
d="M436 700l-106 -135h-104l80 135h130zM400 500l108 -0.000976562v-500h-108v64c-33.333 -51.333 -85 -77 -155 -77c-58 0 -104.5 18.167 -139.5 54.5s-52.5 86.833 -52.5 151.5v307h108v-296c0 -38 10 -66.833 30 -86.5s47.333 -29.5 82 -29.5c38 0 68.667 11.833 92 35.5
s35 59.834 35 108.501v268z" />
    <glyph glyph-name="ucircumflex" unicode="&#xfb;" horiz-adv-x="571" 
d="M278 634l-53 -74h-110l106 140h113l106 -140h-110zM400 500l108 -0.000976562v-500h-108v64c-33.333 -51.333 -85 -77 -155 -77c-58 0 -104.5 18.167 -139.5 54.5s-52.5 86.833 -52.5 151.5v307h108v-296c0 -38 10 -66.833 30 -86.5s47.333 -29.5 82 -29.5
c38 0 68.667 11.833 92 35.5s35 59.834 35 108.501v268z" />
    <glyph glyph-name="udieresis" unicode="&#xfc;" horiz-adv-x="571" 
d="M227 575c-11.333 -11.333 -25.333 -17 -42 -17s-31 5.66699 -43 17c-11.333 12 -17 26.333 -17 43s5.66699 30.667 17 42c12 12 26.333 18 43 18s30.667 -6 42 -18c12 -11.333 18 -25.333 18 -42s-6 -31 -18 -43zM417 575c-11.333 -11.333 -25.333 -17 -42 -17
s-31 5.66699 -43 17c-11.333 12 -17 26.333 -17 43s5.66699 30.667 17 42c12 12 26.333 18 43 18s30.667 -6 42 -18c12 -11.333 18 -25.333 18 -42s-6 -31 -18 -43zM400 500l108 -0.000976562v-500h-108v64c-33.333 -51.333 -85 -77 -155 -77
c-58 0 -104.5 18.167 -139.5 54.5s-52.5 86.833 -52.5 151.5v307h108v-296c0 -38 10 -66.833 30 -86.5s47.333 -29.5 82 -29.5c38 0 68.667 11.833 92 35.5s35 59.834 35 108.501v268z" />
    <glyph glyph-name="yacute" unicode="&#xfd;" horiz-adv-x="520" 
d="M418 700l-106 -135h-104l80 135h130zM400 500l115 -0.000976562l-192 -516c-48 -129.333 -129.333 -190.666 -244 -183.999v101c34 -2 61.333 5.16699 82 21.5s37.667 41.833 51 76.5l5 10l-212 491h118l149 -363z" />
    <glyph glyph-name="thorn" unicode="&#xfe;" horiz-adv-x="630" 
d="M346 513c68.667 0 127.334 -25.333 176.001 -76s73 -113 73 -187s-24.333 -136.333 -73 -187s-107.334 -76 -176.001 -76c-76 0 -134.333 28.333 -175 85v-272h-108v900h108v-271c40.667 56 99 84 175 84zM216 135c30 -30 67.667 -45 113 -45s83 15 113 45
c30 30.667 45 69 45 115s-15 84 -45 114c-30 30.667 -67.667 46 -113 46s-83 -15.333 -113 -46c-30 -30 -45 -68 -45 -114s15 -84.333 45 -115z" />
    <glyph glyph-name="ydieresis" unicode="&#xff;" horiz-adv-x="520" 
d="M207 575c-11.333 -11.333 -25.333 -17 -42 -17s-31 5.66699 -43 17c-11.333 12 -17 26.333 -17 43s5.66699 30.667 17 42c12 12 26.333 18 43 18s30.667 -6 42 -18c12 -11.333 18 -25.333 18 -42s-6 -31 -18 -43zM397 575c-11.333 -11.333 -25.333 -17 -42 -17
s-31 5.66699 -43 17c-11.333 12 -17 26.333 -17 43s5.66699 30.667 17 42c12 12 26.333 18 43 18s30.667 -6 42 -18c12 -11.333 18 -25.333 18 -42s-6 -31 -18 -43zM400 500l115 -0.000976562l-192 -516c-48 -129.333 -129.333 -190.666 -244 -183.999v101
c34 -2 61.333 5.16699 82 21.5s37.667 41.833 51 76.5l5 10l-212 491h118l149 -363z" />
    <glyph glyph-name="Amacron" unicode="&#x100;" 
d="M468 859v-89h-280v89h280zM526 0l-49 141h-298l-49 -141h-125l254 700h138l253 -700h-124zM217 249h222l-111 316z" />
    <glyph glyph-name="amacron" unicode="&#x101;" horiz-adv-x="630" 
d="M448 659v-89h-280v89h280zM459 500h108.001v-500h-108v72c-40.667 -56.667 -99 -85 -175 -85c-68.667 0 -127.334 25.333 -176.001 76s-73 113 -73 187s24.333 136.333 73 187s107.334 76 176.001 76c75.333 0 133.666 -28 174.999 -84v71zM188.001 135
c30 -30 67.667 -45 113 -45s83 15 113 45c30 30.667 45 69 45 115s-15 84 -45 114c-30 30.667 -67.667 46 -113 46s-83 -15.333 -113 -46c-30 -30 -45 -68 -45 -114s15 -84.333 45 -115z" />
    <glyph glyph-name="Abreve" unicode="&#x102;" 
d="M328 752c-50 0 -88.833 12.167 -116.5 36.5s-41.5 58.833 -41.5 103.5h98c0 -39.333 20 -59 60 -59c39.333 0 59 19.667 59 59h98c0 -44.667 -13.667 -79.167 -41 -103.5s-66 -36.5 -116 -36.5zM526 0l-49 141h-298l-49 -141h-125l254 700h138l253 -700h-124zM217 249
h222l-111 316z" />
    <glyph glyph-name="abreve" unicode="&#x103;" horiz-adv-x="630" 
d="M321 552c-50 0 -88.833 12.167 -116.5 36.5s-41.5 58.833 -41.5 103.5h98c0 -39.333 20 -59 60 -59c39.333 0 59 19.667 59 59h98c0 -44.667 -13.667 -79.167 -41 -103.5s-66 -36.5 -116 -36.5zM459 500h108.001v-500h-108v72c-40.667 -56.667 -99 -85 -175 -85
c-68.667 0 -127.334 25.333 -176.001 76s-73 113 -73 187s24.333 136.333 73 187s107.334 76 176.001 76c75.333 0 133.666 -28 174.999 -84v71zM188.001 135c30 -30 67.667 -45 113 -45s83 15 113 45c30 30.667 45 69 45 115s-15 84 -45 114c-30 30.667 -67.667 46 -113 46
s-83 -15.333 -113 -46c-30 -30 -45 -68 -45 -114s15 -84.333 45 -115z" />
    <glyph glyph-name="Aogonek" unicode="&#x104;" 
d="M618 -133c8 -1.33301 18.668 0.667969 32.001 6.00098v-72c-24 -9.33301 -48.333 -14 -73 -14c-28 0 -50.167 7.33301 -66.5 22s-24.5 35 -24.5 61c0 41.333 22.667 84.666 68 129.999h-28l-49 141h-298l-49 -141h-125l254 700h138l253 -700c-40 -40 -60 -75 -60 -105
c-0.666992 -18.667 8.66602 -28 27.999 -28zM217.001 249.001h222l-111 316z" />
    <glyph glyph-name="aogonek" unicode="&#x105;" horiz-adv-x="630" 
d="M567 0c-40 -40 -59.998 -74.999 -59.998 -104.999c-0.666992 -18.667 8.66602 -28 27.999 -28c8 -1.33301 18.667 0.666992 32 6v-72c-24 -9.33301 -48.333 -14 -73 -14c-28 0 -50.167 7.33301 -66.5 22s-24.5 35 -24.5 61c0 39.333 21.333 82.666 64 129.999h-8v72
c-40.667 -56.667 -99 -85 -175 -85c-68.667 0 -127.334 25.333 -176.001 76s-73 113 -73 187s24.333 136.333 73 187s107.334 76 176.001 76c75.333 0 133.666 -28 174.999 -84v71h108v-500zM188.002 135.001c30 -30 67.667 -45 113 -45s83 15 113 45
c30 30.667 45 69 45 115s-15 84 -45 114c-30 30.667 -67.667 46 -113 46s-83 -15.333 -113 -46c-30 -30 -45 -68 -45 -114s15 -84.333 45 -115z" />
    <glyph glyph-name="Cacute" unicode="&#x106;" horiz-adv-x="732" 
d="M411 905h130l-106 -135h-104zM401 -13c-105.333 0 -192.665 34.668 -261.998 104.001c-69.333 70.667 -104 157 -104 259c0 102.667 34.667 188.667 104 258c68.667 70 156 105 262 105c32 0 62.833 -3.83301 92.5 -11.5s57.5 -18.834 83.5 -33.501
s49.5 -32.167 70.5 -52.5s39.167 -43.5 54.5 -69.5l-100 -58c-18.667 34.667 -45.834 62.167 -81.501 82.5s-75.5 30.5 -119.5 30.5c-74 0 -134.667 -23.667 -182 -71c-46 -47.333 -69 -107.333 -69 -180c0 -73.333 23 -133.333 69 -180c47.333 -47.333 108 -71 182 -71
c44 0 84 10.167 120 30.5s63 47.833 81 82.5l100 -57c-28.667 -50.667 -70.334 -91.667 -125.001 -123c-53.333 -30 -112 -45 -176 -45z" />
    <glyph glyph-name="cacute" unicode="&#x107;" horiz-adv-x="542" 
d="M305 700h130l-106 -135h-104zM299 -13c-75.333 0 -138.333 25.333 -189 76c-50 50.667 -75 113 -75 187c0 74.667 25 137 75 187c50.667 50.667 113.667 76 189 76c48.667 0 93 -11.5 133 -34.5s70 -54.5 90 -94.5l-93 -54c-11.333 24 -28.5 42.833 -51.5 56.5
s-49.5 20.5 -79.5 20.5c-44 0 -81 -15 -111 -45c-29.333 -30.667 -44 -68 -44 -112s14.667 -81.333 44 -112c30 -30 67 -45 111 -45c30 0 56.667 7 80 21s41 32.667 53 56l93 -53c-21.333 -40 -52 -71.667 -92 -95s-84.333 -35 -133 -35z" />
    <glyph glyph-name="Cdotaccent" unicode="&#x10a;" horiz-adv-x="732" 
d="M450 783c-13.333 -13.333 -29.666 -20 -48.999 -20s-36 6.66699 -50 20c-13.333 14 -20 30.667 -20 50s6.66699 35.666 20 48.999c14 14 30.667 21 50 21s35.666 -7 48.999 -21c14 -13.333 21 -29.666 21 -48.999s-7 -36 -21 -50zM401 -13
c-105.333 0 -192.665 34.668 -261.998 104.001c-69.333 70.667 -104 157 -104 259c0 102.667 34.667 188.667 104 258c68.667 70 156 105 262 105c32 0 62.833 -3.83301 92.5 -11.5s57.5 -18.834 83.5 -33.501s49.5 -32.167 70.5 -52.5s39.167 -43.5 54.5 -69.5l-100 -58
c-18.667 34.667 -45.834 62.167 -81.501 82.5s-75.5 30.5 -119.5 30.5c-74 0 -134.667 -23.667 -182 -71c-46 -47.333 -69 -107.333 -69 -180c0 -73.333 23 -133.333 69 -180c47.333 -47.333 108 -71 182 -71c44 0 84 10.167 120 30.5s63 47.833 81 82.5l100 -57
c-28.667 -50.667 -70.334 -91.667 -125.001 -123c-53.333 -30 -112 -45 -176 -45z" />
    <glyph glyph-name="cdotaccent" unicode="&#x10b;" horiz-adv-x="542" 
d="M225 628c0 18.667 6.83301 35 20.5 49s30.167 21 49.5 21s35.833 -6.83301 49.5 -20.5s20.5 -30.167 20.5 -49.5s-6.83301 -35.833 -20.5 -49.5s-30.167 -20.5 -49.5 -20.5s-35.833 6.83301 -49.5 20.5s-20.5 30.167 -20.5 49.5zM299 -13
c-75.333 0 -138.333 25.333 -189 76c-50 50.667 -75 113 -75 187c0 74.667 25 137 75 187c50.667 50.667 113.667 76 189 76c48.667 0 93 -11.5 133 -34.5s70 -54.5 90 -94.5l-93 -54c-11.333 24 -28.5 42.833 -51.5 56.5s-49.5 20.5 -79.5 20.5c-44 0 -81 -15 -111 -45
c-29.333 -30.667 -44 -68 -44 -112s14.667 -81.333 44 -112c30 -30 67 -45 111 -45c30 0 56.667 7 80 21s41 32.667 53 56l93 -53c-21.333 -40 -52 -71.667 -92 -95s-84.333 -35 -133 -35z" />
    <glyph glyph-name="Ccaron" unicode="&#x10c;" horiz-adv-x="732" 
d="M342 765l-106 140h110l53 -73l52 73h110l-106 -140h-113zM401 99c44 0 84.001 10.168 120.001 30.501s63 47.833 81 82.5l100 -57c-28.667 -50.667 -70.334 -91.667 -125.001 -123c-53.333 -30 -112 -45 -176 -45c-105.333 0 -192.666 34.667 -261.999 104
c-69.333 70.667 -104 157 -104 259c0 102.667 34.667 188.667 104 258c68.667 70 156 105 262 105c32 0 62.833 -3.83301 92.5 -11.5s57.5 -18.834 83.5 -33.501s49.5 -32.167 70.5 -52.5s39.167 -43.5 54.5 -69.5l-100 -58c-18.667 34.667 -45.834 62.167 -81.501 82.5
s-75.5 30.5 -119.5 30.5c-74 0 -134.667 -23.667 -182 -71c-46 -47.333 -69 -107.333 -69 -180c0 -73.333 23 -133.333 69 -180c47.333 -47.333 108 -71 182 -71z" />
    <glyph glyph-name="ccaron" unicode="&#x10d;" horiz-adv-x="542" 
d="M236 560l-106 140h110l53 -73l52 73h110l-106 -140h-113zM524 117c-21.333 -40 -52 -71.667 -92 -95s-84.333 -35 -133 -35c-75.333 0 -138.333 25.333 -189 76c-50 50.667 -75 113 -75 187c0 74.667 25 137 75 187c50.667 50.667 113.667 76 189 76
c48.667 0 93 -11.5 133 -34.5s70 -54.5 90 -94.5l-93 -54c-11.333 24 -28.5 42.833 -51.5 56.5s-49.5 20.5 -79.5 20.5c-44 0 -81 -15 -111 -45c-29.333 -30.667 -44 -68 -44 -112s14.667 -81.333 44 -112c30 -30 67 -45 111 -45c30 0 56.667 7 80 21s41 32.667 53 56z" />
    <glyph glyph-name="Dcaron" unicode="&#x10e;" horiz-adv-x="715" 
d="M281 760l-106 140h110l53 -73l52 73h110l-106 -140h-113zM345 700c96 0 175.667 -33.667 239 -101c64 -67.333 96 -150.333 96 -249c0 -98 -32 -181 -96 -249c-63.333 -67.333 -143 -101 -239 -101h-275v700h275zM345 110c66 0 119.667 22.668 161 68.001
c42 44.667 63 102 63 172c0 69.333 -21 126.666 -63 171.999c-41.333 45.333 -95 68 -161 68h-160v-480h160z" />
    <glyph glyph-name="dcaron" unicode="&#x10f;" horiz-adv-x="724" 
d="M459 700h108.001v-700h-108v72c-40.667 -56.667 -99 -85 -175 -85c-68.667 0 -127.334 25.333 -176.001 76s-73 113 -73 187s24.333 136.333 73 187s107.334 76 176.001 76c75.333 0 133.666 -28 174.999 -84v271zM631.001 700h103l-30 -190h-83zM188.001 135
c30 -30 67.667 -45 113 -45s83 15 113 45c30 30.667 45 69 45 115s-15 84 -45 114c-30 30.667 -67.667 46 -113 46s-83 -15.333 -113 -46c-30 -30 -45 -68 -45 -114s15 -84.333 45 -115z" />
    <glyph glyph-name="Dcroat" unicode="&#x110;" horiz-adv-x="745" 
d="M375 700c96 0 175.667 -33.667 239 -101c64 -67.333 96 -150.333 96 -249c0 -98 -32 -181 -96 -249c-63.333 -67.333 -143 -101 -239 -101h-275v293h-62v97h62v310h275zM375 110c66 0 119.667 22.668 161 68.001c42 44.667 63 102 63 172
c0 69.333 -21 126.666 -63 171.999c-41.333 45.333 -95 68 -161 68h-160v-200h161v-97h-161v-183h160z" />
    <glyph glyph-name="dcroat" unicode="&#x111;" horiz-adv-x="637" 
d="M632 635l0.000976562 -74h-65v-561h-108v72c-40.667 -56.667 -99 -85 -175 -85c-68.667 0 -127.334 25.333 -176.001 76s-73 113 -73 187s24.333 136.333 73 187s107.334 76 176.001 76c75.333 0 133.666 -28 174.999 -84v132h-162v74h162v65h108v-65h65zM188.001 135
c30 -30 67.667 -45 113 -45s83 15 113 45c30 30.667 45 69 45 115s-15 84 -45 114c-30 30.667 -67.667 46 -113 46s-83 -15.333 -113 -46c-30 -30 -45 -68 -45 -114s15 -84.333 45 -115z" />
    <glyph glyph-name="Emacron" unicode="&#x112;" horiz-adv-x="530" 
d="M421 859v-89h-280v89h280zM185 110h310v-110h-425v700h420v-110h-305v-182h280v-109h-280v-189z" />
    <glyph glyph-name="emacron" unicode="&#x113;" horiz-adv-x="582" 
d="M433 662v-89h-280v89h280zM148 204c8 -38 26.168 -67.168 54.501 -87.501s63.5 -30.5 105.5 -30.5c56.667 0 99.667 20.667 129 62l89 -52c-48.667 -72.667 -121.667 -109 -219 -109c-80.667 0 -146.334 24.667 -197.001 74c-50 50 -75 113 -75 189
c0 74 24.667 136.333 74 187c48.667 50.667 112 76 190 76c72.667 0 132.667 -25.667 180 -77s71 -113.666 71 -186.999c0 -5.33301 -0.333008 -11.833 -1 -19.5s-1.66699 -16.167 -3 -25.5h-398zM441.001 291.999c-7.33301 40.667 -24 71.333 -50 92s-57 31 -93 31
c-40 0 -73.333 -11 -100 -33s-43.667 -52 -51 -90h294z" />
    <glyph glyph-name="Edotaccent" unicode="&#x116;" horiz-adv-x="530" 
d="M211 828c0 18.667 6.83301 35 20.5 49s30.167 21 49.5 21s35.833 -6.83301 49.5 -20.5s20.5 -30.167 20.5 -49.5s-6.83301 -35.833 -20.5 -49.5s-30.167 -20.5 -49.5 -20.5s-35.833 6.83301 -49.5 20.5s-20.5 30.167 -20.5 49.5zM185 110h310v-110h-425v700h420v-110
h-305v-182h280v-109h-280v-189z" />
    <glyph glyph-name="edotaccent" unicode="&#x117;" horiz-adv-x="582" 
d="M342 581c-13.333 -13.333 -29.666 -20 -48.999 -20s-36 6.66699 -50 20c-13.333 14 -20 30.667 -20 50s6.66699 35.666 20 48.999c14 14 30.667 21 50 21s35.666 -7 48.999 -21c14 -13.333 21 -29.666 21 -48.999s-7 -36 -21 -50zM148 204
c8 -38 26.168 -67.168 54.501 -87.501s63.5 -30.5 105.5 -30.5c56.667 0 99.667 20.667 129 62l89 -52c-48.667 -72.667 -121.667 -109 -219 -109c-80.667 0 -146.334 24.667 -197.001 74c-50 50 -75 113 -75 189c0 74 24.667 136.333 74 187c48.667 50.667 112 76 190 76
c72.667 0 132.667 -25.667 180 -77s71 -113.666 71 -186.999c0 -5.33301 -0.333008 -11.833 -1 -19.5s-1.66699 -16.167 -3 -25.5h-398zM441.001 291.999c-7.33301 40.667 -24 71.333 -50 92s-57 31 -93 31c-40 0 -73.333 -11 -100 -33s-43.667 -52 -51 -90h294z" />
    <glyph glyph-name="Eogonek" unicode="&#x118;" horiz-adv-x="530" 
d="M495 0c-40.667 -38.667 -61 -73.666 -61 -104.999c0 -18.667 9.33301 -28 28 -28c8 -1.33301 19 0.666992 33 6v-72c-24 -9.33301 -48.667 -14 -74 -14c-28 0 -50.167 7.33301 -66.5 22s-24.5 35 -24.5 61c0 39.333 22.667 82.666 68 129.999h-328v700h420v-110h-305
v-182h280v-109h-280v-189h310v-110z" />
    <glyph glyph-name="eogonek" unicode="&#x119;" horiz-adv-x="582" 
d="M148 204c8 -38 26.168 -67.168 54.501 -87.501s63.5 -30.5 105.5 -30.5c56.667 0 99.667 20.667 129 62l89 -52c-11.333 -17.333 -23.333 -31.333 -36 -42c-64.667 -70.667 -97 -123.667 -97 -159c0 -18.667 9.33301 -28 28 -28c8 -1.33301 19 0.666992 33 6v-72
c-24 -9.33301 -48.667 -14 -74 -14c-28 0 -50.167 7.33301 -66.5 22s-24.5 35 -24.5 61c0 40.667 21.667 80.667 65 120c-15.333 -2 -31 -3 -47 -3c-80.667 0 -146.334 24.667 -197.001 74c-50 50 -75 113 -75 189c0 74 24.667 136.333 74 187c48.667 50.667 112 76 190 76
c72.667 0 132.667 -25.667 180 -77s71 -113.666 71 -186.999c0 -5.33301 -0.333008 -11.833 -1 -19.5s-1.66699 -16.167 -3 -25.5h-398zM441.001 291.999c-7.33301 40.667 -24 71.333 -50 92s-57 31 -93 31c-40 0 -73.333 -11 -100 -33s-43.667 -52 -51 -90h294z" />
    <glyph glyph-name="Ecaron" unicode="&#x11a;" horiz-adv-x="530" 
d="M222 760l-106 140h110l53 -73l52 73h110l-106 -140h-113zM185 110h310v-110h-425v700h420v-110h-305v-182h280v-109h-280v-189z" />
    <glyph glyph-name="ecaron" unicode="&#x11b;" horiz-adv-x="582" 
d="M234 563l-106 140h110l53 -73l52 73h110l-106 -140h-113zM148 204c8 -38 26.168 -67.168 54.501 -87.501s63.5 -30.5 105.5 -30.5c56.667 0 99.667 20.667 129 62l89 -52c-48.667 -72.667 -121.667 -109 -219 -109c-80.667 0 -146.334 24.667 -197.001 74
c-50 50 -75 113 -75 189c0 74 24.667 136.333 74 187c48.667 50.667 112 76 190 76c72.667 0 132.667 -25.667 180 -77s71 -113.666 71 -186.999c0 -5.33301 -0.333008 -11.833 -1 -19.5s-1.66699 -16.167 -3 -25.5h-398zM441.001 291.999
c-7.33301 40.667 -24 71.333 -50 92s-57 31 -93 31c-40 0 -73.333 -11 -100 -33s-43.667 -52 -51 -90h294z" />
    <glyph glyph-name="Gbreve" unicode="&#x11e;" horiz-adv-x="786" 
d="M396 757c-50 0 -88.833 12.167 -116.5 36.5s-41.5 58.833 -41.5 103.5h98c0 -39.333 20 -59 60 -59c39.333 0 59 19.667 59 59h98c0 -44.667 -13.667 -79.167 -41 -103.5s-66 -36.5 -116 -36.5zM751 362l-0.000976562 -48c0 -96 -31.667 -174.667 -95 -236
c-62.667 -60.667 -145.334 -91 -248.001 -91c-108 0 -197.333 35 -268 105c-70 70 -105 156 -105 258c0 101.333 35 187 105 257c70.667 70.667 158 106 262 106c32.667 0 64.167 -3.83301 94.5 -11.5s58.5 -18.834 84.5 -33.501s49.667 -32.167 71 -52.5
s39.666 -43.166 54.999 -68.499l-99 -57c-18.667 34 -46.167 61 -82.5 81s-77.5 30 -123.5 30c-74 0 -134.333 -24 -181 -72c-47.333 -48.667 -71 -108.667 -71 -180c0 -72 23.667 -131.667 71 -179c48.667 -47.333 111.334 -71 188.001 -71
c62.667 0 113.334 14.5 152.001 43.5s63.334 67.833 74.001 116.5h-234v103h350z" />
    <glyph glyph-name="gbreve" unicode="&#x11f;" horiz-adv-x="630" 
d="M301 557c-50 0 -88.833 12.167 -116.5 36.5s-41.5 58.833 -41.5 103.5h98c0 -39.333 20 -59 60 -59c39.333 0 59 19.667 59 59h98c0 -44.667 -13.667 -79.167 -41 -103.5s-66 -36.5 -116 -36.5zM461 500h106v-477c0 -76 -25 -134.333 -75 -175
c-49.333 -40.667 -110 -61 -182 -61c-115.333 0 -194.333 40.333 -237 121l93 54c26 -51.333 74.667 -77 146 -77c46.667 0 83.167 12 109.5 36s39.5 58 39.5 102v61c-41.333 -58 -99.333 -87 -174 -87c-70.667 0 -130.334 25 -179.001 75
c-48.667 50.667 -73 111.667 -73 183c0 72 24.333 132.667 73 182c48.667 50.667 108.334 76 179.001 76c74.667 0 132.667 -29 174 -87v74zM188 143c30.667 -30 68.667 -45 114 -45s83 15 113 45c30.667 30 46 67.333 46 112s-15.333 82 -46 112c-30 30 -67.667 45 -113 45
s-83.333 -15 -114 -45c-30 -30 -45 -67.333 -45 -112s15 -82 45 -112z" />
    <glyph glyph-name="Gdotaccent" unicode="&#x120;" horiz-adv-x="786" 
d="M396 903c19.333 0 35.833 -6.83301 49.5 -20.5s20.5 -30.167 20.5 -49.5s-6.83301 -35.833 -20.5 -49.5s-30.167 -20.5 -49.5 -20.5s-35.833 6.83301 -49.5 20.5s-20.5 30.167 -20.5 49.5s7 35.833 21 49.5s30.333 20.5 49 20.5zM751 362l-0.000976562 -48
c0 -96 -31.667 -174.667 -95 -236c-62.667 -60.667 -145.334 -91 -248.001 -91c-108 0 -197.333 35 -268 105c-70 70 -105 156 -105 258c0 101.333 35 187 105 257c70.667 70.667 158 106 262 106c32.667 0 64.167 -3.83301 94.5 -11.5s58.5 -18.834 84.5 -33.501
s49.667 -32.167 71 -52.5s39.666 -43.166 54.999 -68.499l-99 -57c-18.667 34 -46.167 61 -82.5 81s-77.5 30 -123.5 30c-74 0 -134.333 -24 -181 -72c-47.333 -48.667 -71 -108.667 -71 -180c0 -72 23.667 -131.667 71 -179c48.667 -47.333 111.334 -71 188.001 -71
c62.667 0 113.334 14.5 152.001 43.5s63.334 67.833 74.001 116.5h-234v103h350z" />
    <glyph glyph-name="gdotaccent" unicode="&#x121;" horiz-adv-x="630" 
d="M350 583c-13.333 -13.333 -29.666 -20 -48.999 -20s-36 6.66699 -50 20c-13.333 14 -20 30.667 -20 50s6.66699 35.666 20 48.999c14 14 30.667 21 50 21s35.666 -7 48.999 -21c14 -13.333 21 -29.666 21 -48.999s-7 -36 -21 -50zM461 500h106v-477
c0 -76 -25 -134.333 -75 -175c-49.333 -40.667 -110 -61 -182 -61c-115.333 0 -194.333 40.333 -237 121l93 54c26 -51.333 74.667 -77 146 -77c46.667 0 83.167 12 109.5 36s39.5 58 39.5 102v61c-41.333 -58 -99.333 -87 -174 -87c-70.667 0 -130.334 25 -179.001 75
c-48.667 50.667 -73 111.667 -73 183c0 72 24.333 132.667 73 182c48.667 50.667 108.334 76 179.001 76c74.667 0 132.667 -29 174 -87v74zM188 143c30.667 -30 68.667 -45 114 -45s83 15 113 45c30.667 30 46 67.333 46 112s-15.333 82 -46 112c-30 30 -67.667 45 -113 45
s-83.333 -15 -114 -45c-30 -30 -45 -67.333 -45 -112s15 -82 45 -112z" />
    <glyph glyph-name="Gcommaaccent" unicode="&#x122;" horiz-adv-x="786" 
d="M751 362l-0.000976562 -48c0 -96 -31.667 -174.667 -95 -236c-62.667 -60.667 -145.334 -91 -248.001 -91c-108 0 -197.333 35 -268 105c-70 70 -105 156 -105 258c0 101.333 35 187 105 257c70.667 70.667 158 106 262 106c32.667 0 64.167 -3.83301 94.5 -11.5
s58.5 -18.834 84.5 -33.501s49.667 -32.167 71 -52.5s39.666 -43.166 54.999 -68.499l-99 -57c-18.667 34 -46.167 61 -82.5 81s-77.5 30 -123.5 30c-74 0 -134.333 -24 -181 -72c-47.333 -48.667 -71 -108.667 -71 -180c0 -72 23.667 -131.667 71 -179
c48.667 -47.333 111.334 -71 188.001 -71c62.667 0 113.334 14.5 152.001 43.5s63.334 67.833 74.001 116.5h-234v103h350zM355.999 -255l10 190h103l-30 -190h-83z" />
    <glyph glyph-name="gcommaaccent" unicode="&#x123;" horiz-adv-x="630" 
d="M356 775l-10 -190h-103l30 190h83zM461 500h106v-477c0 -76 -25 -134.333 -75 -175c-49.333 -40.667 -110 -61 -182 -61c-115.333 0 -194.333 40.333 -237 121l93 54c26 -51.333 74.667 -77 146 -77c46.667 0 83.167 12 109.5 36s39.5 58 39.5 102v61
c-41.333 -58 -99.333 -87 -174 -87c-70.667 0 -130.334 25 -179.001 75c-48.667 50.667 -73 111.667 -73 183c0 72 24.333 132.667 73 182c48.667 50.667 108.334 76 179.001 76c74.667 0 132.667 -29 174 -87v74zM188 143c30.667 -30 68.667 -45 114 -45s83 15 113 45
c30.667 30 46 67.333 46 112s-15.333 82 -46 112c-30 30 -67.667 45 -113 45s-83.333 -15 -114 -45c-30 -30 -45 -67.333 -45 -112s15 -82 45 -112z" />
    <glyph glyph-name="Hbar" unicode="&#x126;" horiz-adv-x="715" 
d="M685 591v-86h-62v-505h-115v290h-300v-290h-115v505h-63v86h63v109h115v-109h300v109h115v-109h62zM508 400v105h-300v-105h300z" />
    <glyph glyph-name="hbar" unicode="&#x127;" horiz-adv-x="578" 
d="M334 513c28 0 53.832 -4.66602 77.499 -13.999s43.834 -23 60.501 -41s29.667 -39.667 39 -65s14 -54 14 -86v-307h-108v296c0 38 -10 66.833 -30 86.5s-47 29.5 -81 29.5c-38.667 0 -69.667 -11.833 -93 -35.5s-35 -59.834 -35 -108.501v-268h-108v561h-65v74h65v65h108
v-65h142v-74h-142v-125c33.333 51.333 85.333 77 156 77z" />
    <glyph glyph-name="Itilde" unicode="&#x128;" horiz-adv-x="255" 
d="M70 700h115v-700h-115v700zM-32 767c0 36.667 5 65.5 15 86.5s23 35.5 39 43.5s34.167 10 54.5 6s40.5 -12.667 60.5 -26c21.333 -17.333 37 -24.833 47 -22.5s15 17.5 15 45.5h89c0 -36.667 -4.83301 -65.5 -14.5 -86.5s-22.5 -35.5 -38.5 -43.5s-34 -10.167 -54 -6.5
s-40.333 12.5 -61 26.5c-22 17.333 -38 24.833 -48 22.5s-15 -17.5 -15 -45.5h-89z" />
    <glyph glyph-name="itilde" unicode="&#x129;" horiz-adv-x="233" 
d="M63 0v500h108v-500h-108zM-15 567c0 36.667 4.16895 65.5 12.502 86.5s19 35.5 32 43.5s27.667 10 44 6s32.833 -12.667 49.5 -26c17.333 -17.333 30.166 -24.833 38.499 -22.5s12.5 17.5 12.5 45.5h73c0 -36.667 -4 -65.5 -12 -86.5s-18.5 -35.5 -31.5 -43.5
s-27.833 -10.167 -44.5 -6.5s-33.334 12.5 -50.001 26.5c-18 17.333 -31 24.833 -39 22.5s-12 -17.5 -12 -45.5h-73z" />
    <glyph glyph-name="Imacron" unicode="&#x12a;" horiz-adv-x="255" 
d="M-12 770v89h280v-89h-280zM70 700h115v-700h-115v700z" />
    <glyph glyph-name="imacron" unicode="&#x12b;" horiz-adv-x="233" 
d="M7 570v94h220v-94h-220zM63 0v500h108v-500h-108z" />
    <glyph glyph-name="Iogonek" unicode="&#x12e;" horiz-adv-x="255" 
d="M176 -133c8 -1.33301 18.668 0.666992 32.001 6v-72c-24 -9.33301 -48.333 -14 -73 -14c-28 0 -50.167 7.33301 -66.5 22s-24.5 35 -24.5 61c0 40 14.333 83.333 43 130h-17v700h115v-700c-24.667 -41.333 -37 -76.333 -37 -105
c-0.666992 -18.667 8.66602 -28 27.999 -28z" />
    <glyph glyph-name="iogonek" unicode="&#x12f;" horiz-adv-x="233" 
d="M165 595c-13.333 -13.333 -29.3311 -20 -47.998 -20s-35 6.66699 -49 20c-13.333 14 -20 30.333 -20 49s6.66699 34.667 20 48c13.333 14 29.666 21 48.999 21s35.666 -7 48.999 -21c13.333 -13.333 20 -29.333 20 -48s-7 -35 -21 -49zM162.002 -133
c8 -1.33301 19 0.666016 33 5.99902v-72c-24 -9.33301 -48.667 -14 -74 -14c-28 0 -50.167 8 -66.5 24s-24.5 37.333 -24.5 64c0 36 13.667 77.667 41 125h-8v500h108v-500c-24.667 -39.333 -37 -72.666 -37 -99.999c0 -22 9.33301 -33 28 -33z" />
    <glyph glyph-name="Idotaccent" unicode="&#x130;" horiz-adv-x="255" 
d="M58 828c0 18.667 7.00293 35 21.0029 49s30.333 21 49 21c14.667 0.666992 27.667 -3.33301 39 -12s19.666 -19.167 24.999 -31.5s7 -25.666 5 -39.999s-8.66699 -26.5 -20 -36.5c-10 -11.333 -22 -17.833 -36 -19.5s-27.333 0.166016 -40 5.49902
s-23.334 13.5 -32.001 24.5s-12.334 24.167 -11.001 39.5zM70.0029 700h115v-700h-115v700z" />
    <glyph glyph-name="dotlessi" unicode="&#x131;" horiz-adv-x="233" 
d="M63 0v500h108v-500h-108z" />
    <glyph glyph-name="Kcommaaccent" unicode="&#x136;" horiz-adv-x="603" 
d="M305 359l293 -359h-137l-276 333v-333h-115v700h115v-314l266 314h137zM250 -255l10 190h103l-30 -190h-83z" />
    <glyph glyph-name="kcommaaccent" unicode="&#x137;" horiz-adv-x="515" 
d="M277 255l228 -255h-129l-205 231v-231h-108v700h108v-421l194 221h132zM218 -255l10 190h103l-30 -190h-83z" />
    <glyph glyph-name="Lacute" unicode="&#x139;" horiz-adv-x="485" 
d="M282 900l-106 -135h-104l80 135h130zM185 110h285v-110h-400v700h115v-590z" />
    <glyph glyph-name="lacute" unicode="&#x13a;" horiz-adv-x="233" 
d="M141 900h130l-106 -135h-104zM63 0v730h108v-730h-108z" />
    <glyph glyph-name="Lcommaaccent" unicode="&#x13b;" horiz-adv-x="485" 
d="M185 110h285v-110h-400v700h115v-590zM221 -255l10 190h103l-30 -190h-83z" />
    <glyph glyph-name="lcommaaccent" unicode="&#x13c;" horiz-adv-x="233" 
d="M63 0v730h108v-730h-108zM57 -255l10 190h103l-30 -190h-83z" />
    <glyph glyph-name="Lcaron" unicode="&#x13d;" horiz-adv-x="485" 
d="M185 110h285v-110h-400v700h115v-590zM382 700l-30 -180h-88l10 180h108z" />
    <glyph glyph-name="lcaron" unicode="&#x13e;" horiz-adv-x="327" 
d="M63 0v730h108v-730h-108zM224 540l10 190h103l-30 -190h-83z" />
    <glyph glyph-name="Lslash" unicode="&#x141;" horiz-adv-x="505" 
d="M205 110h285v-110h-400v222l-60 -36v113l60 36v365h115v-297l145 86v-113l-145 -86v-180z" />
    <glyph glyph-name="lslash" unicode="&#x142;" horiz-adv-x="255" 
d="M240 480v-103l-58 -40v-337h-108v263l-59 -40v103l59 40v364h108v-290z" />
    <glyph glyph-name="Nacute" unicode="&#x143;" horiz-adv-x="675" 
d="M343 900h130l-106 -135h-104zM490 700h115v-700h-90l-330 475v-475h-115v700h90l330 -475v475z" />
    <glyph glyph-name="nacute" unicode="&#x144;" horiz-adv-x="571" 
d="M436 705l-106 -135h-104l80 135h130zM326 513c58 0 104.5 -18.166 139.5 -54.499s52.5 -86.833 52.5 -151.5v-307h-108v296c0 38 -10 66.833 -30 86.5s-47.333 29.5 -82 29.5c-38 0 -68.667 -11.833 -92 -35.5s-35 -59.834 -35 -108.501v-268h-108v500h108v-64
c33.333 51.333 85 77 155 77z" />
    <glyph glyph-name="Ncommaaccent" unicode="&#x145;" horiz-adv-x="675" 
d="M490 700h115v-700h-90l-330 475v-475h-115v700h90l330 -475v475zM281 -255l10 190h103l-30 -190h-83z" />
    <glyph glyph-name="ncommaaccent" unicode="&#x146;" horiz-adv-x="571" 
d="M326 513c58 0 104.5 -18.166 139.5 -54.499s52.5 -86.833 52.5 -151.5v-307h-108v296c0 38 -10 66.833 -30 86.5s-47.333 29.5 -82 29.5c-38 0 -68.667 -11.833 -92 -35.5s-35 -59.834 -35 -108.501v-268h-108v500h108v-64c33.333 51.333 85 77 155 77zM236 -254.999
l10 190h103l-30 -190h-83z" />
    <glyph glyph-name="Ncaron" unicode="&#x147;" horiz-adv-x="675" 
d="M274 760l-106 140h110l53 -73l52 73h110l-106 -140h-113zM490 700h115v-700h-90l-330 475v-475h-115v700h90l330 -475v475z" />
    <glyph glyph-name="ncaron" unicode="&#x148;" horiz-adv-x="571" 
d="M237 565l-106 140h110l53 -73l52 73h110l-106 -140h-113zM326 513c58 0 104.5 -18.166 139.5 -54.499s52.5 -86.833 52.5 -151.5v-307h-108v296c0 38 -10 66.833 -30 86.5s-47.333 29.5 -82 29.5c-38 0 -68.667 -11.833 -92 -35.5s-35 -59.834 -35 -108.501v-268h-108
v500h108v-64c33.333 51.333 85 77 155 77z" />
    <glyph glyph-name="Eng" unicode="&#x14a;" horiz-adv-x="675" 
d="M490 700h115.001v-700c0 -70 -19.833 -121.5 -59.5 -154.5s-94.834 -48.167 -165.501 -45.5v106c36.667 0 64.167 7 82.5 21s27.5 40 27.5 78v31l-305 439v-475h-115v700h90l330 -475v475z" />
    <glyph glyph-name="eng" unicode="&#x14b;" horiz-adv-x="571" 
d="M326 513c58 0 104.5 -18.167 139.5 -54.5s52.5 -86.833 52.5 -151.5v-327c0 -66.667 -16.667 -116.667 -50 -150s-83.333 -47.666 -150 -42.999v104c30.667 -3.33301 53.667 1.66699 69 15s23 38 23 74v316c0 38 -10 66.833 -30 86.5s-47.333 29.5 -82 29.5
c-38 0 -68.667 -11.833 -92 -35.5s-35 -59.834 -35 -108.501v-268h-108v500h108v-64c33.333 51.333 85 77 155 77z" />
    <glyph glyph-name="Omacron" unicode="&#x14c;" horiz-adv-x="796" 
d="M258 775v89h280v-89h-280zM655 92c-70 -70 -155.667 -105 -257 -105s-187.333 35 -258 105c-70 70.667 -105 156.667 -105 258s35 187 105 257c70.667 70.667 156.667 106 258 106s187 -35.333 257 -106c70.667 -70 106 -155.667 106 -257s-35.333 -187.333 -106 -258z
M221 170c48.667 -47.333 107.667 -71 177 -71c70 0 128.667 23.667 176 71c48 48 72 108 72 180s-24 131.667 -72 179c-47.333 48 -106 72 -176 72s-129 -24 -177 -72c-47.333 -47.333 -71 -107 -71 -179c0 -71.333 23.667 -131.333 71 -180z" />
    <glyph glyph-name="omacron" unicode="&#x14d;" horiz-adv-x="598" 
d="M159 575v89h280v-89h-280zM299 -13c-74 0 -136.333 25.333 -187 76c-51.333 51.333 -77 113.666 -77 186.999s25.667 135.666 77 186.999c50.667 50.667 113 76 187 76s136.333 -25.333 187 -76c51.333 -51.333 77 -113.666 77 -186.999s-25.667 -135.666 -77 -186.999
c-50.667 -50.667 -113 -76 -187 -76zM188 137c30 -30 67 -45 111 -45s81 15 111 45s45 67.667 45 113s-15 83 -45 113s-67 45 -111 45s-81 -15 -111 -45s-45 -67.667 -45 -113s15 -83 45 -113z" />
    <glyph glyph-name="Ohungarumlaut" unicode="&#x150;" horiz-adv-x="796" 
d="M313 900h114l-81 -135h-108zM486 900h114l-91 -135h-108zM655 92c-70 -70 -155.667 -105 -257 -105s-187.333 35 -258 105c-70 70.667 -105 156.667 -105 258s35 187 105 257c70.667 70.667 156.667 106 258 106s187 -35.333 257 -106c70.667 -70 106 -155.667 106 -257
s-35.333 -187.333 -106 -258zM221 170c48.667 -47.333 107.667 -71 177 -71c70 0 128.667 23.667 176 71c48 48 72 108 72 180s-24 131.667 -72 179c-47.333 48 -106 72 -176 72s-129 -24 -177 -72c-47.333 -47.333 -71 -107 -71 -179c0 -71.333 23.667 -131.333 71 -180z
" />
    <glyph glyph-name="ohungarumlaut" unicode="&#x151;" horiz-adv-x="598" 
d="M214 700h114l-81 -135h-108zM387 700h114l-91 -135h-108zM299 -13c-74 0 -136.333 25.333 -187 76c-51.333 51.333 -77 113.666 -77 186.999s25.667 135.666 77 186.999c50.667 50.667 113 76 187 76s136.333 -25.333 187 -76c51.333 -51.333 77 -113.666 77 -186.999
s-25.667 -135.666 -77 -186.999c-50.667 -50.667 -113 -76 -187 -76zM188 137c30 -30 67 -45 111 -45s81 15 111 45s45 67.667 45 113s-15 83 -45 113s-67 45 -111 45s-81 -15 -111 -45s-45 -67.667 -45 -113s15 -83 45 -113z" />
    <glyph glyph-name="OE" unicode="&#x152;" horiz-adv-x="916" 
d="M601 110h280v-110h-395c-28.667 -8.66699 -61.334 -13 -98.001 -13c-101.333 0 -185.333 35 -252 105c-67.333 70.667 -101 156.667 -101 258s33.667 187.333 101 258c66.667 70 150.667 105 252 105c36.667 0 69.334 -4.33301 98.001 -13h390v-110h-275v-182h255v-109
h-255v-189zM486 586c-27.333 10 -60 15 -98 15c-68.667 0 -125.667 -23.667 -171 -71c-44.667 -46.667 -67 -106.667 -67 -180s22.333 -133.333 67 -180c45.333 -47.333 102.333 -71 171 -71c35.333 0 68 5 98 15v472z" />
    <glyph glyph-name="oe" unicode="&#x153;" horiz-adv-x="1002" 
d="M568 204c8.66699 -38.667 27.501 -68.002 56.501 -88.002s62.833 -30 101.5 -30c58 0 101.667 20.667 131 62l89 -52c-48.667 -72.667 -121.334 -109 -218.001 -109c-50 0 -93.833 10.833 -131.5 32.5s-67.167 51.834 -88.5 90.501c-20.667 -38 -49.334 -68 -86.001 -90
s-78.334 -33 -125.001 -33c-74.667 0 -137 25.333 -187 76s-75 113 -75 187c0 74.667 25 137 75 187c50 50.667 112.333 76 187 76c46.667 0 88.334 -10.833 125.001 -32.5s65.334 -51.5 86.001 -89.5c20.667 38 49.5 67.833 86.5 89.5s79.833 32.5 128.5 32.5
c72.667 0 132 -25.667 178 -77s69 -113.666 69 -186.999c0 -5.33301 -0.333008 -11.833 -1 -19.5s-1.66699 -16.167 -3 -25.5h-398zM861.001 292.998c-7.33301 40 -24.167 70.333 -50.5 91s-56.833 31 -91.5 31c-40 0 -73.5 -10.833 -100.5 -32.5s-44.167 -51.5 -51.5 -89.5
h294zM299 91.998c44 0 81 15.002 111 45.002s45 67.667 45 113s-15 83 -45 113s-67 45 -111 45c-46 0 -83.333 -15 -112 -45c-29.333 -30.667 -44 -68.334 -44 -113.001s14.667 -82.334 44 -113.001c28.667 -30 66 -45 112 -45z" />
    <glyph glyph-name="Racute" unicode="&#x154;" horiz-adv-x="613" 
d="M440 900l-106 -135h-104l80 135h130zM469 0l-148 255h-136v-255h-115v700h280c62.667 0 115.667 -22 159 -66c44 -43.333 66 -96.333 66 -159c0 -22 -3.33301 -43.5 -10 -64.5s-16.167 -40.333 -28.5 -58s-27 -33.5 -44 -47.5s-35.833 -25 -56.5 -33l159 -272h-126z
M185 592v-234h165c15.333 0 29.666 3 42.999 9s25 14.333 35 25s17.833 23.167 23.5 37.5s8.5 29.5 8.5 45.5s-2.83301 31.167 -8.5 45.5s-13.5 26.833 -23.5 37.5s-21.667 19 -35 25s-27.666 9 -42.999 9h-165z" />
    <glyph glyph-name="racute" unicode="&#x155;" horiz-adv-x="342" 
d="M330 700l-106 -135h-104l80 135h130zM171 416c26.667 62 78 93 154 93v-117c-41.333 2.66699 -77.333 -7.33301 -108 -30c-30.667 -22 -46 -58.667 -46 -110v-252h-108v500h108v-84z" />
    <glyph glyph-name="Rcommaaccent" unicode="&#x156;" horiz-adv-x="613" 
d="M595 0h-126l-148 255h-136v-255h-115v700h280c62.667 0 115.667 -22 159 -66c44 -43.333 66 -96.333 66 -159c0 -22 -3.33301 -43.5 -10 -64.5s-16.167 -40.333 -28.5 -58s-27 -33.5 -44 -47.5s-35.833 -25 -56.5 -33zM185 592v-234h165c15.333 0 29.666 3 42.999 9
s25 14.333 35 25s17.833 23.167 23.5 37.5s8.5 29.5 8.5 45.5s-2.83301 31.167 -8.5 45.5s-13.5 26.833 -23.5 37.5s-21.667 19 -35 25s-27.666 9 -42.999 9h-165zM268 -255l10 190h103l-30 -190h-83z" />
    <glyph glyph-name="rcommaaccent" unicode="&#x157;" horiz-adv-x="342" 
d="M171 416c26.667 62 78 93 154 93v-117c-41.333 2.66699 -77.333 -7.33301 -108 -30c-30.667 -22 -46 -58.667 -46 -110v-252h-108v500h108v-84zM58 -255l10 190h103l-30 -190h-83z" />
    <glyph glyph-name="Rcaron" unicode="&#x158;" horiz-adv-x="613" 
d="M241 760l-106 140h110l53 -73l52 73h110l-106 -140h-113zM469 0l-148 255h-136v-255h-115v700h280c62.667 0 115.667 -22 159 -66c44 -43.333 66 -96.333 66 -159c0 -22 -3.33301 -43.5 -10 -64.5s-16.167 -40.333 -28.5 -58s-27 -33.5 -44 -47.5s-35.833 -25 -56.5 -33
l159 -272h-126zM185 592v-234h165c15.333 0 29.666 3 42.999 9s25 14.333 35 25s17.833 23.167 23.5 37.5s8.5 29.5 8.5 45.5s-2.83301 31.167 -8.5 45.5s-13.5 26.833 -23.5 37.5s-21.667 19 -35 25s-27.666 9 -42.999 9h-165z" />
    <glyph glyph-name="rcaron" unicode="&#x159;" horiz-adv-x="342" 
d="M131 560l-106 140h110l53 -73l52 73h110l-106 -140h-113zM171 416c26.667 62 78 93 154 93v-117c-41.333 2.66699 -77.333 -7.33301 -108 -30c-30.667 -22 -46 -58.667 -46 -110v-252h-108v500h108v-84z" />
    <glyph glyph-name="Sacute" unicode="&#x15a;" horiz-adv-x="581" 
d="M299 905h130l-106 -135h-104zM303 -13c-68 0 -125.335 15.167 -172.002 45.5s-79.334 72.5 -98.001 126.5l99 58c28 -78.667 86 -118 174 -118c44 0 76.667 8.33301 98 25s32 39 32 67s-11.667 49.667 -35 65s-64.666 32 -123.999 50
c-16.667 4.66699 -31.5 9.33398 -44.5 14.001s-25.167 9.33398 -36.5 14.001s-22.166 9.83398 -32.499 15.501s-21.5 12.5 -33.5 20.5c-45.333 32 -68 79 -68 141s22 111 66 147c43.333 36.667 96.333 55 159 55c56.667 0 105.834 -13.667 147.501 -41
s73.834 -65 96.501 -113l-97 -56c-29.333 65.333 -78.333 98 -147 98c-34 0 -60.833 -7.83301 -80.5 -23.5s-29.5 -36.834 -29.5 -63.501c0 -13.333 2.33301 -24.833 7 -34.5s12.5 -18.667 23.5 -27s25.5 -16.333 43.5 -24s40.333 -15.5 67 -23.5
c13.333 -4.66699 24.833 -8.5 34.5 -11.5s17.5 -5.83301 23.5 -8.5c6.66699 -2 14.167 -4.66699 22.5 -8l29.5 -12c11.333 -4.66699 21.333 -9.33398 30 -14.001s15.667 -9.33398 21 -14.001c9.33301 -7.33301 18.5 -15.833 27.5 -25.5s17 -20.5 24 -32.5
s12.5 -25.167 16.5 -39.5s5.33301 -29.833 4 -46.5c0 -64 -23 -114.333 -69 -151c-44.667 -36.667 -104.334 -55 -179.001 -55z" />
    <glyph glyph-name="sacute" unicode="&#x15b;" horiz-adv-x="461" 
d="M371 705l-106 -135h-104l80 135h130zM160 362c0 -16.667 9.16504 -29.8369 27.498 -39.5039s40.5 -18.167 66.5 -25.5c19.333 -4 39.333 -9.5 60 -16.5s39.667 -16.333 57 -28s31.5 -26.5 42.5 -44.5s16.167 -40.333 15.5 -67c0 -48 -18.667 -85.667 -56 -113
s-83.666 -41 -138.999 -41c-50 0 -92.5 10.333 -127.5 31s-60.5 49.334 -76.5 86.001l93 54c16.667 -48 53.667 -72 111 -72c56.667 0 85 18.667 85 56c0 16 -9.16699 29 -27.5 39s-40.833 18.333 -67.5 25c-18.667 4.66699 -38.334 10.334 -59.001 17.001
s-39.667 15.834 -57 27.501s-31.5 26.334 -42.5 44.001s-16.167 39.5 -15.5 65.5c0 46 17.333 83 52 111s78.334 42 131.001 42c42 0 79 -9.16699 111 -27.5s56.667 -43.833 74 -76.5l-91 -51c-17.333 38 -48.666 57 -93.999 57c-20.667 0 -38 -4.5 -52 -13.5
s-21 -22.167 -21 -39.5z" />
    <glyph glyph-name="Scedilla" unicode="&#x15e;" horiz-adv-x="581" 
d="M551 193c0 -58 -18.5049 -104.669 -55.5049 -140.002s-87.5 -56.666 -151.5 -63.999v-35c22.667 -4 41.334 -12.833 56.001 -26.5s22 -31.167 22 -52.5c0 -70 -71.667 -100.333 -215 -91v79c80.667 -6.66699 121 1.66602 121 24.999c0 18 -24.333 28 -73 30v72
c-54.667 6.66699 -101.167 24.834 -139.5 54.501s-65.833 67.834 -82.5 114.501l99 58c28 -78.667 86 -118 174 -118c44 0 76.667 8.33301 98 25s32 39 32 67s-11.667 49.667 -35 65s-64.666 32 -123.999 50c-16.667 4.66699 -31.5 9.33398 -44.5 14.001
s-25.167 9.33398 -36.5 14.001s-22.166 9.83398 -32.499 15.501s-21.5 12.5 -33.5 20.5c-45.333 32 -68 79 -68 141s22 111 66 147c43.333 36.667 96.333 55 159 55c56.667 0 105.834 -13.667 147.501 -41s73.834 -65 96.501 -113l-97 -56
c-29.333 65.333 -78.333 98 -147 98c-34 0 -60.833 -7.83301 -80.5 -23.5s-29.5 -36.834 -29.5 -63.501c0 -13.333 2.33301 -24.833 7 -34.5s12.5 -18.667 23.5 -27s25.5 -16.333 43.5 -24s40.333 -15.5 67 -23.5c13.333 -4.66699 24.833 -8.5 34.5 -11.5
s17.5 -5.83301 23.5 -8.5c6.66699 -2 14.167 -4.66699 22.5 -8l29.5 -12c11.333 -4.66699 21.333 -9.33398 30 -14.001s15.667 -9.33398 21 -14.001c9.33301 -7.33301 18.5 -15.833 27.5 -25.5s17 -20.5 24 -32.5s12.5 -25.167 16.5 -39.5s5.33301 -29.833 4 -46.5z" />
    <glyph glyph-name="scedilla" unicode="&#x15f;" horiz-adv-x="461" 
d="M429 141c0 -40.667 -13.335 -74.001 -40.002 -100.001s-62 -42.667 -106 -50v-37c22.667 -4 41.334 -12.833 56.001 -26.5s22 -31.167 22 -52.5c0 -70 -71.667 -100.333 -215 -91v79c80.667 -6.66699 121 1.66602 121 24.999c0 18 -24.333 28 -73 30v72
c-79.333 10 -134 48 -164 114l93 54c16.667 -48 53.667 -72 111 -72c56.667 0 85 18.667 85 56c0 16 -9.16699 29 -27.5 39s-40.833 18.333 -67.5 25c-18.667 4.66699 -38.334 10.334 -59.001 17.001s-39.667 15.834 -57 27.501s-31.5 26.334 -42.5 44.001
s-16.167 39.5 -15.5 65.5c0 46 17.333 83 52 111s78.334 42 131.001 42c42 0 79 -9.16699 111 -27.5s56.667 -43.833 74 -76.5l-91 -51c-17.333 38 -48.666 57 -93.999 57c-20.667 0 -38 -4.5 -52 -13.5s-21 -22.167 -21 -39.5c0 -16.667 9.16699 -29.834 27.5 -39.501
s40.5 -18.167 66.5 -25.5c19.333 -4 39.333 -9.5 60 -16.5s39.667 -16.333 57 -28s31.5 -26.5 42.5 -44.5s16.167 -40.333 15.5 -67z" />
    <glyph glyph-name="Scaron" unicode="&#x160;" horiz-adv-x="581" 
d="M230 765l-106 140h110l53 -73l52 73h110l-106 -140h-113zM318 405c13.333 -4.66699 24.8311 -8.5 34.498 -11.5s17.5 -5.83301 23.5 -8.5c6.66699 -2 14.167 -4.66699 22.5 -8l29.5 -12c11.333 -4.66699 21.333 -9.33398 30 -14.001s15.667 -9.33398 21 -14.001
c9.33301 -7.33301 18.5 -15.833 27.5 -25.5s17 -20.5 24 -32.5s12.5 -25.167 16.5 -39.5s5.33301 -29.833 4 -46.5c0 -64 -23 -114.333 -69 -151c-44.667 -36.667 -104.334 -55 -179.001 -55c-68 0 -125.333 15.167 -172 45.5s-79.334 72.5 -98.001 126.5l99 58
c28 -78.667 86 -118 174 -118c44 0 76.667 8.33301 98 25s32 39 32 67s-11.667 49.667 -35 65s-64.666 32 -123.999 50c-16.667 4.66699 -31.5 9.33398 -44.5 14.001s-25.167 9.33398 -36.5 14.001s-22.166 9.83398 -32.499 15.501s-21.5 12.5 -33.5 20.5
c-45.333 32 -68 79 -68 141s22 111 66 147c43.333 36.667 96.333 55 159 55c56.667 0 105.834 -13.667 147.501 -41s73.834 -65 96.501 -113l-97 -56c-29.333 65.333 -78.333 98 -147 98c-34 0 -60.833 -7.83301 -80.5 -23.5s-29.5 -36.834 -29.5 -63.501
c0 -13.333 2.33301 -24.833 7 -34.5s12.5 -18.667 23.5 -27s25.5 -16.333 43.5 -24s40.333 -15.5 67 -23.5z" />
    <glyph glyph-name="scaron" unicode="&#x161;" horiz-adv-x="461" 
d="M172 565l-106 140h110l53 -73l52 73h110l-106 -140h-113zM160 362c0 -16.667 9.16504 -29.8369 27.498 -39.5039s40.5 -18.167 66.5 -25.5c19.333 -4 39.333 -9.5 60 -16.5s39.667 -16.333 57 -28s31.5 -26.5 42.5 -44.5s16.167 -40.333 15.5 -67
c0 -48 -18.667 -85.667 -56 -113s-83.666 -41 -138.999 -41c-50 0 -92.5 10.333 -127.5 31s-60.5 49.334 -76.5 86.001l93 54c16.667 -48 53.667 -72 111 -72c56.667 0 85 18.667 85 56c0 16 -9.16699 29 -27.5 39s-40.833 18.333 -67.5 25
c-18.667 4.66699 -38.334 10.334 -59.001 17.001s-39.667 15.834 -57 27.501s-31.5 26.334 -42.5 44.001s-16.167 39.5 -15.5 65.5c0 46 17.333 83 52 111s78.334 42 131.001 42c42 0 79 -9.16699 111 -27.5s56.667 -43.833 74 -76.5l-91 -51
c-17.333 38 -48.666 57 -93.999 57c-20.667 0 -38 -4.5 -52 -13.5s-21 -22.167 -21 -39.5z" />
    <glyph glyph-name="uni0162" unicode="&#x162;" horiz-adv-x="540" 
d="M525 700v-110h-197v-590h-115v590h-198v110h510zM213 -255l10 190h103l-30 -190h-83z" />
    <glyph glyph-name="uni0163" unicode="&#x163;" horiz-adv-x="382" 
d="M342 396h-123.998v-240c0 -16 2.66699 -28.333 8 -37s13.166 -14.667 23.499 -18s23.166 -5.16602 38.499 -5.49902s33.333 0.166992 54 1.5v-97c-82.667 -10 -142 -2.83301 -178 21.5s-54 69.166 -54 134.499v240h-92v104h92v108l108 32v-140h124v-104zM173.002 -255
l10 190h103l-30 -190h-83z" />
    <glyph glyph-name="Tcaron" unicode="&#x164;" horiz-adv-x="540" 
d="M211 760l-106 140h110l53 -73l52 73h110l-106 -140h-113zM525 700v-110h-197v-590h-115v590h-198v110h510z" />
    <glyph glyph-name="tcaron" unicode="&#x165;" horiz-adv-x="396" 
d="M276 723h103l-30 -175h-83zM218 640l0.00195312 -140h124v-104h-124v-240c0 -16 2.66699 -28.333 8 -37s13.166 -14.667 23.499 -18s23.166 -5.16602 38.499 -5.49902s33.333 0.166992 54 1.5v-97c-82.667 -10 -142 -2.83301 -178 21.5s-54 69.166 -54 134.499v240h-92
v104h92v108z" />
    <glyph glyph-name="Tbar" unicode="&#x166;" horiz-adv-x="540" 
d="M525 590h-197v-193h127v-104h-127v-293h-115v293h-128v104h128v193h-198v110h510v-110z" />
    <glyph glyph-name="tbar" unicode="&#x167;" horiz-adv-x="382" 
d="M342 396h-123.998v-98h86v-87h-86v-55c0 -16 2.66699 -28.333 8 -37s13.166 -14.667 23.499 -18s23.166 -5.16602 38.499 -5.49902s33.333 0.166992 54 1.5v-97c-82.667 -10 -142 -2.83301 -178 21.5s-54 69.166 -54 134.499v55h-61v87h61v98h-92v104h92v108l108 32v-140
h124v-104z" />
    <glyph glyph-name="Utilde" unicode="&#x168;" 
d="M63 700h115.001v-461c0 -42.667 12.5 -76.667 37.5 -102s62.5 -38 112.5 -38s87.5 12.667 112.5 38s37.5 59.333 37.5 102v461h115v-468c0 -74 -24.667 -133.667 -74 -179c-49.333 -44 -113 -66 -191 -66c-78.667 0 -142.334 22 -191.001 66
c-49.333 45.333 -74 105 -74 179v468zM168.001 767c0 36.667 5 65.5 15 86.5s23 35.5 39 43.5s34.167 10 54.5 6s40.5 -12.667 60.5 -26c21.333 -17.333 37 -24.833 47 -22.5s15 17.5 15 45.5h89c0 -36.667 -4.83301 -65.5 -14.5 -86.5s-22.5 -35.5 -38.5 -43.5
s-34 -10.167 -54 -6.5s-40.333 12.5 -61 26.5c-22 17.333 -38 24.833 -48 22.5s-15 -17.5 -15 -45.5h-89z" />
    <glyph glyph-name="utilde" unicode="&#x169;" horiz-adv-x="571" 
d="M400 500l108 -0.000976562v-500h-108v64c-33.333 -51.333 -85 -77 -155 -77c-58 0 -104.5 18.167 -139.5 54.5s-52.5 86.833 -52.5 151.5v307h108v-296c0 -38 10 -66.833 30 -86.5s47.333 -29.5 82 -29.5c38 0 68.667 11.833 92 35.5s35 59.834 35 108.501v268z
M120 566.999c0 36.667 5 65.5 15 86.5s23 35.5 39 43.5s34.167 10 54.5 6s40.5 -12.667 60.5 -26c21.333 -17.333 37 -24.833 47 -22.5s15 17.5 15 45.5h89c0 -36.667 -4.83301 -65.5 -14.5 -86.5s-22.5 -35.5 -38.5 -43.5s-34 -10.167 -54 -6.5s-40.333 12.5 -61 26.5
c-22 17.333 -38 24.833 -48 22.5s-15 -17.5 -15 -45.5h-89z" />
    <glyph glyph-name="Umacron" unicode="&#x16a;" 
d="M188 770v89h280v-89h-280zM63 700h115.001v-461c0 -42.667 12.5 -76.667 37.5 -102s62.5 -38 112.5 -38s87.5 12.667 112.5 38s37.5 59.333 37.5 102v461h115v-468c0 -74 -24.667 -133.667 -74 -179c-49.333 -44 -113 -66 -191 -66c-78.667 0 -142.334 22 -191.001 66
c-49.333 45.333 -74 105 -74 179v468z" />
    <glyph glyph-name="umacron" unicode="&#x16b;" horiz-adv-x="571" 
d="M420 659v-89h-280v89h280zM400 500l108 -0.000976562v-500h-108v64c-33.333 -51.333 -85 -77 -155 -77c-58 0 -104.5 18.167 -139.5 54.5s-52.5 86.833 -52.5 151.5v307h108v-296c0 -38 10 -66.833 30 -86.5s47.333 -29.5 82 -29.5c38 0 68.667 11.833 92 35.5
s35 59.834 35 108.501v268z" />
    <glyph glyph-name="Uring" unicode="&#x16e;" 
d="M327 713c-17.333 0 -33.333 2.83301 -48 8.5s-27.167 13.5 -37.5 23.5s-18.5 21.833 -24.5 35.5s-9 28.5 -9 44.5s3 30.833 9 44.5s14.167 25.667 24.5 36s22.833 18.333 37.5 24s30.667 8.5 48 8.5c36 0 65 -10.667 87 -32s33 -48.333 33 -81s-11 -59.5 -33 -80.5
s-51 -31.5 -87 -31.5zM327 784c14 0 24.833 3.83301 32.5 11.5s11.5 17.5 11.5 29.5c0 12.667 -3.83301 22.834 -11.5 30.501s-18.5 11.5 -32.5 11.5c-13.333 0 -23.833 -3.83301 -31.5 -11.5s-11.5 -17.834 -11.5 -30.501c0 -12 3.83301 -21.833 11.5 -29.5
s18.167 -11.5 31.5 -11.5zM63 700h115.001v-461c0 -42.667 12.5 -76.667 37.5 -102s62.5 -38 112.5 -38s87.5 12.667 112.5 38s37.5 59.333 37.5 102v461h115v-468c0 -74 -24.667 -133.667 -74 -179c-49.333 -44 -113 -66 -191 -66c-78.667 0 -142.334 22 -191.001 66
c-49.333 45.333 -74 105 -74 179v468z" />
    <glyph glyph-name="uring" unicode="&#x16f;" horiz-adv-x="571" 
d="M280 543c-17.333 0 -33.333 2.83301 -48 8.5s-27.167 13.5 -37.5 23.5s-18.5 21.833 -24.5 35.5s-9 28.5 -9 44.5s3 30.833 9 44.5s14.167 25.667 24.5 36s22.833 18.333 37.5 24s30.667 8.5 48 8.5c36 0 65 -10.667 87 -32s33 -48.333 33 -81s-11 -59.5 -33 -80.5
s-51 -31.5 -87 -31.5zM280 697c-13.333 0 -23.833 -3.83301 -31.5 -11.5s-11.5 -17.834 -11.5 -30.501c0 -12 3.83301 -21.833 11.5 -29.5s18.167 -11.5 31.5 -11.5c14 0 24.833 3.83301 32.5 11.5s11.5 17.5 11.5 29.5c0 12.667 -3.83301 22.834 -11.5 30.501
s-18.5 11.5 -32.5 11.5zM400 500l108 -0.000976562v-500h-108v64c-33.333 -51.333 -85 -77 -155 -77c-58 0 -104.5 18.167 -139.5 54.5s-52.5 86.833 -52.5 151.5v307h108v-296c0 -38 10 -66.833 30 -86.5s47.333 -29.5 82 -29.5c38 0 68.667 11.833 92 35.5
s35 59.834 35 108.501v268z" />
    <glyph glyph-name="Uhungarumlaut" unicode="&#x170;" 
d="M243 895h114l-81 -135h-108zM416 895h114l-91 -135h-108zM63 232l0.000976562 468h115v-461c0 -42.667 12.5 -76.667 37.5 -102s62.5 -38 112.5 -38s87.5 12.667 112.5 38s37.5 59.333 37.5 102v461h115v-468c0 -74 -24.667 -133.667 -74 -179
c-49.333 -44 -113 -66 -191 -66c-78.667 0 -142.334 22 -191.001 66c-49.333 45.333 -74 105 -74 179z" />
    <glyph glyph-name="uhungarumlaut" unicode="&#x171;" horiz-adv-x="571" 
d="M309 695l-81 -135h-108l75 135h114zM391 560h-108l85 135h114zM400 500l108 -0.000976562v-500h-108v64c-33.333 -51.333 -85 -77 -155 -77c-58 0 -104.5 18.167 -139.5 54.5s-52.5 86.833 -52.5 151.5v307h108v-296c0 -38 10 -66.833 30 -86.5s47.333 -29.5 82 -29.5
c38 0 68.667 11.833 92 35.5s35 59.834 35 108.501v268z" />
    <glyph glyph-name="Uogonek" unicode="&#x172;" 
d="M478 700h115v-468c0 -80 -29.667 -143.667 -89 -191c-19.333 -18 -35.5 -33.833 -48.5 -47.5s-23.5 -26.167 -31.5 -37.5s-13.833 -21.833 -17.5 -31.5s-5.5 -19.5 -5.5 -29.5c0 -18 9.33301 -27.333 28 -28c8 -1.33301 19 0.666992 33 6v-72
c-24 -9.33301 -48.667 -14 -74 -14c-28 0 -50.167 7.33301 -66.5 22s-24.5 35 -24.5 61c0 36.667 19 76 57 118c-3.33301 -0.666992 -7.16602 -1 -11.499 -1h-14.5c-78.667 0 -142.334 22 -191.001 66c-49.333 45.333 -74 105 -74 179v468h115v-461
c0 -42.667 12.5 -76.667 37.5 -102s62.5 -38 112.5 -38s87.5 12.667 112.5 38s37.5 59.333 37.5 102v461z" />
    <glyph glyph-name="uogonek" unicode="&#x173;" horiz-adv-x="571" 
d="M508 0c-40 -40 -59.999 -75 -59.999 -105c-0.666992 -18.667 8.66602 -28 27.999 -28c8 -1.33301 18.667 0.666992 32 6v-72c-24 -9.33301 -48.333 -14 -73 -14c-28 0 -50.167 7.33301 -66.5 22s-24.5 35 -24.5 61c0 37.333 21.333 80.666 64 129.999h-8v64
c-33.333 -51.333 -85 -77 -155 -77c-58 0 -104.5 18.167 -139.5 54.5s-52.5 86.833 -52.5 151.5v307h108v-296c0 -38 10 -66.833 30 -86.5s47.333 -29.5 82 -29.5c38 0 68.667 11.833 92 35.5s35 59.834 35 108.501v268h108v-500z" />
    <glyph glyph-name="Wcircumflex" unicode="&#x174;" horiz-adv-x="999" 
d="M517 834l-53 -74h-110l106 140h113l106 -140h-110zM858 700h121l-198 -700h-133l-148 511l-149 -511h-133l-198 700h121l147 -547l159 547h106l158 -547z" />
    <glyph glyph-name="wcircumflex" unicode="&#x175;" horiz-adv-x="770" 
d="M383 634l-53 -74h-110l106 140h113l106 -140h-110zM639 500h114l-157 -500h-106l-104 337l-105 -337h-106l-157 500h114l97 -345l105 345h103l104 -345z" />
    <glyph glyph-name="Ycircumflex" unicode="&#x176;" horiz-adv-x="613" 
d="M303 834l-53 -74h-110l106 140h113l106 -140h-110zM608 700l-244 -422v-278h-115v278l-244 422h131l171 -310l170 310h131z" />
    <glyph glyph-name="ycircumflex" unicode="&#x177;" horiz-adv-x="520" 
d="M258 634l-53 -74h-110l106 140h113l106 -140h-110zM400 500l115 -0.000976562l-192 -516c-48 -129.333 -129.333 -190.666 -244 -183.999v101c34 -2 61.333 5.16699 82 21.5s37.667 41.833 51 76.5l5 10l-212 491h118l149 -363z" />
    <glyph glyph-name="Ydieresis" unicode="&#x178;" horiz-adv-x="613" 
d="M252 775c-11.333 -11.333 -25.333 -17 -42 -17s-31 5.66699 -43 17c-11.333 12 -17 26.333 -17 43s5.66699 30.667 17 42c12 12 26.333 18 43 18s30.667 -6 42 -18c12 -11.333 18 -25.333 18 -42s-6 -31 -18 -43zM442 775c-11.333 -11.333 -25.333 -17 -42 -17
s-31 5.66699 -43 17c-11.333 12 -17 26.333 -17 43s5.66699 30.667 17 42c12 12 26.333 18 43 18s30.667 -6 42 -18c12 -11.333 18 -25.333 18 -42s-6 -31 -18 -43zM608 700l-244 -422v-278h-115v278l-244 422h131l171 -310l170 310h131z" />
    <glyph glyph-name="Zacute" unicode="&#x179;" horiz-adv-x="530" 
d="M410 900l-106 -135h-104l80 135h130zM181 110h322v-110h-465v95l314 495h-307v110h450v-95z" />
    <glyph glyph-name="zacute" unicode="&#x17a;" horiz-adv-x="473" 
d="M381 700l-106 -135h-104l80 135h130zM192 102h243v-102h-390v72l234 326h-224v102h370v-72z" />
    <glyph glyph-name="Zdotaccent" unicode="&#x17b;" horiz-adv-x="530" 
d="M200 828c0 18.667 7.00293 35 21.0029 49s30.333 21 49 21c14.667 0.666992 27.667 -3.33301 39 -12s19.666 -19.167 24.999 -31.5s7 -25.666 5 -39.999s-8.66699 -26.5 -20 -36.5c-10 -11.333 -22 -17.833 -36 -19.5s-27.333 0.166016 -40 5.49902
s-23.334 13.5 -32.001 24.5s-12.334 24.167 -11.001 39.5zM181.003 110h322v-110h-465v95l314 495h-307v110h450v-95z" />
    <glyph glyph-name="zdotaccent" unicode="&#x17c;" horiz-adv-x="473" 
d="M171 628c0 18.667 6.83301 35 20.5 49s30.167 21 49.5 21s35.833 -6.83301 49.5 -20.5s20.5 -30.167 20.5 -49.5s-6.83301 -35.833 -20.5 -49.5s-30.167 -20.5 -49.5 -20.5s-35.833 6.83301 -49.5 20.5s-20.5 30.167 -20.5 49.5zM192 102h243v-102h-390v72l234 326h-224
v102h370v-72z" />
    <glyph glyph-name="Zcaron" unicode="&#x17d;" horiz-adv-x="530" 
d="M211 760l-106 140h110l53 -73l52 73h110l-106 -140h-113zM181 110h322v-110h-465v95l314 495h-307v110h450v-95z" />
    <glyph glyph-name="zcaron" unicode="&#x17e;" horiz-adv-x="473" 
d="M182 560l-106 140h110l53 -73l52 73h110l-106 -140h-113zM192 102h243v-102h-390v72l234 326h-224v102h370v-72z" />
    <glyph glyph-name="florin" unicode="&#x192;" horiz-adv-x="441" 
d="M441 597c-13.333 6 -26.5 9.16699 -39.5 9.5s-24.667 -2.16699 -35 -7.5s-19.333 -13.166 -27 -23.499s-12.5 -23.166 -14.5 -38.499l-23 -133h99v-104h-116l-60 -351c-11.333 -66.667 -37.333 -112.334 -78 -137.001s-89.667 -29 -147 -13v107
c13.333 -6 26.5 -9.16699 39.5 -9.5s24.667 2.16699 35 7.5s19.333 13.166 27 23.499s12.5 23.166 14.5 38.499l57 334h-93v104h110l26 150c11.333 66.667 37.333 112.334 78 137.001s89.667 29 147 13v-107z" />
    <glyph glyph-name="Ohorn" unicode="&#x1a0;" horiz-adv-x="796" 
d="M655 92c-70 -70 -155.667 -105.001 -257 -105.001s-187.333 35 -258 105c-70 70.667 -105 156.667 -105 258s35 187 105 257c70.667 70.667 156.667 106 258 106c17.333 0 34.5 -1.16699 51.5 -3.5s33.167 -5.5 48.5 -9.5h74c18.667 0 30.5 4.16699 35.5 12.5
s7.5 22.166 7.5 41.499v17h91v-17c0 -36 -5.5 -64.333 -16.5 -85s-29.833 -34.667 -56.5 -42c3.33301 -3.33301 7 -6.66602 11 -9.99902s7.66699 -6.66602 11 -9.99902c70.667 -70 106 -155.667 106 -257s-35.333 -187.333 -106 -258zM221 169.999
c48.667 -47.333 107.667 -71 177 -71c70 0 128.667 23.667 176 71c48 48 72 108 72 180s-24 131.667 -72 179c-47.333 48 -106 72 -176 72s-129 -24 -177 -72c-47.333 -47.333 -71 -107 -71 -179c0 -71.333 23.667 -131.333 71 -180z" />
    <glyph glyph-name="ohorn" unicode="&#x1a1;" horiz-adv-x="598" 
d="M299 -13c-74 0 -136.334 25.333 -187.001 76c-51.333 51.333 -77 113.666 -77 186.999s25.667 135.666 77 186.999c50.667 50.667 113 76 187 76c31.333 0 60 -4.33301 86 -13h44c18.667 0 30.5 4.16699 35.5 12.5s7.5 22.166 7.5 41.499v17h91v-17
c0 -35.333 -5.16699 -63.166 -15.5 -83.499s-28.166 -34.166 -53.499 -41.499c46 -50 69 -109.667 69 -179c0 -73.333 -25.667 -135.666 -77 -186.999c-50.667 -50.667 -113 -76 -187 -76zM187.999 137c30 -30 67 -45 111 -45s81 15 111 45s45 67.667 45 113s-15 83 -45 113
s-67 45 -111 45s-81 -15 -111 -45s-45 -67.667 -45 -113s15 -83 45 -113z" />
    <glyph glyph-name="Uhorn" unicode="&#x1af;" 
d="M63 700l115.001 -0.000976562v-461c0 -42.667 12.5 -76.667 37.5 -102s62.5 -38 112.5 -38s87.5 12.667 112.5 38s37.5 59.333 37.5 102v461h75c16.667 0.666992 27.167 5.33398 31.5 14.001s6.5 22 6.5 40v17h91v-17c0 -40 -6.66699 -70.333 -20 -91
s-36.333 -33.667 -69 -39v-392c0 -74 -24.667 -133.667 -74 -179c-49.333 -44 -113 -66 -191 -66c-78.667 0 -142.334 22 -191.001 66c-49.333 45.333 -74 105 -74 179v468z" />
    <glyph glyph-name="uhorn" unicode="&#x1b0;" horiz-adv-x="571" 
d="M400 500h63.999c18.667 0 30.5 4.16699 35.5 12.5s7.5 22.166 7.5 41.499v17h91v-17c0 -40 -6.66699 -70.333 -20 -91s-36.666 -33.667 -69.999 -39v-424h-108v64c-33.333 -51.333 -85 -77 -155 -77c-58 0 -104.5 18.167 -139.5 54.5s-52.5 86.833 -52.5 151.5v307h108
v-296c0 -38 10 -66.833 30 -86.5s47.333 -29.5 82 -29.5c38 0 68.667 11.833 92 35.5s35 59.834 35 108.501v268z" />
    <glyph glyph-name="Scommaaccent" unicode="&#x218;" horiz-adv-x="581" 
d="M303 -13c-68 0 -125.335 15.167 -172.002 45.5s-79.334 72.5 -98.001 126.5l99 58c28 -78.667 86 -118 174 -118c44 0 76.667 8.33301 98 25s32 39 32 67s-11.667 49.667 -35 65s-64.666 32 -123.999 50c-16.667 4.66699 -31.5 9.33398 -44.5 14.001
s-25.167 9.33398 -36.5 14.001s-22.166 9.83398 -32.499 15.501s-21.5 12.5 -33.5 20.5c-45.333 32 -68 79 -68 141s22 111 66 147c43.333 36.667 96.333 55 159 55c56.667 0 105.834 -13.667 147.501 -41s73.834 -65 96.501 -113l-97 -56
c-29.333 65.333 -78.333 98 -147 98c-34 0 -60.833 -7.83301 -80.5 -23.5s-29.5 -36.834 -29.5 -63.501c0 -13.333 2.33301 -24.833 7 -34.5s12.5 -18.667 23.5 -27s25.5 -16.333 43.5 -24s40.333 -15.5 67 -23.5c13.333 -4.66699 24.833 -8.5 34.5 -11.5
s17.5 -5.83301 23.5 -8.5c6.66699 -2 14.167 -4.66699 22.5 -8l29.5 -12c11.333 -4.66699 21.333 -9.33398 30 -14.001s15.667 -9.33398 21 -14.001c9.33301 -7.33301 18.5 -15.833 27.5 -25.5s17 -20.5 24 -32.5s12.5 -25.167 16.5 -39.5s5.33301 -29.833 4 -46.5
c0 -64 -23 -114.333 -69 -151c-44.667 -36.667 -104.334 -55 -179.001 -55zM247.998 -255l10 190h103l-30 -190h-83z" />
    <glyph glyph-name="scommaaccent" unicode="&#x219;" horiz-adv-x="461" 
d="M160 362c0 -16.667 9.16504 -29.8369 27.498 -39.5039s40.5 -18.167 66.5 -25.5c19.333 -4 39.333 -9.5 60 -16.5s39.667 -16.333 57 -28s31.5 -26.5 42.5 -44.5s16.167 -40.333 15.5 -67c0 -48 -18.667 -85.667 -56 -113s-83.666 -41 -138.999 -41
c-50 0 -92.5 10.333 -127.5 31s-60.5 49.334 -76.5 86.001l93 54c16.667 -48 53.667 -72 111 -72c56.667 0 85 18.667 85 56c0 16 -9.16699 29 -27.5 39s-40.833 18.333 -67.5 25c-18.667 4.66699 -38.334 10.334 -59.001 17.001s-39.667 15.834 -57 27.501
s-31.5 26.334 -42.5 44.001s-16.167 39.5 -15.5 65.5c0 46 17.333 83 52 111s78.334 42 131.001 42c42 0 79 -9.16699 111 -27.5s56.667 -43.833 74 -76.5l-91 -51c-17.333 38 -48.666 57 -93.999 57c-20.667 0 -38 -4.5 -52 -13.5s-21 -22.167 -21 -39.5zM186.998 -255.003
l10 190h103l-30 -190h-83z" />
    <glyph glyph-name="uni021A" unicode="&#x21a;" horiz-adv-x="540" 
d="M525 700v-110h-197v-590h-115v590h-198v110h510zM213 -255l10 190h103l-30 -190h-83z" />
    <glyph glyph-name="uni021B" unicode="&#x21b;" horiz-adv-x="382" 
d="M342 396h-123.998v-240c0 -16 2.66699 -28.333 8 -37s13.166 -14.667 23.499 -18s23.166 -5.16602 38.499 -5.49902s33.333 0.166992 54 1.5v-97c-82.667 -10 -142 -2.83301 -178 21.5s-54 69.166 -54 134.499v240h-92v104h92v108l108 32v-140h124v-104zM173.002 -255
l10 190h103l-30 -190h-83z" />
    <glyph glyph-name="circumflex" unicode="&#x2c6;" horiz-adv-x="365" 
d="M345 560h-110l-52 74l-53 -74h-110l106 140h113z" />
    <glyph glyph-name="caron" unicode="&#x2c7;" horiz-adv-x="365" 
d="M235 700h110l-106 -140h-113l-106 140h110l53 -73z" />
    <glyph glyph-name="breve" unicode="&#x2d8;" horiz-adv-x="355" 
d="M178 552c-50 0 -88.833 12.167 -116.5 36.5s-41.5 58.833 -41.5 103.5h98c0 -39.333 20 -59 60 -59c39.333 0 59 19.667 59 59h98c0 -44.667 -13.667 -79.167 -41 -103.5s-66 -36.5 -116 -36.5z" />
    <glyph glyph-name="dotaccent" unicode="&#x2d9;" horiz-adv-x="185" 
d="M20 628c0 18.667 7.00293 35 21.0029 49s30.333 21 49 21c14.667 0.666992 27.667 -3.33301 39 -12s19.666 -19.167 24.999 -31.5s7 -25.666 5 -39.999s-8.66699 -26.5 -20 -36.5c-10 -11.333 -22 -17.833 -36 -19.5s-27.333 0.166016 -40 5.49902
s-23.334 13.5 -32.001 24.5s-12.334 24.167 -11.001 39.5z" />
    <glyph glyph-name="ring" unicode="&#x2da;" horiz-adv-x="279" 
d="M139 543c-17.333 0 -33.333 2.83301 -48 8.5s-27.167 13.5 -37.5 23.5s-18.5 21.833 -24.5 35.5s-9 28.5 -9 44.5s3 30.833 9 44.5s14.167 25.667 24.5 36s22.833 18.333 37.5 24s30.667 8.5 48 8.5c36 0 65 -10.667 87 -32s33 -48.333 33 -81s-11 -59.5 -33 -80.5
s-51 -31.5 -87 -31.5zM139 614c14 0 24.833 3.83301 32.5 11.5s11.5 17.5 11.5 29.5c0 12.667 -3.83301 22.834 -11.5 30.501s-18.5 11.5 -32.5 11.5c-13.333 0 -23.833 -3.83301 -31.5 -11.5s-11.5 -17.834 -11.5 -30.501c0 -12 3.83301 -21.833 11.5 -29.5
s18.167 -11.5 31.5 -11.5z" />
    <glyph glyph-name="ogonek" unicode="&#x2db;" horiz-adv-x="205" 
d="M111 -213c-28 0 -50.167 7.33398 -66.5 22.001s-24.5 35 -24.5 61c0 39.333 22.667 82.666 68 129.999h97c-40.667 -38.667 -61 -73.667 -61 -105c0 -18.667 9.33301 -28 28 -28c8 -1.33301 19 0.666992 33 6v-72c-24 -9.33301 -48.667 -14 -74 -14z" />
    <glyph glyph-name="tilde" unicode="&#x2dc;" horiz-adv-x="360" 
d="M20 567c0 36.667 5 65.5 15 86.5s23 35.5 39 43.5s34.167 10 54.5 6s40.5 -12.667 60.5 -26c21.333 -17.333 37 -24.833 47 -22.5s15 17.5 15 45.5h89c0 -36.667 -4.83301 -65.5 -14.5 -86.5s-22.5 -35.5 -38.5 -43.5s-34 -10.167 -54 -6.5s-40.333 12.5 -61 26.5
c-22 17.333 -38 24.833 -48 22.5s-15 -17.5 -15 -45.5h-89z" />
    <glyph glyph-name="hungarumlaut" unicode="&#x2dd;" horiz-adv-x="402" 
d="M95 695h114l-81 -135h-108zM268 695h114l-91 -135h-108z" />
    <glyph glyph-name="gravecomb" unicode="&#x300;" horiz-adv-x="0" 
d="M-124 565l-106 135h130l80 -135h-104z" />
    <glyph glyph-name="acutecomb" unicode="&#x301;" horiz-adv-x="0" 
d="M-150 700h130l-106 -135h-104z" />
    <glyph glyph-name="uni0302" unicode="&#x302;" horiz-adv-x="0" 
d="M-20 560h-110l-52 74l-53 -74h-110l106 140h113z" />
    <glyph glyph-name="tildecomb" unicode="&#x303;" horiz-adv-x="0" 
d="M-335 567c0 36.667 5 65.5 15 86.5s23 35.5 39 43.5s34.167 10 54.5 6s40.5 -12.667 60.5 -26c21.333 -17.333 37 -24.833 47 -22.5s15 17.5 15 45.5h89c0 -36.667 -4.83301 -65.5 -14.5 -86.5s-22.5 -35.5 -38.5 -43.5s-34 -10.167 -54 -6.5s-40.333 12.5 -61 26.5
c-22 17.333 -38 24.833 -48 22.5s-15 -17.5 -15 -45.5h-89z" />
    <glyph glyph-name="uni0304" unicode="&#x304;" horiz-adv-x="0" 
d="M-300 570v89h280v-89h-280z" />
    <glyph glyph-name="uni0306" unicode="&#x306;" horiz-adv-x="0" 
d="M-177 552c-50 0 -88.833 12.167 -116.5 36.5s-41.5 58.833 -41.5 103.5h98c0 -39.333 20 -59 60 -59c39.333 0 59 19.667 59 59h98c0 -44.667 -13.667 -79.167 -41 -103.5s-66 -36.5 -116 -36.5z" />
    <glyph glyph-name="uni0307" unicode="&#x307;" horiz-adv-x="0" 
d="M-160 628c0 18.667 7 35 21 49s30.333 21 49 21c14.667 0.666992 27.667 -3.33301 39 -12s19.666 -19.167 24.999 -31.5s7 -25.666 5 -39.999s-8.33301 -26.5 -19 -36.5c-10 -11.333 -22.167 -17.833 -36.5 -19.5s-27.666 0.166016 -39.999 5.49902
s-22.833 13.5 -31.5 24.5s-12.667 24.167 -12 39.5z" />
    <glyph glyph-name="uni0308" unicode="&#x308;" horiz-adv-x="0" 
d="M-227 575c-12 -11.333 -26.333 -17 -43 -17s-30.667 5.66699 -42 17c-12 12 -18 26.333 -18 43s6 30.667 18 42c11.333 12 25.333 18 42 18s31 -6 43 -18c11.333 -11.333 17 -25.333 17 -42s-5.66699 -31 -17 -43zM-37 575c-12 -11.333 -26.333 -17 -43 -17
s-30.667 5.66699 -42 17c-12 12 -18 26.333 -18 43s6 30.667 18 42c11.333 12 25.333 18 42 18s31 -6 43 -18c11.333 -11.333 17 -25.333 17 -42s-5.66699 -31 -17 -43z" />
    <glyph glyph-name="uni030A" unicode="&#x30a;" horiz-adv-x="0" 
d="M-142 543c-17.333 0 -33.333 2.83301 -48 8.5s-27.167 13.5 -37.5 23.5s-18.5 21.833 -24.5 35.5s-9 28.5 -9 44.5s3 30.833 9 44.5s14.167 25.667 24.5 36s22.833 18.333 37.5 24s30.667 8.5 48 8.5c36 0 65 -10.667 87 -32s33 -48.333 33 -81s-11 -59.5 -33 -80.5
s-51 -31.5 -87 -31.5zM-142 614c14 0 24.833 3.83301 32.5 11.5s11.5 17.5 11.5 29.5c0 12.667 -3.83301 22.834 -11.5 30.501s-18.5 11.5 -32.5 11.5c-13.333 0 -23.833 -3.83301 -31.5 -11.5s-11.5 -17.834 -11.5 -30.501c0 -12 3.83301 -21.833 11.5 -29.5
s18.167 -11.5 31.5 -11.5z" />
    <glyph glyph-name="uni030B" unicode="&#x30b;" horiz-adv-x="0" 
d="M-307 695h114l-81 -135h-108zM-134 695h114l-91 -135h-108z" />
    <glyph glyph-name="uni030C" unicode="&#x30c;" horiz-adv-x="0" 
d="M-130 700h110l-106 -140h-113l-106 140h110l53 -73z" />
    <glyph glyph-name="uni0312" unicode="&#x312;" horiz-adv-x="0" 
d="M-20 970l-10 -190h-103l30 190h83z" />
    <glyph glyph-name="uni0326" unicode="&#x326;" horiz-adv-x="0" 
d="M-133 -255l10 190h103l-30 -190h-83z" />
    <glyph glyph-name="uni0327" unicode="&#x327;" horiz-adv-x="0" 
d="M-98 -46c22.667 -4 41.333 -12.832 56 -26.499s22 -31.167 22 -52.5c0 -70 -71.667 -100.333 -215 -91v79c80.667 -6.66699 121 1.66602 121 24.999c0 18 -24.333 28 -73 30v82h89v-46z" />
    <glyph glyph-name="uni0328" unicode="&#x328;" horiz-adv-x="0" 
d="M-99 -213c-28 0 -50.167 7.33398 -66.5 22.001s-24.5 35 -24.5 61c0 39.333 22.667 82.666 68 129.999h97c-40.667 -38.667 -61 -73.667 -61 -105c0 -18.667 9.33301 -28 28 -28c8 -1.33301 19 0.666992 33 6v-72c-24 -9.33301 -48.667 -14 -74 -14z" />
    <glyph glyph-name="uni0394" unicode="&#x394;" horiz-adv-x="645" 
d="M392 700l248 -700h-635l249 700h138zM167 108h312l-156 461z" />
    <glyph glyph-name="uni03A9" unicode="&#x3a9;" horiz-adv-x="786" 
d="M756 360c0 -50.667 -10.668 -97.5 -32.001 -140.5s-51 -79.5 -89 -109.5h108v-110h-275v110c50.667 14.667 92.334 44 125.001 88c32 42.667 48 93.334 48 152.001c0 72 -24 131.667 -72 179c-47.333 48 -106 72 -176 72s-129 -24 -177 -72
c-47.333 -47.333 -71 -107 -71 -179c0 -58.667 16 -109.334 48 -152.001c32.667 -44 74.667 -73.333 126 -88v-110h-276v110h108c-80.667 62.667 -121 146 -121 250c0 98.667 35 182 105 250c70.667 68.667 156.667 103 258 103c102 0 187.667 -34.333 257 -103
c70.667 -68 106 -151.333 106 -250z" />
    <glyph glyph-name="pi" unicode="&#x3c0;" horiz-adv-x="660" 
d="M635 500v-102h-80v-398h-108v398h-229v-398h-108v398h-85v102h610z" />
    <glyph glyph-name="uni0401" unicode="&#x401;" horiz-adv-x="530" 
d="M228 775c-11.333 -11.333 -25.333 -17 -42 -17s-31 5.66699 -43 17c-11.333 12 -17 26.333 -17 43s5.66699 30.667 17 42c12 12 26.333 18 43 18s30.667 -6 42 -18c12 -11.333 18 -25.333 18 -42s-6 -31 -18 -43zM418 775c-11.333 -11.333 -25.333 -17 -42 -17
s-31 5.66699 -43 17c-11.333 12 -17 26.333 -17 43s5.66699 30.667 17 42c12 12 26.333 18 43 18s30.667 -6 42 -18c12 -11.333 18 -25.333 18 -42s-6 -31 -18 -43zM185 110h310v-110h-425v700h420v-110h-305v-182h280v-109h-280v-189z" />
    <glyph glyph-name="uni0402" unicode="&#x402;" horiz-adv-x="702" 
d="M458 468c58 0 103.999 -16.5 137.999 -49.5s51 -80.833 51 -143.5v-91c0 -138.667 -68.333 -203 -205 -193v107c32.667 -2.66699 55.834 2.5 69.501 15.5s20.5 36.5 20.5 70.5v82c0 65.333 -31 98 -93 98c-44 0 -86 -8 -126 -24v-340h-115v590h-183v110h505v-110h-207
v-148c50 17.333 98.333 26 145 26z" />
    <glyph glyph-name="uni0403" unicode="&#x403;" horiz-adv-x="480" 
d="M411 899l-106 -135h-104l80 135h130zM465 700v-110h-280v-590h-115v700h395z" />
    <glyph glyph-name="uni0404" unicode="&#x404;" horiz-adv-x="730" 
d="M398 99c44 0 84 10.166 120 30.499s63.333 47.833 82 82.5l100 -57c-15.333 -26 -33.666 -49.333 -54.999 -70s-45 -38.167 -71 -52.5s-53.833 -25.5 -83.5 -33.5s-60.5 -12 -92.5 -12c-104.667 0 -191.667 34.667 -261 104c-68 70 -102 156.333 -102 259
s34 188.667 102 258c68.667 70 155.667 105 261 105c32 0 62.833 -3.83301 92.5 -11.5s57.5 -18.834 83.5 -33.501s49.667 -32.167 71 -52.5s39.666 -43.5 54.999 -69.5l-100 -58c-18.667 34.667 -46 62.167 -82 82.5s-76 30.5 -120 30.5c-32 0 -61.833 -4.66699 -89.5 -14
s-52 -22.666 -73 -39.999s-38.333 -38 -52 -62s-23.167 -51 -28.5 -81h336v-108h-336c5.33301 -30 14.833 -57 28.5 -81s31 -44.667 52 -62s45.333 -30.666 73 -39.999s57.5 -14 89.5 -14z" />
    <glyph glyph-name="uni0405" unicode="&#x405;" horiz-adv-x="581" 
d="M303 -13c-68 0 -125.335 15.167 -172.002 45.5s-79.334 72.5 -98.001 126.5l99 58c28 -78.667 86 -118 174 -118c44 0 76.667 8.33301 98 25s32 39 32 67s-11.667 49.667 -35 65s-64.666 32 -123.999 50c-16.667 4.66699 -31.5 9.33398 -44.5 14.001
s-25.167 9.33398 -36.5 14.001s-22.166 9.83398 -32.499 15.501s-21.5 12.5 -33.5 20.5c-45.333 32 -68 79 -68 141s22 111 66 147c43.333 36.667 96.333 55 159 55c56.667 0 105.834 -13.667 147.501 -41s73.834 -65 96.501 -113l-97 -56
c-29.333 65.333 -78.333 98 -147 98c-34 0 -60.833 -7.83301 -80.5 -23.5s-29.5 -36.834 -29.5 -63.501c0 -13.333 2.33301 -24.833 7 -34.5s12.5 -18.667 23.5 -27s25.5 -16.333 43.5 -24s40.333 -15.5 67 -23.5c13.333 -4.66699 24.833 -8.5 34.5 -11.5
s17.5 -5.83301 23.5 -8.5c6.66699 -2 14.167 -4.66699 22.5 -8l29.5 -12c11.333 -4.66699 21.333 -9.33398 30 -14.001s15.667 -9.33398 21 -14.001c9.33301 -7.33301 18.5 -15.833 27.5 -25.5s17 -20.5 24 -32.5s12.5 -25.167 16.5 -39.5s5.33301 -29.833 4 -46.5
c0 -64 -23 -114.333 -69 -151c-44.667 -36.667 -104.334 -55 -179.001 -55z" />
    <glyph glyph-name="uni0406" unicode="&#x406;" horiz-adv-x="255" 
d="M70 700h115v-700h-115v700z" />
    <glyph glyph-name="uni0407" unicode="&#x407;" horiz-adv-x="255" 
d="M75 775c-11.333 -11.333 -25.333 -17 -42 -17s-30.667 5.66699 -42 17c-12 12 -18 26.333 -18 43s6 30.667 18 42c11.333 12 25.333 18 42 18s30.667 -6 42 -18c12 -11.333 18 -25.333 18 -42s-6 -31 -18 -43zM265 775c-11.333 -11.333 -25.333 -17 -42 -17
s-31 5.66699 -43 17c-11.333 12 -17 26.333 -17 43s5.66699 30.667 17 42c12 12 26.333 18 43 18s30.667 -6 42 -18c12 -11.333 18 -25.333 18 -42s-6 -31 -18 -43zM70 700h115v-700h-115v700z" />
    <glyph glyph-name="uni0408" unicode="&#x408;" horiz-adv-x="564" 
d="M260 -13c-108.667 0 -183.665 42.667 -224.998 128l99 58c23.333 -49.333 65.666 -74 126.999 -74c40 0 70.833 9.83301 92.5 29.5s32.5 47.5 32.5 83.5v488h115v-488c0 -72 -22.667 -127.667 -68 -167c-44.667 -38.667 -102.334 -58 -173.001 -58z" />
    <glyph glyph-name="uni0409" unicode="&#x409;" horiz-adv-x="973" 
d="M715 425c64 0 118.001 -20.002 162.001 -60.002s66 -90.667 66 -152c0 -62 -22 -113 -66 -153s-98 -60 -162 -60h-237v590h-219v-293c0 -62 -6.5 -114 -19.5 -156s-31.5 -73.333 -55.5 -94s-49.833 -34.667 -77.5 -42s-58.834 -9.66602 -93.501 -6.99902v107
c22 -3.33301 41.167 -2.5 57.5 2.5s30 15 41 30s19.167 35.333 24.5 61s8 57.834 8 96.501v405h449v-275h122zM715.001 107.998c32.667 0 59.667 9.5 81 28.5s32 44.5 32 76.5s-10.667 57.333 -32 76s-48.333 28 -81 28h-122v-209h122z" />
    <glyph glyph-name="uni040A" unicode="&#x40a;" horiz-adv-x="965" 
d="M708 425c64 0 117.667 -20 161 -60c44 -40 66 -90.667 66 -152c0 -62 -22 -113 -66 -153c-43.333 -40 -97 -60 -161 -60h-238v317h-285v-317h-115v700h115v-275h285v275h115v-275h123zM708 108c32.667 0 59.5 9.5 80.5 28.5s31.5 44.5 31.5 76.5s-10.5 57.333 -31.5 76
s-47.833 28 -80.5 28h-123v-209h123z" />
    <glyph glyph-name="uni040B" unicode="&#x40b;" horiz-adv-x="707" 
d="M458 468c58 0 104 -16.5 138 -49.5s51 -80.833 51 -143.5v-275h-115v266c0 65.333 -31 98 -93 98c-44 0 -86 -8 -126 -24v-340h-115v590h-183v110h505v-110h-207v-148c50 17.333 98.333 26 145 26z" />
    <glyph glyph-name="uni040C" unicode="&#x40c;" horiz-adv-x="603" 
d="M441 899l-106 -135h-104l80 135h130zM598 0h-137l-276 333v-333h-115v700h115v-314l266 314h137l-283 -341z" />
    <glyph glyph-name="uni040E" unicode="&#x40e;" horiz-adv-x="590" 
d="M439 863v-94h-280v94h280zM464 700h115.999l-217 -520c-53.333 -127.333 -139.666 -187.333 -258.999 -180v107c40 -4 72 1.83301 96 17.5s43.333 42.5 58 80.5l-233 495h116l170 -369z" />
    <glyph glyph-name="uni040F" unicode="&#x40f;" 
d="M470 700h115v-700h-200v-134h-115v134h-200v700h115v-590h285v590z" />
    <glyph glyph-name="uni0410" unicode="&#x410;" 
d="M526 0l-49 141h-298l-49 -141h-125l254 700h138l253 -700h-124zM217 249h222l-111 316z" />
    <glyph glyph-name="uni0411" unicode="&#x411;" horiz-adv-x="585" 
d="M335 430c64.667 0 118.334 -20.333 161.001 -61s64 -92 64 -154s-21.333 -113.333 -64 -154s-96.334 -61 -161.001 -61h-265v700h430v-110h-315v-160h150zM335 108c32 0 58.333 9.83301 79 29.5s31 45.5 31 77.5s-10.333 57.833 -31 77.5s-47 29.5 -79 29.5h-150v-214
h150z" />
    <glyph glyph-name="uni0412" unicode="&#x412;" horiz-adv-x="610" 
d="M482 363c30.667 -16 54.668 -38 72.001 -66s26 -60.333 26 -97c0 -57.333 -20.333 -105 -61 -143c-41.333 -38 -91 -57 -149 -57h-300v700h278c57.333 0 105.666 -18.667 144.999 -56c40 -37.333 60 -83.333 60 -138c0 -60 -23.667 -107.667 -71 -143zM185.001 592v-184
h163c25.333 0 46.666 8.83301 63.999 26.5s26 39.5 26 65.5s-8.66699 47.833 -26 65.5s-38.666 26.5 -63.999 26.5h-163zM370.001 108c26.667 0 49.167 9.33301 67.5 28s27.5 42 27.5 70s-9.16699 51.333 -27.5 70s-40.833 28 -67.5 28h-185v-196h185z" />
    <glyph glyph-name="uni0413" unicode="&#x413;" horiz-adv-x="480" 
d="M465 700v-110h-280v-590h-115v700h395z" />
    <glyph glyph-name="uni0414" unicode="&#x414;" horiz-adv-x="700" 
d="M595 110h75v-244h-115v134h-425v-134h-115v244h65c40.667 52.667 61 133 61 241v349h454v-590zM480 110v482h-224v-243c0 -104 -16.667 -183.667 -50 -239h274z" />
    <glyph glyph-name="uni0415" unicode="&#x415;" horiz-adv-x="530" 
d="M185 110h310v-110h-425v700h420v-110h-305v-182h280v-109h-280v-189z" />
    <glyph glyph-name="uni0416" unicode="&#x416;" horiz-adv-x="886" 
d="M871 0h-129l-241 328v-328h-115v328l-241 -328h-130l262 358l-252 342h130l231 -318v318h115v-318l231 318h129l-251 -342z" />
    <glyph glyph-name="uni0417" unicode="&#x417;" horiz-adv-x="563" 
d="M426 363c71.333 -34 107.001 -90.333 107.001 -169c0 -61.333 -23.333 -111.333 -70 -150c-46 -38 -106.333 -57 -181 -57c-128.667 0 -213.334 54 -254.001 162l99 57c20.667 -74 72.334 -111 155.001 -111c44 0 77.667 9.5 101 28.5s35 44.5 35 76.5
s-11.167 57.333 -33.5 76s-53.833 28 -94.5 28h-85v104h62c40 0 70.833 9 92.5 27s32.5 42 32.5 72s-9.83301 53.833 -29.5 71.5s-48.5 26.5 -86.5 26.5c-69.333 0 -116 -31.667 -140 -95l-98 57c45.333 97.333 124.666 146 237.999 146c68 0 123.667 -18.667 167 -56
c42.667 -36.667 64 -84.667 64 -144c0 -66 -27 -116 -81 -150z" />
    <glyph glyph-name="uni0418" unicode="&#x418;" horiz-adv-x="675" 
d="M490 0v475l-330 -475h-90v700h115v-475l330 475h90v-700h-115z" />
    <glyph glyph-name="uni0419" unicode="&#x419;" horiz-adv-x="675" 
d="M198 770v94h280v-94h-280zM490 0v475l-330 -475h-90v700h115v-475l330 475h90v-700h-115z" />
    <glyph glyph-name="uni041A" unicode="&#x41a;" horiz-adv-x="603" 
d="M598 0h-137l-276 333v-333h-115v700h115v-314l266 314h137l-283 -341z" />
    <glyph glyph-name="uni041B" unicode="&#x41b;" horiz-adv-x="683" 
d="M13 106c22 -3.33301 41.168 -2.50195 57.501 2.49805s30 14.833 41 29.5s19.167 34.834 24.5 60.501s8 57.834 8 96.501v405h469v-700h-115v590h-239v-293c0 -62 -6.5 -113.833 -19.5 -155.5s-31.5 -73.167 -55.5 -94.5c-24 -20.667 -49.833 -34.5 -77.5 -41.5
s-58.834 -8.83301 -93.501 -5.5v106z" />
    <glyph glyph-name="uni041C" unicode="&#x41c;" horiz-adv-x="810" 
d="M740 700v-700h-115v499l-213 -352h-14l-213 353v-500h-115v700h124l211 -350l212 350h123z" />
    <glyph glyph-name="uni041D" unicode="&#x41d;" horiz-adv-x="670" 
d="M485 700h115v-700h-115v303h-300v-303h-115v700h115v-287h300v287z" />
    <glyph glyph-name="uni041E" unicode="&#x41e;" horiz-adv-x="796" 
d="M655 92c-70 -70 -155.667 -105 -257 -105s-187.333 35 -258 105c-70 70.667 -105 156.667 -105 258s35 187 105 257c70.667 70.667 156.667 106 258 106s187 -35.333 257 -106c70.667 -70 106 -155.667 106 -257s-35.333 -187.333 -106 -258zM221 170
c48.667 -47.333 107.667 -71 177 -71c70 0 128.667 23.667 176 71c48 48 72 108 72 180s-24 131.667 -72 179c-47.333 48 -106 72 -176 72s-129 -24 -177 -72c-47.333 -47.333 -71 -107 -71 -179c0 -71.333 23.667 -131.333 71 -180z" />
    <glyph glyph-name="uni041F" unicode="&#x41f;" 
d="M585 700v-700h-115v590h-285v-590h-115v700h515z" />
    <glyph glyph-name="uni0420" unicode="&#x420;" horiz-adv-x="590" 
d="M328 700c66 0 121 -21.999 165 -65.999c44.667 -44 67 -98.667 67 -164c0 -64.667 -22.333 -119.334 -67 -164.001c-44 -44 -99 -66 -165 -66h-143v-240h-115v700h258zM328 348.001c16.667 0 32.167 3 46.5 9s26.833 14.5 37.5 25.5s18.834 23.833 24.501 38.5
s8.5 31 8.5 49s-2.83301 34.333 -8.5 49s-13.834 27.5 -24.501 38.5s-23.167 19.5 -37.5 25.5s-29.833 9 -46.5 9h-143v-244h143z" />
    <glyph glyph-name="uni0421" unicode="&#x421;" horiz-adv-x="732" 
d="M401 -13c-105.333 0 -192.665 34.668 -261.998 104.001c-69.333 70.667 -104 157 -104 259c0 102.667 34.667 188.667 104 258c68.667 70 156 105 262 105c32 0 62.833 -3.83301 92.5 -11.5s57.5 -18.834 83.5 -33.501s49.5 -32.167 70.5 -52.5s39.167 -43.5 54.5 -69.5
l-100 -58c-18.667 34.667 -45.834 62.167 -81.501 82.5s-75.5 30.5 -119.5 30.5c-74 0 -134.667 -23.667 -182 -71c-46 -47.333 -69 -107.333 -69 -180c0 -73.333 23 -133.333 69 -180c47.333 -47.333 108 -71 182 -71c44 0 84 10.167 120 30.5s63 47.833 81 82.5l100 -57
c-28.667 -50.667 -70.334 -91.667 -125.001 -123c-53.333 -30 -112 -45 -176 -45z" />
    <glyph glyph-name="uni0422" unicode="&#x422;" horiz-adv-x="540" 
d="M525 700v-110h-197v-590h-115v590h-198v110h510z" />
    <glyph glyph-name="uni0423" unicode="&#x423;" horiz-adv-x="590" 
d="M464 700h115.999l-217 -520c-53.333 -127.333 -139.666 -187.333 -258.999 -180v107c40 -4 72 1.83301 96 17.5s43.333 42.5 58 80.5l-233 495h116l170 -369z" />
    <glyph glyph-name="uni0424" unicode="&#x424;" horiz-adv-x="814" 
d="M464 -10l-112.998 -0.000976562v80c-100 8 -179.333 36.333 -238 85s-88 113.667 -88 195c0 80.667 29.333 145.334 88 194.001c59.333 49.333 138.666 78 237.999 86v80h113v-80c98 -8 176.667 -36.667 236 -86s89 -114 89 -194c0 -80.667 -29.667 -145.667 -89 -195
c-58.667 -48.667 -137.334 -77 -236.001 -85v-80zM140.002 349.999c0 -52 18 -92.667 54 -122s88.333 -47 157 -53v350c-140.667 -12.667 -211 -71 -211 -175zM464.002 174.999c140 14 210 72.334 210 175.001c0 103.333 -70 161.666 -210 174.999v-350z" />
    <glyph glyph-name="uni0425" unicode="&#x425;" horiz-adv-x="600" 
d="M585 0h-131l-154 253l-154 -253h-131l220 360l-207 340h130l142 -233l142 233h131l-207 -340z" />
    <glyph glyph-name="uni0426" unicode="&#x426;" horiz-adv-x="690" 
d="M585 110h75v-244h-115v134h-475v700h115v-590h285v590h115v-590z" />
    <glyph glyph-name="uni0427" unicode="&#x427;" horiz-adv-x="630" 
d="M445 700h114.999v-700h-115v269c-49.333 -22 -100.666 -33 -153.999 -33c-70.667 0 -127.667 19.333 -171 58c-43.333 39.333 -65 91.333 -65 156v250h115v-238c0 -36 11 -64.333 33 -85s52 -31 90 -31c56 0 106.667 11.333 152 34v320z" />
    <glyph glyph-name="uni0428" unicode="&#x428;" horiz-adv-x="945" 
d="M760 700h115v-700h-805v700h115v-590h230v590h115v-590h230v590z" />
    <glyph glyph-name="uni0429" unicode="&#x429;" horiz-adv-x="980" 
d="M875 110h75v-244h-115v134h-765v700h115v-590h230v590h115v-590h230v590h115v-590z" />
    <glyph glyph-name="uni042A" unicode="&#x42a;" horiz-adv-x="695" 
d="M175 0v590.001h-175v110h290v-240h143c66 0 121 -22.333 165 -67c44.667 -44 67 -98.333 67 -163s-22.333 -119.334 -67 -164.001c-44 -44 -99 -66 -165 -66h-258zM290 108.001h143c16.667 0 32.167 3 46.5 9s26.833 14.5 37.5 25.5s18.834 23.833 24.501 38.5
s8.5 31 8.5 49s-2.83301 34.333 -8.5 49s-13.834 27.5 -24.501 38.5s-23.167 19.5 -37.5 25.5s-29.833 9 -46.5 9h-143v-244z" />
    <glyph glyph-name="uni042B" unicode="&#x42b;" horiz-adv-x="813" 
d="M70 0v700.001h115v-240h143c66 0 121 -22.333 165 -67c44.667 -44 67 -98.333 67 -163s-22.333 -119.334 -67 -164.001c-44 -44 -99 -66 -165 -66h-258zM628 0.000976562v700h115v-700h-115zM185 108.001h143c16.667 0 32.167 3 46.5 9s26.833 14.5 37.5 25.5
s18.834 23.833 24.501 38.5s8.5 31 8.5 49s-2.83301 34.333 -8.5 49s-13.834 27.5 -24.501 38.5s-23.167 19.5 -37.5 25.5s-29.833 9 -46.5 9h-143v-244z" />
    <glyph glyph-name="uni042C" unicode="&#x42c;" horiz-adv-x="590" 
d="M328 460c66 0 121 -22.333 165 -67c44.667 -44 67 -98.333 67 -163c0 -65.333 -22.333 -120 -67 -164c-44 -44 -99 -66 -165 -66h-258v700h115v-240h143zM328 108c16.667 0 32.167 3 46.5 9s26.833 14.5 37.5 25.5s18.834 23.833 24.501 38.5s8.5 31 8.5 49
s-2.83301 34.333 -8.5 49s-13.834 27.5 -24.501 38.5s-23.167 19.5 -37.5 25.5s-29.833 9 -46.5 9h-143v-244h143z" />
    <glyph glyph-name="uni042D" unicode="&#x42d;" horiz-adv-x="730" 
d="M332 713c105.333 0 192 -35 260 -105c68.667 -68.667 103 -154.667 103 -258s-34.333 -189.666 -103 -258.999c-68 -69.333 -154.667 -104 -260 -104c-32 0 -63 4 -93 12s-58 19.167 -84 33.5s-49.667 31.833 -71 52.5s-39.333 44 -54 70l100 57
c18.667 -34.667 46 -62.167 82 -82.5s76 -30.5 120 -30.5c32 0 61.667 4.66699 89 14s51.5 22.666 72.5 39.999s38.5 38 52.5 62s23.667 51 29 81h-336v108h336c-5.33301 30 -15 57 -29 81s-31.5 44.667 -52.5 62s-45.167 30.666 -72.5 39.999s-57 14 -89 14
c-44 0 -84 -10.167 -120 -30.5s-63.333 -47.833 -82 -82.5l-100 58c14.667 26 32.667 49.167 54 69.5s45 37.833 71 52.5s54 25.834 84 33.501s61 11.5 93 11.5z" />
    <glyph glyph-name="uni042E" unicode="&#x42e;" horiz-adv-x="1050" 
d="M652 713c101.333 0 187 -35.333 257 -106c70.667 -70 106 -155.667 106 -257s-35.333 -187.333 -106 -258c-70 -70 -155.667 -105 -257 -105c-93.333 0 -173.333 30 -240 90c-66 60 -104.667 136 -116 228h-111v-305h-115v700h115v-285h114c14.667 86 54.667 157 120 213
c65.333 56.667 143 85 233 85zM652 601c-70.667 0 -129.667 -23.667 -177 -71s-71 -107.333 -71 -180c0 -71.333 23.667 -131.333 71 -180c48.667 -47.333 107.667 -71 177 -71c70 0 128.667 23.667 176 71c48 48 72 108 72 180s-24 131.667 -72 179
c-47.333 48 -106 72 -176 72z" />
    <glyph glyph-name="uni042F" unicode="&#x42f;" horiz-adv-x="623" 
d="M553 700v-700h-115v255h-111l-169 -255h-130l178 265c-46.667 14 -84.667 40.333 -114 79c-29.333 39.333 -44 83 -44 131c0 62.667 21.667 115.667 65 159c44 44 97.333 66 160 66h280zM438 358v234h-165c-15.333 0 -29.666 -3 -42.999 -9s-25 -14.333 -35 -25
s-17.833 -23.167 -23.5 -37.5s-8.5 -29.5 -8.5 -45.5s2.83301 -31.167 8.5 -45.5s13.5 -26.833 23.5 -37.5s21.667 -19 35 -25s27.666 -9 42.999 -9h165z" />
    <glyph glyph-name="uni0430" unicode="&#x430;" horiz-adv-x="630" 
d="M459 500h108.001v-500h-108v72c-40.667 -56.667 -99 -85 -175 -85c-68.667 0 -127.334 25.333 -176.001 76s-73 113 -73 187s24.333 136.333 73 187s107.334 76 176.001 76c75.333 0 133.666 -28 174.999 -84v71zM188.001 135c30 -30 67.667 -45 113 -45s83 15 113 45
c30 30.667 45 69 45 115s-15 84 -45 114c-30 30.667 -67.667 46 -113 46s-83 -15.333 -113 -46c-30 -30 -45 -68 -45 -114s15 -84.333 45 -115z" />
    <glyph glyph-name="uni0431" unicode="&#x431;" horiz-adv-x="567" 
d="M295 -13c-76 0 -138.669 24.666 -188.002 73.999c-48 50 -72 113.667 -72 191c0 84 12.667 149.333 38 196c24.667 46 76 88.333 154 127l23.5 11.5c9 4.33301 19.833 9.16602 32.5 14.499s23.334 10 32.001 14s15.334 7.33301 20.001 10s9.83398 5.83398 15.501 9.50098
l19.5 12.5c14 10 24.333 20.5 31 31.5s12 24.167 16 39.5l88 -51c-2 -21.333 -10.333 -40.833 -25 -58.5s-29.334 -31.834 -44.001 -42.501c-7.33301 -6.66699 -21 -14.667 -41 -24l-43 -20l-50 -21c-44 -17.333 -76.167 -35.166 -96.5 -53.499s-34.5 -41.166 -42.5 -68.499
c40 45.333 94.333 68 163 68c58.667 0 109.667 -21 153 -63c44 -42 66 -96.333 66 -163c0 -68 -23.333 -124 -70 -168c-46 -44 -106 -66 -180 -66zM293.998 87.999c20.667 0 39.833 3.33203 57.5 9.99902s32.834 15.834 45.501 27.501s22.5 25.667 29.5 42
s10.5 34.166 10.5 53.499c0 20 -3.5 38.167 -10.5 54.5s-16.667 30.5 -29 42.5s-27.333 21.333 -45 28s-36.834 10 -57.501 10c-37.333 0 -71 -12 -101 -36c-30 -23.333 -45 -54.666 -45 -93.999c0 -40 14 -73 42 -99s62.333 -39 103 -39z" />
    <glyph glyph-name="uni0432" unicode="&#x432;" horiz-adv-x="508" 
d="M409 257c49.333 -23.333 74 -61.666 74 -114.999c0 -42 -14.167 -76.167 -42.5 -102.5s-68.833 -39.5 -121.5 -39.5h-256v500h236c52 0 92 -12.833 120 -38.5s42 -58.834 42 -99.501c0 -47.333 -17.333 -82.333 -52 -105zM166 408v-111h125c44 0 66 18.667 66 56
c0 36.667 -22 55 -66 55h-125zM309 94c45.333 0 68 19.667 68 59c0 17.333 -6 30.833 -18 40.5s-28.667 14.5 -50 14.5h-143v-114h143z" />
    <glyph glyph-name="uni0433" unicode="&#x433;" horiz-adv-x="408" 
d="M398 500v-104h-227v-396h-108v500h335z" />
    <glyph glyph-name="uni0434" unicode="&#x434;" horiz-adv-x="595" 
d="M503 102h67v-236h-106v134h-343v-134h-106v236h61c30.667 42.667 46 103 46 181v217h381v-398zM397 102v299h-169v-118c0 -72 -11 -132.333 -33 -181h202z" />
    <glyph glyph-name="uni0435" unicode="&#x435;" horiz-adv-x="582" 
d="M148 204c8 -38 26.168 -67.168 54.501 -87.501s63.5 -30.5 105.5 -30.5c56.667 0 99.667 20.667 129 62l89 -52c-48.667 -72.667 -121.667 -109 -219 -109c-80.667 0 -146.334 24.667 -197.001 74c-50 50 -75 113 -75 189c0 74 24.667 136.333 74 187
c48.667 50.667 112 76 190 76c72.667 0 132.667 -25.667 180 -77s71 -113.666 71 -186.999c0 -5.33301 -0.333008 -11.833 -1 -19.5s-1.66699 -16.167 -3 -25.5h-398zM441.001 291.999c-7.33301 40.667 -24 71.333 -50 92s-57 31 -93 31c-40 0 -73.333 -11 -100 -33
s-43.667 -52 -51 -90h294z" />
    <glyph glyph-name="uni0436" unicode="&#x436;" horiz-adv-x="722" 
d="M707 0h-123l-170 231v-231h-106v229l-170 -229h-123l195 255l-185 245h123l160 -219v219h106v-220l160 220h123l-185 -245z" />
    <glyph glyph-name="uni0437" unicode="&#x437;" horiz-adv-x="449" 
d="M344 256c53.333 -24 80.0039 -63.668 80.0039 -119.001c0 -21.333 -4.5 -41.166 -13.5 -59.499s-21.833 -34.166 -38.5 -47.499s-37.334 -23.833 -62.001 -31.5s-52.334 -11.5 -83.001 -11.5c-101.333 0 -169.333 40 -204 120l88 52c18 -50 57 -75 117 -75
c28 0 50 5.83301 66 17.5s24 27.167 24 46.5c0 17.333 -6.33301 31.166 -19 41.499s-30.334 15.5 -53.001 15.5h-71v95h53c22 0 39.167 5.16699 51.5 15.5s18.5 24.5 18.5 42.5c0 17.333 -7 31.5 -21 42.5s-32.667 16.5 -56 16.5c-50.667 0 -85.334 -22 -104.001 -66l-88 50
c36.667 74.667 100 112 190 112c56 0 100.333 -14.333 133 -43c33.333 -28 50 -62.333 50 -103c0 -50 -19.333 -87 -58 -111z" />
    <glyph glyph-name="uni0438" unicode="&#x438;" horiz-adv-x="570" 
d="M425 500h83v-500h-106v318l-256 -318h-83v500h106v-317z" />
    <glyph glyph-name="uni0439" unicode="&#x439;" horiz-adv-x="570" 
d="M145 570v94h280v-94h-280zM425 500h83v-500h-106v318l-256 -318h-83v500h106v-317z" />
    <glyph glyph-name="uni043A" unicode="&#x43a;" horiz-adv-x="515" 
d="M505 0h-129l-205 231v-231h-108v500h108v-221l194 221h132l-220 -245z" />
    <glyph glyph-name="uni043B" unicode="&#x43b;" horiz-adv-x="548" 
d="M485 500v-500.002h-108v396h-167v-186c0 -79.333 -17.333 -135.666 -52 -168.999s-84 -47 -148 -41v101c30.667 -5.33301 53.667 0.833984 69 18.501s23 49.5 23 95.5v285h383z" />
    <glyph glyph-name="uni043C" unicode="&#x43c;" horiz-adv-x="635" 
d="M573 500v-500h-105v329l-144 -229h-13l-143 228v-328h-105v500h110l145 -231l145 231h110z" />
    <glyph glyph-name="uni043D" unicode="&#x43d;" horiz-adv-x="570" 
d="M400 500h108v-500h-108v199h-229v-199h-108v500h108v-199h229v199z" />
    <glyph glyph-name="uni043E" unicode="&#x43e;" horiz-adv-x="598" 
d="M299 -13c-74 0 -136.333 25.333 -187 76c-51.333 51.333 -77 113.666 -77 186.999s25.667 135.666 77 186.999c50.667 50.667 113 76 187 76s136.333 -25.333 187 -76c51.333 -51.333 77 -113.666 77 -186.999s-25.667 -135.666 -77 -186.999
c-50.667 -50.667 -113 -76 -187 -76zM188 137c30 -30 67 -45 111 -45s81 15 111 45s45 67.667 45 113s-15 83 -45 113s-67 45 -111 45s-81 -15 -111 -45s-45 -67.667 -45 -113s15 -83 45 -113z" />
    <glyph glyph-name="uni043F" unicode="&#x43f;" horiz-adv-x="570" 
d="M508 500v-500h-108v398h-229v-398h-108v500h445z" />
    <glyph glyph-name="uni0440" unicode="&#x440;" horiz-adv-x="630" 
d="M346 513c68 0 126.668 -25.667 176.001 -77c48.667 -50.667 73 -112.667 73 -186c0 -74 -24.333 -136.333 -73 -187s-107.334 -76 -176.001 -76c-76 0 -134.333 28 -175 84v-271h-108v700h108v-72c40.667 56.667 99 85 175 85zM216.001 135c30 -30 67.667 -45 113 -45
s83 15 113 45c30 30.667 45 69 45 115s-15 84 -45 114c-30 30.667 -67.667 46 -113 46s-83 -15.333 -113 -46c-30 -30 -45 -68 -45 -114s15 -84.333 45 -115z" />
    <glyph glyph-name="uni0441" unicode="&#x441;" horiz-adv-x="542" 
d="M299 -13c-75.333 0 -138.333 25.333 -189 76c-50 50.667 -75 113 -75 187c0 74.667 25 137 75 187c50.667 50.667 113.667 76 189 76c48.667 0 93 -11.5 133 -34.5s70 -54.5 90 -94.5l-93 -54c-11.333 24 -28.5 42.833 -51.5 56.5s-49.5 20.5 -79.5 20.5
c-44 0 -81 -15 -111 -45c-29.333 -30.667 -44 -68 -44 -112s14.667 -81.333 44 -112c30 -30 67 -45 111 -45c30 0 56.667 7 80 21s41 32.667 53 56l93 -53c-21.333 -40 -52 -71.667 -92 -95s-84.333 -35 -133 -35z" />
    <glyph glyph-name="uni0442" unicode="&#x442;" horiz-adv-x="455" 
d="M445 500v-104h-163v-396h-108v396h-164v104h435z" />
    <glyph glyph-name="uni0443" unicode="&#x443;" horiz-adv-x="520" 
d="M400 500l115 -0.000976562l-192 -516c-23.333 -64 -55.833 -111.5 -97.5 -142.5s-90.5 -44.833 -146.5 -41.5v101c34 -2 61.5 4.83301 82.5 20.5s37.833 40.834 50.5 75.501l3 7l-210 496h115l152 -364z" />
    <glyph glyph-name="uni0444" unicode="&#x444;" horiz-adv-x="680" 
d="M393 -200h-106v191c-77.333 10 -138.666 38.667 -183.999 86s-68 105 -68 173s22.667 125.667 68 173s106.666 76 183.999 86v191h106v-191c77.333 -10 138.666 -38.667 183.999 -86s68 -105 68 -173s-22.667 -125.667 -68 -173s-106.666 -76 -183.999 -86v-191zM393 94
c46 8.66699 81.667 26.832 107 54.499s38 61.5 38 101.5s-12.667 73.833 -38 101.5s-61 45.834 -107 54.501v-312zM287 405.998c-46 -8.66699 -81.667 -26.832 -107 -54.499s-38 -61.5 -38 -101.5s12.667 -73.833 38 -101.5s61 -45.834 107 -54.501v312z" />
    <glyph glyph-name="uni0445" unicode="&#x445;" horiz-adv-x="520" 
d="M510 0h-125l-124 171l-125 -171h-126l188 257l-178 243h125l115 -158l115 158h126l-178 -244z" />
    <glyph glyph-name="uni0446" unicode="&#x446;" horiz-adv-x="600" 
d="M493 102h82v-236h-106v134h-406v500h108v-398h214v398h108v-398z" />
    <glyph glyph-name="uni0447" unicode="&#x447;" horiz-adv-x="538" 
d="M367 500h108.001v-500h-108v169c-39.333 -14.667 -81.333 -22 -126 -22c-62.667 0 -111.834 15.167 -147.501 45.5s-53.5 75.5 -53.5 135.5v172h108v-162c0 -60 35.667 -90 107 -90c40.667 0 78 7.66699 112 23v229z" />
    <glyph glyph-name="uni0448" unicode="&#x448;" horiz-adv-x="825" 
d="M655 500h108v-500h-700v500h108v-398h188v398h108v-398h188v398z" />
    <glyph glyph-name="uni0449" unicode="&#x449;" horiz-adv-x="845" 
d="M753 102h67v-236h-106v134h-651v500h108v-398h183v398h108v-398h183v398h108v-398z" />
    <glyph glyph-name="uni044A" unicode="&#x44a;" horiz-adv-x="563" 
d="M356 330c54 0 97.667 -15.332 131 -45.999c34 -30 51 -69.667 51 -119c0 -48.667 -17 -88.334 -51 -119.001c-33.333 -30.667 -77 -46 -131 -46h-218v396h-138v104h246v-170h110zM357 97.001c21.333 0 39.166 6.33301 53.499 19s21.5 29 21.5 49
c0 20.667 -7.16699 37.167 -21.5 49.5s-32.166 18.5 -53.499 18.5h-111v-136h111z" />
    <glyph glyph-name="uni044B" unicode="&#x44b;" horiz-adv-x="693" 
d="M281 330c54 0 97.667 -15.332 131 -45.999c34 -30 51 -69.667 51 -119c0 -48.667 -17 -88.334 -51 -119.001c-33.333 -30.667 -77 -46 -131 -46h-218v500h108v-170h110zM523 500.001h108v-500h-108v500zM282 97.001c21.333 0 39.166 6.33301 53.499 19s21.5 29 21.5 49
c0 20.667 -7.16699 37.167 -21.5 49.5s-32.166 18.5 -53.499 18.5h-111v-136h111z" />
    <glyph glyph-name="uni044C" unicode="&#x44c;" horiz-adv-x="488" 
d="M281 330c54 0 97.667 -15.332 131 -45.999c34 -30 51 -69.667 51 -119c0 -48.667 -17 -88.334 -51 -119.001c-33.333 -30.667 -77 -46 -131 -46h-218v500h108v-170h110zM282 97.001c21.333 0 39.166 6.33301 53.499 19s21.5 29 21.5 49
c0 20.667 -7.16699 37.167 -21.5 49.5s-32.166 18.5 -53.499 18.5h-111v-136h111z" />
    <glyph glyph-name="uni044D" unicode="&#x44d;" horiz-adv-x="538" 
d="M245 513c76 0 138.001 -24.667 186.001 -74s72 -112.333 72 -189c0 -77.333 -24.333 -140.333 -73 -189c-48 -49.333 -110 -74 -186 -74c-52.667 0 -99 11.833 -139 35.5s-70 55.5 -90 95.5l92 52c22 -52.667 68 -79 138 -79c36 0 66.667 10.167 92 30.5
s42.666 46.833 51.999 79.5h-198v99h198c-9.33301 34 -26.5 60.833 -51.5 80.5s-55.5 29.5 -91.5 29.5c-32 0 -59.833 -7.16699 -83.5 -21.5s-41.167 -33.5 -52.5 -57.5l-93 53c21.333 40 52 71.5 92 94.5s85.333 34.5 136 34.5z" />
    <glyph glyph-name="uni044E" unicode="&#x44e;" horiz-adv-x="808" 
d="M509 513c74 0 136.333 -25.3359 187 -76.0029c51.333 -51.333 77 -113.666 77 -186.999s-25.667 -135.666 -77 -186.999c-50.667 -50.667 -113 -76 -187 -76c-64.667 0 -120.667 19.667 -168 59c-47.333 40 -76.333 91 -87 153h-83v-199h-108v500h108v-199h83
c11.333 62.667 40.333 113.334 87 152.001c46.667 40 102.667 60 168 60zM398 136.997c30 -30 67 -45 111 -45s81 15 111 45s45 67.667 45 113s-15 83 -45 113s-67 45 -111 45s-81 -15 -111 -45s-45 -67.667 -45 -113s15 -83 45 -113z" />
    <glyph glyph-name="uni044F" unicode="&#x44f;" horiz-adv-x="513" 
d="M450 500l-0.000976562 -500h-106v168h-60l-127 -168h-127l135 178c-34.667 11.333 -62.5 31.333 -83.5 60s-31.5 60.667 -31.5 96c0 46 16.333 85 49 117c32.667 32.667 75.334 49 128.001 49h223zM343.999 261v141h-111c-22 0 -40.333 -6.33301 -55 -19s-22 -30 -22 -52
c0 -21.333 7.33301 -38.333 22 -51s33 -19 55 -19h111z" />
    <glyph glyph-name="uni0451" unicode="&#x451;" horiz-adv-x="582" 
d="M240 578c-11.333 -11.333 -25.333 -17 -42 -17s-31 5.66699 -43 17c-11.333 12 -17 26.333 -17 43s5.66699 30.667 17 42c12 12 26.333 18 43 18s30.667 -6 42 -18c12 -11.333 18 -25.333 18 -42s-6 -31 -18 -43zM430 578c-11.333 -11.333 -25.333 -17 -42 -17
s-31 5.66699 -43 17c-11.333 12 -17 26.333 -17 43s5.66699 30.667 17 42c12 12 26.333 18 43 18s30.667 -6 42 -18c12 -11.333 18 -25.333 18 -42s-6 -31 -18 -43zM148 204c8 -38 26.168 -67.168 54.501 -87.501s63.5 -30.5 105.5 -30.5c56.667 0 99.667 20.667 129 62
l89 -52c-48.667 -72.667 -121.667 -109 -219 -109c-80.667 0 -146.334 24.667 -197.001 74c-50 50 -75 113 -75 189c0 74 24.667 136.333 74 187c48.667 50.667 112 76 190 76c72.667 0 132.667 -25.667 180 -77s71 -113.666 71 -186.999
c0 -5.33301 -0.333008 -11.833 -1 -19.5s-1.66699 -16.167 -3 -25.5h-398zM441.001 291.999c-7.33301 40.667 -24 71.333 -50 92s-57 31 -93 31c-40 0 -73.333 -11 -100 -33s-43.667 -52 -51 -90h294z" />
    <glyph glyph-name="uni0452" unicode="&#x452;" horiz-adv-x="578" 
d="M334 513c28 0 53.832 -4.66602 77.499 -13.999s43.834 -23 60.501 -41s29.667 -39.667 39 -65s14 -54 14 -86v-327c0 -138.667 -68.333 -203 -205 -193v104c34 -3.33301 58.667 2 74 16s23 38.333 23 73v316c0 38 -10 66.833 -30 86.5s-47 29.5 -81 29.5
c-38.667 0 -69.667 -11.833 -93 -35.5s-35 -59.834 -35 -108.501v-268h-108v561h-65v74h65v65h108v-65h142v-74h-142v-125c33.333 51.333 85.333 77 156 77z" />
    <glyph glyph-name="uni0453" unicode="&#x453;" horiz-adv-x="408" 
d="M351 700l-106 -135h-104l80 135h130zM398 500v-104h-227v-396h-108v500h335z" />
    <glyph glyph-name="uni0454" unicode="&#x454;" horiz-adv-x="538" 
d="M523 118c-20 -40 -50 -71.833 -90 -95.5s-86.333 -35.5 -139 -35.5c-75.333 0 -137.666 24.667 -186.999 74c-48 48.667 -72 111.667 -72 189c0 76.667 24 139.667 72 189s110 74 186 74c50.667 0 96 -11.5 136 -34.5s70.667 -54.5 92 -94.5l-93 -53
c-11.333 24 -28.833 43.167 -52.5 57.5s-51.5 21.5 -83.5 21.5c-36 0 -66.5 -9.83301 -91.5 -29.5s-42.167 -46.5 -51.5 -80.5h198v-99h-198c9.33301 -32.667 26.666 -59.167 51.999 -79.5s56 -30.5 92 -30.5c70 0 116 26.333 138 79z" />
    <glyph glyph-name="uni0455" unicode="&#x455;" horiz-adv-x="461" 
d="M160 362c0 -16.667 9.16504 -29.8369 27.498 -39.5039s40.5 -18.167 66.5 -25.5c19.333 -4 39.333 -9.5 60 -16.5s39.667 -16.333 57 -28s31.5 -26.5 42.5 -44.5s16.167 -40.333 15.5 -67c0 -48 -18.667 -85.667 -56 -113s-83.666 -41 -138.999 -41
c-50 0 -92.5 10.333 -127.5 31s-60.5 49.334 -76.5 86.001l93 54c16.667 -48 53.667 -72 111 -72c56.667 0 85 18.667 85 56c0 16 -9.16699 29 -27.5 39s-40.833 18.333 -67.5 25c-18.667 4.66699 -38.334 10.334 -59.001 17.001s-39.667 15.834 -57 27.501
s-31.5 26.334 -42.5 44.001s-16.167 39.5 -15.5 65.5c0 46 17.333 83 52 111s78.334 42 131.001 42c42 0 79 -9.16699 111 -27.5s56.667 -43.833 74 -76.5l-91 -51c-17.333 38 -48.666 57 -93.999 57c-20.667 0 -38 -4.5 -52 -13.5s-21 -22.167 -21 -39.5z" />
    <glyph glyph-name="uni0456" unicode="&#x456;" horiz-adv-x="233" 
d="M165 595c-13.333 -13.333 -29.3311 -20 -47.998 -20s-35 6.66699 -49 20c-13.333 14 -20 30.333 -20 49s6.66699 34.667 20 48c13.333 14 29.666 21 48.999 21s35.666 -7 48.999 -21c13.333 -13.333 20 -29.333 20 -48s-7 -35 -21 -49zM63.002 0v500h108v-500h-108z" />
    <glyph glyph-name="uni0457" unicode="&#x457;" horiz-adv-x="233" 
d="M64 575c-11.333 -11.333 -25.333 -17 -42 -17s-30.667 5.66699 -42 17c-12 12 -18 26.333 -18 43s6 30.667 18 42c11.333 12 25.333 18 42 18s30.667 -6 42 -18c12 -11.333 18 -25.333 18 -42s-6 -31 -18 -43zM254 575c-11.333 -11.333 -25.333 -17 -42 -17
s-31 5.66699 -43 17c-11.333 12 -17 26.333 -17 43s5.66699 30.667 17 42c12 12 26.333 18 43 18s30.667 -6 42 -18c12 -11.333 18 -25.333 18 -42s-6 -31 -18 -43zM63 0v500h108v-500h-108z" />
    <glyph glyph-name="uni0458" unicode="&#x458;" horiz-adv-x="253" 
d="M184 595c-13.333 -13.333 -29.333 -20 -48 -20s-35 6.66699 -49 20c-13.333 14 -20 30.333 -20 49s6.66699 34.667 20 48c14 14 30.333 21 49 21s34.667 -7 48 -21c14 -13.333 21 -29.333 21 -48s-7 -35 -21 -49zM82 500h108v-520c0 -138.667 -68.333 -203 -205 -193v104
c34 -3.33301 58.667 2 74 16s23 38.333 23 73v520z" />
    <glyph glyph-name="uni0459" unicode="&#x459;" horiz-adv-x="772" 
d="M581 315c50 0 90.167 -14 120.5 -42s45.5 -66.333 45.5 -115s-15.167 -87.167 -45.5 -115.5s-70.5 -42.5 -120.5 -42.5h-214v396h-157v-186c0 -79.333 -17.333 -135.833 -52 -169.5s-84 -48.5 -148 -44.5v101c30.667 -3.33301 53.667 4 69 22s23 50 23 96v285h373v-185
h106zM581 97c18.667 0 34.167 5.16797 46.5 15.501s18.5 25.5 18.5 45.5c0 19.333 -6.16699 34.166 -18.5 44.499s-27.833 15.5 -46.5 15.5h-106v-121h106z" />
    <glyph glyph-name="uni045A" unicode="&#x45a;" horiz-adv-x="790" 
d="M593 315c25.333 0 48.501 -3.66602 69.501 -10.999s39.167 -17.833 54.5 -31.5s27.166 -30.167 35.499 -49.5s12.5 -41 12.5 -65s-4.33301 -45.833 -13 -65.5s-20.5 -36.334 -35.5 -50.001s-33.167 -24.167 -54.5 -31.5s-44.333 -11 -69 -11h-213v213h-214v-213h-108v500
h108v-185h214v185h108v-185h105zM594.001 97.001c18.667 0 34.167 5.16797 46.5 15.501s18.5 25.5 18.5 45.5c0 19.333 -6.33301 34.166 -19 44.499s-28 15.5 -46 15.5h-106v-121h106z" />
    <glyph glyph-name="uni045B" unicode="&#x45b;" horiz-adv-x="578" 
d="M334 513c28 0 53.832 -4.66602 77.499 -13.999s43.834 -23 60.501 -41s29.667 -39.667 39 -65s14 -54 14 -86v-307h-108v296c0 38 -10 66.833 -30 86.5s-47 29.5 -81 29.5c-38.667 0 -69.667 -11.833 -93 -35.5s-35 -59.834 -35 -108.501v-268h-108v561h-65v74h65v65h108
v-65h142v-74h-142v-125c33.333 51.333 85.333 77 156 77z" />
    <glyph glyph-name="uni045C" unicode="&#x45c;" horiz-adv-x="515" 
d="M401 700l-106 -135h-104l80 135h130zM505 0h-129l-205 231v-231h-108v500h108v-221l194 221h132l-220 -245z" />
    <glyph glyph-name="uni045E" unicode="&#x45e;" horiz-adv-x="520" 
d="M400 664v-94h-280v94h280zM400 500l115 -0.000976562l-192 -516c-23.333 -64 -55.833 -111.5 -97.5 -142.5s-90.5 -44.833 -146.5 -41.5v101c34 -2 61.5 4.83301 82.5 20.5s37.833 40.834 50.5 75.501l3 7l-210 496h115l152 -364z" />
    <glyph glyph-name="uni045F" unicode="&#x45f;" horiz-adv-x="570" 
d="M400 500h108v-500h-170v-134h-106v134h-169v500h108v-398h229v398z" />
    <glyph glyph-name="uni0490" unicode="&#x490;" horiz-adv-x="480" 
d="M350 820h115v-230h-280v-590h-115v700h280v120z" />
    <glyph glyph-name="uni0491" unicode="&#x491;" horiz-adv-x="408" 
d="M292 602h106v-206h-227v-396h-108v500h229v102z" />
    <glyph glyph-name="Wgrave" unicode="&#x1e80;" horiz-adv-x="999" 
d="M490 765l-106 135h130l80 -135h-104zM218 0l-198 700h121l147 -547l159 547h106l158 -547l147 547h121l-198 -700h-133l-148 511l-149 -511h-133z" />
    <glyph glyph-name="wgrave" unicode="&#x1e81;" horiz-adv-x="770" 
d="M460 565h-104l-106 135h130zM639 500h114l-157 -500h-106l-104 337l-105 -337h-106l-157 500h114l97 -345l105 345h103l104 -345z" />
    <glyph glyph-name="Wacute" unicode="&#x1e82;" horiz-adv-x="999" 
d="M529 900h130l-106 -135h-104zM218 0l-198 700h121l147 -547l159 547h106l158 -547l147 547h121l-198 -700h-133l-148 511l-149 -511h-133z" />
    <glyph glyph-name="wacute" unicode="&#x1e83;" horiz-adv-x="770" 
d="M525 700l-106 -135h-104l80 135h130zM639 500h114l-157 -500h-106l-104 337l-105 -337h-106l-157 500h114l97 -345l105 345h103l104 -345z" />
    <glyph glyph-name="Wdieresis" unicode="&#x1e84;" horiz-adv-x="999" 
d="M466 775c-11.333 -11.333 -25.333 -17 -42 -17s-31 5.66699 -43 17c-11.333 12 -17 26.333 -17 43s5.66699 30.667 17 42c12 12 26.333 18 43 18s30.667 -6 42 -18c12 -11.333 18 -25.333 18 -42s-6 -31 -18 -43zM656 775c-11.333 -11.333 -25.333 -17 -42 -17
s-31 5.66699 -43 17c-11.333 12 -17 26.333 -17 43s5.66699 30.667 17 42c12 12 26.333 18 43 18s30.667 -6 42 -18c12 -11.333 18 -25.333 18 -42s-6 -31 -18 -43zM218 0l-198 700h121l147 -547l159 547h106l158 -547l147 547h121l-198 -700h-133l-148 511l-149 -511h-133z
" />
    <glyph glyph-name="wdieresis" unicode="&#x1e85;" horiz-adv-x="770" 
d="M332 575c-11.333 -11.333 -25.333 -17 -42 -17s-31 5.66699 -43 17c-11.333 12 -17 26.333 -17 43s5.66699 30.667 17 42c12 12 26.333 18 43 18s30.667 -6 42 -18c12 -11.333 18 -25.333 18 -42s-6 -31 -18 -43zM522 575c-11.333 -11.333 -25.333 -17 -42 -17
s-31 5.66699 -43 17c-11.333 12 -17 26.333 -17 43s5.66699 30.667 17 42c12 12 26.333 18 43 18s30.667 -6 42 -18c12 -11.333 18 -25.333 18 -42s-6 -31 -18 -43zM639 500h114l-157 -500h-106l-104 337l-105 -337h-106l-157 500h114l97 -345l105 345h103l104 -345z" />
    <glyph glyph-name="uni1EA0" unicode="&#x1ea0;" 
d="M374 -200c-13.333 -13.333 -29.001 -20 -47.001 -20s-34 6.66699 -48 20c-13.333 14 -20 30 -20 48s6.66699 33.667 20 47s29.333 20 48 20s34.667 -6.66699 48 -20s19.833 -29 19.5 -47s-7.16602 -34 -20.499 -48zM525.999 0l-49 141h-298l-49 -141h-125l254 700h138
l253 -700h-124zM216.999 249h222l-111 316z" />
    <glyph glyph-name="uni1EA1" unicode="&#x1ea1;" horiz-adv-x="630" 
d="M337 -200c-13.333 -13.333 -29.001 -20 -47.001 -20s-34 6.66699 -48 20c-13.333 14 -20 30 -20 48s6.66699 33.667 20 47s29.333 20 48 20s34.667 -6.66699 48 -20s19.833 -29 19.5 -47s-7.16602 -34 -20.499 -48zM458.999 500h108.001v-500h-108v72
c-40.667 -56.667 -99 -85 -175 -85c-68.667 0 -127.334 25.333 -176.001 76s-73 113 -73 187s24.333 136.333 73 187s107.334 76 176.001 76c75.333 0 133.666 -28 174.999 -84v71zM188 135c30 -30 67.667 -45 113 -45s83 15 113 45c30 30.667 45 69 45 115s-15 84 -45 114
c-30 30.667 -67.667 46 -113 46s-83 -15.333 -113 -46c-30 -30 -45 -68 -45 -114s15 -84.333 45 -115z" />
    <glyph glyph-name="uni1EA2" unicode="&#x1ea2;" 
d="M292 760c0 12 0.495117 21.835 1.49512 29.502s2.66699 14.167 5 19.5s5.5 10.166 9.5 14.499s9 9.16602 15 14.499l6 4c0.666992 0.666992 1.33398 1 2.00098 1s1.33398 0.333008 2.00098 1c0.666992 0 1.33398 0.333008 2.00098 1
c2.66699 1.33301 5.83398 3.5 9.50098 6.5s5.5 8.16699 5.5 15.5c0 8.66699 -6.66699 13 -20 13c-8.66699 0 -17.167 -2.16699 -25.5 -6.5s-14.5 -12.833 -18.5 -25.5l-66 28c20.667 48.667 57.334 73 110.001 73c27.333 0 49.833 -7 67.5 -21s26.5 -34 26.5 -60
c0 -19.333 -4.5 -35 -13.5 -47s-18.5 -20.667 -28.5 -26c-6 -3.33301 -10.5 -7 -13.5 -11s-3.83301 -12 -2.5 -24h-74zM525.995 0.00195312l-49 141h-298l-49 -141h-125l254 700h138l253 -700h-124zM216.995 249.002h222l-111 316z" />
    <glyph glyph-name="uni1EA3" unicode="&#x1ea3;" horiz-adv-x="630" 
d="M295 560c0 12 0.495117 21.835 1.49512 29.502s2.66699 14.167 5 19.5s5.5 10.166 9.5 14.499s9 9.16602 15 14.499l6 4c0.666992 0.666992 1.33398 1 2.00098 1s1.33398 0.333008 2.00098 1c0.666992 0 1.33398 0.333008 2.00098 1
c2.66699 1.33301 5.83398 3.5 9.50098 6.5s5.5 8.16699 5.5 15.5c0 8.66699 -6.66699 13 -20 13c-8.66699 0 -17.167 -2.16699 -25.5 -6.5s-14.5 -12.833 -18.5 -25.5l-66 28c20.667 48.667 57.334 73 110.001 73c27.333 0 49.833 -7 67.5 -21s26.5 -34 26.5 -60
c0 -19.333 -4.5 -35 -13.5 -47s-18.5 -20.667 -28.5 -26c-6 -3.33301 -10.5 -7 -13.5 -11s-3.83301 -12 -2.5 -24h-74zM458.995 500.002h108.001v-500h-108v72c-40.667 -56.667 -99 -85 -175 -85c-68.667 0 -127.334 25.333 -176.001 76s-73 113 -73 187
s24.333 136.333 73 187s107.334 76 176.001 76c75.333 0 133.666 -28 174.999 -84v71zM187.996 135.002c30 -30 67.667 -45 113 -45s83 15 113 45c30 30.667 45 69 45 115s-15 84 -45 114c-30 30.667 -67.667 46 -113 46s-83 -15.333 -113 -46c-30 -30 -45 -68 -45 -114
s15 -84.333 45 -115z" />
    <glyph glyph-name="uni1EA4" unicode="&#x1ea4;" 
d="M526 0l-49 141h-298l-49 -141h-125l254 700h138l253 -700h-124zM217 249h222l-111 316zM326 829l-49 -69h-102l98 130h105l99 -130h-102zM503 981h121l-99 -126h-96z" />
    <glyph glyph-name="uni1EA5" unicode="&#x1ea5;" horiz-adv-x="630" 
d="M316 629l-49 -69h-102l98 130h105l99 -130h-102zM459 500h108.001v-500h-108v72c-40.667 -56.667 -99 -85 -175 -85c-68.667 0 -127.334 25.333 -176.001 76s-73 113 -73 187s24.333 136.333 73 187s107.334 76 176.001 76c75.333 0 133.666 -28 174.999 -84v71z
M188.001 135c30 -30 67.667 -45 113 -45s83 15 113 45c30 30.667 45 69 45 115s-15 84 -45 114c-30 30.667 -67.667 46 -113 46s-83 -15.333 -113 -46c-30 -30 -45 -68 -45 -114s15 -84.333 45 -115zM493.001 781h121l-99 -126h-96z" />
    <glyph glyph-name="uni1EA6" unicode="&#x1ea6;" 
d="M526 0l-49 141h-298l-49 -141h-125l254 700h138l253 -700h-124zM217 249h222l-111 316zM326 829l-49 -69h-102l98 130h105l99 -130h-102zM446 855l-99 126h121l75 -126h-97z" />
    <glyph glyph-name="uni1EA7" unicode="&#x1ea7;" horiz-adv-x="630" 
d="M316 629l-49 -69h-102l98 130h105l99 -130h-102zM459 500h108.001v-500h-108v72c-40.667 -56.667 -99 -85 -175 -85c-68.667 0 -127.334 25.333 -176.001 76s-73 113 -73 187s24.333 136.333 73 187s107.334 76 176.001 76c75.333 0 133.666 -28 174.999 -84v71z
M188.001 135c30 -30 67.667 -45 113 -45s83 15 113 45c30 30.667 45 69 45 115s-15 84 -45 114c-30 30.667 -67.667 46 -113 46s-83 -15.333 -113 -46c-30 -30 -45 -68 -45 -114s15 -84.333 45 -115zM436.001 655l-99 126h121l75 -126h-97z" />
    <glyph glyph-name="uni1EA8" unicode="&#x1ea8;" 
d="M526 0l-49 141h-298l-49 -141h-125l254 700h138l253 -700h-124zM217 249h222l-111 316zM326 829l-49 -69h-102l98 130h105l99 -130h-102zM433 855c0 10.667 0.329102 19.667 0.996094 27s2 13.5 4 18.5s4.83301 9.5 8.5 13.5s8.5 8.33301 14.5 13l6 4
c0.666992 0.666992 1.33398 1 2.00098 1s1.33398 0.333008 2.00098 1c0.666992 0 1.33398 0.333008 2.00098 1c2 1.33301 4.66699 3.33301 8 6s5 7.33398 5 14.001c0 4 -1.16699 7 -3.5 9s-7.16602 3 -14.499 3c-8 0 -16 -2 -24 -6s-13.667 -11.667 -17 -23l-61 26
c19.333 45.333 53.333 68 102 68c25.333 0 46.166 -6.5 62.499 -19.5s24.5 -31.833 24.5 -56.5c0 -18 -4.16699 -32.5 -12.5 -43.5s-17.166 -19.167 -26.499 -24.5c-5.33301 -2.66699 -9.5 -5.83398 -12.5 -9.50098s-3.83301 -11.167 -2.5 -22.5h-68z" />
    <glyph glyph-name="uni1EA9" unicode="&#x1ea9;" horiz-adv-x="630" 
d="M316 629l-49 -69h-102l98 130h105l99 -130h-102zM459 500h108.001v-500h-108v72c-40.667 -56.667 -99 -85 -175 -85c-68.667 0 -127.334 25.333 -176.001 76s-73 113 -73 187s24.333 136.333 73 187s107.334 76 176.001 76c75.333 0 133.666 -28 174.999 -84v71z
M188.001 135c30 -30 67.667 -45 113 -45s83 15 113 45c30 30.667 45 69 45 115s-15 84 -45 114c-30 30.667 -67.667 46 -113 46s-83 -15.333 -113 -46c-30 -30 -45 -68 -45 -114s15 -84.333 45 -115zM423.001 655c0 10.667 0.329102 19.667 0.996094 27s2 13.5 4 18.5
s4.83301 9.5 8.5 13.5s8.5 8.33301 14.5 13l6 4c0.666992 0.666992 1.33398 1 2.00098 1s1.33398 0.333008 2.00098 1c0.666992 0 1.33398 0.333008 2.00098 1c2 1.33301 4.66699 3.33301 8 6s5 7.33398 5 14.001c0 4 -1.16699 7 -3.5 9s-7.16602 3 -14.499 3
c-8 0 -16 -2 -24 -6s-13.667 -11.667 -17 -23l-61 26c19.333 45.333 53.333 68 102 68c25.333 0 46.166 -6.5 62.499 -19.5s24.5 -31.833 24.5 -56.5c0 -18 -4.16699 -32.5 -12.5 -43.5s-17.166 -19.167 -26.499 -24.5c-5.33301 -2.66699 -9.5 -5.83398 -12.5 -9.50098
s-3.83301 -11.167 -2.5 -22.5h-68z" />
    <glyph glyph-name="uni1EAA" unicode="&#x1eaa;" 
d="M526 0l-49 141h-298l-49 -141h-125l254 700h138l253 -700h-124zM217 249h222l-111 316zM326 829l-49 -69h-102l98 130h105l99 -130h-102zM178 916c0 34 4.66895 60.834 14.002 80.501s21.5 33.167 36.5 40.5s31.833 9.16602 50.5 5.49902s37.667 -11.834 57 -24.501
c19.333 -16 33.666 -22.833 42.999 -20.5s14 16.5 14 42.5h83c0 -34 -4.5 -60.833 -13.5 -80.5s-21 -33.334 -36 -41.001s-31.833 -9.66699 -50.5 -6s-37.334 11.834 -56.001 24.501c-20.667 16.667 -35.667 23.834 -45 21.501s-14 -16.5 -14 -42.5h-83z" />
    <glyph glyph-name="uni1EAB" unicode="&#x1eab;" horiz-adv-x="630" 
d="M316 629l-49 -69h-102l98 130h105l99 -130h-102zM459 500h108.001v-500h-108v72c-40.667 -56.667 -99 -85 -175 -85c-68.667 0 -127.334 25.333 -176.001 76s-73 113 -73 187s24.333 136.333 73 187s107.334 76 176.001 76c75.333 0 133.666 -28 174.999 -84v71z
M188.001 135c30 -30 67.667 -45 113 -45s83 15 113 45c30 30.667 45 69 45 115s-15 84 -45 114c-30 30.667 -67.667 46 -113 46s-83 -15.333 -113 -46c-30 -30 -45 -68 -45 -114s15 -84.333 45 -115zM168.001 716c0 34 4.66895 60.834 14.002 80.501s21.5 33.167 36.5 40.5
s31.833 9.16602 50.5 5.49902s37.667 -11.834 57 -24.501c19.333 -16 33.666 -22.833 42.999 -20.5s14 16.5 14 42.5h83c0 -34 -4.5 -60.833 -13.5 -80.5s-21 -33.334 -36 -41.001s-31.833 -9.66699 -50.5 -6s-37.334 11.834 -56.001 24.501
c-20.667 16.667 -35.667 23.834 -45 21.501s-14 -16.5 -14 -42.5h-83z" />
    <glyph glyph-name="uni1EAC" unicode="&#x1eac;" 
d="M526 0l-49 141h-298l-49 -141h-125l254 700h138l253 -700h-124zM217 249h222l-111 316zM326 829l-49 -69h-102l98 130h105l99 -130h-102zM374 -200c-13.333 -13.333 -29.001 -20 -47.001 -20s-34 6.66699 -48 20c-13.333 14 -20 30 -20 48s6.66699 33.667 20 47
s29.333 20 48 20s34.667 -6.66699 48 -20s19.833 -29 19.5 -47s-7.16602 -34 -20.499 -48z" />
    <glyph glyph-name="uni1EAD" unicode="&#x1ead;" horiz-adv-x="630" 
d="M316 629l-49 -69h-102l98 130h105l99 -130h-102zM459 500h108.001v-500h-108v72c-40.667 -56.667 -99 -85 -175 -85c-68.667 0 -127.334 25.333 -176.001 76s-73 113 -73 187s24.333 136.333 73 187s107.334 76 176.001 76c75.333 0 133.666 -28 174.999 -84v71z
M188.001 135c30 -30 67.667 -45 113 -45s83 15 113 45c30 30.667 45 69 45 115s-15 84 -45 114c-30 30.667 -67.667 46 -113 46s-83 -15.333 -113 -46c-30 -30 -45 -68 -45 -114s15 -84.333 45 -115zM337.001 -200c-13.333 -13.333 -29.001 -20 -47.001 -20
s-34 6.66699 -48 20c-13.333 14 -20 30 -20 48s6.66699 33.667 20 47s29.333 20 48 20s34.667 -6.66699 48 -20s19.833 -29 19.5 -47s-7.16602 -34 -20.499 -48z" />
    <glyph glyph-name="uni1EAE" unicode="&#x1eae;" 
d="M526 0l-49 141h-298l-49 -141h-125l254 700h138l253 -700h-124zM217 249h222l-111 316zM328 752c-46.667 0 -82.833 11.333 -108.5 34s-38.5 55 -38.5 97h91c0 -36.667 18.667 -55 56 -55c36.667 0 55 18.333 55 55h91c0 -42 -12.833 -74.333 -38.5 -97
s-61.5 -34 -107.5 -34zM357.001 1029h121l-99 -126h-96z" />
    <glyph glyph-name="uni1EAF" unicode="&#x1eaf;" horiz-adv-x="630" 
d="M321 552c-46.667 0 -82.833 11.333 -108.5 34s-38.5 55 -38.5 97h91c0 -36.667 18.667 -55 56 -55c36.667 0 55 18.333 55 55h91c0 -42 -12.833 -74.333 -38.5 -97s-61.5 -34 -107.5 -34zM459.001 500h108.001v-500h-108v72c-40.667 -56.667 -99 -85 -175 -85
c-68.667 0 -127.334 25.333 -176.001 76s-73 113 -73 187s24.333 136.333 73 187s107.334 76 176.001 76c75.333 0 133.666 -28 174.999 -84v71zM188.002 135c30 -30 67.667 -45 113 -45s83 15 113 45c30 30.667 45 69 45 115s-15 84 -45 114c-30 30.667 -67.667 46 -113 46
s-83 -15.333 -113 -46c-30 -30 -45 -68 -45 -114s15 -84.333 45 -115zM350.002 829h121l-99 -126h-96z" />
    <glyph glyph-name="uni1EB0" unicode="&#x1eb0;" 
d="M526 0l-49 141h-298l-49 -141h-125l254 700h138l253 -700h-124zM217 249h222l-111 316zM328 752c-46.667 0 -82.833 11.333 -108.5 34s-38.5 55 -38.5 97h91c0 -36.667 18.667 -55 56 -55c36.667 0 55 18.333 55 55h91c0 -42 -12.833 -74.333 -38.5 -97
s-61.5 -34 -107.5 -34zM291.001 903l-99 126h121l75 -126h-97z" />
    <glyph glyph-name="uni1EB1" unicode="&#x1eb1;" horiz-adv-x="630" 
d="M321 552c-46.667 0 -82.833 11.333 -108.5 34s-38.5 55 -38.5 97h91c0 -36.667 18.667 -55 56 -55c36.667 0 55 18.333 55 55h91c0 -42 -12.833 -74.333 -38.5 -97s-61.5 -34 -107.5 -34zM459.001 500h108.001v-500h-108v72c-40.667 -56.667 -99 -85 -175 -85
c-68.667 0 -127.334 25.333 -176.001 76s-73 113 -73 187s24.333 136.333 73 187s107.334 76 176.001 76c75.333 0 133.666 -28 174.999 -84v71zM188.002 135c30 -30 67.667 -45 113 -45s83 15 113 45c30 30.667 45 69 45 115s-15 84 -45 114c-30 30.667 -67.667 46 -113 46
s-83 -15.333 -113 -46c-30 -30 -45 -68 -45 -114s15 -84.333 45 -115zM284.002 703l-99 126h121l75 -126h-97z" />
    <glyph glyph-name="uni1EB2" unicode="&#x1eb2;" 
d="M526 0l-49 141h-298l-49 -141h-125l254 700h138l253 -700h-124zM217 249h222l-111 316zM328 752c-46.667 0 -82.833 11.333 -108.5 34s-38.5 55 -38.5 97h91c0 -36.667 18.667 -55 56 -55c36.667 0 55 18.333 55 55h91c0 -42 -12.833 -74.333 -38.5 -97
s-61.5 -34 -107.5 -34zM294.001 903c0 10.667 0.329102 19.667 0.996094 27s2 13.5 4 18.5s4.83301 9.5 8.5 13.5s8.5 8.33301 14.5 13l6 4c0.666992 0.666992 1.33398 1 2.00098 1s1.33398 0.333008 2.00098 1c0.666992 0 1.33398 0.333008 2.00098 1
c2 1.33301 4.66699 3.33301 8 6s5 7.33398 5 14.001c0 4 -1.16699 7 -3.5 9s-7.16602 3 -14.499 3c-8 0 -16 -2 -24 -6s-13.667 -11.667 -17 -23l-61 26c19.333 45.333 53.333 68 102 68c25.333 0 46.166 -6.5 62.499 -19.5s24.5 -31.833 24.5 -56.5
c0 -18 -4.16699 -32.5 -12.5 -43.5s-17.166 -19.167 -26.499 -24.5c-5.33301 -2.66699 -9.5 -5.83398 -12.5 -9.50098s-3.83301 -11.167 -2.5 -22.5h-68z" />
    <glyph glyph-name="uni1EB3" unicode="&#x1eb3;" horiz-adv-x="630" 
d="M321 552c-46.667 0 -82.833 11.333 -108.5 34s-38.5 55 -38.5 97h91c0 -36.667 18.667 -55 56 -55c36.667 0 55 18.333 55 55h91c0 -42 -12.833 -74.333 -38.5 -97s-61.5 -34 -107.5 -34zM459.001 500h108.001v-500h-108v72c-40.667 -56.667 -99 -85 -175 -85
c-68.667 0 -127.334 25.333 -176.001 76s-73 113 -73 187s24.333 136.333 73 187s107.334 76 176.001 76c75.333 0 133.666 -28 174.999 -84v71zM188.002 135c30 -30 67.667 -45 113 -45s83 15 113 45c30 30.667 45 69 45 115s-15 84 -45 114c-30 30.667 -67.667 46 -113 46
s-83 -15.333 -113 -46c-30 -30 -45 -68 -45 -114s15 -84.333 45 -115zM287.002 703c0 10.667 0.329102 19.667 0.996094 27s2 13.5 4 18.5s4.83301 9.5 8.5 13.5s8.5 8.33301 14.5 13l6 4c0.666992 0.666992 1.33398 1 2.00098 1s1.33398 0.333008 2.00098 1
c0.666992 0 1.33398 0.333008 2.00098 1c2 1.33301 4.66699 3.33301 8 6s5 7.33398 5 14.001c0 4 -1.16699 7 -3.5 9s-7.16602 3 -14.499 3c-8 0 -16 -2 -24 -6s-13.667 -11.667 -17 -23l-61 26c19.333 45.333 53.333 68 102 68c25.333 0 46.166 -6.5 62.499 -19.5
s24.5 -31.833 24.5 -56.5c0 -18 -4.16699 -32.5 -12.5 -43.5s-17.166 -19.167 -26.499 -24.5c-5.33301 -2.66699 -9.5 -5.83398 -12.5 -9.50098s-3.83301 -11.167 -2.5 -22.5h-68z" />
    <glyph glyph-name="uni1EB4" unicode="&#x1eb4;" 
d="M526 0l-49 141h-298l-49 -141h-125l254 700h138l253 -700h-124zM217 249h222l-111 316zM328 752c-46.667 0 -82.833 11.333 -108.5 34s-38.5 55 -38.5 97h91c0 -36.667 18.667 -55 56 -55c36.667 0 55 18.333 55 55h91c0 -42 -12.833 -74.333 -38.5 -97
s-61.5 -34 -107.5 -34zM181.001 907c0 34 4.66895 60.834 14.002 80.501s21.5 33.167 36.5 40.5s31.833 9.16602 50.5 5.49902s37.667 -11.834 57 -24.501c19.333 -16 33.666 -22.833 42.999 -20.5s14 16.5 14 42.5h83c0 -34 -4.5 -60.833 -13.5 -80.5
s-21 -33.334 -36 -41.001s-31.833 -9.66699 -50.5 -6s-37.334 11.834 -56.001 24.501c-20.667 16.667 -35.667 23.834 -45 21.501s-14 -16.5 -14 -42.5h-83z" />
    <glyph glyph-name="uni1EB5" unicode="&#x1eb5;" horiz-adv-x="630" 
d="M321 552c-46.667 0 -82.833 11.333 -108.5 34s-38.5 55 -38.5 97h91c0 -36.667 18.667 -55 56 -55c36.667 0 55 18.333 55 55h91c0 -42 -12.833 -74.333 -38.5 -97s-61.5 -34 -107.5 -34zM459.001 500h108.001v-500h-108v72c-40.667 -56.667 -99 -85 -175 -85
c-68.667 0 -127.334 25.333 -176.001 76s-73 113 -73 187s24.333 136.333 73 187s107.334 76 176.001 76c75.333 0 133.666 -28 174.999 -84v71zM188.002 135c30 -30 67.667 -45 113 -45s83 15 113 45c30 30.667 45 69 45 115s-15 84 -45 114c-30 30.667 -67.667 46 -113 46
s-83 -15.333 -113 -46c-30 -30 -45 -68 -45 -114s15 -84.333 45 -115zM174.002 707c0 34 4.66895 60.834 14.002 80.501s21.5 33.167 36.5 40.5s31.833 9.16602 50.5 5.49902s37.667 -11.834 57 -24.501c19.333 -16 33.666 -22.833 42.999 -20.5s14 16.5 14 42.5h83
c0 -34 -4.5 -60.833 -13.5 -80.5s-21 -33.334 -36 -41.001s-31.833 -9.66699 -50.5 -6s-37.334 11.834 -56.001 24.501c-20.667 16.667 -35.667 23.834 -45 21.501s-14 -16.5 -14 -42.5h-83z" />
    <glyph glyph-name="uni1EB6" unicode="&#x1eb6;" 
d="M526 0l-49 141h-298l-49 -141h-125l254 700h138l253 -700h-124zM217 249h222l-111 316zM328 752c-46.667 0 -82.833 11.333 -108.5 34s-38.5 55 -38.5 97h91c0 -36.667 18.667 -55 56 -55c36.667 0 55 18.333 55 55h91c0 -42 -12.833 -74.333 -38.5 -97
s-61.5 -34 -107.5 -34zM374.001 -200c-13.333 -13.333 -29.001 -20 -47.001 -20s-34 6.66699 -48 20c-13.333 14 -20 30 -20 48s6.66699 33.667 20 47s29.333 20 48 20s34.667 -6.66699 48 -20s19.833 -29 19.5 -47s-7.16602 -34 -20.499 -48z" />
    <glyph glyph-name="uni1EB7" unicode="&#x1eb7;" horiz-adv-x="630" 
d="M321 552c-46.667 0 -82.833 11.333 -108.5 34s-38.5 55 -38.5 97h91c0 -36.667 18.667 -55 56 -55c36.667 0 55 18.333 55 55h91c0 -42 -12.833 -74.333 -38.5 -97s-61.5 -34 -107.5 -34zM459.001 500h108.001v-500h-108v72c-40.667 -56.667 -99 -85 -175 -85
c-68.667 0 -127.334 25.333 -176.001 76s-73 113 -73 187s24.333 136.333 73 187s107.334 76 176.001 76c75.333 0 133.666 -28 174.999 -84v71zM188.002 135c30 -30 67.667 -45 113 -45s83 15 113 45c30 30.667 45 69 45 115s-15 84 -45 114c-30 30.667 -67.667 46 -113 46
s-83 -15.333 -113 -46c-30 -30 -45 -68 -45 -114s15 -84.333 45 -115zM337.002 -200c-13.333 -13.333 -29.001 -20 -47.001 -20s-34 6.66699 -48 20c-13.333 14 -20 30 -20 48s6.66699 33.667 20 47s29.333 20 48 20s34.667 -6.66699 48 -20s19.833 -29 19.5 -47
s-7.16602 -34 -20.499 -48z" />
    <glyph glyph-name="uni1EB8" unicode="&#x1eb8;" horiz-adv-x="530" 
d="M324 -200c-13.333 -13.333 -29.001 -20 -47.001 -20s-34 6.66699 -48 20c-13.333 14 -20 30 -20 48s6.66699 33.667 20 47s29.333 20 48 20s34.667 -6.66699 48 -20s19.833 -29 19.5 -47s-7.16602 -34 -20.499 -48zM184.999 110h310v-110h-425v700h420v-110h-305v-182
h280v-109h-280v-189z" />
    <glyph glyph-name="uni1EB9" unicode="&#x1eb9;" horiz-adv-x="582" 
d="M347 -200c-13.333 -13.333 -29.001 -20 -47.001 -20s-34 6.66699 -48 20c-13.333 14 -20 30 -20 48s6.66699 33.667 20 47s29.333 20 48 20s34.667 -6.66699 48 -20s19.833 -29 19.5 -47s-7.16602 -34 -20.499 -48zM147.999 204c8 -38 26.168 -67.168 54.501 -87.501
s63.5 -30.5 105.5 -30.5c56.667 0 99.667 20.667 129 62l89 -52c-48.667 -72.667 -121.667 -109 -219 -109c-80.667 0 -146.334 24.667 -197.001 74c-50 50 -75 113 -75 189c0 74 24.667 136.333 74 187c48.667 50.667 112 76 190 76c72.667 0 132.667 -25.667 180 -77
s71 -113.666 71 -186.999c0 -5.33301 -0.333008 -11.833 -1 -19.5s-1.66699 -16.167 -3 -25.5h-398zM441 291.999c-7.33301 40.667 -24 71.333 -50 92s-57 31 -93 31c-40 0 -73.333 -11 -100 -33s-43.667 -52 -51 -90h294z" />
    <glyph glyph-name="uni1EBA" unicode="&#x1eba;" horiz-adv-x="530" 
d="M257 760c0 12 0.495117 21.835 1.49512 29.502s2.66699 14.167 5 19.5s5.5 10.166 9.5 14.499s9 9.16602 15 14.499l6 4c0.666992 0.666992 1.33398 1 2.00098 1s1.33398 0.333008 2.00098 1c0.666992 0 1.33398 0.333008 2.00098 1
c2.66699 1.33301 5.83398 3.5 9.50098 6.5s5.5 8.16699 5.5 15.5c0 8.66699 -6.66699 13 -20 13c-8.66699 0 -17.167 -2.16699 -25.5 -6.5s-14.5 -12.833 -18.5 -25.5l-66 28c20.667 48.667 57.334 73 110.001 73c27.333 0 49.833 -7 67.5 -21s26.5 -34 26.5 -60
c0 -19.333 -4.5 -35 -13.5 -47s-18.5 -20.667 -28.5 -26c-6 -3.33301 -10.5 -7 -13.5 -11s-3.83301 -12 -2.5 -24h-74zM184.995 110.002h310v-110h-425v700h420v-110h-305v-182h280v-109h-280v-189z" />
    <glyph glyph-name="uni1EBB" unicode="&#x1ebb;" horiz-adv-x="582" 
d="M287 560c0 12 0.495117 21.835 1.49512 29.502s2.66699 14.167 5 19.5s5.5 10.166 9.5 14.499s9 9.16602 15 14.499l6 4c0.666992 0.666992 1.33398 1 2.00098 1s1.33398 0.333008 2.00098 1c0.666992 0 1.33398 0.333008 2.00098 1
c2.66699 1.33301 5.83398 3.5 9.50098 6.5s5.5 8.16699 5.5 15.5c0 8.66699 -6.66699 13 -20 13c-8.66699 0 -17.167 -2.16699 -25.5 -6.5s-14.5 -12.833 -18.5 -25.5l-66 28c20.667 48.667 57.334 73 110.001 73c27.333 0 49.833 -7 67.5 -21s26.5 -34 26.5 -60
c0 -19.333 -4.5 -35 -13.5 -47s-18.5 -20.667 -28.5 -26c-6 -3.33301 -10.5 -7 -13.5 -11s-3.83301 -12 -2.5 -24h-74zM147.995 204.002c8 -38 26.168 -67.168 54.501 -87.501s63.5 -30.5 105.5 -30.5c56.667 0 99.667 20.667 129 62l89 -52
c-48.667 -72.667 -121.667 -109 -219 -109c-80.667 0 -146.334 24.667 -197.001 74c-50 50 -75 113 -75 189c0 74 24.667 136.333 74 187c48.667 50.667 112 76 190 76c72.667 0 132.667 -25.667 180 -77s71 -113.666 71 -186.999c0 -5.33301 -0.333008 -11.833 -1 -19.5
s-1.66699 -16.167 -3 -25.5h-398zM440.996 292.001c-7.33301 40.667 -24 71.333 -50 92s-57 31 -93 31c-40 0 -73.333 -11 -100 -33s-43.667 -52 -51 -90h294z" />
    <glyph glyph-name="uni1EBC" unicode="&#x1ebc;" horiz-adv-x="530" 
d="M185 110h310v-110h-425v700h420v-110h-305v-182h280v-109h-280v-189zM121 767c0 36.667 5 65.5 15 86.5s23 35.5 39 43.5s34.167 10 54.5 6s40.5 -12.667 60.5 -26c21.333 -17.333 37 -24.833 47 -22.5s15 17.5 15 45.5h89c0 -36.667 -4.83301 -65.5 -14.5 -86.5
s-22.5 -35.5 -38.5 -43.5s-34 -10.167 -54 -6.5s-40.333 12.5 -61 26.5c-22 17.333 -38 24.833 -48 22.5s-15 -17.5 -15 -45.5h-89z" />
    <glyph glyph-name="uni1EBD" unicode="&#x1ebd;" horiz-adv-x="582" 
d="M148 204c8 -38 26.168 -67.168 54.501 -87.501s63.5 -30.5 105.5 -30.5c56.667 0 99.667 20.667 129 62l89 -52c-48.667 -72.667 -121.667 -109 -219 -109c-80.667 0 -146.334 24.667 -197.001 74c-50 50 -75 113 -75 189c0 74 24.667 136.333 74 187
c48.667 50.667 112 76 190 76c72.667 0 132.667 -25.667 180 -77s71 -113.666 71 -186.999c0 -5.33301 -0.333008 -11.833 -1 -19.5s-1.66699 -16.167 -3 -25.5h-398zM441.001 291.999c-7.33301 40.667 -24 71.333 -50 92s-57 31 -93 31c-40 0 -73.333 -11 -100 -33
s-43.667 -52 -51 -90h294zM133.001 569.998c0 36.667 5 65.5 15 86.5s23 35.5 39 43.5s34.167 10 54.5 6s40.5 -12.667 60.5 -26c21.333 -17.333 37 -24.833 47 -22.5s15 17.5 15 45.5h89c0 -36.667 -4.83301 -65.5 -14.5 -86.5s-22.5 -35.5 -38.5 -43.5
s-34 -10.167 -54 -6.5s-40.333 12.5 -61 26.5c-22 17.333 -38 24.833 -48 22.5s-15 -17.5 -15 -45.5h-89z" />
    <glyph glyph-name="uni1EBE" unicode="&#x1ebe;" horiz-adv-x="530" 
d="M279 829l-49 -69h-102l98 130h105l99 -130h-102zM185 110h310v-110h-425v700h420v-110h-305v-182h280v-109h-280v-189zM456 981h121l-99 -126h-96z" />
    <glyph glyph-name="uni1EBF" unicode="&#x1ebf;" horiz-adv-x="582" 
d="M299 632l-49 -69h-102l98 130h105l99 -130h-102zM148 204c8 -38 26.168 -67.168 54.501 -87.501s63.5 -30.5 105.5 -30.5c56.667 0 99.667 20.667 129 62l89 -52c-48.667 -72.667 -121.667 -109 -219 -109c-80.667 0 -146.334 24.667 -197.001 74c-50 50 -75 113 -75 189
c0 74 24.667 136.333 74 187c48.667 50.667 112 76 190 76c72.667 0 132.667 -25.667 180 -77s71 -113.666 71 -186.999c0 -5.33301 -0.333008 -11.833 -1 -19.5s-1.66699 -16.167 -3 -25.5h-398zM441.001 291.999c-7.33301 40.667 -24 71.333 -50 92s-57 31 -93 31
c-40 0 -73.333 -11 -100 -33s-43.667 -52 -51 -90h294zM476.001 783.998h121l-99 -126h-96z" />
    <glyph glyph-name="uni1EC0" unicode="&#x1ec0;" horiz-adv-x="530" 
d="M279 829l-49 -69h-102l98 130h105l99 -130h-102zM185 110h310v-110h-425v700h420v-110h-305v-182h280v-109h-280v-189zM399 855l-99 126h121l75 -126h-97z" />
    <glyph glyph-name="uni1EC1" unicode="&#x1ec1;" horiz-adv-x="582" 
d="M299 632l-49 -69h-102l98 130h105l99 -130h-102zM148 204c8 -38 26.168 -67.168 54.501 -87.501s63.5 -30.5 105.5 -30.5c56.667 0 99.667 20.667 129 62l89 -52c-48.667 -72.667 -121.667 -109 -219 -109c-80.667 0 -146.334 24.667 -197.001 74c-50 50 -75 113 -75 189
c0 74 24.667 136.333 74 187c48.667 50.667 112 76 190 76c72.667 0 132.667 -25.667 180 -77s71 -113.666 71 -186.999c0 -5.33301 -0.333008 -11.833 -1 -19.5s-1.66699 -16.167 -3 -25.5h-398zM441.001 291.999c-7.33301 40.667 -24 71.333 -50 92s-57 31 -93 31
c-40 0 -73.333 -11 -100 -33s-43.667 -52 -51 -90h294zM419.001 657.998l-99 126h121l75 -126h-97z" />
    <glyph glyph-name="uni1EC2" unicode="&#x1ec2;" horiz-adv-x="530" 
d="M279 829l-49 -69h-102l98 130h105l99 -130h-102zM185 110h310v-110h-425v700h420v-110h-305v-182h280v-109h-280v-189zM386 855c0 10.667 0.329102 19.667 0.996094 27s2 13.5 4 18.5s4.83301 9.5 8.5 13.5s8.5 8.33301 14.5 13l6 4
c0.666992 0.666992 1.33398 1 2.00098 1s1.33398 0.333008 2.00098 1c0.666992 0 1.33398 0.333008 2.00098 1c2 1.33301 4.66699 3.33301 8 6s5 7.33398 5 14.001c0 4 -1.16699 7 -3.5 9s-7.16602 3 -14.499 3c-8 0 -16 -2 -24 -6s-13.667 -11.667 -17 -23l-61 26
c19.333 45.333 53.333 68 102 68c25.333 0 46.166 -6.5 62.499 -19.5s24.5 -31.833 24.5 -56.5c0 -18 -4.16699 -32.5 -12.5 -43.5s-17.166 -19.167 -26.499 -24.5c-5.33301 -2.66699 -9.5 -5.83398 -12.5 -9.50098s-3.83301 -11.167 -2.5 -22.5h-68z" />
    <glyph glyph-name="uni1EC3" unicode="&#x1ec3;" horiz-adv-x="582" 
d="M299 632l-49 -69h-102l98 130h105l99 -130h-102zM148 204c8 -38 26.168 -67.168 54.501 -87.501s63.5 -30.5 105.5 -30.5c56.667 0 99.667 20.667 129 62l89 -52c-48.667 -72.667 -121.667 -109 -219 -109c-80.667 0 -146.334 24.667 -197.001 74c-50 50 -75 113 -75 189
c0 74 24.667 136.333 74 187c48.667 50.667 112 76 190 76c72.667 0 132.667 -25.667 180 -77s71 -113.666 71 -186.999c0 -5.33301 -0.333008 -11.833 -1 -19.5s-1.66699 -16.167 -3 -25.5h-398zM441.001 291.999c-7.33301 40.667 -24 71.333 -50 92s-57 31 -93 31
c-40 0 -73.333 -11 -100 -33s-43.667 -52 -51 -90h294zM406.001 657.998c0 10.667 0.329102 19.667 0.996094 27s2 13.5 4 18.5s4.83301 9.5 8.5 13.5s8.5 8.33301 14.5 13l6 4c0.666992 0.666992 1.33398 1 2.00098 1s1.33398 0.333008 2.00098 1
c0.666992 0 1.33398 0.333008 2.00098 1c2 1.33301 4.66699 3.33301 8 6s5 7.33398 5 14.001c0 4 -1.16699 7 -3.5 9s-7.16602 3 -14.499 3c-8 0 -16 -2 -24 -6s-13.667 -11.667 -17 -23l-61 26c19.333 45.333 53.333 68 102 68c25.333 0 46.166 -6.5 62.499 -19.5
s24.5 -31.833 24.5 -56.5c0 -18 -4.16699 -32.5 -12.5 -43.5s-17.166 -19.167 -26.499 -24.5c-5.33301 -2.66699 -9.5 -5.83398 -12.5 -9.50098s-3.83301 -11.167 -2.5 -22.5h-68z" />
    <glyph glyph-name="uni1EC4" unicode="&#x1ec4;" horiz-adv-x="530" 
d="M279 829l-49 -69h-102l98 130h105l99 -130h-102zM185 110h310v-110h-425v700h420v-110h-305v-182h280v-109h-280v-189zM131 916c0 34 4.66895 60.834 14.002 80.501s21.5 33.167 36.5 40.5s31.833 9.16602 50.5 5.49902s37.667 -11.834 57 -24.501
c19.333 -16 33.666 -22.833 42.999 -20.5s14 16.5 14 42.5h83c0 -34 -4.5 -60.833 -13.5 -80.5s-21 -33.334 -36 -41.001s-31.833 -9.66699 -50.5 -6s-37.334 11.834 -56.001 24.501c-20.667 16.667 -35.667 23.834 -45 21.501s-14 -16.5 -14 -42.5h-83z" />
    <glyph glyph-name="uni1EC5" unicode="&#x1ec5;" horiz-adv-x="582" 
d="M299 632l-49 -69h-102l98 130h105l99 -130h-102zM148 204c8 -38 26.168 -67.168 54.501 -87.501s63.5 -30.5 105.5 -30.5c56.667 0 99.667 20.667 129 62l89 -52c-48.667 -72.667 -121.667 -109 -219 -109c-80.667 0 -146.334 24.667 -197.001 74c-50 50 -75 113 -75 189
c0 74 24.667 136.333 74 187c48.667 50.667 112 76 190 76c72.667 0 132.667 -25.667 180 -77s71 -113.666 71 -186.999c0 -5.33301 -0.333008 -11.833 -1 -19.5s-1.66699 -16.167 -3 -25.5h-398zM441.001 291.999c-7.33301 40.667 -24 71.333 -50 92s-57 31 -93 31
c-40 0 -73.333 -11 -100 -33s-43.667 -52 -51 -90h294zM151.001 718.998c0 34 4.66895 60.834 14.002 80.501s21.5 33.167 36.5 40.5s31.833 9.16602 50.5 5.49902s37.667 -11.834 57 -24.501c19.333 -16 33.666 -22.833 42.999 -20.5s14 16.5 14 42.5h83
c0 -34 -4.5 -60.833 -13.5 -80.5s-21 -33.334 -36 -41.001s-31.833 -9.66699 -50.5 -6s-37.334 11.834 -56.001 24.501c-20.667 16.667 -35.667 23.834 -45 21.501s-14 -16.5 -14 -42.5h-83z" />
    <glyph glyph-name="uni1EC6" unicode="&#x1ec6;" horiz-adv-x="530" 
d="M279 829l-49 -69h-102l98 130h105l99 -130h-102zM185 110h310v-110h-425v700h420v-110h-305v-182h280v-109h-280v-189zM324 -200c-13.333 -13.333 -29.001 -20 -47.001 -20s-34 6.66699 -48 20c-13.333 14 -20 30 -20 48s6.66699 33.667 20 47s29.333 20 48 20
s34.667 -6.66699 48 -20s19.833 -29 19.5 -47s-7.16602 -34 -20.499 -48z" />
    <glyph glyph-name="uni1EC7" unicode="&#x1ec7;" horiz-adv-x="582" 
d="M299 632l-49 -69h-102l98 130h105l99 -130h-102zM148 204c8 -38 26.168 -67.168 54.501 -87.501s63.5 -30.5 105.5 -30.5c56.667 0 99.667 20.667 129 62l89 -52c-48.667 -72.667 -121.667 -109 -219 -109c-80.667 0 -146.334 24.667 -197.001 74c-50 50 -75 113 -75 189
c0 74 24.667 136.333 74 187c48.667 50.667 112 76 190 76c72.667 0 132.667 -25.667 180 -77s71 -113.666 71 -186.999c0 -5.33301 -0.333008 -11.833 -1 -19.5s-1.66699 -16.167 -3 -25.5h-398zM441.001 291.999c-7.33301 40.667 -24 71.333 -50 92s-57 31 -93 31
c-40 0 -73.333 -11 -100 -33s-43.667 -52 -51 -90h294zM347.001 -200.002c-13.333 -13.333 -29.001 -20 -47.001 -20s-34 6.66699 -48 20c-13.333 14 -20 30 -20 48s6.66699 33.667 20 47s29.333 20 48 20s34.667 -6.66699 48 -20s19.833 -29 19.5 -47
s-7.16602 -34 -20.499 -48z" />
    <glyph glyph-name="uni1EC8" unicode="&#x1ec8;" horiz-adv-x="255" 
d="M89 760c0 12 0.495117 21.835 1.49512 29.502s2.66699 14.167 5 19.5s5.5 10.166 9.5 14.499s9 9.16602 15 14.499l6 4c0.666992 0.666992 1.33398 1 2.00098 1s1.33398 0.333008 2.00098 1c0.666992 0 1.33398 0.333008 2.00098 1
c2.66699 1.33301 5.83398 3.5 9.50098 6.5s5.5 8.16699 5.5 15.5c0 8.66699 -6.66699 13 -20 13c-8.66699 0 -17.167 -2.16699 -25.5 -6.5s-14.5 -12.833 -18.5 -25.5l-66 28c20.667 48.667 57.334 73 110.001 73c27.333 0 49.833 -7 67.5 -21s26.5 -34 26.5 -60
c0 -19.333 -4.5 -35 -13.5 -47s-18.5 -20.667 -28.5 -26c-6 -3.33301 -10.5 -7 -13.5 -11s-3.83301 -12 -2.5 -24h-74zM69.9951 700.002h115v-700h-115v700z" />
    <glyph glyph-name="uni1EC9" unicode="&#x1ec9;" horiz-adv-x="233" 
d="M63 0v500h108v-500h-108zM81 560c0 12 0.495117 21.835 1.49512 29.502s2.66699 14.167 5 19.5s5.5 10.166 9.5 14.499s9 9.16602 15 14.499l6 4c0.666992 0.666992 1.33398 1 2.00098 1s1.33398 0.333008 2.00098 1c0.666992 0 1.33398 0.333008 2.00098 1
c2.66699 1.33301 5.83398 3.5 9.50098 6.5s5.5 8.16699 5.5 15.5c0 8.66699 -6.66699 13 -20 13c-8.66699 0 -17.167 -2.16699 -25.5 -6.5s-14.5 -12.833 -18.5 -25.5l-66 28c20.667 48.667 57.334 73 110.001 73c27.333 0 49.833 -7 67.5 -21s26.5 -34 26.5 -60
c0 -19.333 -4.5 -35 -13.5 -47s-18.5 -20.667 -28.5 -26c-6 -3.33301 -10.5 -7 -13.5 -11s-3.83301 -12 -2.5 -24h-74z" />
    <glyph glyph-name="uni1ECA" unicode="&#x1eca;" horiz-adv-x="255" 
d="M177 -200c-13.333 -13.333 -29.001 -20 -47.001 -20s-34 6.66699 -48 20c-13.333 14 -20 30 -20 48s6.66699 33.667 20 47s29.333 20 48 20s34.667 -6.66699 48 -20s19.833 -29 19.5 -47s-7.16602 -34 -20.499 -48zM69.999 700h115v-700h-115v700z" />
    <glyph glyph-name="uni1ECB" unicode="&#x1ecb;" horiz-adv-x="233" 
d="M165 -200c-13.333 -13.333 -29.001 -20 -47.001 -20s-34 6.66699 -48 20c-13.333 14 -20 30 -20 48s6.66699 33.667 20 47s29.333 20 48 20s34.667 -6.66699 48 -20s19.833 -29 19.5 -47s-7.16602 -34 -20.499 -48zM163.999 578c-13.333 -13.333 -29.001 -20 -47.001 -20
s-34 6.66699 -48 20c-13.333 14 -20 30 -20 48s6.66699 33.667 20 47s29.333 20 48 20s34.667 -6.66699 48 -20s19.833 -29 19.5 -47s-7.16602 -34 -20.499 -48zM62.998 0v500h108v-500h-108z" />
    <glyph glyph-name="uni1ECC" unicode="&#x1ecc;" horiz-adv-x="796" 
d="M655 92c-70 -70 -155.667 -105 -257 -105s-187.333 35 -258 105c-70 70.667 -105 156.667 -105 258s35 187 105 257c70.667 70.667 156.667 106 258 106s187 -35.333 257 -106c70.667 -70 106 -155.667 106 -257s-35.333 -187.333 -106 -258zM221 170
c48.667 -47.333 107.667 -71 177 -71c70 0 128.667 23.667 176 71c48 48 72 108 72 180s-24 131.667 -72 179c-47.333 48 -106 72 -176 72s-129 -24 -177 -72c-47.333 -47.333 -71 -107 -71 -179c0 -71.333 23.667 -131.333 71 -180zM446 -200
c-13.333 -13.333 -29.001 -20 -47.001 -20s-34 6.66699 -48 20c-13.333 14 -20 30 -20 48s6.66699 33.667 20 47s29.333 20 48 20s34.667 -6.66699 48 -20s19.833 -29 19.5 -47s-7.16602 -34 -20.499 -48z" />
    <glyph glyph-name="uni1ECD" unicode="&#x1ecd;" horiz-adv-x="598" 
d="M299 -13c-74 0 -136.333 25.333 -187 76c-51.333 51.333 -77 113.666 -77 186.999s25.667 135.666 77 186.999c50.667 50.667 113 76 187 76s136.333 -25.333 187 -76c51.333 -51.333 77 -113.666 77 -186.999s-25.667 -135.666 -77 -186.999
c-50.667 -50.667 -113 -76 -187 -76zM188 137c30 -30 67 -45 111 -45s81 15 111 45s45 67.667 45 113s-15 83 -45 113s-67 45 -111 45s-81 -15 -111 -45s-45 -67.667 -45 -113s15 -83 45 -113zM347 -200c-13.333 -13.333 -29.001 -20 -47.001 -20s-34 6.66699 -48 20
c-13.333 14 -20 30 -20 48s6.66699 33.667 20 47s29.333 20 48 20s34.667 -6.66699 48 -20s19.833 -29 19.5 -47s-7.16602 -34 -20.499 -48z" />
    </font>
</defs>
</svg>
